%TF.GenerationSoftware,KiCad,Pcbnew,(6.0.9-0)*%
%TF.CreationDate,2022-11-16T11:59:38+01:00*%
%TF.ProjectId,GlowBand Dock PCB,476c6f77-4261-46e6-9420-446f636b2050,rev?*%
%TF.SameCoordinates,Original*%
%TF.FileFunction,Copper,L2,Bot*%
%TF.FilePolarity,Positive*%
%FSLAX46Y46*%
G04 Gerber Fmt 4.6, Leading zero omitted, Abs format (unit mm)*
G04 Created by KiCad (PCBNEW (6.0.9-0)) date 2022-11-16 11:59:38*
%MOMM*%
%LPD*%
G01*
G04 APERTURE LIST*
%TA.AperFunction,ComponentPad*%
%ADD10C,1.200000*%
%TD*%
%TA.AperFunction,ComponentPad*%
%ADD11C,1.900000*%
%TD*%
%TA.AperFunction,ViaPad*%
%ADD12C,1.300000*%
%TD*%
%TA.AperFunction,ViaPad*%
%ADD13C,0.800000*%
%TD*%
%TA.AperFunction,Conductor*%
%ADD14C,1.000000*%
%TD*%
%TA.AperFunction,Conductor*%
%ADD15C,0.250000*%
%TD*%
%TA.AperFunction,Conductor*%
%ADD16C,0.150000*%
%TD*%
%TA.AperFunction,Conductor*%
%ADD17C,0.200000*%
%TD*%
G04 APERTURE END LIST*
D10*
%TO.P,U2,0,EH*%
%TO.N,GND*%
X97151511Y-72981574D03*
X101951613Y-68681600D03*
X101951613Y-72981574D03*
X97151511Y-68681600D03*
%TD*%
D11*
%TO.P,P1,1*%
%TO.N,VBUS*%
X94294013Y-62392187D03*
%TO.P,P1,2*%
%TO.N,GND*%
X96494013Y-62392187D03*
%TO.P,P1,3*%
%TO.N,RXD0*%
X98694013Y-62392187D03*
%TO.P,P1,4*%
%TO.N,TXD0*%
X100894013Y-62392187D03*
%TO.P,P1,5*%
%TO.N,IO0*%
X103094013Y-62392187D03*
%TO.P,P1,6*%
%TO.N,EN*%
X105294013Y-62392187D03*
%TD*%
D12*
%TO.N,*%
X111506000Y-60604400D03*
X88188800Y-60477400D03*
D13*
%TO.N,GND*%
X88188800Y-66294000D03*
X88087200Y-62433200D03*
X94725613Y-68901187D03*
X93980000Y-67614800D03*
X90779600Y-71018400D03*
X90982800Y-60350400D03*
X101904800Y-60350400D03*
%TO.N,VBUS*%
X98129213Y-65091187D03*
X111195613Y-70334387D03*
%TO.N,RXD0*%
X103463213Y-66615187D03*
%TO.N,USB-C CC1*%
X103107613Y-69166887D03*
X99022512Y-66644886D03*
%TO.N,USB-C CC2*%
X100466013Y-72863587D03*
X103768013Y-72558787D03*
%TO.N,RTS*%
X105139613Y-66107187D03*
X110829213Y-63363987D03*
%TO.N,DTR*%
X104530013Y-68075087D03*
X111896013Y-62754387D03*
%TO.N,USB-C DATA+*%
X99348413Y-72761987D03*
X106816013Y-71593587D03*
X99277869Y-67854131D03*
%TO.N,USB-C DATA-*%
X100008813Y-68799587D03*
X106968413Y-72609587D03*
%TD*%
D14*
%TO.N,GND*%
X96494013Y-62392187D02*
X96494013Y-68024102D01*
X94945200Y-68681600D02*
X94725613Y-68901187D01*
X97151511Y-68681600D02*
X94945200Y-68681600D01*
X96494013Y-68024102D02*
X97151511Y-68681600D01*
D15*
%TO.N,VBUS*%
X98129213Y-65091187D02*
X100567613Y-65091187D01*
X103920413Y-68799587D02*
X109660813Y-68799587D01*
X109660813Y-68799587D02*
X111195613Y-70334387D01*
X103666413Y-68545587D02*
X103920413Y-68799587D01*
X103666413Y-68189987D02*
X103666413Y-68545587D01*
X100567613Y-65091187D02*
X103666413Y-68189987D01*
D16*
%TO.N,RXD0*%
X98694013Y-63369987D02*
X98694013Y-62392187D01*
X99602413Y-64278387D02*
X98694013Y-63369987D01*
X101126413Y-64278387D02*
X99602413Y-64278387D01*
X103463213Y-66615187D02*
X101126413Y-64278387D01*
%TO.N,USB-C CC1*%
X103107613Y-68494787D02*
X101228013Y-66615187D01*
X99052211Y-66615187D02*
X99022512Y-66644886D01*
X103107613Y-69166887D02*
X103107613Y-68494787D01*
X101228013Y-66615187D02*
X99052211Y-66615187D01*
%TO.N,USB-C CC2*%
X102498013Y-72253987D02*
X102802813Y-72558787D01*
X101939213Y-71999987D02*
X102244013Y-71999987D01*
X101329613Y-71999987D02*
X101939213Y-71999987D01*
X102244013Y-71999987D02*
X102498013Y-72253987D01*
X102802813Y-72558787D02*
X103768013Y-72558787D01*
X100466013Y-72863587D02*
X101329613Y-71999987D01*
D15*
%TO.N,RTS*%
X108289213Y-65903987D02*
X110829213Y-63363987D01*
X105139613Y-66107187D02*
X105342813Y-65903987D01*
X105342813Y-65903987D02*
X108289213Y-65903987D01*
%TO.N,DTR*%
X104530013Y-68075087D02*
X104567513Y-68037587D01*
X111896013Y-64938787D02*
X111896013Y-62754387D01*
X108797213Y-68037587D02*
X111896013Y-64938787D01*
X104567513Y-68037587D02*
X108797213Y-68037587D01*
D16*
%TO.N,USB-C DATA+*%
X100872413Y-68951987D02*
X100872413Y-68393187D01*
D17*
X98840413Y-72253987D02*
X98840413Y-68291587D01*
X98840413Y-68291587D02*
X99277869Y-67854131D01*
D16*
X106816013Y-71593587D02*
X105139613Y-69917187D01*
X100333357Y-67854131D02*
X99277869Y-67854131D01*
X100872413Y-68393187D02*
X100333357Y-67854131D01*
X101837613Y-69917187D02*
X100872413Y-68951987D01*
X105139613Y-69917187D02*
X101837613Y-69917187D01*
D17*
X99348413Y-72761987D02*
X98840413Y-72253987D01*
D16*
%TO.N,USB-C DATA-*%
X105088813Y-72304787D02*
X106968413Y-72304787D01*
D17*
X99976126Y-68832274D02*
X99976126Y-69020900D01*
D16*
X104377613Y-71593587D02*
X105088813Y-72304787D01*
X99976126Y-69020900D02*
X102548813Y-71593587D01*
X102548813Y-71593587D02*
X104377613Y-71593587D01*
D17*
X106968413Y-72304787D02*
X106968413Y-72609587D01*
X100008813Y-68799587D02*
X99976126Y-68832274D01*
%TD*%
%TA.AperFunction,Conductor*%
%TO.N,GND*%
G36*
X111055584Y-59320489D02*
G01*
X111102077Y-59374145D01*
X111112181Y-59444419D01*
X111082687Y-59508999D01*
X111031075Y-59544698D01*
X111005116Y-59554275D01*
X110822134Y-59663139D01*
X110662054Y-59803525D01*
X110530238Y-59970733D01*
X110527549Y-59975844D01*
X110527547Y-59975847D01*
X110483034Y-60060452D01*
X110431100Y-60159162D01*
X110429386Y-60164683D01*
X110429384Y-60164687D01*
X110396333Y-60271130D01*
X110367961Y-60362502D01*
X110342936Y-60573944D01*
X110356861Y-60786406D01*
X110358282Y-60792002D01*
X110358283Y-60792007D01*
X110405097Y-60976334D01*
X110409272Y-60992772D01*
X110411689Y-60998015D01*
X110482594Y-61151820D01*
X110498411Y-61186131D01*
X110621296Y-61360009D01*
X110773809Y-61508581D01*
X110778605Y-61511786D01*
X110778608Y-61511788D01*
X110888469Y-61585194D01*
X110950843Y-61626871D01*
X110956146Y-61629149D01*
X110956149Y-61629151D01*
X111122473Y-61700609D01*
X111146470Y-61710919D01*
X111354138Y-61757909D01*
X111354583Y-61757926D01*
X111417928Y-61785951D01*
X111457017Y-61845218D01*
X111457860Y-61916210D01*
X111420187Y-61976387D01*
X111410615Y-61984082D01*
X111284760Y-62075521D01*
X111280339Y-62080431D01*
X111280338Y-62080432D01*
X111210216Y-62158311D01*
X111156973Y-62217443D01*
X111061486Y-62382831D01*
X111060955Y-62384465D01*
X111016147Y-62437179D01*
X110948219Y-62457827D01*
X110933854Y-62457143D01*
X110931158Y-62456860D01*
X110924700Y-62455487D01*
X110733726Y-62455487D01*
X110727274Y-62456859D01*
X110727269Y-62456859D01*
X110640325Y-62475340D01*
X110546925Y-62495193D01*
X110540895Y-62497878D01*
X110540894Y-62497878D01*
X110378491Y-62570184D01*
X110378489Y-62570185D01*
X110372461Y-62572869D01*
X110217960Y-62685121D01*
X110213539Y-62690031D01*
X110213538Y-62690032D01*
X110153487Y-62756726D01*
X110090173Y-62827043D01*
X109994686Y-62992431D01*
X109935671Y-63174059D01*
X109934981Y-63180620D01*
X109934981Y-63180622D01*
X109918306Y-63339279D01*
X109891293Y-63404936D01*
X109882091Y-63415204D01*
X108063713Y-65233582D01*
X108001401Y-65267608D01*
X107974618Y-65270487D01*
X105520768Y-65270487D01*
X105469520Y-65259594D01*
X105427937Y-65241080D01*
X105427934Y-65241079D01*
X105421901Y-65238393D01*
X105380273Y-65229545D01*
X105241557Y-65200059D01*
X105241552Y-65200059D01*
X105235100Y-65198687D01*
X105044126Y-65198687D01*
X105037674Y-65200059D01*
X105037669Y-65200059D01*
X104954216Y-65217798D01*
X104857325Y-65238393D01*
X104851295Y-65241078D01*
X104851294Y-65241078D01*
X104688891Y-65313384D01*
X104688889Y-65313385D01*
X104682861Y-65316069D01*
X104528360Y-65428321D01*
X104400573Y-65570243D01*
X104397272Y-65575961D01*
X104311405Y-65724687D01*
X104305086Y-65735631D01*
X104275090Y-65827950D01*
X104261878Y-65868611D01*
X104221804Y-65927217D01*
X104156408Y-65954854D01*
X104086451Y-65942747D01*
X104067984Y-65931611D01*
X103925307Y-65827950D01*
X103925306Y-65827949D01*
X103919965Y-65824069D01*
X103913937Y-65821385D01*
X103913935Y-65821384D01*
X103751532Y-65749078D01*
X103751531Y-65749078D01*
X103745501Y-65746393D01*
X103643383Y-65724687D01*
X103565157Y-65708059D01*
X103565152Y-65708059D01*
X103558700Y-65706687D01*
X103432096Y-65706687D01*
X103363975Y-65686685D01*
X103343001Y-65669782D01*
X101571895Y-63898676D01*
X101561033Y-63886292D01*
X101545062Y-63865478D01*
X101519464Y-63799259D01*
X101533730Y-63729710D01*
X101589592Y-63675628D01*
X101643387Y-63649274D01*
X101647592Y-63646274D01*
X101647598Y-63646271D01*
X101749261Y-63573755D01*
X101838640Y-63510002D01*
X101902119Y-63446745D01*
X101964490Y-63412829D01*
X102035296Y-63418017D01*
X102071543Y-63439052D01*
X102144629Y-63499729D01*
X102254584Y-63591015D01*
X102461656Y-63712018D01*
X102685710Y-63797576D01*
X102690776Y-63798607D01*
X102690777Y-63798607D01*
X102744948Y-63809628D01*
X102920729Y-63845391D01*
X103056277Y-63850361D01*
X103155238Y-63853990D01*
X103155242Y-63853990D01*
X103160402Y-63854179D01*
X103165522Y-63853523D01*
X103165524Y-63853523D01*
X103393164Y-63824362D01*
X103393165Y-63824362D01*
X103398292Y-63823705D01*
X103445213Y-63809628D01*
X103623055Y-63756273D01*
X103623060Y-63756271D01*
X103628010Y-63754786D01*
X103843387Y-63649274D01*
X103847592Y-63646274D01*
X103847598Y-63646271D01*
X103949261Y-63573755D01*
X104038640Y-63510002D01*
X104102119Y-63446745D01*
X104164490Y-63412829D01*
X104235296Y-63418017D01*
X104271543Y-63439052D01*
X104344629Y-63499729D01*
X104454584Y-63591015D01*
X104661656Y-63712018D01*
X104885710Y-63797576D01*
X104890776Y-63798607D01*
X104890777Y-63798607D01*
X104944948Y-63809628D01*
X105120729Y-63845391D01*
X105256277Y-63850361D01*
X105355238Y-63853990D01*
X105355242Y-63853990D01*
X105360402Y-63854179D01*
X105365522Y-63853523D01*
X105365524Y-63853523D01*
X105593164Y-63824362D01*
X105593165Y-63824362D01*
X105598292Y-63823705D01*
X105645213Y-63809628D01*
X105823055Y-63756273D01*
X105823060Y-63756271D01*
X105828010Y-63754786D01*
X106043387Y-63649274D01*
X106047592Y-63646274D01*
X106047598Y-63646271D01*
X106149261Y-63573755D01*
X106238640Y-63510002D01*
X106408524Y-63340710D01*
X106548476Y-63145945D01*
X106592704Y-63056458D01*
X106652446Y-62935579D01*
X106652447Y-62935577D01*
X106654740Y-62930937D01*
X106724460Y-62701461D01*
X106755765Y-62463679D01*
X106757512Y-62392187D01*
X106751014Y-62313157D01*
X106738284Y-62158311D01*
X106738283Y-62158305D01*
X106737860Y-62153160D01*
X106679433Y-61920551D01*
X106677377Y-61915821D01*
X106677374Y-61915814D01*
X106585860Y-61705346D01*
X106585858Y-61705343D01*
X106583800Y-61700609D01*
X106566587Y-61674001D01*
X106456338Y-61503583D01*
X106456336Y-61503580D01*
X106453528Y-61499240D01*
X106424593Y-61467440D01*
X106295595Y-61325674D01*
X106295593Y-61325672D01*
X106292117Y-61321852D01*
X106288066Y-61318653D01*
X106288062Y-61318649D01*
X106134262Y-61197186D01*
X106103901Y-61173208D01*
X105893935Y-61057300D01*
X105757859Y-61009113D01*
X105672733Y-60978968D01*
X105672729Y-60978967D01*
X105667858Y-60977242D01*
X105662765Y-60976335D01*
X105662762Y-60976334D01*
X105436829Y-60936089D01*
X105436823Y-60936088D01*
X105431740Y-60935183D01*
X105344473Y-60934117D01*
X105197094Y-60932316D01*
X105197092Y-60932316D01*
X105191924Y-60932253D01*
X104954850Y-60968530D01*
X104726884Y-61043041D01*
X104514149Y-61153784D01*
X104510016Y-61156887D01*
X104510013Y-61156889D01*
X104361050Y-61268734D01*
X104322358Y-61297785D01*
X104318786Y-61301523D01*
X104286551Y-61335255D01*
X104225027Y-61370685D01*
X104154114Y-61367228D01*
X104102263Y-61333002D01*
X104092117Y-61321852D01*
X104088066Y-61318653D01*
X104088062Y-61318649D01*
X103934262Y-61197186D01*
X103903901Y-61173208D01*
X103693935Y-61057300D01*
X103557859Y-61009113D01*
X103472733Y-60978968D01*
X103472729Y-60978967D01*
X103467858Y-60977242D01*
X103462765Y-60976335D01*
X103462762Y-60976334D01*
X103236829Y-60936089D01*
X103236823Y-60936088D01*
X103231740Y-60935183D01*
X103144473Y-60934117D01*
X102997094Y-60932316D01*
X102997092Y-60932316D01*
X102991924Y-60932253D01*
X102754850Y-60968530D01*
X102526884Y-61043041D01*
X102314149Y-61153784D01*
X102310016Y-61156887D01*
X102310013Y-61156889D01*
X102161050Y-61268734D01*
X102122358Y-61297785D01*
X102118786Y-61301523D01*
X102086551Y-61335255D01*
X102025027Y-61370685D01*
X101954114Y-61367228D01*
X101902263Y-61333002D01*
X101892117Y-61321852D01*
X101888066Y-61318653D01*
X101888062Y-61318649D01*
X101734262Y-61197186D01*
X101703901Y-61173208D01*
X101493935Y-61057300D01*
X101357859Y-61009113D01*
X101272733Y-60978968D01*
X101272729Y-60978967D01*
X101267858Y-60977242D01*
X101262765Y-60976335D01*
X101262762Y-60976334D01*
X101036829Y-60936089D01*
X101036823Y-60936088D01*
X101031740Y-60935183D01*
X100944473Y-60934117D01*
X100797094Y-60932316D01*
X100797092Y-60932316D01*
X100791924Y-60932253D01*
X100554850Y-60968530D01*
X100326884Y-61043041D01*
X100114149Y-61153784D01*
X100110016Y-61156887D01*
X100110013Y-61156889D01*
X99961050Y-61268734D01*
X99922358Y-61297785D01*
X99918786Y-61301523D01*
X99886551Y-61335255D01*
X99825027Y-61370685D01*
X99754114Y-61367228D01*
X99702263Y-61333002D01*
X99692117Y-61321852D01*
X99688066Y-61318653D01*
X99688062Y-61318649D01*
X99534262Y-61197186D01*
X99503901Y-61173208D01*
X99293935Y-61057300D01*
X99157859Y-61009113D01*
X99072733Y-60978968D01*
X99072729Y-60978967D01*
X99067858Y-60977242D01*
X99062765Y-60976335D01*
X99062762Y-60976334D01*
X98836829Y-60936089D01*
X98836823Y-60936088D01*
X98831740Y-60935183D01*
X98744473Y-60934117D01*
X98597094Y-60932316D01*
X98597092Y-60932316D01*
X98591924Y-60932253D01*
X98354850Y-60968530D01*
X98126884Y-61043041D01*
X97914149Y-61153784D01*
X97910016Y-61156887D01*
X97910013Y-61156889D01*
X97761050Y-61268734D01*
X97722358Y-61297785D01*
X97718786Y-61301523D01*
X97590048Y-61436240D01*
X97556661Y-61471177D01*
X97553747Y-61475449D01*
X97553746Y-61475450D01*
X97509525Y-61540276D01*
X97421508Y-61669304D01*
X97406977Y-61700609D01*
X97322706Y-61882152D01*
X97322704Y-61882157D01*
X97320529Y-61886843D01*
X97319147Y-61891827D01*
X97314797Y-61907512D01*
X97282475Y-61962935D01*
X96866035Y-62379375D01*
X96858421Y-62393319D01*
X96858552Y-62395152D01*
X96862803Y-62401767D01*
X97283957Y-62822921D01*
X97311604Y-62864611D01*
X97385765Y-63047246D01*
X97385769Y-63047254D01*
X97387715Y-63052046D01*
X97390415Y-63056452D01*
X97390418Y-63056458D01*
X97456590Y-63164441D01*
X97513027Y-63256538D01*
X97670056Y-63437817D01*
X97854584Y-63591015D01*
X98061656Y-63712018D01*
X98277892Y-63794591D01*
X98322037Y-63823205D01*
X98504048Y-64005216D01*
X98538074Y-64067528D01*
X98533009Y-64138343D01*
X98490462Y-64195179D01*
X98423942Y-64219990D01*
X98388756Y-64217558D01*
X98231157Y-64184059D01*
X98231152Y-64184059D01*
X98224700Y-64182687D01*
X98033726Y-64182687D01*
X98027274Y-64184059D01*
X98027269Y-64184059D01*
X97940325Y-64202540D01*
X97846925Y-64222393D01*
X97840895Y-64225078D01*
X97840894Y-64225078D01*
X97678491Y-64297384D01*
X97678489Y-64297385D01*
X97672461Y-64300069D01*
X97517960Y-64412321D01*
X97390173Y-64554243D01*
X97386872Y-64559961D01*
X97310458Y-64692314D01*
X97294686Y-64719631D01*
X97235671Y-64901259D01*
X97234981Y-64907820D01*
X97234981Y-64907822D01*
X97226486Y-64988645D01*
X97215709Y-65091187D01*
X97216399Y-65097752D01*
X97234182Y-65266944D01*
X97235671Y-65281115D01*
X97294686Y-65462743D01*
X97390173Y-65628131D01*
X97517960Y-65770053D01*
X97672461Y-65882305D01*
X97678489Y-65884989D01*
X97678491Y-65884990D01*
X97840894Y-65957296D01*
X97846925Y-65959981D01*
X97940325Y-65979834D01*
X98027269Y-65998315D01*
X98027274Y-65998315D01*
X98033726Y-65999687D01*
X98127735Y-65999687D01*
X98195856Y-66019689D01*
X98242349Y-66073345D01*
X98252453Y-66143619D01*
X98236854Y-66188686D01*
X98187985Y-66273330D01*
X98128970Y-66454958D01*
X98128280Y-66461519D01*
X98128280Y-66461521D01*
X98118824Y-66551494D01*
X98109008Y-66644886D01*
X98109698Y-66651451D01*
X98125849Y-66805115D01*
X98128970Y-66834814D01*
X98187985Y-67016442D01*
X98283472Y-67181830D01*
X98287890Y-67186737D01*
X98287891Y-67186738D01*
X98373021Y-67281284D01*
X98411259Y-67323752D01*
X98416601Y-67327633D01*
X98417447Y-67328395D01*
X98454683Y-67388843D01*
X98453327Y-67459827D01*
X98448238Y-67473275D01*
X98446643Y-67476858D01*
X98443342Y-67482575D01*
X98441303Y-67488851D01*
X98441301Y-67488855D01*
X98414169Y-67572359D01*
X98384327Y-67664203D01*
X98383637Y-67670764D01*
X98383637Y-67670766D01*
X98375450Y-67748664D01*
X98364365Y-67854131D01*
X98365055Y-67860696D01*
X98365055Y-67867302D01*
X98362326Y-67867302D01*
X98351714Y-67925262D01*
X98339154Y-67945269D01*
X98308889Y-67984711D01*
X98305730Y-67992339D01*
X98305727Y-67992343D01*
X98283711Y-68045496D01*
X98239163Y-68100778D01*
X98171800Y-68123199D01*
X98103009Y-68105641D01*
X98096697Y-68101418D01*
X98083960Y-68108362D01*
X97523532Y-68668789D01*
X97515919Y-68682732D01*
X97516050Y-68684566D01*
X97520301Y-68691180D01*
X98081750Y-69252628D01*
X98095687Y-69260238D01*
X98096923Y-69260150D01*
X98166297Y-69275241D01*
X98216500Y-69325443D01*
X98231913Y-69385829D01*
X98231913Y-72205851D01*
X98230835Y-72222294D01*
X98226663Y-72253987D01*
X98227741Y-72262176D01*
X98227741Y-72270432D01*
X98225322Y-72270432D01*
X98216278Y-72328394D01*
X98169145Y-72381488D01*
X98100789Y-72400672D01*
X98098217Y-72400563D01*
X98083960Y-72408336D01*
X97240606Y-73251689D01*
X97178294Y-73285714D01*
X97107478Y-73280649D01*
X97062416Y-73251689D01*
X96220049Y-72409323D01*
X96207674Y-72402566D01*
X96201708Y-72407032D01*
X96126156Y-72550632D01*
X96121753Y-72561265D01*
X96064792Y-72744706D01*
X96062402Y-72755950D01*
X96039824Y-72946711D01*
X96039523Y-72958212D01*
X96052086Y-73149878D01*
X96053887Y-73161248D01*
X96101168Y-73347417D01*
X96105009Y-73358264D01*
X96185424Y-73532699D01*
X96188305Y-73537688D01*
X96205042Y-73606684D01*
X96181821Y-73673775D01*
X96126013Y-73717662D01*
X96079185Y-73726687D01*
X87079713Y-73726687D01*
X87011592Y-73706685D01*
X86965099Y-73653029D01*
X86953713Y-73600687D01*
X86953713Y-72040249D01*
X96574299Y-72040249D01*
X96577786Y-72048638D01*
X97138700Y-72609553D01*
X97152643Y-72617166D01*
X97154477Y-72617035D01*
X97161091Y-72612784D01*
X97721796Y-72052078D01*
X97728553Y-72039703D01*
X97722523Y-72031647D01*
X97661572Y-71993190D01*
X97651324Y-71987969D01*
X97472912Y-71916790D01*
X97461884Y-71913523D01*
X97273493Y-71876050D01*
X97262046Y-71874847D01*
X97069988Y-71872333D01*
X97058508Y-71873236D01*
X96869208Y-71905764D01*
X96858088Y-71908744D01*
X96677876Y-71975227D01*
X96667502Y-71980175D01*
X96583896Y-72029916D01*
X96574299Y-72040249D01*
X86953713Y-72040249D01*
X86953713Y-70924574D01*
X94917993Y-70924574D01*
X94919365Y-70931027D01*
X94919365Y-70931031D01*
X94933475Y-70997411D01*
X94956606Y-71106236D01*
X94959291Y-71112266D01*
X94959291Y-71112267D01*
X95017447Y-71242887D01*
X95032145Y-71275900D01*
X95036025Y-71281241D01*
X95036026Y-71281242D01*
X95120406Y-71397381D01*
X95141309Y-71426152D01*
X95146219Y-71430573D01*
X95146220Y-71430574D01*
X95191317Y-71471179D01*
X95279326Y-71550423D01*
X95328484Y-71578804D01*
X95400309Y-71620272D01*
X95440165Y-71643283D01*
X95446451Y-71645325D01*
X95446450Y-71645325D01*
X95610517Y-71698634D01*
X95610519Y-71698634D01*
X95616796Y-71700674D01*
X95623359Y-71701364D01*
X95623360Y-71701364D01*
X95647556Y-71703907D01*
X95755192Y-71715220D01*
X95847806Y-71715220D01*
X95955442Y-71703907D01*
X95979638Y-71701364D01*
X95979639Y-71701364D01*
X95986202Y-71700674D01*
X95992479Y-71698634D01*
X95992481Y-71698634D01*
X96156548Y-71645325D01*
X96156547Y-71645325D01*
X96162833Y-71643283D01*
X96202690Y-71620272D01*
X96274514Y-71578804D01*
X96323672Y-71550423D01*
X96411682Y-71471179D01*
X96456778Y-71430574D01*
X96456779Y-71430573D01*
X96461689Y-71426152D01*
X96472370Y-71411452D01*
X96566972Y-71281243D01*
X96566973Y-71281242D01*
X96570853Y-71275901D01*
X96574172Y-71268448D01*
X96643705Y-71112272D01*
X96643707Y-71112267D01*
X96646392Y-71106236D01*
X96669523Y-70997411D01*
X96683633Y-70931031D01*
X96683633Y-70931027D01*
X96685005Y-70924574D01*
X96685005Y-70738854D01*
X96683075Y-70729770D01*
X96662794Y-70634359D01*
X96646392Y-70557192D01*
X96643705Y-70551156D01*
X96573538Y-70393558D01*
X96573537Y-70393556D01*
X96570853Y-70387528D01*
X96461689Y-70237276D01*
X96323672Y-70113005D01*
X96162833Y-70020145D01*
X96088372Y-69995951D01*
X95992481Y-69964794D01*
X95992479Y-69964794D01*
X95986202Y-69962754D01*
X95979639Y-69962064D01*
X95979638Y-69962064D01*
X95955442Y-69959521D01*
X95847806Y-69948208D01*
X95755192Y-69948208D01*
X95647556Y-69959521D01*
X95623360Y-69962064D01*
X95623359Y-69962064D01*
X95616796Y-69962754D01*
X95610519Y-69964794D01*
X95610517Y-69964794D01*
X95514626Y-69995951D01*
X95440165Y-70020145D01*
X95279326Y-70113005D01*
X95141309Y-70237276D01*
X95137428Y-70242618D01*
X95137426Y-70242620D01*
X95065984Y-70340952D01*
X95032145Y-70387527D01*
X95029461Y-70393556D01*
X95029459Y-70393559D01*
X94959293Y-70551156D01*
X94956606Y-70557192D01*
X94955234Y-70563649D01*
X94955233Y-70563652D01*
X94919924Y-70729770D01*
X94917993Y-70738854D01*
X94917993Y-70924574D01*
X86953713Y-70924574D01*
X86953713Y-69622894D01*
X96574577Y-69622894D01*
X96584459Y-69635383D01*
X96615750Y-69656291D01*
X96625860Y-69661781D01*
X96802346Y-69737605D01*
X96813289Y-69741160D01*
X97000631Y-69783552D01*
X97012041Y-69785054D01*
X97203980Y-69792595D01*
X97215462Y-69791993D01*
X97405556Y-69764432D01*
X97416751Y-69761744D01*
X97598642Y-69700000D01*
X97609139Y-69695326D01*
X97719543Y-69633498D01*
X97729406Y-69623421D01*
X97726451Y-69615751D01*
X97164322Y-69053621D01*
X97150379Y-69046008D01*
X97148545Y-69046139D01*
X97141931Y-69050390D01*
X96580770Y-69611552D01*
X96574577Y-69622894D01*
X86953713Y-69622894D01*
X86953713Y-68658238D01*
X96039523Y-68658238D01*
X96052086Y-68849904D01*
X96053887Y-68861274D01*
X96101168Y-69047443D01*
X96105009Y-69058290D01*
X96185427Y-69232730D01*
X96191175Y-69242686D01*
X96197299Y-69251351D01*
X96207888Y-69259740D01*
X96221187Y-69252713D01*
X96779490Y-68694411D01*
X96787103Y-68680468D01*
X96786972Y-68678634D01*
X96782721Y-68672020D01*
X96220049Y-68109349D01*
X96207674Y-68102592D01*
X96201708Y-68107058D01*
X96126156Y-68250658D01*
X96121753Y-68261291D01*
X96064792Y-68444732D01*
X96062402Y-68455976D01*
X96039824Y-68646737D01*
X96039523Y-68658238D01*
X86953713Y-68658238D01*
X86953713Y-67740275D01*
X96574299Y-67740275D01*
X96577786Y-67748664D01*
X97138700Y-68309579D01*
X97152643Y-68317192D01*
X97154477Y-68317061D01*
X97161091Y-68312810D01*
X97721796Y-67752104D01*
X97728553Y-67739729D01*
X97722523Y-67731673D01*
X97661572Y-67693216D01*
X97651324Y-67687995D01*
X97472912Y-67616816D01*
X97461884Y-67613549D01*
X97273493Y-67576076D01*
X97262046Y-67574873D01*
X97069988Y-67572359D01*
X97058508Y-67573262D01*
X96869208Y-67605790D01*
X96858088Y-67608770D01*
X96677876Y-67675253D01*
X96667502Y-67680201D01*
X96583896Y-67729942D01*
X96574299Y-67740275D01*
X86953713Y-67740275D01*
X86953713Y-62356431D01*
X92830951Y-62356431D01*
X92831248Y-62361583D01*
X92831248Y-62361587D01*
X92833207Y-62395552D01*
X92844757Y-62595867D01*
X92845892Y-62600904D01*
X92845893Y-62600910D01*
X92867398Y-62696334D01*
X92897483Y-62829833D01*
X92987715Y-63052046D01*
X93113027Y-63256538D01*
X93270056Y-63437817D01*
X93454584Y-63591015D01*
X93661656Y-63712018D01*
X93885710Y-63797576D01*
X93890776Y-63798607D01*
X93890777Y-63798607D01*
X93944948Y-63809628D01*
X94120729Y-63845391D01*
X94256277Y-63850361D01*
X94355238Y-63853990D01*
X94355242Y-63853990D01*
X94360402Y-63854179D01*
X94365522Y-63853523D01*
X94365524Y-63853523D01*
X94593164Y-63824362D01*
X94593165Y-63824362D01*
X94598292Y-63823705D01*
X94645213Y-63809628D01*
X94823055Y-63756273D01*
X94823060Y-63756271D01*
X94828010Y-63754786D01*
X95043387Y-63649274D01*
X95047592Y-63646274D01*
X95047598Y-63646271D01*
X95124963Y-63591087D01*
X95660371Y-63591087D01*
X95663674Y-63595747D01*
X95857412Y-63708958D01*
X95866699Y-63713408D01*
X96081019Y-63795249D01*
X96090921Y-63798126D01*
X96315712Y-63843860D01*
X96325964Y-63845083D01*
X96555215Y-63853489D01*
X96565501Y-63853022D01*
X96793056Y-63823871D01*
X96803142Y-63821728D01*
X97022877Y-63755804D01*
X97032472Y-63752043D01*
X97238479Y-63651122D01*
X97247345Y-63645837D01*
X97314958Y-63597608D01*
X97323359Y-63586908D01*
X97316371Y-63573755D01*
X96506825Y-62764209D01*
X96492881Y-62756595D01*
X96491048Y-62756726D01*
X96484433Y-62760977D01*
X95667648Y-63577762D01*
X95660371Y-63591087D01*
X95124963Y-63591087D01*
X95149261Y-63573755D01*
X95238640Y-63510002D01*
X95408524Y-63340710D01*
X95548476Y-63145945D01*
X95592704Y-63056458D01*
X95652446Y-62935579D01*
X95652447Y-62935577D01*
X95654740Y-62930937D01*
X95656247Y-62925978D01*
X95671187Y-62876806D01*
X95702650Y-62824340D01*
X96121991Y-62404999D01*
X96129605Y-62391055D01*
X96129474Y-62389222D01*
X96125223Y-62382607D01*
X95707884Y-61965268D01*
X95679919Y-61920340D01*
X95679433Y-61920551D01*
X95678001Y-61917258D01*
X95666939Y-61891817D01*
X95585860Y-61705346D01*
X95585858Y-61705343D01*
X95583800Y-61700609D01*
X95566587Y-61674001D01*
X95456338Y-61503583D01*
X95456336Y-61503580D01*
X95453528Y-61499240D01*
X95424593Y-61467440D01*
X95295595Y-61325674D01*
X95295593Y-61325672D01*
X95292117Y-61321852D01*
X95288066Y-61318653D01*
X95288062Y-61318649D01*
X95134262Y-61197186D01*
X95663808Y-61197186D01*
X95670553Y-61209517D01*
X96481201Y-62020165D01*
X96495145Y-62027779D01*
X96496978Y-62027648D01*
X96503593Y-62023397D01*
X97318603Y-61208387D01*
X97325624Y-61195530D01*
X97317851Y-61184863D01*
X97307680Y-61176830D01*
X97299096Y-61171127D01*
X97098263Y-61060261D01*
X97088851Y-61056031D01*
X96872604Y-60979453D01*
X96862633Y-60976819D01*
X96636782Y-60936589D01*
X96626529Y-60935620D01*
X96397129Y-60932817D01*
X96386845Y-60933537D01*
X96160080Y-60968237D01*
X96150052Y-60970626D01*
X95931997Y-61041897D01*
X95922488Y-61045894D01*
X95719006Y-61151820D01*
X95710281Y-61157314D01*
X95672261Y-61185861D01*
X95663808Y-61197186D01*
X95134262Y-61197186D01*
X95103901Y-61173208D01*
X94893935Y-61057300D01*
X94757859Y-61009113D01*
X94672733Y-60978968D01*
X94672729Y-60978967D01*
X94667858Y-60977242D01*
X94662765Y-60976335D01*
X94662762Y-60976334D01*
X94436829Y-60936089D01*
X94436823Y-60936088D01*
X94431740Y-60935183D01*
X94344473Y-60934117D01*
X94197094Y-60932316D01*
X94197092Y-60932316D01*
X94191924Y-60932253D01*
X93954850Y-60968530D01*
X93726884Y-61043041D01*
X93514149Y-61153784D01*
X93510016Y-61156887D01*
X93510013Y-61156889D01*
X93361050Y-61268734D01*
X93322358Y-61297785D01*
X93318786Y-61301523D01*
X93190048Y-61436240D01*
X93156661Y-61471177D01*
X93153747Y-61475449D01*
X93153746Y-61475450D01*
X93109525Y-61540276D01*
X93021508Y-61669304D01*
X93006977Y-61700609D01*
X92922707Y-61882152D01*
X92920529Y-61886843D01*
X92856437Y-62117955D01*
X92830951Y-62356431D01*
X86953713Y-62356431D01*
X86953713Y-61133831D01*
X86973715Y-61065710D01*
X87027371Y-61019217D01*
X87097645Y-61009113D01*
X87162225Y-61038607D01*
X87182610Y-61061111D01*
X87194280Y-61077623D01*
X87304096Y-61233009D01*
X87308230Y-61237036D01*
X87438599Y-61364036D01*
X87456609Y-61381581D01*
X87461405Y-61384786D01*
X87461408Y-61384788D01*
X87532888Y-61432549D01*
X87633643Y-61499871D01*
X87638946Y-61502149D01*
X87638949Y-61502151D01*
X87823963Y-61581639D01*
X87829270Y-61583919D01*
X87905116Y-61601081D01*
X88031301Y-61629634D01*
X88031306Y-61629635D01*
X88036938Y-61630909D01*
X88042709Y-61631136D01*
X88042711Y-61631136D01*
X88104052Y-61633546D01*
X88249691Y-61639269D01*
X88255400Y-61638441D01*
X88255404Y-61638441D01*
X88454690Y-61609545D01*
X88454694Y-61609544D01*
X88460405Y-61608716D01*
X88662023Y-61540276D01*
X88847793Y-61436240D01*
X89011493Y-61300093D01*
X89147640Y-61136393D01*
X89251676Y-60950623D01*
X89320116Y-60749005D01*
X89332255Y-60665291D01*
X89350137Y-60541961D01*
X89350137Y-60541959D01*
X89350669Y-60538291D01*
X89352263Y-60477400D01*
X89332781Y-60265376D01*
X89274986Y-60060452D01*
X89256769Y-60023510D01*
X89183370Y-59874673D01*
X89180815Y-59869492D01*
X89148736Y-59826532D01*
X89056874Y-59703514D01*
X89053422Y-59698891D01*
X88897071Y-59554363D01*
X88879881Y-59543517D01*
X88863291Y-59533049D01*
X88816353Y-59479783D01*
X88805663Y-59409595D01*
X88834617Y-59344771D01*
X88894021Y-59305891D01*
X88930526Y-59300487D01*
X110987463Y-59300487D01*
X111055584Y-59320489D01*
G37*
%TD.AperFunction*%
%TD*%
M02*
