M48
; DRILL file {KiCad (6.0.9-0)} date 2022 November 16, Wednesday 11:59:38
; FORMAT={-:-/ absolute / inch / decimal}
; #@! TF.CreationDate,2022-11-16T11:59:38+01:00
; #@! TF.GenerationSoftware,Kicad,Pcbnew,(6.0.9-0)
; #@! TF.FileFunction,Plated,1,2,PTH
FMAT,2
INCH
; #@! TA.AperFunction,Plated,PTH,ViaDrill
T1C0.0157
; #@! TA.AperFunction,Plated,PTH,ComponentDrill
T2C0.0295
; #@! TA.AperFunction,Plated,PTH,ViaDrill
T3C0.0454
; #@! TA.AperFunction,Plated,PTH,ComponentDrill
T4C0.0531
%
G90
G05
T1
X3.468Y-2.458
X3.472Y-2.61
X3.574Y-2.796
X3.582Y-2.376
X3.7Y-2.662
X3.7294Y-2.7126
X3.8634Y-2.5626
X3.8985Y-2.6238
X3.9086Y-2.6714
X3.9114Y-2.8646
X3.9374Y-2.7086
X3.9554Y-2.8686
X4.012Y-2.376
X4.0594Y-2.7231
X4.0734Y-2.6226
X4.0854Y-2.8566
X4.1154Y-2.6801
X4.1394Y-2.6026
X4.2054Y-2.8186
X4.2114Y-2.8586
X4.3634Y-2.4946
X4.3778Y-2.7691
X4.4054Y-2.4706
T2
X3.8249Y-2.704
X3.8249Y-2.8733
X4.0138Y-2.704
X4.0138Y-2.8733
T3
X3.472Y-2.381
X4.39Y-2.386
T4
X3.7124Y-2.4564
X3.799Y-2.4564
X3.8856Y-2.4564
X3.9722Y-2.4564
X4.0588Y-2.4564
X4.1454Y-2.4564
T0
M30
