%TF.GenerationSoftware,KiCad,Pcbnew,(6.0.9-0)*%
%TF.CreationDate,2022-11-16T11:59:38+01:00*%
%TF.ProjectId,GlowBand Dock PCB,476c6f77-4261-46e6-9420-446f636b2050,rev?*%
%TF.SameCoordinates,Original*%
%TF.FileFunction,Soldermask,Top*%
%TF.FilePolarity,Negative*%
%FSLAX46Y46*%
G04 Gerber Fmt 4.6, Leading zero omitted, Abs format (unit mm)*
G04 Created by KiCad (PCBNEW (6.0.9-0)) date 2022-11-16 11:59:38*
%MOMM*%
%LPD*%
G01*
G04 APERTURE LIST*
G04 Aperture macros list*
%AMRoundRect*
0 Rectangle with rounded corners*
0 $1 Rounding radius*
0 $2 $3 $4 $5 $6 $7 $8 $9 X,Y pos of 4 corners*
0 Add a 4 corners polygon primitive as box body*
4,1,4,$2,$3,$4,$5,$6,$7,$8,$9,$2,$3,0*
0 Add four circle primitives for the rounded corners*
1,1,$1+$1,$2,$3*
1,1,$1+$1,$4,$5*
1,1,$1+$1,$6,$7*
1,1,$1+$1,$8,$9*
0 Add four rect primitives between the rounded corners*
20,1,$1+$1,$2,$3,$4,$5,0*
20,1,$1+$1,$4,$5,$6,$7,0*
20,1,$1+$1,$6,$7,$8,$9,0*
20,1,$1+$1,$8,$9,$2,$3,0*%
G04 Aperture macros list end*
%ADD10R,0.600000X0.419990*%
%ADD11RoundRect,0.250000X0.312500X1.450000X-0.312500X1.450000X-0.312500X-1.450000X0.312500X-1.450000X0*%
%ADD12RoundRect,0.135000X0.185000X-0.135000X0.185000X0.135000X-0.185000X0.135000X-0.185000X-0.135000X0*%
%ADD13RoundRect,0.140000X-0.140000X-0.170000X0.140000X-0.170000X0.140000X0.170000X-0.140000X0.170000X0*%
%ADD14R,2.000000X3.500000*%
%ADD15C,0.750013*%
%ADD16C,0.800000*%
%ADD17C,1.200000*%
%ADD18R,0.300000X0.800000*%
%ADD19R,0.280010X0.900000*%
%ADD20R,0.900000X0.280010*%
%ADD21R,3.300000X3.300000*%
%ADD22RoundRect,0.140000X0.170000X-0.140000X0.170000X0.140000X-0.170000X0.140000X-0.170000X-0.140000X0*%
%ADD23RoundRect,0.135000X-0.185000X0.135000X-0.185000X-0.135000X0.185000X-0.135000X0.185000X0.135000X0*%
%ADD24RoundRect,0.225000X-0.250000X0.225000X-0.250000X-0.225000X0.250000X-0.225000X0.250000X0.225000X0*%
%ADD25C,1.900000*%
G04 APERTURE END LIST*
D10*
%TO.C,U1*%
X109848775Y-62794774D03*
X109848775Y-62144787D03*
X109848775Y-61494800D03*
X107948851Y-61494800D03*
X107948851Y-62144787D03*
X107948851Y-62794774D03*
%TD*%
D11*
%TO.C,F1*%
X100419113Y-65751587D03*
X96144113Y-65751587D03*
%TD*%
D12*
%TO.C,R1*%
X104784013Y-70427187D03*
X104784013Y-69407187D03*
%TD*%
D13*
%TO.C,C3*%
X111100413Y-72355587D03*
X112060413Y-72355587D03*
%TD*%
D14*
%TO.C,P2*%
X88731213Y-70831587D03*
%TD*%
D13*
%TO.C,C4*%
X111100413Y-71288787D03*
X112060413Y-71288787D03*
%TD*%
D15*
%TO.C,U2*%
X95801499Y-70831714D03*
D16*
X103301626Y-70831714D03*
D17*
X97151511Y-72981574D03*
X101951613Y-68681600D03*
X101951613Y-72981574D03*
X97151511Y-68681600D03*
D18*
X96801499Y-70031612D03*
X97301626Y-70031612D03*
X97801499Y-70031612D03*
X98301626Y-70031612D03*
X98801499Y-70031612D03*
X99301626Y-70031612D03*
X99801499Y-70031612D03*
X100301626Y-70031612D03*
X100801499Y-70031612D03*
X101301626Y-70031612D03*
X101801499Y-70031612D03*
X102301626Y-70031612D03*
X102301626Y-71631562D03*
X101801499Y-71631562D03*
X101301626Y-71631562D03*
X100801499Y-71631562D03*
X100301626Y-71631562D03*
X99801499Y-71631562D03*
X99301626Y-71631562D03*
X98801499Y-71631562D03*
X98301626Y-71631562D03*
X97801499Y-71631562D03*
X97301626Y-71631562D03*
X96801499Y-71631562D03*
%TD*%
D19*
%TO.C,U3*%
X107194343Y-69651003D03*
X107694724Y-69651003D03*
X108195105Y-69651003D03*
X108695486Y-69651003D03*
X109195867Y-69651003D03*
X109696248Y-69651003D03*
X110196629Y-69651003D03*
D20*
X111195613Y-68652273D03*
X111195613Y-68151892D03*
X111195613Y-67651511D03*
X111195613Y-67151130D03*
X111195613Y-66650749D03*
X111195613Y-66150368D03*
X111195613Y-65649987D03*
D19*
X110196629Y-64651003D03*
X109696248Y-64651003D03*
X109195867Y-64651003D03*
X108695486Y-64651003D03*
X108195105Y-64651003D03*
X107694724Y-64651003D03*
X107194343Y-64651003D03*
D20*
X106195613Y-65649987D03*
X106195613Y-66150368D03*
X106195613Y-66650749D03*
X106195613Y-67151130D03*
X106195613Y-67651511D03*
X106195613Y-68151892D03*
X106195613Y-68652273D03*
D21*
X108695486Y-67151130D03*
%TD*%
D22*
%TO.C,C2*%
X108380013Y-73343587D03*
X108380013Y-72383587D03*
%TD*%
D23*
%TO.C,R2*%
X104784013Y-71388387D03*
X104784013Y-72408387D03*
%TD*%
D24*
%TO.C,C1*%
X109700813Y-71529787D03*
X109700813Y-73079787D03*
%TD*%
D14*
%TO.C,P3*%
X92871413Y-70831587D03*
%TD*%
D25*
%TO.C,P1*%
X94294013Y-62392187D03*
X96494013Y-62392187D03*
X98694013Y-62392187D03*
X100894013Y-62392187D03*
X103094013Y-62392187D03*
X105294013Y-62392187D03*
%TD*%
M02*
