%TF.GenerationSoftware,KiCad,Pcbnew,(6.0.9-0)*%
%TF.CreationDate,2022-11-16T11:59:38+01:00*%
%TF.ProjectId,GlowBand Dock PCB,476c6f77-4261-46e6-9420-446f636b2050,rev?*%
%TF.SameCoordinates,Original*%
%TF.FileFunction,Legend,Bot*%
%TF.FilePolarity,Positive*%
%FSLAX46Y46*%
G04 Gerber Fmt 4.6, Leading zero omitted, Abs format (unit mm)*
G04 Created by KiCad (PCBNEW (6.0.9-0)) date 2022-11-16 11:59:38*
%MOMM*%
%LPD*%
G01*
G04 APERTURE LIST*
%ADD10C,0.150000*%
%ADD11C,0.120000*%
%ADD12C,0.750013*%
%ADD13C,0.800000*%
%ADD14C,1.200000*%
%ADD15C,1.900000*%
G04 APERTURE END LIST*
D10*
X103766623Y-64230304D02*
X103766623Y-64801733D01*
X103804719Y-64916019D01*
X103880909Y-64992209D01*
X103995195Y-65030304D01*
X104071385Y-65030304D01*
X103004719Y-65030304D02*
X103385671Y-65030304D01*
X103385671Y-64230304D01*
X102280909Y-64954114D02*
X102319004Y-64992209D01*
X102433290Y-65030304D01*
X102509480Y-65030304D01*
X102623766Y-64992209D01*
X102699957Y-64916019D01*
X102738052Y-64839828D01*
X102776147Y-64687447D01*
X102776147Y-64573161D01*
X102738052Y-64420780D01*
X102699957Y-64344590D01*
X102623766Y-64268400D01*
X102509480Y-64230304D01*
X102433290Y-64230304D01*
X102319004Y-64268400D01*
X102280909Y-64306495D01*
X101709480Y-64230304D02*
X101709480Y-64801733D01*
X101747576Y-64916019D01*
X101823766Y-64992209D01*
X101938052Y-65030304D01*
X102014242Y-65030304D01*
X100947576Y-65030304D02*
X101328528Y-65030304D01*
X101328528Y-64230304D01*
X100223766Y-64954114D02*
X100261861Y-64992209D01*
X100376147Y-65030304D01*
X100452338Y-65030304D01*
X100566623Y-64992209D01*
X100642814Y-64916019D01*
X100680909Y-64839828D01*
X100719004Y-64687447D01*
X100719004Y-64573161D01*
X100680909Y-64420780D01*
X100642814Y-64344590D01*
X100566623Y-64268400D01*
X100452338Y-64230304D01*
X100376147Y-64230304D01*
X100261861Y-64268400D01*
X100223766Y-64306495D01*
X99652338Y-64230304D02*
X99652338Y-64801733D01*
X99690433Y-64916019D01*
X99766623Y-64992209D01*
X99880909Y-65030304D01*
X99957100Y-65030304D01*
X98890433Y-65030304D02*
X99271385Y-65030304D01*
X99271385Y-64230304D01*
X98166623Y-64954114D02*
X98204719Y-64992209D01*
X98319004Y-65030304D01*
X98395195Y-65030304D01*
X98509480Y-64992209D01*
X98585671Y-64916019D01*
X98623766Y-64839828D01*
X98661861Y-64687447D01*
X98661861Y-64573161D01*
X98623766Y-64420780D01*
X98585671Y-64344590D01*
X98509480Y-64268400D01*
X98395195Y-64230304D01*
X98319004Y-64230304D01*
X98204719Y-64268400D01*
X98166623Y-64306495D01*
X97595195Y-64230304D02*
X97595195Y-64801733D01*
X97633290Y-64916019D01*
X97709480Y-64992209D01*
X97823766Y-65030304D01*
X97899957Y-65030304D01*
X96833290Y-65030304D02*
X97214242Y-65030304D01*
X97214242Y-64230304D01*
X96109480Y-64954114D02*
X96147576Y-64992209D01*
X96261861Y-65030304D01*
X96338052Y-65030304D01*
X96452338Y-64992209D01*
X96528528Y-64916019D01*
X96566623Y-64839828D01*
X96604719Y-64687447D01*
X96604719Y-64573161D01*
X96566623Y-64420780D01*
X96528528Y-64344590D01*
X96452338Y-64268400D01*
X96338052Y-64230304D01*
X96261861Y-64230304D01*
X96147576Y-64268400D01*
X96109480Y-64306495D01*
X92451290Y-70828904D02*
X92451290Y-70028904D01*
X92108433Y-70828904D02*
X92108433Y-70409857D01*
X92146528Y-70333666D01*
X92222719Y-70295571D01*
X92337004Y-70295571D01*
X92413195Y-70333666D01*
X92451290Y-70371761D01*
X91841766Y-70295571D02*
X91537004Y-70295571D01*
X91727480Y-70028904D02*
X91727480Y-70714619D01*
X91689385Y-70790809D01*
X91613195Y-70828904D01*
X91537004Y-70828904D01*
X91384623Y-70295571D02*
X91079861Y-70295571D01*
X91270338Y-70028904D02*
X91270338Y-70714619D01*
X91232242Y-70790809D01*
X91156052Y-70828904D01*
X91079861Y-70828904D01*
X90813195Y-70295571D02*
X90813195Y-71095571D01*
X90813195Y-70333666D02*
X90737004Y-70295571D01*
X90584623Y-70295571D01*
X90508433Y-70333666D01*
X90470338Y-70371761D01*
X90432242Y-70447952D01*
X90432242Y-70676523D01*
X90470338Y-70752714D01*
X90508433Y-70790809D01*
X90584623Y-70828904D01*
X90737004Y-70828904D01*
X90813195Y-70790809D01*
X90127480Y-70790809D02*
X90051290Y-70828904D01*
X89898909Y-70828904D01*
X89822719Y-70790809D01*
X89784623Y-70714619D01*
X89784623Y-70676523D01*
X89822719Y-70600333D01*
X89898909Y-70562238D01*
X90013195Y-70562238D01*
X90089385Y-70524142D01*
X90127480Y-70447952D01*
X90127480Y-70409857D01*
X90089385Y-70333666D01*
X90013195Y-70295571D01*
X89898909Y-70295571D01*
X89822719Y-70333666D01*
X89441766Y-70752714D02*
X89403671Y-70790809D01*
X89441766Y-70828904D01*
X89479861Y-70790809D01*
X89441766Y-70752714D01*
X89441766Y-70828904D01*
X89441766Y-70333666D02*
X89403671Y-70371761D01*
X89441766Y-70409857D01*
X89479861Y-70371761D01*
X89441766Y-70333666D01*
X89441766Y-70409857D01*
X88489385Y-69990809D02*
X89175100Y-71019380D01*
X87651290Y-69990809D02*
X88337004Y-71019380D01*
X91194147Y-72116904D02*
X91194147Y-71316904D01*
X91194147Y-71621666D02*
X91117957Y-71583571D01*
X90965576Y-71583571D01*
X90889385Y-71621666D01*
X90851290Y-71659761D01*
X90813195Y-71735952D01*
X90813195Y-71964523D01*
X90851290Y-72040714D01*
X90889385Y-72078809D01*
X90965576Y-72116904D01*
X91117957Y-72116904D01*
X91194147Y-72078809D01*
X90470338Y-72116904D02*
X90470338Y-71583571D01*
X90470338Y-71316904D02*
X90508433Y-71355000D01*
X90470338Y-71393095D01*
X90432242Y-71355000D01*
X90470338Y-71316904D01*
X90470338Y-71393095D01*
X90203671Y-71583571D02*
X89898909Y-71583571D01*
X90089385Y-71316904D02*
X90089385Y-72002619D01*
X90051290Y-72078809D01*
X89975100Y-72116904D01*
X89898909Y-72116904D01*
X89632242Y-72040714D02*
X89594147Y-72078809D01*
X89632242Y-72116904D01*
X89670338Y-72078809D01*
X89632242Y-72040714D01*
X89632242Y-72116904D01*
X89137004Y-72116904D02*
X89213195Y-72078809D01*
X89251290Y-72002619D01*
X89251290Y-71316904D01*
X88908433Y-71583571D02*
X88717957Y-72116904D01*
X88527480Y-71583571D02*
X88717957Y-72116904D01*
X88794147Y-72307380D01*
X88832242Y-72345476D01*
X88908433Y-72383571D01*
X87651290Y-71278809D02*
X88337004Y-72307380D01*
X92641766Y-72604904D02*
X92146528Y-72604904D01*
X92413195Y-72909666D01*
X92298909Y-72909666D01*
X92222719Y-72947761D01*
X92184623Y-72985857D01*
X92146528Y-73062047D01*
X92146528Y-73252523D01*
X92184623Y-73328714D01*
X92222719Y-73366809D01*
X92298909Y-73404904D01*
X92527480Y-73404904D01*
X92603671Y-73366809D01*
X92641766Y-73328714D01*
X91803671Y-72604904D02*
X91803671Y-73252523D01*
X91765576Y-73328714D01*
X91727480Y-73366809D01*
X91651290Y-73404904D01*
X91498909Y-73404904D01*
X91422719Y-73366809D01*
X91384623Y-73328714D01*
X91346528Y-73252523D01*
X91346528Y-72604904D01*
X91041766Y-72604904D02*
X90508433Y-73404904D01*
X90508433Y-72604904D02*
X91041766Y-73404904D01*
X90203671Y-73404904D02*
X90203671Y-72871571D01*
X90203671Y-72947761D02*
X90165576Y-72909666D01*
X90089385Y-72871571D01*
X89975100Y-72871571D01*
X89898909Y-72909666D01*
X89860814Y-72985857D01*
X89860814Y-73404904D01*
X89860814Y-72985857D02*
X89822719Y-72909666D01*
X89746528Y-72871571D01*
X89632242Y-72871571D01*
X89556052Y-72909666D01*
X89517957Y-72985857D01*
X89517957Y-73404904D01*
X88984623Y-72604904D02*
X88908433Y-72604904D01*
X88832242Y-72643000D01*
X88794147Y-72681095D01*
X88756052Y-72757285D01*
X88717957Y-72909666D01*
X88717957Y-73100142D01*
X88756052Y-73252523D01*
X88794147Y-73328714D01*
X88832242Y-73366809D01*
X88908433Y-73404904D01*
X88984623Y-73404904D01*
X89060814Y-73366809D01*
X89098909Y-73328714D01*
X89137004Y-73252523D01*
X89175100Y-73100142D01*
X89175100Y-72909666D01*
X89137004Y-72757285D01*
X89098909Y-72681095D01*
X89060814Y-72643000D01*
X88984623Y-72604904D01*
X88451290Y-72871571D02*
X88260814Y-73404904D01*
X88070338Y-72871571D01*
X87765576Y-73404904D02*
X87765576Y-72871571D01*
X87765576Y-72604904D02*
X87803671Y-72643000D01*
X87765576Y-72681095D01*
X87727480Y-72643000D01*
X87765576Y-72604904D01*
X87765576Y-72681095D01*
X101921109Y-66335200D02*
X102016347Y-66287580D01*
X102159204Y-66287580D01*
X102302061Y-66335200D01*
X102397300Y-66430438D01*
X102444919Y-66525676D01*
X102492538Y-66716152D01*
X102492538Y-66859009D01*
X102444919Y-67049485D01*
X102397300Y-67144723D01*
X102302061Y-67239961D01*
X102159204Y-67287580D01*
X102063966Y-67287580D01*
X101921109Y-67239961D01*
X101873490Y-67192342D01*
X101873490Y-66859009D01*
X102063966Y-66859009D01*
X101302061Y-67287580D02*
X101397300Y-67239961D01*
X101444919Y-67144723D01*
X101444919Y-66287580D01*
X100778252Y-67287580D02*
X100873490Y-67239961D01*
X100921109Y-67192342D01*
X100968728Y-67097104D01*
X100968728Y-66811390D01*
X100921109Y-66716152D01*
X100873490Y-66668533D01*
X100778252Y-66620914D01*
X100635395Y-66620914D01*
X100540157Y-66668533D01*
X100492538Y-66716152D01*
X100444919Y-66811390D01*
X100444919Y-67097104D01*
X100492538Y-67192342D01*
X100540157Y-67239961D01*
X100635395Y-67287580D01*
X100778252Y-67287580D01*
X100111585Y-66620914D02*
X99921109Y-67287580D01*
X99730633Y-66811390D01*
X99540157Y-67287580D01*
X99349680Y-66620914D01*
X98635395Y-66763771D02*
X98492538Y-66811390D01*
X98444919Y-66859009D01*
X98397300Y-66954247D01*
X98397300Y-67097104D01*
X98444919Y-67192342D01*
X98492538Y-67239961D01*
X98587776Y-67287580D01*
X98968728Y-67287580D01*
X98968728Y-66287580D01*
X98635395Y-66287580D01*
X98540157Y-66335200D01*
X98492538Y-66382819D01*
X98444919Y-66478057D01*
X98444919Y-66573295D01*
X98492538Y-66668533D01*
X98540157Y-66716152D01*
X98635395Y-66763771D01*
X98968728Y-66763771D01*
X97540157Y-67287580D02*
X97540157Y-66763771D01*
X97587776Y-66668533D01*
X97683014Y-66620914D01*
X97873490Y-66620914D01*
X97968728Y-66668533D01*
X97540157Y-67239961D02*
X97635395Y-67287580D01*
X97873490Y-67287580D01*
X97968728Y-67239961D01*
X98016347Y-67144723D01*
X98016347Y-67049485D01*
X97968728Y-66954247D01*
X97873490Y-66906628D01*
X97635395Y-66906628D01*
X97540157Y-66859009D01*
X97063966Y-66620914D02*
X97063966Y-67287580D01*
X97063966Y-66716152D02*
X97016347Y-66668533D01*
X96921109Y-66620914D01*
X96778252Y-66620914D01*
X96683014Y-66668533D01*
X96635395Y-66763771D01*
X96635395Y-67287580D01*
X95730633Y-67287580D02*
X95730633Y-66287580D01*
X95730633Y-67239961D02*
X95825871Y-67287580D01*
X96016347Y-67287580D01*
X96111585Y-67239961D01*
X96159204Y-67192342D01*
X96206823Y-67097104D01*
X96206823Y-66811390D01*
X96159204Y-66716152D01*
X96111585Y-66668533D01*
X96016347Y-66620914D01*
X95825871Y-66620914D01*
X95730633Y-66668533D01*
X94492538Y-67287580D02*
X94492538Y-66287580D01*
X94254442Y-66287580D01*
X94111585Y-66335200D01*
X94016347Y-66430438D01*
X93968728Y-66525676D01*
X93921109Y-66716152D01*
X93921109Y-66859009D01*
X93968728Y-67049485D01*
X94016347Y-67144723D01*
X94111585Y-67239961D01*
X94254442Y-67287580D01*
X94492538Y-67287580D01*
X93349680Y-67287580D02*
X93444919Y-67239961D01*
X93492538Y-67192342D01*
X93540157Y-67097104D01*
X93540157Y-66811390D01*
X93492538Y-66716152D01*
X93444919Y-66668533D01*
X93349680Y-66620914D01*
X93206823Y-66620914D01*
X93111585Y-66668533D01*
X93063966Y-66716152D01*
X93016347Y-66811390D01*
X93016347Y-67097104D01*
X93063966Y-67192342D01*
X93111585Y-67239961D01*
X93206823Y-67287580D01*
X93349680Y-67287580D01*
X92159204Y-67239961D02*
X92254442Y-67287580D01*
X92444919Y-67287580D01*
X92540157Y-67239961D01*
X92587776Y-67192342D01*
X92635395Y-67097104D01*
X92635395Y-66811390D01*
X92587776Y-66716152D01*
X92540157Y-66668533D01*
X92444919Y-66620914D01*
X92254442Y-66620914D01*
X92159204Y-66668533D01*
X91730633Y-67287580D02*
X91730633Y-66287580D01*
X91635395Y-66906628D02*
X91349680Y-67287580D01*
X91349680Y-66620914D02*
X91730633Y-67001866D01*
X90159204Y-67287580D02*
X90159204Y-66287580D01*
X89778252Y-66287580D01*
X89683014Y-66335200D01*
X89635395Y-66382819D01*
X89587776Y-66478057D01*
X89587776Y-66620914D01*
X89635395Y-66716152D01*
X89683014Y-66763771D01*
X89778252Y-66811390D01*
X90159204Y-66811390D01*
X88587776Y-67192342D02*
X88635395Y-67239961D01*
X88778252Y-67287580D01*
X88873490Y-67287580D01*
X89016347Y-67239961D01*
X89111585Y-67144723D01*
X89159204Y-67049485D01*
X89206823Y-66859009D01*
X89206823Y-66716152D01*
X89159204Y-66525676D01*
X89111585Y-66430438D01*
X89016347Y-66335200D01*
X88873490Y-66287580D01*
X88778252Y-66287580D01*
X88635395Y-66335200D01*
X88587776Y-66382819D01*
X87825871Y-66763771D02*
X87683014Y-66811390D01*
X87635395Y-66859009D01*
X87587776Y-66954247D01*
X87587776Y-67097104D01*
X87635395Y-67192342D01*
X87683014Y-67239961D01*
X87778252Y-67287580D01*
X88159204Y-67287580D01*
X88159204Y-66287580D01*
X87825871Y-66287580D01*
X87730633Y-66335200D01*
X87683014Y-66382819D01*
X87635395Y-66478057D01*
X87635395Y-66573295D01*
X87683014Y-66668533D01*
X87730633Y-66716152D01*
X87825871Y-66763771D01*
X88159204Y-66763771D01*
X96111585Y-68230914D02*
X95873490Y-68897580D01*
X95635395Y-68230914D01*
X94730633Y-68897580D02*
X95302061Y-68897580D01*
X95016347Y-68897580D02*
X95016347Y-67897580D01*
X95111585Y-68040438D01*
X95206823Y-68135676D01*
X95302061Y-68183295D01*
X94302061Y-68802342D02*
X94254442Y-68849961D01*
X94302061Y-68897580D01*
X94349680Y-68849961D01*
X94302061Y-68802342D01*
X94302061Y-68897580D01*
X93635395Y-67897580D02*
X93540157Y-67897580D01*
X93444919Y-67945200D01*
X93397300Y-67992819D01*
X93349680Y-68088057D01*
X93302061Y-68278533D01*
X93302061Y-68516628D01*
X93349680Y-68707104D01*
X93397300Y-68802342D01*
X93444919Y-68849961D01*
X93540157Y-68897580D01*
X93635395Y-68897580D01*
X93730633Y-68849961D01*
X93778252Y-68802342D01*
X93825871Y-68707104D01*
X93873490Y-68516628D01*
X93873490Y-68278533D01*
X93825871Y-68088057D01*
X93778252Y-67992819D01*
X93730633Y-67945200D01*
X93635395Y-67897580D01*
X92111585Y-68897580D02*
X92111585Y-67897580D01*
X92111585Y-68278533D02*
X92016347Y-68230914D01*
X91825871Y-68230914D01*
X91730633Y-68278533D01*
X91683014Y-68326152D01*
X91635395Y-68421390D01*
X91635395Y-68707104D01*
X91683014Y-68802342D01*
X91730633Y-68849961D01*
X91825871Y-68897580D01*
X92016347Y-68897580D01*
X92111585Y-68849961D01*
X90825871Y-68849961D02*
X90921109Y-68897580D01*
X91111585Y-68897580D01*
X91206823Y-68849961D01*
X91254442Y-68754723D01*
X91254442Y-68373771D01*
X91206823Y-68278533D01*
X91111585Y-68230914D01*
X90921109Y-68230914D01*
X90825871Y-68278533D01*
X90778252Y-68373771D01*
X90778252Y-68469009D01*
X91254442Y-68564247D01*
X90492538Y-68230914D02*
X90111585Y-68230914D01*
X90349680Y-67897580D02*
X90349680Y-68754723D01*
X90302061Y-68849961D01*
X90206823Y-68897580D01*
X90111585Y-68897580D01*
X89349680Y-68897580D02*
X89349680Y-68373771D01*
X89397300Y-68278533D01*
X89492538Y-68230914D01*
X89683014Y-68230914D01*
X89778252Y-68278533D01*
X89349680Y-68849961D02*
X89444919Y-68897580D01*
X89683014Y-68897580D01*
X89778252Y-68849961D01*
X89825871Y-68754723D01*
X89825871Y-68659485D01*
X89778252Y-68564247D01*
X89683014Y-68516628D01*
X89444919Y-68516628D01*
X89349680Y-68469009D01*
X87587776Y-68897580D02*
X88159204Y-68897580D01*
X87873490Y-68897580D02*
X87873490Y-67897580D01*
X87968728Y-68040438D01*
X88063966Y-68135676D01*
X88159204Y-68183295D01*
%TO.C,G\u002A\u002A\u002A*%
G36*
X110571702Y-73730232D02*
G01*
X110571702Y-73404293D01*
X110897642Y-73404293D01*
X112418693Y-73404293D01*
X112418693Y-71883242D01*
X110897642Y-71883242D01*
X110897642Y-73404293D01*
X110571702Y-73404293D01*
X110571702Y-71557302D01*
X112744632Y-71557302D01*
X112744632Y-73730232D01*
X110571702Y-73730232D01*
G37*
G36*
X110261284Y-73730232D02*
G01*
X109950865Y-73730232D01*
X109950865Y-73419813D01*
X110261284Y-73419813D01*
X110261284Y-73730232D01*
G37*
G36*
X109640447Y-73109395D02*
G01*
X109330028Y-73109395D01*
X109330028Y-72798976D01*
X109640447Y-72798976D01*
X109640447Y-73109395D01*
G37*
G36*
X109640447Y-71867721D02*
G01*
X109950865Y-71867721D01*
X109950865Y-71246883D01*
X110261284Y-71246883D01*
X110261284Y-72798976D01*
X109640447Y-72798976D01*
X109640447Y-72178139D01*
X109330028Y-72178139D01*
X109330028Y-71867721D01*
X109019609Y-71867721D01*
X109019609Y-71557302D01*
X108398772Y-71557302D01*
X108398772Y-71246883D01*
X109640447Y-71246883D01*
X109640447Y-71867721D01*
G37*
G36*
X109950865Y-70005209D02*
G01*
X109950865Y-69694791D01*
X110571702Y-69694791D01*
X110882121Y-69694791D01*
X110882121Y-69384372D01*
X110571702Y-69384372D01*
X110571702Y-69694791D01*
X109950865Y-69694791D01*
X109950865Y-69384372D01*
X110261284Y-69384372D01*
X110261284Y-69073953D01*
X110882121Y-69073953D01*
X110882121Y-69384372D01*
X111192539Y-69384372D01*
X111502958Y-69384372D01*
X111813377Y-69384372D01*
X111813377Y-70005209D01*
X112123795Y-70005209D01*
X112123795Y-70315628D01*
X112434214Y-70315628D01*
X112434214Y-70005209D01*
X112123795Y-70005209D01*
X112123795Y-69384372D01*
X111813377Y-69384372D01*
X111813377Y-69073953D01*
X111502958Y-69073953D01*
X111502958Y-69384372D01*
X111192539Y-69384372D01*
X111192539Y-69073953D01*
X111502958Y-69073953D01*
X111502958Y-68763535D01*
X110261284Y-68763535D01*
X110261284Y-69073953D01*
X109950865Y-69073953D01*
X109950865Y-68453116D01*
X111813377Y-68453116D01*
X111813377Y-69073953D01*
X112123795Y-69073953D01*
X112123795Y-68763535D01*
X112434214Y-68763535D01*
X112434214Y-69694791D01*
X112744632Y-69694791D01*
X112744632Y-71246883D01*
X112434214Y-71246883D01*
X112434214Y-70626046D01*
X112123795Y-70626046D01*
X112123795Y-71246883D01*
X111813377Y-71246883D01*
X111813377Y-70936465D01*
X111502958Y-70936465D01*
X111502958Y-71246883D01*
X110261284Y-71246883D01*
X110261284Y-70936465D01*
X111192539Y-70936465D01*
X111192539Y-70626046D01*
X111813377Y-70626046D01*
X111813377Y-70005209D01*
X111502958Y-70005209D01*
X111502958Y-69694791D01*
X111192539Y-69694791D01*
X111192539Y-70005209D01*
X109950865Y-70005209D01*
G37*
G36*
X109330028Y-68453116D02*
G01*
X109019609Y-68453116D01*
X109019609Y-68142698D01*
X108709191Y-68142698D01*
X108709191Y-68453116D01*
X108398772Y-68453116D01*
X108398772Y-68763535D01*
X107777935Y-68763535D01*
X107777935Y-68453116D01*
X108088354Y-68453116D01*
X108088354Y-67832279D01*
X108398772Y-67832279D01*
X108398772Y-68142698D01*
X108709191Y-68142698D01*
X108709191Y-67832279D01*
X109019609Y-67832279D01*
X109019609Y-68142698D01*
X109330028Y-68142698D01*
X109330028Y-67832279D01*
X109640447Y-67832279D01*
X109640447Y-69073953D01*
X109330028Y-69073953D01*
X109330028Y-69694791D01*
X109640447Y-69694791D01*
X109640447Y-70005209D01*
X109950865Y-70005209D01*
X109950865Y-70315628D01*
X109330028Y-70315628D01*
X109330028Y-70005209D01*
X108709191Y-70005209D01*
X108709191Y-69694791D01*
X109019609Y-69694791D01*
X109019609Y-69073953D01*
X108709191Y-69073953D01*
X108709191Y-68453116D01*
X109019609Y-68453116D01*
X109019609Y-68763535D01*
X109330028Y-68763535D01*
X109330028Y-68453116D01*
G37*
G36*
X112744632Y-68763535D02*
G01*
X112434214Y-68763535D01*
X112434214Y-68453116D01*
X112744632Y-68453116D01*
X112744632Y-68763535D01*
G37*
G36*
X107777935Y-68453116D02*
G01*
X107467517Y-68453116D01*
X107467517Y-67832279D01*
X107777935Y-67832279D01*
X107777935Y-68453116D01*
G37*
G36*
X108709191Y-67211442D02*
G01*
X108088354Y-67211442D01*
X108088354Y-67521861D01*
X107467517Y-67521861D01*
X107467517Y-67211442D01*
X107777935Y-67211442D01*
X107777935Y-66901023D01*
X107467517Y-66901023D01*
X107467517Y-66590605D01*
X108398772Y-66590605D01*
X108398772Y-66280186D01*
X108709191Y-66280186D01*
X108709191Y-67211442D01*
G37*
G36*
X108398772Y-66280186D02*
G01*
X108088354Y-66280186D01*
X108088354Y-65969768D01*
X108398772Y-65969768D01*
X108398772Y-66280186D01*
G37*
G36*
X107467517Y-69073953D02*
G01*
X108088354Y-69073953D01*
X108088354Y-70005209D01*
X108398772Y-70005209D01*
X108398772Y-70315628D01*
X108088354Y-70315628D01*
X108088354Y-70936465D01*
X107777935Y-70936465D01*
X107777935Y-69694791D01*
X107467517Y-69694791D01*
X107467517Y-70005209D01*
X106536261Y-70005209D01*
X106536261Y-69694791D01*
X106846679Y-69694791D01*
X106846679Y-69384372D01*
X106536261Y-69384372D01*
X106536261Y-69694791D01*
X105294587Y-69694791D01*
X105294587Y-70005209D01*
X105605005Y-70005209D01*
X105605005Y-70315628D01*
X106225842Y-70315628D01*
X106225842Y-70005209D01*
X106536261Y-70005209D01*
X106536261Y-70315628D01*
X106846679Y-70315628D01*
X106846679Y-70626046D01*
X106536261Y-70626046D01*
X106536261Y-70936465D01*
X107777935Y-70936465D01*
X107777935Y-72178139D01*
X108088354Y-72178139D01*
X108088354Y-71867721D01*
X108398772Y-71867721D01*
X108398772Y-72178139D01*
X108709191Y-72178139D01*
X108709191Y-71867721D01*
X109019609Y-71867721D01*
X109019609Y-72488558D01*
X108398772Y-72488558D01*
X108398772Y-73419813D01*
X108709191Y-73419813D01*
X108709191Y-73730232D01*
X108088354Y-73730232D01*
X108088354Y-73419813D01*
X107777935Y-73419813D01*
X107777935Y-73109395D01*
X107157098Y-73109395D01*
X107157098Y-72798976D01*
X106846679Y-72798976D01*
X106846679Y-72488558D01*
X106225842Y-72488558D01*
X106225842Y-72798976D01*
X105915424Y-72798976D01*
X105915424Y-73419813D01*
X105294587Y-73419813D01*
X105294587Y-73730232D01*
X104984168Y-73730232D01*
X104984168Y-71867721D01*
X105294587Y-71867721D01*
X105605005Y-71867721D01*
X105605005Y-72798976D01*
X105915424Y-72798976D01*
X105915424Y-72178139D01*
X106225842Y-72178139D01*
X106536261Y-72178139D01*
X107467517Y-72178139D01*
X107467517Y-71246883D01*
X106536261Y-71246883D01*
X106536261Y-72178139D01*
X106225842Y-72178139D01*
X106225842Y-71867721D01*
X105915424Y-71867721D01*
X105915424Y-71557302D01*
X106225842Y-71557302D01*
X106225842Y-70626046D01*
X105915424Y-70626046D01*
X105915424Y-71246883D01*
X105605005Y-71246883D01*
X105605005Y-71557302D01*
X105294587Y-71557302D01*
X105294587Y-71867721D01*
X104984168Y-71867721D01*
X104984168Y-71557302D01*
X105294587Y-71557302D01*
X105294587Y-70936465D01*
X105605005Y-70936465D01*
X105605005Y-70626046D01*
X105294587Y-70626046D01*
X105294587Y-70936465D01*
X104984168Y-70936465D01*
X104984168Y-70315628D01*
X105294587Y-70315628D01*
X105294587Y-70005209D01*
X104984168Y-70005209D01*
X104984168Y-69384372D01*
X105294587Y-69384372D01*
X105915424Y-69384372D01*
X105915424Y-69073953D01*
X105294587Y-69073953D01*
X105294587Y-69384372D01*
X104984168Y-69384372D01*
X104984168Y-69073953D01*
X105294587Y-69073953D01*
X105294587Y-68763535D01*
X104984168Y-68763535D01*
X104984168Y-68453116D01*
X105915424Y-68453116D01*
X105915424Y-68763535D01*
X106225842Y-68763535D01*
X106225842Y-68453116D01*
X106536261Y-68453116D01*
X106536261Y-68763535D01*
X106846679Y-68763535D01*
X106846679Y-69073953D01*
X107157098Y-69073953D01*
X107157098Y-68453116D01*
X107467517Y-68453116D01*
X107467517Y-69073953D01*
X107157098Y-69073953D01*
X107157098Y-69384372D01*
X107467517Y-69384372D01*
X107467517Y-69073953D01*
G37*
G36*
X106846679Y-72798976D02*
G01*
X106846679Y-73419813D01*
X107777935Y-73419813D01*
X107777935Y-73730232D01*
X106846679Y-73730232D01*
X106846679Y-73419813D01*
X106225842Y-73419813D01*
X106225842Y-72798976D01*
X106846679Y-72798976D01*
G37*
G36*
X106225842Y-73419813D02*
G01*
X106225842Y-73730232D01*
X105915424Y-73730232D01*
X105915424Y-73419813D01*
X106225842Y-73419813D01*
G37*
G36*
X109640447Y-66590605D02*
G01*
X109950865Y-66590605D01*
X109950865Y-65969768D01*
X110261284Y-65969768D01*
X110261284Y-66901023D01*
X109950865Y-66901023D01*
X109950865Y-67211442D01*
X110261284Y-67211442D01*
X110261284Y-67521861D01*
X109330028Y-67521861D01*
X109330028Y-67211442D01*
X109019609Y-67211442D01*
X109019609Y-67521861D01*
X109330028Y-67521861D01*
X109330028Y-67832279D01*
X109019609Y-67832279D01*
X109019609Y-67521861D01*
X108709191Y-67521861D01*
X108709191Y-67211442D01*
X109019609Y-67211442D01*
X109019609Y-66901023D01*
X109330028Y-66901023D01*
X109330028Y-66590605D01*
X109019609Y-66590605D01*
X109019609Y-66280186D01*
X109330028Y-66280186D01*
X109330028Y-65969768D01*
X109640447Y-65969768D01*
X109640447Y-66590605D01*
G37*
G36*
X109019609Y-73109395D02*
G01*
X108709191Y-73109395D01*
X108709191Y-72798976D01*
X109019609Y-72798976D01*
X109019609Y-73109395D01*
G37*
G36*
X110571702Y-68142698D02*
G01*
X110571702Y-67816758D01*
X110897642Y-67816758D01*
X112418693Y-67816758D01*
X112418693Y-66295707D01*
X110897642Y-66295707D01*
X110897642Y-67816758D01*
X110571702Y-67816758D01*
X110571702Y-65969768D01*
X112744632Y-65969768D01*
X112744632Y-68142698D01*
X110571702Y-68142698D01*
G37*
G36*
X110261284Y-68142698D02*
G01*
X109950865Y-68142698D01*
X109950865Y-67832279D01*
X110261284Y-67832279D01*
X110261284Y-68142698D01*
G37*
G36*
X104984168Y-68142698D02*
G01*
X104984168Y-67816758D01*
X105310107Y-67816758D01*
X106831158Y-67816758D01*
X106831158Y-66295707D01*
X105310107Y-66295707D01*
X105310107Y-67816758D01*
X104984168Y-67816758D01*
X104984168Y-65969768D01*
X107157098Y-65969768D01*
X107157098Y-68142698D01*
X104984168Y-68142698D01*
G37*
G36*
X112123795Y-73109395D02*
G01*
X111192539Y-73109395D01*
X111192539Y-72178139D01*
X112123795Y-72178139D01*
X112123795Y-73109395D01*
G37*
G36*
X109950865Y-71246883D02*
G01*
X109640447Y-71246883D01*
X109640447Y-70936465D01*
X109950865Y-70936465D01*
X109950865Y-71246883D01*
G37*
G36*
X109330028Y-70626046D02*
G01*
X109640447Y-70626046D01*
X109640447Y-70936465D01*
X109019609Y-70936465D01*
X109019609Y-70626046D01*
X108398772Y-70626046D01*
X108398772Y-70315628D01*
X109330028Y-70315628D01*
X109330028Y-70626046D01*
G37*
G36*
X108398772Y-71246883D02*
G01*
X108088354Y-71246883D01*
X108088354Y-70936465D01*
X108398772Y-70936465D01*
X108398772Y-71246883D01*
G37*
G36*
X111192539Y-70626046D02*
G01*
X109950865Y-70626046D01*
X109950865Y-70315628D01*
X111192539Y-70315628D01*
X111192539Y-70626046D01*
G37*
G36*
X111502958Y-70315628D02*
G01*
X111192539Y-70315628D01*
X111192539Y-70005209D01*
X111502958Y-70005209D01*
X111502958Y-70315628D01*
G37*
G36*
X107467517Y-70626046D02*
G01*
X107157098Y-70626046D01*
X107157098Y-70315628D01*
X107467517Y-70315628D01*
X107467517Y-70626046D01*
G37*
G36*
X108709191Y-69384372D02*
G01*
X108398772Y-69384372D01*
X108398772Y-69073953D01*
X108709191Y-69073953D01*
X108709191Y-69384372D01*
G37*
G36*
X107157098Y-71867721D02*
G01*
X106846679Y-71867721D01*
X106846679Y-71557302D01*
X107157098Y-71557302D01*
X107157098Y-71867721D01*
G37*
G36*
X112123795Y-67521861D02*
G01*
X111192539Y-67521861D01*
X111192539Y-66590605D01*
X112123795Y-66590605D01*
X112123795Y-67521861D01*
G37*
G36*
X106536261Y-67521861D02*
G01*
X105605005Y-67521861D01*
X105605005Y-66590605D01*
X106536261Y-66590605D01*
X106536261Y-67521861D01*
G37*
D11*
%TO.C,P1*%
X89974013Y-58932187D02*
X109604013Y-58942187D01*
X89974013Y-65832187D02*
X109604013Y-65842187D01*
X109604013Y-65842187D02*
G75*
G03*
X109604013Y-58942187I0J3450000D01*
G01*
X89974013Y-58932187D02*
G75*
G03*
X89974013Y-65832187I0J-3450000D01*
G01*
%TD*%
%LPC*%
D12*
%TO.C,U2*%
X95801499Y-70831714D03*
D13*
X103301626Y-70831714D03*
D14*
X97151511Y-72981574D03*
X101951613Y-68681600D03*
X101951613Y-72981574D03*
X97151511Y-68681600D03*
%TD*%
D15*
%TO.C,P1*%
X94294013Y-62392187D03*
X96494013Y-62392187D03*
X98694013Y-62392187D03*
X100894013Y-62392187D03*
X103094013Y-62392187D03*
X105294013Y-62392187D03*
%TD*%
M02*
