%TF.GenerationSoftware,KiCad,Pcbnew,(6.0.9-0)*%
%TF.CreationDate,2022-11-16T11:59:38+01:00*%
%TF.ProjectId,GlowBand Dock PCB,476c6f77-4261-46e6-9420-446f636b2050,rev?*%
%TF.SameCoordinates,Original*%
%TF.FileFunction,Copper,L1,Top*%
%TF.FilePolarity,Positive*%
%FSLAX46Y46*%
G04 Gerber Fmt 4.6, Leading zero omitted, Abs format (unit mm)*
G04 Created by KiCad (PCBNEW (6.0.9-0)) date 2022-11-16 11:59:38*
%MOMM*%
%LPD*%
G01*
G04 APERTURE LIST*
G04 Aperture macros list*
%AMRoundRect*
0 Rectangle with rounded corners*
0 $1 Rounding radius*
0 $2 $3 $4 $5 $6 $7 $8 $9 X,Y pos of 4 corners*
0 Add a 4 corners polygon primitive as box body*
4,1,4,$2,$3,$4,$5,$6,$7,$8,$9,$2,$3,0*
0 Add four circle primitives for the rounded corners*
1,1,$1+$1,$2,$3*
1,1,$1+$1,$4,$5*
1,1,$1+$1,$6,$7*
1,1,$1+$1,$8,$9*
0 Add four rect primitives between the rounded corners*
20,1,$1+$1,$2,$3,$4,$5,0*
20,1,$1+$1,$4,$5,$6,$7,0*
20,1,$1+$1,$6,$7,$8,$9,0*
20,1,$1+$1,$8,$9,$2,$3,0*%
G04 Aperture macros list end*
%TA.AperFunction,SMDPad,CuDef*%
%ADD10R,0.600000X0.419990*%
%TD*%
%TA.AperFunction,SMDPad,CuDef*%
%ADD11RoundRect,0.250000X0.312500X1.450000X-0.312500X1.450000X-0.312500X-1.450000X0.312500X-1.450000X0*%
%TD*%
%TA.AperFunction,SMDPad,CuDef*%
%ADD12RoundRect,0.135000X0.185000X-0.135000X0.185000X0.135000X-0.185000X0.135000X-0.185000X-0.135000X0*%
%TD*%
%TA.AperFunction,SMDPad,CuDef*%
%ADD13RoundRect,0.140000X-0.140000X-0.170000X0.140000X-0.170000X0.140000X0.170000X-0.140000X0.170000X0*%
%TD*%
%TA.AperFunction,SMDPad,CuDef*%
%ADD14R,2.000000X3.500000*%
%TD*%
%TA.AperFunction,ComponentPad*%
%ADD15C,1.200000*%
%TD*%
%TA.AperFunction,SMDPad,CuDef*%
%ADD16R,0.300000X0.800000*%
%TD*%
%TA.AperFunction,SMDPad,CuDef*%
%ADD17R,0.280010X0.900000*%
%TD*%
%TA.AperFunction,SMDPad,CuDef*%
%ADD18R,0.900000X0.280010*%
%TD*%
%TA.AperFunction,SMDPad,CuDef*%
%ADD19R,3.300000X3.300000*%
%TD*%
%TA.AperFunction,SMDPad,CuDef*%
%ADD20RoundRect,0.140000X0.170000X-0.140000X0.170000X0.140000X-0.170000X0.140000X-0.170000X-0.140000X0*%
%TD*%
%TA.AperFunction,SMDPad,CuDef*%
%ADD21RoundRect,0.135000X-0.185000X0.135000X-0.185000X-0.135000X0.185000X-0.135000X0.185000X0.135000X0*%
%TD*%
%TA.AperFunction,SMDPad,CuDef*%
%ADD22RoundRect,0.225000X-0.250000X0.225000X-0.250000X-0.225000X0.250000X-0.225000X0.250000X0.225000X0*%
%TD*%
%TA.AperFunction,ComponentPad*%
%ADD23C,1.900000*%
%TD*%
%TA.AperFunction,ViaPad*%
%ADD24C,1.300000*%
%TD*%
%TA.AperFunction,ViaPad*%
%ADD25C,0.800000*%
%TD*%
%TA.AperFunction,Conductor*%
%ADD26C,0.250000*%
%TD*%
%TA.AperFunction,Conductor*%
%ADD27C,0.200000*%
%TD*%
%TA.AperFunction,Conductor*%
%ADD28C,1.000000*%
%TD*%
%TA.AperFunction,Conductor*%
%ADD29C,0.150000*%
%TD*%
%TA.AperFunction,Conductor*%
%ADD30C,0.300000*%
%TD*%
G04 APERTURE END LIST*
D10*
%TO.P,U1,1,E*%
%TO.N,RTS*%
X109848775Y-62794774D03*
%TO.P,U1,2,B*%
%TO.N,DTR*%
X109848775Y-62144787D03*
%TO.P,U1,3,C*%
%TO.N,IO0*%
X109848775Y-61494800D03*
%TO.P,U1,4,E*%
%TO.N,DTR*%
X107948851Y-61494800D03*
%TO.P,U1,5,B*%
%TO.N,RTS*%
X107948851Y-62144787D03*
%TO.P,U1,6,C*%
%TO.N,EN*%
X107948851Y-62794774D03*
%TD*%
D11*
%TO.P,F1,1*%
%TO.N,Net-(F1-Pad1)*%
X100419113Y-65751587D03*
%TO.P,F1,2*%
%TO.N,VBUS*%
X96144113Y-65751587D03*
%TD*%
D12*
%TO.P,R1,1*%
%TO.N,GND*%
X104784013Y-70427187D03*
%TO.P,R1,2*%
%TO.N,USB-C CC1*%
X104784013Y-69407187D03*
%TD*%
D13*
%TO.P,C3,1*%
%TO.N,VBUS*%
X111100413Y-72355587D03*
%TO.P,C3,2*%
%TO.N,GND*%
X112060413Y-72355587D03*
%TD*%
D14*
%TO.P,P2,1*%
%TO.N,VBUS*%
X88731213Y-70831587D03*
%TD*%
D13*
%TO.P,C4,1*%
%TO.N,VBUS*%
X111100413Y-71288787D03*
%TO.P,C4,2*%
%TO.N,GND*%
X112060413Y-71288787D03*
%TD*%
D15*
%TO.P,U2,0,EH*%
%TO.N,GND*%
X97151511Y-72981574D03*
X101951613Y-68681600D03*
X101951613Y-72981574D03*
X97151511Y-68681600D03*
D16*
%TO.P,U2,A1,GND*%
X96801499Y-70031612D03*
%TO.P,U2,A2,SSTXP1*%
%TO.N,unconnected-(U2-PadA2)*%
X97301626Y-70031612D03*
%TO.P,U2,A3,SSTXN1*%
%TO.N,unconnected-(U2-PadA3)*%
X97801499Y-70031612D03*
%TO.P,U2,A4,VBUS*%
%TO.N,Net-(F1-Pad1)*%
X98301626Y-70031612D03*
%TO.P,U2,A5,CC1*%
%TO.N,USB-C CC1*%
X98801499Y-70031612D03*
%TO.P,U2,A6,DP1*%
%TO.N,USB-C DATA+*%
X99301626Y-70031612D03*
%TO.P,U2,A7,DN1*%
%TO.N,USB-C DATA-*%
X99801499Y-70031612D03*
%TO.P,U2,A8,SBU1*%
%TO.N,unconnected-(U2-PadA8)*%
X100301626Y-70031612D03*
%TO.P,U2,A9,VBUS*%
%TO.N,Net-(F1-Pad1)*%
X100801499Y-70031612D03*
%TO.P,U2,A10,SSRXN2*%
%TO.N,unconnected-(U2-PadA10)*%
X101301626Y-70031612D03*
%TO.P,U2,A11,SSRXN2*%
%TO.N,unconnected-(U2-PadA11)*%
X101801499Y-70031612D03*
%TO.P,U2,A12,GND*%
%TO.N,GND*%
X102301626Y-70031612D03*
%TO.P,U2,B1,GND*%
X102301626Y-71631562D03*
%TO.P,U2,B2,SSTXP2*%
%TO.N,unconnected-(U2-PadB2)*%
X101801499Y-71631562D03*
%TO.P,U2,B3,SSTXN2*%
%TO.N,unconnected-(U2-PadB3)*%
X101301626Y-71631562D03*
%TO.P,U2,B4,VBUS*%
%TO.N,Net-(F1-Pad1)*%
X100801499Y-71631562D03*
%TO.P,U2,B5,CC2*%
%TO.N,USB-C CC2*%
X100301626Y-71631562D03*
%TO.P,U2,B6,DP2*%
%TO.N,USB-C DATA+*%
X99801499Y-71631562D03*
%TO.P,U2,B7,DN2*%
%TO.N,USB-C DATA-*%
X99301626Y-71631562D03*
%TO.P,U2,B8,SBU2*%
%TO.N,unconnected-(U2-PadB8)*%
X98801499Y-71631562D03*
%TO.P,U2,B9,VBUS*%
%TO.N,Net-(F1-Pad1)*%
X98301626Y-71631562D03*
%TO.P,U2,B10,SSRXN1*%
%TO.N,unconnected-(U2-PadB10)*%
X97801499Y-71631562D03*
%TO.P,U2,B11,SSRXN1*%
%TO.N,unconnected-(U2-PadB11)*%
X97301626Y-71631562D03*
%TO.P,U2,B12,GND*%
%TO.N,GND*%
X96801499Y-71631562D03*
%TD*%
D17*
%TO.P,U3,1,DCD*%
%TO.N,unconnected-(U3-Pad1)*%
X107194343Y-69651003D03*
%TO.P,U3,2,RI*%
%TO.N,unconnected-(U3-Pad2)*%
X107694724Y-69651003D03*
%TO.P,U3,3,GND*%
%TO.N,GND*%
X108195105Y-69651003D03*
%TO.P,U3,4,D+*%
%TO.N,USB-C DATA+*%
X108695486Y-69651003D03*
%TO.P,U3,5,D-*%
%TO.N,USB-C DATA-*%
X109195867Y-69651003D03*
%TO.P,U3,6,VDD*%
%TO.N,Net-(C1-Pad1)*%
X109696248Y-69651003D03*
%TO.P,U3,7,REGIN*%
%TO.N,VBUS*%
X110196629Y-69651003D03*
D18*
%TO.P,U3,8,VBUS*%
X111195613Y-68652273D03*
%TO.P,U3,9,~{RST}*%
%TO.N,unconnected-(U3-Pad9)*%
X111195613Y-68151892D03*
%TO.P,U3,10,NC*%
%TO.N,unconnected-(U3-Pad10)*%
X111195613Y-67651511D03*
%TO.P,U3,11,~{SUSPEND}*%
%TO.N,unconnected-(U3-Pad11)*%
X111195613Y-67151130D03*
%TO.P,U3,12,SUSPEND*%
%TO.N,unconnected-(U3-Pad12)*%
X111195613Y-66650749D03*
%TO.P,U3,13,NC*%
%TO.N,unconnected-(U3-Pad13)*%
X111195613Y-66150368D03*
%TO.P,U3,14,NC*%
%TO.N,unconnected-(U3-Pad14)*%
X111195613Y-65649987D03*
D17*
%TO.P,U3,15,NC*%
%TO.N,unconnected-(U3-Pad15)*%
X110196629Y-64651003D03*
%TO.P,U3,16,NC*%
%TO.N,unconnected-(U3-Pad16)*%
X109696248Y-64651003D03*
%TO.P,U3,17,NC*%
%TO.N,unconnected-(U3-Pad17)*%
X109195867Y-64651003D03*
%TO.P,U3,18,NC*%
%TO.N,unconnected-(U3-Pad18)*%
X108695486Y-64651003D03*
%TO.P,U3,19,NC*%
%TO.N,unconnected-(U3-Pad19)*%
X108195105Y-64651003D03*
%TO.P,U3,20,NC*%
%TO.N,unconnected-(U3-Pad20)*%
X107694724Y-64651003D03*
%TO.P,U3,21,NC*%
%TO.N,unconnected-(U3-Pad21)*%
X107194343Y-64651003D03*
D18*
%TO.P,U3,22,NC*%
%TO.N,unconnected-(U3-Pad22)*%
X106195613Y-65649987D03*
%TO.P,U3,23,CTS*%
%TO.N,unconnected-(U3-Pad23)*%
X106195613Y-66150368D03*
%TO.P,U3,24,RTS*%
%TO.N,RTS*%
X106195613Y-66650749D03*
%TO.P,U3,25,RXD*%
%TO.N,TXD0*%
X106195613Y-67151130D03*
%TO.P,U3,26,TXD*%
%TO.N,RXD0*%
X106195613Y-67651511D03*
%TO.P,U3,27,DSR*%
%TO.N,unconnected-(U3-Pad27)*%
X106195613Y-68151892D03*
%TO.P,U3,28,DTR*%
%TO.N,DTR*%
X106195613Y-68652273D03*
D19*
%TO.P,U3,29,GND_PAD*%
%TO.N,GND*%
X108695486Y-67151130D03*
%TD*%
D20*
%TO.P,C2,1*%
%TO.N,GND*%
X108380013Y-73343587D03*
%TO.P,C2,2*%
%TO.N,Net-(C1-Pad1)*%
X108380013Y-72383587D03*
%TD*%
D21*
%TO.P,R2,1*%
%TO.N,GND*%
X104784013Y-71388387D03*
%TO.P,R2,2*%
%TO.N,USB-C CC2*%
X104784013Y-72408387D03*
%TD*%
D22*
%TO.P,C1,1*%
%TO.N,Net-(C1-Pad1)*%
X109700813Y-71529787D03*
%TO.P,C1,2*%
%TO.N,GND*%
X109700813Y-73079787D03*
%TD*%
D14*
%TO.P,P3,1*%
%TO.N,GND*%
X92871413Y-70831587D03*
%TD*%
D23*
%TO.P,P1,1*%
%TO.N,VBUS*%
X94294013Y-62392187D03*
%TO.P,P1,2*%
%TO.N,GND*%
X96494013Y-62392187D03*
%TO.P,P1,3*%
%TO.N,RXD0*%
X98694013Y-62392187D03*
%TO.P,P1,4*%
%TO.N,TXD0*%
X100894013Y-62392187D03*
%TO.P,P1,5*%
%TO.N,IO0*%
X103094013Y-62392187D03*
%TO.P,P1,6*%
%TO.N,EN*%
X105294013Y-62392187D03*
%TD*%
D24*
%TO.N,*%
X111506000Y-60604400D03*
X88188800Y-60477400D03*
D25*
%TO.N,GND*%
X88188800Y-66294000D03*
X88087200Y-62433200D03*
X94725613Y-68901187D03*
X93980000Y-67614800D03*
X90779600Y-71018400D03*
X90982800Y-60350400D03*
X101904800Y-60350400D03*
%TO.N,VBUS*%
X98129213Y-65091187D03*
X111195613Y-70334387D03*
%TO.N,RXD0*%
X103463213Y-66615187D03*
%TO.N,USB-C CC1*%
X103107613Y-69166887D03*
X99022512Y-66644886D03*
%TO.N,USB-C CC2*%
X100466013Y-72863587D03*
X103768013Y-72558787D03*
%TO.N,RTS*%
X105139613Y-66107187D03*
X110829213Y-63363987D03*
%TO.N,DTR*%
X104530013Y-68075087D03*
X111896013Y-62754387D03*
%TO.N,USB-C DATA+*%
X99348413Y-72761987D03*
X106816013Y-71593587D03*
X99277869Y-67854131D03*
%TO.N,USB-C DATA-*%
X100008813Y-68799587D03*
X106968413Y-72609587D03*
%TD*%
D26*
%TO.N,GND*%
X108195105Y-70351003D02*
X107917721Y-70628387D01*
X112060413Y-72851587D02*
X111692813Y-73219187D01*
D27*
X102416051Y-71745987D02*
X102301626Y-71631562D01*
X102466851Y-69866387D02*
X104223213Y-69866387D01*
X104784013Y-70427187D02*
X104784013Y-71388387D01*
D26*
X108301213Y-73422387D02*
X102392426Y-73422387D01*
X112060413Y-72355587D02*
X112060413Y-72851587D01*
D27*
X102301626Y-69031613D02*
X101951613Y-68681600D01*
D26*
X111692813Y-73219187D02*
X109840213Y-73219187D01*
X112060413Y-71288787D02*
X112060413Y-72355587D01*
D27*
X96801499Y-71631562D02*
X96801499Y-72631562D01*
X96801499Y-70031612D02*
X96801499Y-71631562D01*
X104223213Y-69866387D02*
X104784013Y-70427187D01*
D26*
X109840213Y-73219187D02*
X109700813Y-73079787D01*
D27*
X96801499Y-69031612D02*
X97151511Y-68681600D01*
D26*
X108195105Y-69651003D02*
X108195105Y-67651511D01*
D27*
X104426413Y-71745987D02*
X102416051Y-71745987D01*
D28*
X94725613Y-68901187D02*
X94725613Y-68977387D01*
D27*
X102301626Y-70031612D02*
X102466851Y-69866387D01*
D26*
X104985213Y-70628387D02*
X104784013Y-70427187D01*
D27*
X96801499Y-70031612D02*
X96801499Y-69031612D01*
X104784013Y-71388387D02*
X104426413Y-71745987D01*
X96801499Y-72631562D02*
X97151511Y-72981574D01*
X102301626Y-70031612D02*
X102301626Y-71631562D01*
D26*
X108195105Y-69651003D02*
X108195105Y-70351003D01*
X102392426Y-73422387D02*
X101951613Y-72981574D01*
D27*
X102301626Y-71631562D02*
X102301626Y-72631561D01*
D26*
X109437013Y-73343587D02*
X109700813Y-73079787D01*
X108380013Y-73343587D02*
X108301213Y-73422387D01*
X108195105Y-67651511D02*
X108695486Y-67151130D01*
D27*
X102301626Y-72631561D02*
X101951613Y-72981574D01*
X102301626Y-70031612D02*
X102301626Y-69031613D01*
D26*
X107917721Y-70628387D02*
X104985213Y-70628387D01*
D28*
X94725613Y-68977387D02*
X92871413Y-70831587D01*
D26*
X108380013Y-73343587D02*
X109437013Y-73343587D01*
D28*
%TO.N,VBUS*%
X94065213Y-65751587D02*
X94294013Y-65522787D01*
D26*
X111195613Y-71193587D02*
X111100413Y-71288787D01*
X110196629Y-70605403D02*
X110880013Y-71288787D01*
D28*
X94294013Y-65522787D02*
X94294013Y-62392187D01*
X92287213Y-65751587D02*
X88731213Y-69307587D01*
D26*
X111195613Y-68652273D02*
X111195613Y-71193587D01*
D28*
X94065213Y-65751587D02*
X92287213Y-65751587D01*
X96144113Y-65751587D02*
X94065213Y-65751587D01*
D26*
X96804513Y-65091187D02*
X96144113Y-65751587D01*
X111100413Y-71288787D02*
X111100413Y-72355587D01*
X110880013Y-71288787D02*
X111100413Y-71288787D01*
X110196629Y-69651003D02*
X110196629Y-70605403D01*
D28*
X88731213Y-69307587D02*
X88731213Y-70831587D01*
D26*
X98129213Y-65091187D02*
X96804513Y-65091187D01*
D29*
%TO.N,RXD0*%
X104682413Y-67224787D02*
X104072813Y-67224787D01*
X104072813Y-67224787D02*
X103463213Y-66615187D01*
X106195613Y-67651511D02*
X105312337Y-67651511D01*
X105109137Y-67651511D02*
X104682413Y-67224787D01*
X105312337Y-67651511D02*
X105109137Y-67651511D01*
%TO.N,TXD0*%
X106195613Y-67151130D02*
X105116756Y-67151130D01*
X103361613Y-65395987D02*
X103361613Y-64859787D01*
X103361613Y-64859787D02*
X100894013Y-62392187D01*
X105116756Y-67151130D02*
X103361613Y-65395987D01*
D26*
%TO.N,IO0*%
X109848775Y-61494800D02*
X109127162Y-60773187D01*
X103094013Y-61853587D02*
X103094013Y-62392187D01*
X109127162Y-60773187D02*
X104174413Y-60773187D01*
X104174413Y-60773187D02*
X103094013Y-61853587D01*
%TO.N,EN*%
X107948851Y-62794774D02*
X105696600Y-62794774D01*
X105696600Y-62794774D02*
X105294013Y-62392187D01*
D29*
%TO.N,USB-C CC1*%
X104633613Y-69256787D02*
X104784013Y-69407187D01*
X103197513Y-69256787D02*
X104633613Y-69256787D01*
X98801499Y-69065473D02*
X98801499Y-70031612D01*
X98586413Y-67080985D02*
X98586413Y-68850387D01*
X103107613Y-69166887D02*
X103197513Y-69256787D01*
X99022512Y-66644886D02*
X98586413Y-67080985D01*
X98586413Y-68850387D02*
X98801499Y-69065473D01*
%TO.N,USB-C CC2*%
X100301626Y-71631562D02*
X100301626Y-72597600D01*
X104633613Y-72558787D02*
X104784013Y-72408387D01*
X100301626Y-72699200D02*
X100466013Y-72863587D01*
X100301626Y-72597600D02*
X100301626Y-72699200D01*
X103768013Y-72558787D02*
X104633613Y-72558787D01*
D26*
%TO.N,RTS*%
X109338767Y-62794774D02*
X109848775Y-62794774D01*
X107948851Y-62144787D02*
X108688780Y-62144787D01*
X105378375Y-66650749D02*
X106195613Y-66650749D01*
X108688780Y-62144787D02*
X109338767Y-62794774D01*
X109848775Y-62794774D02*
X110260000Y-62794774D01*
X105139613Y-66411987D02*
X105378375Y-66650749D01*
X110260000Y-62794774D02*
X110829213Y-63363987D01*
X105139613Y-66107187D02*
X105139613Y-66411987D01*
%TO.N,DTR*%
X111286413Y-62144787D02*
X111896013Y-62754387D01*
X109325176Y-62144787D02*
X108675189Y-61494800D01*
X104530013Y-68075087D02*
X105107199Y-68652273D01*
X105107199Y-68652273D02*
X106195613Y-68652273D01*
X109848775Y-62144787D02*
X111286413Y-62144787D01*
X108675189Y-61494800D02*
X107948851Y-61494800D01*
X109848775Y-62144787D02*
X109325176Y-62144787D01*
D29*
%TO.N,USB-C DATA+*%
X99043613Y-68704500D02*
X99301626Y-68962513D01*
X107324013Y-71085587D02*
X108035213Y-71085587D01*
X99043613Y-68088387D02*
X99043613Y-68704500D01*
X106816013Y-71593587D02*
X107324013Y-71085587D01*
X108035213Y-71085587D02*
X108695486Y-70425314D01*
X99277869Y-67854131D02*
X99043613Y-68088387D01*
D27*
X99801499Y-72308901D02*
X99801499Y-71631562D01*
D29*
X99301626Y-68962513D02*
X99301626Y-70031612D01*
D27*
X99348413Y-72761987D02*
X99801499Y-72308901D01*
D29*
X108695486Y-70425314D02*
X108695486Y-69651003D01*
%TO.N,USB-C DATA-*%
X108300413Y-71531587D02*
X109195867Y-70636133D01*
X109195867Y-70636133D02*
X109195867Y-69651003D01*
D27*
X100008813Y-68799587D02*
X99801499Y-69006901D01*
X99801499Y-69006901D02*
X99801499Y-70031612D01*
X99301626Y-71132374D02*
X99801499Y-70632501D01*
X99801499Y-70632501D02*
X99801499Y-70031612D01*
X99301626Y-71631562D02*
X99301626Y-71132374D01*
D29*
X106968413Y-72609587D02*
X108046413Y-71531587D01*
X108046413Y-71531587D02*
X108300413Y-71531587D01*
D30*
%TO.N,Net-(F1-Pad1)*%
X98891213Y-65751587D02*
X100419113Y-65751587D01*
D26*
X100801499Y-66133973D02*
X100419113Y-65751587D01*
D30*
X97722813Y-67783587D02*
X97722813Y-66919987D01*
X100801499Y-71631562D02*
X100801499Y-70031612D01*
X98129213Y-69104387D02*
X98129213Y-68189987D01*
X98301626Y-69276800D02*
X98129213Y-69104387D01*
X98129213Y-68189987D02*
X97722813Y-67783587D01*
X98301626Y-71631562D02*
X98301626Y-70031612D01*
X97722813Y-66919987D02*
X98891213Y-65751587D01*
X100801499Y-70031612D02*
X100801499Y-66133973D01*
X98301626Y-70031612D02*
X98301626Y-69276800D01*
D26*
%TO.N,Net-(C1-Pad1)*%
X109696248Y-71525222D02*
X109700813Y-71529787D01*
X109233813Y-71529787D02*
X108380013Y-72383587D01*
X109700813Y-71529787D02*
X109233813Y-71529787D01*
X109696248Y-69651003D02*
X109696248Y-71525222D01*
%TD*%
%TA.AperFunction,Conductor*%
%TO.N,GND*%
G36*
X111055584Y-59320489D02*
G01*
X111102077Y-59374145D01*
X111112181Y-59444419D01*
X111082687Y-59508999D01*
X111031075Y-59544698D01*
X111005116Y-59554275D01*
X110822134Y-59663139D01*
X110662054Y-59803525D01*
X110530238Y-59970733D01*
X110527549Y-59975844D01*
X110527547Y-59975847D01*
X110483034Y-60060452D01*
X110431100Y-60159162D01*
X110429386Y-60164683D01*
X110429384Y-60164687D01*
X110388669Y-60295811D01*
X110367961Y-60362502D01*
X110342936Y-60573944D01*
X110343314Y-60579711D01*
X110347529Y-60644028D01*
X110332025Y-60713311D01*
X110281525Y-60763213D01*
X110208190Y-60777530D01*
X110196909Y-60776305D01*
X110078375Y-60776305D01*
X110010254Y-60756303D01*
X109989279Y-60739400D01*
X109823824Y-60573944D01*
X109630809Y-60380929D01*
X109623275Y-60372650D01*
X109619162Y-60366169D01*
X109569510Y-60319543D01*
X109566669Y-60316789D01*
X109546932Y-60297052D01*
X109543735Y-60294572D01*
X109534713Y-60286867D01*
X109517955Y-60271130D01*
X109502483Y-60256601D01*
X109495537Y-60252782D01*
X109495534Y-60252780D01*
X109484728Y-60246839D01*
X109468209Y-60235988D01*
X109467582Y-60235502D01*
X109452203Y-60223573D01*
X109444934Y-60220428D01*
X109444930Y-60220425D01*
X109411625Y-60206013D01*
X109400975Y-60200796D01*
X109362222Y-60179492D01*
X109342599Y-60174454D01*
X109323896Y-60168050D01*
X109312582Y-60163154D01*
X109312581Y-60163154D01*
X109305307Y-60160006D01*
X109297484Y-60158767D01*
X109297474Y-60158764D01*
X109261638Y-60153088D01*
X109250018Y-60150682D01*
X109214873Y-60141659D01*
X109214872Y-60141659D01*
X109207192Y-60139687D01*
X109186938Y-60139687D01*
X109167227Y-60138136D01*
X109164696Y-60137735D01*
X109147219Y-60134967D01*
X109139327Y-60135713D01*
X109103201Y-60139128D01*
X109091343Y-60139687D01*
X104253176Y-60139687D01*
X104241992Y-60139160D01*
X104234504Y-60137486D01*
X104226581Y-60137735D01*
X104166446Y-60139625D01*
X104162488Y-60139687D01*
X104134557Y-60139687D01*
X104130642Y-60140182D01*
X104130638Y-60140182D01*
X104130580Y-60140190D01*
X104130551Y-60140193D01*
X104118709Y-60141126D01*
X104074523Y-60142514D01*
X104057157Y-60147559D01*
X104055071Y-60148165D01*
X104035719Y-60152173D01*
X104028648Y-60153067D01*
X104015616Y-60154713D01*
X104008247Y-60157630D01*
X104008245Y-60157631D01*
X103974510Y-60170987D01*
X103963282Y-60174832D01*
X103920820Y-60187169D01*
X103913998Y-60191203D01*
X103913992Y-60191206D01*
X103903381Y-60197481D01*
X103885631Y-60206177D01*
X103874169Y-60210715D01*
X103874164Y-60210718D01*
X103866796Y-60213635D01*
X103849383Y-60226286D01*
X103831038Y-60239614D01*
X103821120Y-60246130D01*
X103809876Y-60252780D01*
X103783050Y-60268645D01*
X103768726Y-60282969D01*
X103753694Y-60295808D01*
X103737306Y-60307715D01*
X103709125Y-60341780D01*
X103701135Y-60350560D01*
X103155448Y-60896247D01*
X103093136Y-60930273D01*
X103064815Y-60933143D01*
X102997094Y-60932316D01*
X102997092Y-60932316D01*
X102991924Y-60932253D01*
X102754850Y-60968530D01*
X102526884Y-61043041D01*
X102314149Y-61153784D01*
X102310016Y-61156887D01*
X102310013Y-61156889D01*
X102161050Y-61268734D01*
X102122358Y-61297785D01*
X102118786Y-61301523D01*
X102086551Y-61335255D01*
X102025027Y-61370685D01*
X101954114Y-61367228D01*
X101902263Y-61333002D01*
X101892117Y-61321852D01*
X101888066Y-61318653D01*
X101888062Y-61318649D01*
X101734262Y-61197186D01*
X101703901Y-61173208D01*
X101493935Y-61057300D01*
X101357859Y-61009113D01*
X101272733Y-60978968D01*
X101272729Y-60978967D01*
X101267858Y-60977242D01*
X101262765Y-60976335D01*
X101262762Y-60976334D01*
X101036829Y-60936089D01*
X101036823Y-60936088D01*
X101031740Y-60935183D01*
X100944473Y-60934117D01*
X100797094Y-60932316D01*
X100797092Y-60932316D01*
X100791924Y-60932253D01*
X100554850Y-60968530D01*
X100326884Y-61043041D01*
X100114149Y-61153784D01*
X100110016Y-61156887D01*
X100110013Y-61156889D01*
X99961050Y-61268734D01*
X99922358Y-61297785D01*
X99918786Y-61301523D01*
X99886551Y-61335255D01*
X99825027Y-61370685D01*
X99754114Y-61367228D01*
X99702263Y-61333002D01*
X99692117Y-61321852D01*
X99688066Y-61318653D01*
X99688062Y-61318649D01*
X99534262Y-61197186D01*
X99503901Y-61173208D01*
X99293935Y-61057300D01*
X99157859Y-61009113D01*
X99072733Y-60978968D01*
X99072729Y-60978967D01*
X99067858Y-60977242D01*
X99062765Y-60976335D01*
X99062762Y-60976334D01*
X98836829Y-60936089D01*
X98836823Y-60936088D01*
X98831740Y-60935183D01*
X98744473Y-60934117D01*
X98597094Y-60932316D01*
X98597092Y-60932316D01*
X98591924Y-60932253D01*
X98354850Y-60968530D01*
X98126884Y-61043041D01*
X97914149Y-61153784D01*
X97910016Y-61156887D01*
X97910013Y-61156889D01*
X97761050Y-61268734D01*
X97722358Y-61297785D01*
X97718786Y-61301523D01*
X97590048Y-61436240D01*
X97556661Y-61471177D01*
X97553747Y-61475449D01*
X97553746Y-61475450D01*
X97509525Y-61540276D01*
X97421508Y-61669304D01*
X97406977Y-61700609D01*
X97322706Y-61882152D01*
X97322704Y-61882157D01*
X97320529Y-61886843D01*
X97319147Y-61891827D01*
X97314797Y-61907512D01*
X97282475Y-61962935D01*
X96866035Y-62379375D01*
X96858421Y-62393319D01*
X96858552Y-62395152D01*
X96862803Y-62401767D01*
X97283957Y-62822921D01*
X97311604Y-62864611D01*
X97385765Y-63047246D01*
X97385769Y-63047254D01*
X97387715Y-63052046D01*
X97390415Y-63056452D01*
X97390418Y-63056458D01*
X97508061Y-63248434D01*
X97513027Y-63256538D01*
X97516411Y-63260444D01*
X97516412Y-63260446D01*
X97525475Y-63270908D01*
X97670056Y-63437817D01*
X97854584Y-63591015D01*
X98061656Y-63712018D01*
X98066481Y-63713860D01*
X98066482Y-63713861D01*
X98142994Y-63743078D01*
X98285710Y-63797576D01*
X98290776Y-63798607D01*
X98290777Y-63798607D01*
X98347052Y-63810056D01*
X98520729Y-63845391D01*
X98656277Y-63850361D01*
X98755238Y-63853990D01*
X98755242Y-63853990D01*
X98760402Y-63854179D01*
X98765522Y-63853523D01*
X98765524Y-63853523D01*
X98993164Y-63824362D01*
X98993165Y-63824362D01*
X98998292Y-63823705D01*
X99009908Y-63820220D01*
X99223055Y-63756273D01*
X99223060Y-63756271D01*
X99228010Y-63754786D01*
X99301661Y-63718705D01*
X99371633Y-63706699D01*
X99436990Y-63734429D01*
X99476980Y-63793092D01*
X99478906Y-63864063D01*
X99464351Y-63897973D01*
X99429632Y-63954298D01*
X99414498Y-63978849D01*
X99404677Y-64008459D01*
X99363709Y-64131975D01*
X99358816Y-64146726D01*
X99348113Y-64251187D01*
X99348113Y-64967087D01*
X99328111Y-65035208D01*
X99274455Y-65081701D01*
X99222113Y-65093087D01*
X99156368Y-65093087D01*
X99088247Y-65073085D01*
X99041754Y-65019429D01*
X99031058Y-64980258D01*
X99023445Y-64907821D01*
X99023444Y-64907818D01*
X99022755Y-64901259D01*
X98963740Y-64719631D01*
X98868253Y-64554243D01*
X98764131Y-64438603D01*
X98744888Y-64417232D01*
X98744887Y-64417231D01*
X98740466Y-64412321D01*
X98585965Y-64300069D01*
X98579937Y-64297385D01*
X98579935Y-64297384D01*
X98417532Y-64225078D01*
X98417531Y-64225078D01*
X98411501Y-64222393D01*
X98318101Y-64202540D01*
X98231157Y-64184059D01*
X98231152Y-64184059D01*
X98224700Y-64182687D01*
X98033726Y-64182687D01*
X98027274Y-64184059D01*
X98027269Y-64184059D01*
X97940325Y-64202540D01*
X97846925Y-64222393D01*
X97840895Y-64225078D01*
X97840894Y-64225078D01*
X97678491Y-64297384D01*
X97678489Y-64297385D01*
X97672461Y-64300069D01*
X97517960Y-64412321D01*
X97513545Y-64417224D01*
X97508633Y-64421647D01*
X97507508Y-64420398D01*
X97454199Y-64453238D01*
X97421013Y-64457687D01*
X97341113Y-64457687D01*
X97272992Y-64437685D01*
X97226499Y-64384029D01*
X97215113Y-64331687D01*
X97215113Y-64251187D01*
X97212404Y-64225078D01*
X97204851Y-64152279D01*
X97204850Y-64152275D01*
X97204139Y-64145421D01*
X97201156Y-64136478D01*
X97150481Y-63984589D01*
X97148163Y-63977641D01*
X97087307Y-63879299D01*
X97068470Y-63810848D01*
X97089631Y-63743078D01*
X97139020Y-63699846D01*
X97238479Y-63651122D01*
X97247345Y-63645837D01*
X97314958Y-63597608D01*
X97323359Y-63586908D01*
X97316371Y-63573755D01*
X95707884Y-61965268D01*
X95679919Y-61920340D01*
X95679433Y-61920551D01*
X95678001Y-61917258D01*
X95666182Y-61890075D01*
X95585860Y-61705346D01*
X95585858Y-61705343D01*
X95583800Y-61700609D01*
X95566587Y-61674001D01*
X95456338Y-61503583D01*
X95456336Y-61503580D01*
X95453528Y-61499240D01*
X95424593Y-61467440D01*
X95295595Y-61325674D01*
X95295593Y-61325672D01*
X95292117Y-61321852D01*
X95288066Y-61318653D01*
X95288062Y-61318649D01*
X95134262Y-61197186D01*
X95663808Y-61197186D01*
X95670553Y-61209517D01*
X96481201Y-62020165D01*
X96495145Y-62027779D01*
X96496978Y-62027648D01*
X96503593Y-62023397D01*
X97318603Y-61208387D01*
X97325624Y-61195530D01*
X97317851Y-61184863D01*
X97307680Y-61176830D01*
X97299096Y-61171127D01*
X97098263Y-61060261D01*
X97088851Y-61056031D01*
X96872604Y-60979453D01*
X96862633Y-60976819D01*
X96636782Y-60936589D01*
X96626529Y-60935620D01*
X96397129Y-60932817D01*
X96386845Y-60933537D01*
X96160080Y-60968237D01*
X96150052Y-60970626D01*
X95931997Y-61041897D01*
X95922488Y-61045894D01*
X95719006Y-61151820D01*
X95710281Y-61157314D01*
X95672261Y-61185861D01*
X95663808Y-61197186D01*
X95134262Y-61197186D01*
X95103901Y-61173208D01*
X94893935Y-61057300D01*
X94757859Y-61009113D01*
X94672733Y-60978968D01*
X94672729Y-60978967D01*
X94667858Y-60977242D01*
X94662765Y-60976335D01*
X94662762Y-60976334D01*
X94436829Y-60936089D01*
X94436823Y-60936088D01*
X94431740Y-60935183D01*
X94344473Y-60934117D01*
X94197094Y-60932316D01*
X94197092Y-60932316D01*
X94191924Y-60932253D01*
X93954850Y-60968530D01*
X93726884Y-61043041D01*
X93514149Y-61153784D01*
X93510016Y-61156887D01*
X93510013Y-61156889D01*
X93361050Y-61268734D01*
X93322358Y-61297785D01*
X93318786Y-61301523D01*
X93190048Y-61436240D01*
X93156661Y-61471177D01*
X93153747Y-61475449D01*
X93153746Y-61475450D01*
X93109525Y-61540276D01*
X93021508Y-61669304D01*
X92982690Y-61752929D01*
X92922707Y-61882152D01*
X92920529Y-61886843D01*
X92856437Y-62117955D01*
X92830951Y-62356431D01*
X92831248Y-62361583D01*
X92831248Y-62361587D01*
X92833565Y-62401767D01*
X92844757Y-62595867D01*
X92897483Y-62829833D01*
X92987715Y-63052046D01*
X93113027Y-63256538D01*
X93252265Y-63417278D01*
X93254750Y-63420147D01*
X93284233Y-63484732D01*
X93285513Y-63502644D01*
X93285513Y-64617087D01*
X93265511Y-64685208D01*
X93211855Y-64731701D01*
X93159513Y-64743087D01*
X92349053Y-64743087D01*
X92335445Y-64742350D01*
X92303949Y-64738928D01*
X92303945Y-64738928D01*
X92297824Y-64738263D01*
X92279824Y-64739838D01*
X92247822Y-64742637D01*
X92242997Y-64742966D01*
X92240526Y-64743087D01*
X92237444Y-64743087D01*
X92214976Y-64745290D01*
X92194702Y-64747278D01*
X92193387Y-64747400D01*
X92161126Y-64750223D01*
X92100800Y-64755500D01*
X92095681Y-64756987D01*
X92090380Y-64757507D01*
X92001407Y-64784369D01*
X92000267Y-64784707D01*
X91910876Y-64810678D01*
X91906142Y-64813132D01*
X91901044Y-64814671D01*
X91895600Y-64817565D01*
X91895599Y-64817566D01*
X91819044Y-64858271D01*
X91817876Y-64858885D01*
X91748240Y-64894981D01*
X91735287Y-64901695D01*
X91731124Y-64905018D01*
X91726417Y-64907521D01*
X91721643Y-64911415D01*
X91721641Y-64911416D01*
X91654318Y-64966324D01*
X91653373Y-64967087D01*
X91614240Y-64998326D01*
X91611749Y-65000817D01*
X91611022Y-65001467D01*
X91606676Y-65005179D01*
X91603973Y-65007384D01*
X91573151Y-65032522D01*
X91569228Y-65037264D01*
X91569226Y-65037266D01*
X91543916Y-65067860D01*
X91535926Y-65076640D01*
X88076384Y-68536182D01*
X88014072Y-68570208D01*
X87987289Y-68573087D01*
X87683079Y-68573087D01*
X87620897Y-68579842D01*
X87484508Y-68630972D01*
X87367952Y-68718326D01*
X87280598Y-68834882D01*
X87229468Y-68971271D01*
X87222713Y-69033453D01*
X87222713Y-72629721D01*
X87229468Y-72691903D01*
X87280598Y-72828292D01*
X87367952Y-72944848D01*
X87484508Y-73032202D01*
X87620897Y-73083332D01*
X87683079Y-73090087D01*
X89779347Y-73090087D01*
X89841529Y-73083332D01*
X89977918Y-73032202D01*
X90094474Y-72944848D01*
X90181828Y-72828292D01*
X90232958Y-72691903D01*
X90239713Y-72629721D01*
X90239713Y-72626256D01*
X91363414Y-72626256D01*
X91363784Y-72633077D01*
X91369308Y-72683939D01*
X91372934Y-72699191D01*
X91418089Y-72819641D01*
X91426627Y-72835236D01*
X91503128Y-72937311D01*
X91515689Y-72949872D01*
X91617764Y-73026373D01*
X91633359Y-73034911D01*
X91753807Y-73080065D01*
X91769062Y-73083692D01*
X91819927Y-73089218D01*
X91826741Y-73089587D01*
X92599298Y-73089587D01*
X92614537Y-73085112D01*
X92615742Y-73083722D01*
X92617413Y-73076039D01*
X92617413Y-73071471D01*
X93125413Y-73071471D01*
X93129888Y-73086710D01*
X93131278Y-73087915D01*
X93138961Y-73089586D01*
X93916082Y-73089586D01*
X93922903Y-73089216D01*
X93973765Y-73083692D01*
X93989017Y-73080066D01*
X94109467Y-73034911D01*
X94125062Y-73026373D01*
X94227137Y-72949872D01*
X94239698Y-72937311D01*
X94316199Y-72835236D01*
X94324737Y-72819641D01*
X94369891Y-72699193D01*
X94373518Y-72683938D01*
X94379044Y-72633073D01*
X94379413Y-72626259D01*
X94379413Y-71103702D01*
X94374938Y-71088463D01*
X94373548Y-71087258D01*
X94365865Y-71085587D01*
X93143528Y-71085587D01*
X93128289Y-71090062D01*
X93127084Y-71091452D01*
X93125413Y-71099135D01*
X93125413Y-73071471D01*
X92617413Y-73071471D01*
X92617413Y-71103702D01*
X92612938Y-71088463D01*
X92611548Y-71087258D01*
X92603865Y-71085587D01*
X91381529Y-71085587D01*
X91366290Y-71090062D01*
X91365085Y-71091452D01*
X91363414Y-71099135D01*
X91363414Y-72626256D01*
X90239713Y-72626256D01*
X90239713Y-70559472D01*
X91363413Y-70559472D01*
X91367888Y-70574711D01*
X91369278Y-70575916D01*
X91376961Y-70577587D01*
X92599298Y-70577587D01*
X92614537Y-70573112D01*
X92615742Y-70571722D01*
X92617413Y-70564039D01*
X92617413Y-70559472D01*
X93125413Y-70559472D01*
X93129888Y-70574711D01*
X93131278Y-70575916D01*
X93138961Y-70577587D01*
X94361297Y-70577587D01*
X94376536Y-70573112D01*
X94377741Y-70571722D01*
X94379412Y-70564039D01*
X94379412Y-69036918D01*
X94379042Y-69030097D01*
X94373518Y-68979235D01*
X94369892Y-68963983D01*
X94324737Y-68843533D01*
X94316199Y-68827938D01*
X94239698Y-68725863D01*
X94227137Y-68713302D01*
X94125062Y-68636801D01*
X94109467Y-68628263D01*
X93989019Y-68583109D01*
X93973764Y-68579482D01*
X93922899Y-68573956D01*
X93916085Y-68573587D01*
X93143528Y-68573587D01*
X93128289Y-68578062D01*
X93127084Y-68579452D01*
X93125413Y-68587135D01*
X93125413Y-70559472D01*
X92617413Y-70559472D01*
X92617413Y-68591703D01*
X92612938Y-68576464D01*
X92611548Y-68575259D01*
X92603865Y-68573588D01*
X91826744Y-68573588D01*
X91819923Y-68573958D01*
X91769061Y-68579482D01*
X91753809Y-68583108D01*
X91633359Y-68628263D01*
X91617764Y-68636801D01*
X91515689Y-68713302D01*
X91503128Y-68725863D01*
X91426627Y-68827938D01*
X91418089Y-68843533D01*
X91372935Y-68963981D01*
X91369308Y-68979236D01*
X91363782Y-69030101D01*
X91363413Y-69036915D01*
X91363413Y-70559472D01*
X90239713Y-70559472D01*
X90239713Y-69277512D01*
X90259715Y-69209391D01*
X90276618Y-69188417D01*
X92668042Y-66796992D01*
X92730354Y-66762967D01*
X92757137Y-66760087D01*
X94003370Y-66760087D01*
X94016977Y-66760824D01*
X94048475Y-66764246D01*
X94048480Y-66764246D01*
X94054601Y-66764911D01*
X94104266Y-66760566D01*
X94115247Y-66760087D01*
X94947113Y-66760087D01*
X95015234Y-66780089D01*
X95061727Y-66833745D01*
X95073113Y-66886087D01*
X95073113Y-67251987D01*
X95073450Y-67255233D01*
X95073450Y-67255237D01*
X95081815Y-67335852D01*
X95084087Y-67357753D01*
X95140063Y-67525533D01*
X95233135Y-67675935D01*
X95358310Y-67800892D01*
X95364540Y-67804732D01*
X95364541Y-67804733D01*
X95498681Y-67887418D01*
X95508875Y-67893702D01*
X95580721Y-67917532D01*
X95670224Y-67947219D01*
X95670226Y-67947219D01*
X95676752Y-67949384D01*
X95683588Y-67950084D01*
X95683591Y-67950085D01*
X95726644Y-67954496D01*
X95781213Y-67960087D01*
X96070367Y-67960087D01*
X96138488Y-67980089D01*
X96184981Y-68033745D01*
X96195085Y-68104019D01*
X96181875Y-68144755D01*
X96126160Y-68250652D01*
X96121751Y-68261295D01*
X96064792Y-68444732D01*
X96062402Y-68455976D01*
X96039824Y-68646737D01*
X96039523Y-68658238D01*
X96052086Y-68849904D01*
X96053887Y-68861274D01*
X96101168Y-69047443D01*
X96105009Y-69058290D01*
X96185426Y-69232728D01*
X96191178Y-69242690D01*
X96196269Y-69249895D01*
X96219247Y-69317071D01*
X96203889Y-69383120D01*
X96198176Y-69393554D01*
X96153021Y-69514006D01*
X96149394Y-69529261D01*
X96143868Y-69580126D01*
X96143499Y-69586940D01*
X96143499Y-69841297D01*
X96123497Y-69909418D01*
X96069841Y-69955911D01*
X95999567Y-69966015D01*
X95992202Y-69964703D01*
X95986202Y-69962754D01*
X95979645Y-69962065D01*
X95979641Y-69962064D01*
X95915592Y-69955333D01*
X95847806Y-69948208D01*
X95755192Y-69948208D01*
X95661980Y-69958005D01*
X95623360Y-69962064D01*
X95623359Y-69962064D01*
X95616796Y-69962754D01*
X95610519Y-69964794D01*
X95610517Y-69964794D01*
X95558126Y-69981817D01*
X95440165Y-70020145D01*
X95434443Y-70023448D01*
X95434442Y-70023449D01*
X95401611Y-70042404D01*
X95279326Y-70113005D01*
X95274419Y-70117423D01*
X95274418Y-70117424D01*
X95198604Y-70185687D01*
X95141309Y-70237276D01*
X95137428Y-70242618D01*
X95137426Y-70242620D01*
X95061075Y-70347708D01*
X95032145Y-70387527D01*
X95029461Y-70393556D01*
X95029459Y-70393559D01*
X94959293Y-70551156D01*
X94956606Y-70557192D01*
X94955233Y-70563652D01*
X94920982Y-70724793D01*
X94917993Y-70738854D01*
X94917993Y-70924574D01*
X94956606Y-71106236D01*
X94959291Y-71112266D01*
X94959291Y-71112267D01*
X94986023Y-71172307D01*
X95032145Y-71275900D01*
X95036025Y-71281241D01*
X95036026Y-71281242D01*
X95120406Y-71397381D01*
X95141309Y-71426152D01*
X95146219Y-71430573D01*
X95146220Y-71430574D01*
X95227644Y-71503888D01*
X95279326Y-71550423D01*
X95342718Y-71587022D01*
X95429948Y-71637384D01*
X95440165Y-71643283D01*
X95461721Y-71650287D01*
X95610517Y-71698634D01*
X95610519Y-71698634D01*
X95616796Y-71700674D01*
X95623359Y-71701364D01*
X95623360Y-71701364D01*
X95647556Y-71703907D01*
X95755192Y-71715220D01*
X95847806Y-71715220D01*
X95986202Y-71700674D01*
X95991633Y-71698909D01*
X96062094Y-71704286D01*
X96118727Y-71747103D01*
X96143220Y-71813741D01*
X96143500Y-71822131D01*
X96143500Y-72076231D01*
X96143870Y-72083052D01*
X96149394Y-72133914D01*
X96153020Y-72149166D01*
X96198176Y-72269620D01*
X96204366Y-72280925D01*
X96219535Y-72350282D01*
X96205355Y-72400101D01*
X96126158Y-72550630D01*
X96121751Y-72561269D01*
X96064792Y-72744706D01*
X96062402Y-72755950D01*
X96039824Y-72946711D01*
X96039523Y-72958212D01*
X96052086Y-73149878D01*
X96053887Y-73161248D01*
X96101168Y-73347417D01*
X96105009Y-73358264D01*
X96185424Y-73532699D01*
X96188305Y-73537688D01*
X96205042Y-73606684D01*
X96181821Y-73673775D01*
X96126013Y-73717662D01*
X96079185Y-73726687D01*
X87079713Y-73726687D01*
X87011592Y-73706685D01*
X86965099Y-73653029D01*
X86953713Y-73600687D01*
X86953713Y-61133831D01*
X86973715Y-61065710D01*
X87027371Y-61019217D01*
X87097645Y-61009113D01*
X87162225Y-61038607D01*
X87182610Y-61061111D01*
X87194280Y-61077623D01*
X87304096Y-61233009D01*
X87456609Y-61381581D01*
X87461405Y-61384786D01*
X87461408Y-61384788D01*
X87532888Y-61432549D01*
X87633643Y-61499871D01*
X87638946Y-61502149D01*
X87638949Y-61502151D01*
X87823963Y-61581639D01*
X87829270Y-61583919D01*
X87905116Y-61601081D01*
X88031301Y-61629634D01*
X88031306Y-61629635D01*
X88036938Y-61630909D01*
X88042709Y-61631136D01*
X88042711Y-61631136D01*
X88104052Y-61633546D01*
X88249691Y-61639269D01*
X88255400Y-61638441D01*
X88255404Y-61638441D01*
X88454690Y-61609545D01*
X88454694Y-61609544D01*
X88460405Y-61608716D01*
X88662023Y-61540276D01*
X88847793Y-61436240D01*
X89011493Y-61300093D01*
X89147640Y-61136393D01*
X89251676Y-60950623D01*
X89320116Y-60749005D01*
X89332255Y-60665291D01*
X89350137Y-60541961D01*
X89350137Y-60541959D01*
X89350669Y-60538291D01*
X89352263Y-60477400D01*
X89337233Y-60313824D01*
X89333310Y-60271130D01*
X89333309Y-60271127D01*
X89332781Y-60265376D01*
X89320991Y-60223573D01*
X89276554Y-60066011D01*
X89276553Y-60066009D01*
X89274986Y-60060452D01*
X89256769Y-60023510D01*
X89183370Y-59874673D01*
X89180815Y-59869492D01*
X89148736Y-59826532D01*
X89056874Y-59703514D01*
X89053422Y-59698891D01*
X88897071Y-59554363D01*
X88879881Y-59543517D01*
X88863291Y-59533049D01*
X88816353Y-59479783D01*
X88805663Y-59409595D01*
X88834617Y-59344771D01*
X88894021Y-59305891D01*
X88930526Y-59300487D01*
X110987463Y-59300487D01*
X111055584Y-59320489D01*
G37*
%TD.AperFunction*%
%TA.AperFunction,Conductor*%
G36*
X106487959Y-69320780D02*
G01*
X106534452Y-69374436D01*
X106545838Y-69426778D01*
X106545838Y-70149137D01*
X106552593Y-70211319D01*
X106603723Y-70347708D01*
X106691077Y-70464264D01*
X106698257Y-70469645D01*
X106698258Y-70469646D01*
X106705116Y-70474786D01*
X106747629Y-70531646D01*
X106752653Y-70602465D01*
X106718591Y-70664757D01*
X106655746Y-70698857D01*
X106533725Y-70724793D01*
X106527695Y-70727478D01*
X106527694Y-70727478D01*
X106365291Y-70799784D01*
X106365289Y-70799785D01*
X106359261Y-70802469D01*
X106353920Y-70806349D01*
X106353919Y-70806350D01*
X106319184Y-70831587D01*
X106204760Y-70914721D01*
X106076973Y-71056643D01*
X105981486Y-71222031D01*
X105922471Y-71403659D01*
X105921781Y-71410220D01*
X105921781Y-71410222D01*
X105911937Y-71503888D01*
X105902509Y-71593587D01*
X105903199Y-71600152D01*
X105920806Y-71767669D01*
X105922471Y-71783515D01*
X105981486Y-71965143D01*
X106076973Y-72130531D01*
X106095786Y-72151425D01*
X106126502Y-72215431D01*
X106121981Y-72274669D01*
X106097413Y-72350282D01*
X106074871Y-72419659D01*
X106074181Y-72426220D01*
X106074181Y-72426222D01*
X106060248Y-72558787D01*
X106054909Y-72609587D01*
X106055599Y-72616152D01*
X106073155Y-72783184D01*
X106074871Y-72799515D01*
X106133886Y-72981143D01*
X106229373Y-73146531D01*
X106233791Y-73151438D01*
X106233792Y-73151439D01*
X106337986Y-73267158D01*
X106357160Y-73288453D01*
X106511661Y-73400705D01*
X106517689Y-73403389D01*
X106517691Y-73403390D01*
X106661207Y-73467287D01*
X106686125Y-73478381D01*
X106692582Y-73479753D01*
X106695969Y-73480854D01*
X106754574Y-73520928D01*
X106782211Y-73586324D01*
X106770104Y-73656281D01*
X106722098Y-73708587D01*
X106657032Y-73726687D01*
X103019317Y-73726687D01*
X102951196Y-73706685D01*
X102904703Y-73653029D01*
X102894599Y-73582755D01*
X102909383Y-73539121D01*
X102965336Y-73439211D01*
X102970013Y-73428705D01*
X103003997Y-73328592D01*
X103044834Y-73270516D01*
X103110587Y-73243738D01*
X103180380Y-73256759D01*
X103197359Y-73267150D01*
X103311261Y-73349905D01*
X103317289Y-73352589D01*
X103317291Y-73352590D01*
X103465762Y-73418693D01*
X103485725Y-73427581D01*
X103579125Y-73447434D01*
X103666069Y-73465915D01*
X103666074Y-73465915D01*
X103672526Y-73467287D01*
X103863500Y-73467287D01*
X103869952Y-73465915D01*
X103869957Y-73465915D01*
X103956901Y-73447434D01*
X104050301Y-73427581D01*
X104070264Y-73418693D01*
X104218735Y-73352590D01*
X104218737Y-73352589D01*
X104224765Y-73349905D01*
X104294925Y-73298931D01*
X104373927Y-73241532D01*
X104379266Y-73237653D01*
X104383681Y-73232750D01*
X104383684Y-73232747D01*
X104390888Y-73224746D01*
X104451333Y-73187505D01*
X104497428Y-73185527D01*
X104497547Y-73184016D01*
X104531569Y-73186694D01*
X104531575Y-73186694D01*
X104534024Y-73186887D01*
X104783861Y-73186887D01*
X105034001Y-73186886D01*
X105070479Y-73184016D01*
X105190506Y-73149145D01*
X105218996Y-73140868D01*
X105218998Y-73140867D01*
X105226609Y-73138656D01*
X105245147Y-73127693D01*
X105359733Y-73059927D01*
X105366554Y-73055893D01*
X105481519Y-72940928D01*
X105490220Y-72926216D01*
X105560247Y-72807806D01*
X105560247Y-72807805D01*
X105564282Y-72800983D01*
X105575612Y-72761987D01*
X105607847Y-72651031D01*
X105609642Y-72644853D01*
X105610570Y-72633073D01*
X105612320Y-72610831D01*
X105612320Y-72610825D01*
X105612513Y-72608376D01*
X105612512Y-72208399D01*
X105609642Y-72171921D01*
X105564282Y-72015791D01*
X105532490Y-71962034D01*
X105515031Y-71893221D01*
X105532491Y-71833757D01*
X105559784Y-71787607D01*
X105566032Y-71773170D01*
X105598974Y-71659782D01*
X105598934Y-71645682D01*
X105591664Y-71642387D01*
X105121555Y-71642387D01*
X105086403Y-71637384D01*
X105076660Y-71634553D01*
X105076653Y-71634552D01*
X105070479Y-71632758D01*
X105064072Y-71632254D01*
X105064068Y-71632253D01*
X105036457Y-71630080D01*
X105036451Y-71630080D01*
X105034002Y-71629887D01*
X105024083Y-71629887D01*
X104656012Y-71629888D01*
X104587893Y-71609886D01*
X104541400Y-71556231D01*
X104530013Y-71503888D01*
X104530013Y-71116272D01*
X105038013Y-71116272D01*
X105042488Y-71131511D01*
X105043878Y-71132716D01*
X105051561Y-71134387D01*
X105585913Y-71134387D01*
X105599444Y-71130414D01*
X105600579Y-71122516D01*
X105566032Y-71003604D01*
X105559783Y-70989165D01*
X105549588Y-70971926D01*
X105532128Y-70903110D01*
X105549588Y-70843648D01*
X105559783Y-70826409D01*
X105566032Y-70811970D01*
X105598974Y-70698582D01*
X105598934Y-70684482D01*
X105591664Y-70681187D01*
X105056128Y-70681187D01*
X105040889Y-70685662D01*
X105039684Y-70687052D01*
X105038013Y-70694735D01*
X105038013Y-71116272D01*
X104530013Y-71116272D01*
X104530013Y-70311687D01*
X104550015Y-70243566D01*
X104603671Y-70197073D01*
X104656013Y-70185687D01*
X105024071Y-70185686D01*
X105034001Y-70185686D01*
X105070479Y-70182816D01*
X105076661Y-70181020D01*
X105076666Y-70181019D01*
X105086403Y-70178190D01*
X105121555Y-70173187D01*
X105585913Y-70173187D01*
X105599444Y-70169214D01*
X105600579Y-70161316D01*
X105566032Y-70042404D01*
X105559784Y-70027967D01*
X105532491Y-69981817D01*
X105515031Y-69913000D01*
X105532490Y-69853541D01*
X105564282Y-69799783D01*
X105609642Y-69643653D01*
X105612513Y-69607176D01*
X105612512Y-69426778D01*
X105632514Y-69358658D01*
X105686169Y-69312165D01*
X105738512Y-69300778D01*
X106419838Y-69300778D01*
X106487959Y-69320780D01*
G37*
%TD.AperFunction*%
%TA.AperFunction,Conductor*%
G36*
X112256534Y-71054789D02*
G01*
X112303027Y-71108445D01*
X112314413Y-71160787D01*
X112314413Y-73149145D01*
X112318386Y-73162676D01*
X112326284Y-73163811D01*
X112452197Y-73127230D01*
X112466633Y-73120983D01*
X112518174Y-73090502D01*
X112586991Y-73073043D01*
X112654322Y-73095560D01*
X112698791Y-73150905D01*
X112708313Y-73198956D01*
X112708313Y-73600687D01*
X112688311Y-73668808D01*
X112634655Y-73715301D01*
X112582313Y-73726687D01*
X110757713Y-73726687D01*
X110689592Y-73706685D01*
X110643099Y-73653029D01*
X110632995Y-73582755D01*
X110638120Y-73561020D01*
X110671303Y-73460976D01*
X110674171Y-73447597D01*
X110683485Y-73356690D01*
X110683813Y-73350274D01*
X110683813Y-73288357D01*
X110703815Y-73220236D01*
X110757471Y-73173743D01*
X110827745Y-73163639D01*
X110844962Y-73167359D01*
X110858159Y-73171193D01*
X110864564Y-73171697D01*
X110864569Y-73171698D01*
X110892473Y-73173894D01*
X110892481Y-73173894D01*
X110894929Y-73174087D01*
X111305897Y-73174087D01*
X111308345Y-73173894D01*
X111308353Y-73173894D01*
X111336257Y-73171698D01*
X111336262Y-73171697D01*
X111342667Y-73171193D01*
X111447047Y-73140868D01*
X111492397Y-73127693D01*
X111492399Y-73127692D01*
X111500010Y-73125481D01*
X111508882Y-73120234D01*
X111516766Y-73115572D01*
X111585583Y-73098113D01*
X111645041Y-73115571D01*
X111654191Y-73120982D01*
X111668629Y-73127230D01*
X111789018Y-73162206D01*
X111803118Y-73162166D01*
X111806413Y-73154896D01*
X111806413Y-72876966D01*
X111823959Y-72812827D01*
X111836272Y-72792007D01*
X111836272Y-72792006D01*
X111840307Y-72785184D01*
X111886019Y-72627841D01*
X111887746Y-72605907D01*
X111888720Y-72593527D01*
X111888720Y-72593519D01*
X111888913Y-72591071D01*
X111888913Y-72120103D01*
X111886019Y-72083333D01*
X111840307Y-71925990D01*
X111823959Y-71898347D01*
X111806413Y-71834208D01*
X111806413Y-71810166D01*
X111823959Y-71746027D01*
X111836272Y-71725207D01*
X111836272Y-71725206D01*
X111840307Y-71718384D01*
X111886019Y-71561041D01*
X111887203Y-71546004D01*
X111888720Y-71526727D01*
X111888720Y-71526719D01*
X111888913Y-71524271D01*
X111888913Y-71160787D01*
X111908915Y-71092666D01*
X111962571Y-71046173D01*
X112014913Y-71034787D01*
X112188413Y-71034787D01*
X112256534Y-71054789D01*
G37*
%TD.AperFunction*%
%TA.AperFunction,Conductor*%
G36*
X101644132Y-63981111D02*
G01*
X101685092Y-64008459D01*
X102741208Y-65064575D01*
X102775234Y-65126887D01*
X102778113Y-65153670D01*
X102778113Y-65349484D01*
X102777035Y-65365931D01*
X102773078Y-65395987D01*
X102783026Y-65471549D01*
X102793132Y-65548311D01*
X102851927Y-65690254D01*
X102856954Y-65696805D01*
X102894429Y-65745644D01*
X102920029Y-65811865D01*
X102905764Y-65881413D01*
X102868528Y-65924283D01*
X102857307Y-65932436D01*
X102851960Y-65936321D01*
X102724173Y-66078243D01*
X102628686Y-66243631D01*
X102569671Y-66425259D01*
X102568981Y-66431820D01*
X102568981Y-66431822D01*
X102562672Y-66491853D01*
X102549709Y-66615187D01*
X102550399Y-66621752D01*
X102565376Y-66764246D01*
X102569671Y-66805115D01*
X102628686Y-66986743D01*
X102724173Y-67152131D01*
X102851960Y-67294053D01*
X102909491Y-67335852D01*
X102999600Y-67401320D01*
X103006461Y-67406305D01*
X103012489Y-67408989D01*
X103012491Y-67408990D01*
X103025925Y-67414971D01*
X103180925Y-67483981D01*
X103261468Y-67501101D01*
X103361269Y-67522315D01*
X103361274Y-67522315D01*
X103367726Y-67523687D01*
X103494329Y-67523687D01*
X103562450Y-67543689D01*
X103583424Y-67560592D01*
X103627334Y-67604502D01*
X103638201Y-67616893D01*
X103656656Y-67640944D01*
X103654182Y-67642843D01*
X103681114Y-67692164D01*
X103677826Y-67757882D01*
X103636471Y-67885159D01*
X103635781Y-67891720D01*
X103635781Y-67891722D01*
X103624703Y-67997129D01*
X103616509Y-68075087D01*
X103617199Y-68081652D01*
X103629411Y-68197843D01*
X103616639Y-68267681D01*
X103568137Y-68319528D01*
X103499304Y-68336922D01*
X103452853Y-68326120D01*
X103395936Y-68300779D01*
X103395928Y-68300776D01*
X103389901Y-68298093D01*
X103296500Y-68278240D01*
X103209557Y-68259759D01*
X103209552Y-68259759D01*
X103203100Y-68258387D01*
X103056751Y-68258387D01*
X102988630Y-68238385D01*
X102943745Y-68188115D01*
X102903776Y-68107065D01*
X102896483Y-68101591D01*
X102884060Y-68108364D01*
X102532787Y-68459637D01*
X102517754Y-68472477D01*
X102496360Y-68488021D01*
X102491941Y-68492929D01*
X102425849Y-68566331D01*
X102421308Y-68571115D01*
X102040708Y-68951715D01*
X101978396Y-68985741D01*
X101907581Y-68980676D01*
X101862518Y-68951715D01*
X101681498Y-68770695D01*
X101647472Y-68708383D01*
X101652537Y-68637568D01*
X101681498Y-68592505D01*
X102521897Y-67752106D01*
X102528655Y-67739729D01*
X102522625Y-67731673D01*
X102461674Y-67693216D01*
X102451426Y-67687995D01*
X102273014Y-67616816D01*
X102261986Y-67613549D01*
X102073595Y-67576076D01*
X102062148Y-67574873D01*
X101870090Y-67572359D01*
X101858610Y-67573262D01*
X101669310Y-67605790D01*
X101658196Y-67608768D01*
X101629609Y-67619314D01*
X101558775Y-67624125D01*
X101496585Y-67589877D01*
X101462783Y-67527443D01*
X101459999Y-67501101D01*
X101459999Y-67435321D01*
X101466406Y-67395654D01*
X101477245Y-67362976D01*
X101477245Y-67362974D01*
X101479410Y-67356448D01*
X101480823Y-67342663D01*
X101489785Y-67255185D01*
X101490113Y-67251987D01*
X101490113Y-64251187D01*
X101487404Y-64225078D01*
X101479851Y-64152279D01*
X101479850Y-64152275D01*
X101479139Y-64145421D01*
X101476473Y-64137430D01*
X101476438Y-64136478D01*
X101475502Y-64132142D01*
X101476274Y-64131975D01*
X101473889Y-64066481D01*
X101510073Y-64005397D01*
X101573537Y-63973572D01*
X101644132Y-63981111D01*
G37*
%TD.AperFunction*%
%TD*%
M02*
