%TF.GenerationSoftware,KiCad,Pcbnew,(6.0.0-0)*%
%TF.CreationDate,2022-01-27T15:42:08+01:00*%
%TF.ProjectId,GlowBand,476c6f77-4261-46e6-942e-6b696361645f,rev?*%
%TF.SameCoordinates,Original*%
%TF.FileFunction,Legend,Bot*%
%TF.FilePolarity,Positive*%
%FSLAX46Y46*%
G04 Gerber Fmt 4.6, Leading zero omitted, Abs format (unit mm)*
G04 Created by KiCad (PCBNEW (6.0.0-0)) date 2022-01-27 15:42:08*
%MOMM*%
%LPD*%
G01*
G04 APERTURE LIST*
%ADD10C,0.200000*%
G04 APERTURE END LIST*
D10*
X131892142Y-93726000D02*
X145892142Y-93726000D01*
X145892142Y-93726000D02*
X145892142Y-116726000D01*
X145892142Y-116726000D02*
X131892142Y-116726000D01*
X131892142Y-116726000D02*
X131892142Y-93726000D01*
X69469000Y-93726000D02*
X83469000Y-93726000D01*
X83469000Y-93726000D02*
X83469000Y-116726000D01*
X83469000Y-116726000D02*
X69469000Y-116726000D01*
X69469000Y-116726000D02*
X69469000Y-93726000D01*
X215123000Y-93726000D02*
X229123000Y-93726000D01*
X229123000Y-93726000D02*
X229123000Y-116726000D01*
X229123000Y-116726000D02*
X215123000Y-116726000D01*
X215123000Y-116726000D02*
X215123000Y-93726000D01*
X152699856Y-93980000D02*
X166699856Y-93980000D01*
X166699856Y-93980000D02*
X166699856Y-116980000D01*
X166699856Y-116980000D02*
X152699856Y-116980000D01*
X152699856Y-116980000D02*
X152699856Y-93980000D01*
X173507570Y-93599000D02*
X187507570Y-93599000D01*
X187507570Y-93599000D02*
X187507570Y-116599000D01*
X187507570Y-116599000D02*
X173507570Y-116599000D01*
X173507570Y-116599000D02*
X173507570Y-93599000D01*
X194315284Y-93599000D02*
X208315284Y-93599000D01*
X208315284Y-93599000D02*
X208315284Y-116599000D01*
X208315284Y-116599000D02*
X194315284Y-116599000D01*
X194315284Y-116599000D02*
X194315284Y-93599000D01*
X111084428Y-93726000D02*
X125084428Y-93726000D01*
X125084428Y-93726000D02*
X125084428Y-116726000D01*
X125084428Y-116726000D02*
X111084428Y-116726000D01*
X111084428Y-116726000D02*
X111084428Y-93726000D01*
X90276714Y-93599000D02*
X104276714Y-93599000D01*
X104276714Y-93599000D02*
X104276714Y-116599000D01*
X104276714Y-116599000D02*
X90276714Y-116599000D01*
X90276714Y-116599000D02*
X90276714Y-93599000D01*
M02*
