M48
; DRILL file {KiCad (6.0.9-0)} date 2022 November 23, Wednesday 11:56:12
; FORMAT={-:-/ absolute / inch / decimal}
; #@! TF.CreationDate,2022-11-23T11:56:12+01:00
; #@! TF.GenerationSoftware,Kicad,Pcbnew,(6.0.9-0)
; #@! TF.FileFunction,Plated,1,2,PTH
FMAT,2
INCH
; #@! TA.AperFunction,Plated,PTH,ViaDrill
T1C0.0079
; #@! TA.AperFunction,Plated,PTH,ViaDrill
T2C0.0157
; #@! TA.AperFunction,Plated,PTH,ViaDrill
T3C0.0454
; #@! TA.AperFunction,Plated,PTH,ComponentDrill
T4C0.0531
%
G90
G05
T1
X3.879Y-2.508
X3.934Y-2.537
X3.974Y-2.5156
X3.974Y-2.546
X3.98Y-2.408
X4.101Y-2.379
X4.12Y-2.442
X4.12Y-2.5922
X4.146Y-2.487
X4.162Y-2.379
X4.182Y-2.483
X4.243Y-2.4541
X4.256Y-2.589
X4.2684Y-2.3775
X4.2734Y-2.6824
X4.28Y-2.455
X4.3126Y-2.6554
T2
X2.876Y-3.158
X2.883Y-3.068
X2.9315Y-2.314
X2.9536Y-2.4647
X2.957Y-2.97
X2.9659Y-2.653
X2.966Y-3.014
X2.9799Y-2.494
X2.98Y-2.387
X2.982Y-2.818
X2.984Y-3.229
X3.0175Y-2.5055
X3.0244Y-3.062
X3.028Y-2.3824
X3.0514Y-2.701
X3.0517Y-2.7457
X3.052Y-2.5678
X3.0537Y-2.6071
X3.054Y-2.828
X3.054Y-2.881
X3.076Y-2.241
X3.0827Y-2.454
X3.083Y-2.196
X3.1Y-3.075
X3.1136Y-2.3616
X3.1335Y-2.398
X3.167Y-2.906
X3.176Y-2.405
X3.179Y-2.995
X3.185Y-3.04
X3.19Y-3.152
X3.211Y-3.252
X3.239Y-3.084
X3.278Y-2.495
X3.279Y-2.8975
X3.321Y-3.009
X3.365Y-3.273
X3.377Y-2.991
X3.422Y-2.798
X3.4274Y-2.9156
X3.431Y-2.749
X3.4315Y-3.0085
X3.444Y-2.606
X3.444Y-2.666
X3.445Y-2.7088
X3.453Y-3.053
X3.464Y-2.505
X3.467Y-2.3394
X3.469Y-2.889
X3.4754Y-2.636
X3.487Y-2.8276
X3.49Y-2.769
X3.518Y-3.062
X3.525Y-2.296
X3.531Y-2.929
X3.537Y-2.663
X3.543Y-2.868
X3.5498Y-2.7096
X3.559Y-2.42
X3.613Y-2.9242
X3.624Y-2.801
X3.6633Y-2.4427
X3.664Y-2.3804
X3.673Y-2.2905
X3.674Y-2.924
X3.689Y-2.797
X3.716Y-2.415
X3.741Y-2.454
X3.759Y-2.415
X3.779Y-3.059
X3.782Y-2.924
X3.788Y-2.303
X3.81Y-2.802
X3.811Y-2.439
X3.824Y-2.7
X3.826Y-2.5
X3.826Y-3.078
X3.851Y-2.599
X3.855Y-2.447
X3.897Y-2.56
X3.953Y-2.3804
X3.96Y-3.162
X3.963Y-2.851
X3.988Y-3.0946
X4.074Y-3.021
X4.111Y-3.218
X4.118Y-2.9573
X4.126Y-2.7213
X4.129Y-3.153
X4.133Y-3.095
X4.1687Y-2.851
X4.1739Y-2.7591
X4.1752Y-2.8918
X4.199Y-3.134
X4.214Y-3.033
X4.2345Y-2.7269
X4.253Y-2.975
X4.2713Y-3.2746
X4.291Y-3.18
X4.295Y-2.503
X4.312Y-2.189
X4.316Y-2.935
X4.3179Y-2.6
X4.327Y-2.858
X4.3516Y-3.2345
X4.3563Y-2.4923
X4.357Y-2.812
X4.374Y-2.671
X4.379Y-2.358
X4.394Y-2.7892
X4.406Y-2.327
X4.431Y-2.945
X4.433Y-2.881
X4.435Y-3.105
X4.442Y-2.613
X4.451Y-3.01
X4.474Y-2.163
X4.484Y-2.744
X4.489Y-2.367
X4.519Y-3.08
X4.5224Y-3.2116
T3
X3.319Y-3.136
X4.054Y-3.138
T4
X3.483Y-3.2168
X3.5696Y-3.2168
X3.6562Y-3.2168
X3.7429Y-3.2168
X3.8295Y-3.2168
X3.9161Y-3.2168
T0
M30
