%TF.GenerationSoftware,KiCad,Pcbnew,(6.0.9-0)*%
%TF.CreationDate,2022-11-23T11:56:12+01:00*%
%TF.ProjectId,GlowBand PCB,476c6f77-4261-46e6-9420-5043422e6b69,rev?*%
%TF.SameCoordinates,Original*%
%TF.FileFunction,Copper,L2,Bot*%
%TF.FilePolarity,Positive*%
%FSLAX46Y46*%
G04 Gerber Fmt 4.6, Leading zero omitted, Abs format (unit mm)*
G04 Created by KiCad (PCBNEW (6.0.9-0)) date 2022-11-23 11:56:12*
%MOMM*%
%LPD*%
G01*
G04 APERTURE LIST*
G04 Aperture macros list*
%AMFreePoly0*
4,1,22,0.500000,-0.750000,0.000000,-0.750000,0.000000,-0.745033,-0.079941,-0.743568,-0.215256,-0.701293,-0.333266,-0.622738,-0.424486,-0.514219,-0.481581,-0.384460,-0.499164,-0.250000,-0.500000,-0.250000,-0.500000,0.250000,-0.499164,0.250000,-0.499963,0.256109,-0.478152,0.396186,-0.417904,0.524511,-0.324060,0.630769,-0.204165,0.706417,-0.067858,0.745374,0.000000,0.744959,0.000000,0.750000,
0.500000,0.750000,0.500000,-0.750000,0.500000,-0.750000,$1*%
%AMFreePoly1*
4,1,20,0.000000,0.744959,0.073905,0.744508,0.209726,0.703889,0.328688,0.626782,0.421226,0.519385,0.479903,0.390333,0.500000,0.250000,0.500000,-0.250000,0.499851,-0.262216,0.476331,-0.402017,0.414519,-0.529596,0.319384,-0.634700,0.198574,-0.708877,0.061801,-0.746166,0.000000,-0.745033,0.000000,-0.750000,-0.500000,-0.750000,-0.500000,0.750000,0.000000,0.750000,0.000000,0.744959,
0.000000,0.744959,$1*%
G04 Aperture macros list end*
%TA.AperFunction,ComponentPad*%
%ADD10C,1.900000*%
%TD*%
%TA.AperFunction,SMDPad,CuDef*%
%ADD11C,1.500000*%
%TD*%
%TA.AperFunction,SMDPad,CuDef*%
%ADD12FreePoly0,180.000000*%
%TD*%
%TA.AperFunction,SMDPad,CuDef*%
%ADD13FreePoly1,180.000000*%
%TD*%
%TA.AperFunction,SMDPad,CuDef*%
%ADD14R,1.500000X0.900000*%
%TD*%
%TA.AperFunction,SMDPad,CuDef*%
%ADD15R,3.500000X2.000000*%
%TD*%
%TA.AperFunction,SMDPad,CuDef*%
%ADD16FreePoly0,0.000000*%
%TD*%
%TA.AperFunction,SMDPad,CuDef*%
%ADD17FreePoly1,0.000000*%
%TD*%
%TA.AperFunction,ViaPad*%
%ADD18C,0.500000*%
%TD*%
%TA.AperFunction,ViaPad*%
%ADD19C,0.800000*%
%TD*%
%TA.AperFunction,ViaPad*%
%ADD20C,1.300000*%
%TD*%
%TA.AperFunction,Conductor*%
%ADD21C,0.150000*%
%TD*%
%TA.AperFunction,Conductor*%
%ADD22C,0.250000*%
%TD*%
%TA.AperFunction,Conductor*%
%ADD23C,0.200000*%
%TD*%
%TA.AperFunction,Conductor*%
%ADD24C,0.500000*%
%TD*%
%TA.AperFunction,Conductor*%
%ADD25C,0.400000*%
%TD*%
G04 APERTURE END LIST*
%TO.C,JP1*%
G36*
X105228200Y-68143400D02*
G01*
X104728200Y-68143400D01*
X104728200Y-67543400D01*
X105228200Y-67543400D01*
X105228200Y-68143400D01*
G37*
%TO.C,JP2*%
G36*
X105228200Y-64943000D02*
G01*
X104728200Y-64943000D01*
X104728200Y-64343000D01*
X105228200Y-64343000D01*
X105228200Y-64943000D01*
G37*
%TD*%
D10*
%TO.P,P9,6*%
%TO.N,EN*%
X99468400Y-81706030D03*
%TO.P,P9,5*%
%TO.N,IO0*%
X97268400Y-81706030D03*
%TO.P,P9,4*%
%TO.N,TXD0*%
X95068400Y-81706030D03*
%TO.P,P9,3*%
%TO.N,RXD0*%
X92868400Y-81706030D03*
%TO.P,P9,2*%
%TO.N,GND*%
X90668400Y-81706030D03*
%TO.P,P9,1*%
%TO.N,VBUS*%
X88468400Y-81706030D03*
%TD*%
D11*
%TO.P,TP2,1,1*%
%TO.N,IO13{slash}TCK*%
X74168000Y-63991068D03*
%TD*%
D12*
%TO.P,JP1,1,A*%
%TO.N,3.3V AFTER MOSFET*%
X105628200Y-67843400D03*
D13*
%TO.P,JP1,2,B*%
%TO.N,Net-(C14-Pad2)*%
X104328200Y-67843400D03*
%TD*%
D14*
%TO.P,SW3,1,1*%
%TO.N,GND*%
X77414124Y-82600366D03*
X73614276Y-82600366D03*
%TO.P,SW3,2,2*%
%TO.N,Net-(R18-Pad1)*%
X73614276Y-84100494D03*
X77414124Y-84100494D03*
%TD*%
D11*
%TO.P,TP6,1,1*%
%TO.N,GND*%
X74168000Y-76733398D03*
%TD*%
%TO.P,TP4,1,1*%
%TO.N,IO15{slash}WS{slash}TDO*%
X74168000Y-69088000D03*
%TD*%
D15*
%TO.P,P8,1*%
%TO.N,-BATT*%
X105232200Y-83286600D03*
%TD*%
%TO.P,P7,1*%
%TO.N,Net-(P7-Pad1)*%
X112877600Y-83286600D03*
%TD*%
D14*
%TO.P,SW4,1,1*%
%TO.N,GND*%
X79354676Y-82600366D03*
X83154524Y-82600366D03*
%TO.P,SW4,2,2*%
%TO.N,Net-(R19-Pad1)*%
X79354676Y-84100494D03*
X83154524Y-84100494D03*
%TD*%
D11*
%TO.P,TP7,1,1*%
%TO.N,+5V*%
X74168000Y-74184932D03*
%TD*%
%TO.P,TP3,1,1*%
%TO.N,IO14{slash}SCK{slash}TMS*%
X74168000Y-66539534D03*
%TD*%
%TO.P,TP1,1,1*%
%TO.N,IO12{slash}TDI*%
X74168000Y-61442602D03*
%TD*%
%TO.P,TP5,1,1*%
%TO.N,3.3V AFTER MOSFET*%
X74168000Y-71636466D03*
%TD*%
D16*
%TO.P,JP2,1,A*%
%TO.N,3.3V AFTER MOSFET*%
X104328200Y-64643000D03*
D17*
%TO.P,JP2,2,B*%
%TO.N,GYRO VDD*%
X105628200Y-64643000D03*
%TD*%
D18*
%TO.N,GND*%
X108416393Y-60387402D03*
%TO.N,IO19{slash}LED LETCH EN*%
X99923600Y-64439800D03*
X104648000Y-62026800D03*
%TO.N,IO22{slash}I2C SCL*%
X101092000Y-61163200D03*
X98526600Y-63703200D03*
X100939600Y-63895780D03*
X106222800Y-63068200D03*
X107771705Y-62334221D03*
%TO.N,IO21{slash}I2C SDA*%
X108712000Y-62357000D03*
X100939600Y-64668400D03*
X105308400Y-63169800D03*
D19*
%TO.N,GYRO VDD*%
X109093000Y-63576200D03*
%TO.N,3.3V AFTER MOSFET*%
X100660200Y-72415400D03*
X98983800Y-65024000D03*
D20*
%TO.N,*%
X102971600Y-79705200D03*
X84302600Y-79654400D03*
D19*
%TO.N,Net-(C1-Pad1)*%
X82270600Y-78333600D03*
X85471000Y-83134200D03*
%TO.N,GND*%
X77570500Y-71831200D03*
X112547400Y-74803000D03*
X114869865Y-81575793D03*
X75793600Y-82016600D03*
X76911200Y-60514100D03*
X93048700Y-62043700D03*
X81559834Y-82600366D03*
X109524800Y-55600600D03*
X76820882Y-77774771D03*
X75336400Y-76555600D03*
X73228200Y-77927200D03*
X110649450Y-63303850D03*
D18*
X104165400Y-60426600D03*
D19*
X109905800Y-72593200D03*
X112649000Y-78867000D03*
D18*
X105714800Y-60426600D03*
D19*
X78301162Y-62330873D03*
X87160100Y-76415900D03*
X81026000Y-80060800D03*
X111099600Y-67843400D03*
X107035600Y-77038200D03*
X104978200Y-78613000D03*
X80441800Y-73812400D03*
X106654600Y-79603600D03*
X93065600Y-60463300D03*
X79086688Y-59985888D03*
X88061800Y-59421900D03*
X112598200Y-73177400D03*
X100406200Y-60463300D03*
%TO.N,5V AFTER MOSFET*%
X109674503Y-66041243D03*
X107556900Y-69262260D03*
X77520800Y-65222900D03*
%TO.N,+3V3*%
X97180400Y-63500000D03*
X111912400Y-59105800D03*
X96215200Y-58496200D03*
X89535000Y-58318400D03*
X74459500Y-58775600D03*
X96062800Y-74269600D03*
X94386400Y-61341000D03*
X78130400Y-56921400D03*
X95986600Y-77698600D03*
D18*
%TO.N,3.3V AFTER MOSFET*%
X109539400Y-67447800D03*
D19*
X75742800Y-71577200D03*
X106017493Y-70081564D03*
X112826800Y-66370200D03*
X105884900Y-72415400D03*
X92049600Y-71145400D03*
X89992200Y-72847200D03*
X77514268Y-69741868D03*
X114020600Y-60121800D03*
%TO.N,+5V*%
X111226600Y-59893200D03*
X73050400Y-80213200D03*
X76644500Y-63639700D03*
X75692000Y-60629800D03*
D18*
%TO.N,Net-(C14-Pad2)*%
X108102400Y-65760600D03*
D19*
%TO.N,EN*%
X88569800Y-71819900D03*
%TO.N,IO0*%
X97180400Y-78181200D03*
%TO.N,VBUS*%
X104876600Y-80086200D03*
X113055400Y-76454000D03*
X100584000Y-80314800D03*
X108991400Y-80772000D03*
%TO.N,+BATT*%
X87706200Y-77546200D03*
X101294700Y-78602696D03*
X103479600Y-76733400D03*
X78740000Y-78105000D03*
%TO.N,-BATT*%
X104419400Y-81737200D03*
X109626400Y-74549000D03*
X104596395Y-75114563D03*
%TO.N,IO12{slash}TDI*%
X80746600Y-76073000D03*
X85775800Y-75971400D03*
X75107800Y-75438000D03*
%TO.N,IO13{slash}TCK*%
X88112600Y-73380600D03*
X88276300Y-66954400D03*
X80670400Y-61087000D03*
X89687400Y-74396600D03*
X87985600Y-63627000D03*
X75020439Y-62603598D03*
X90164931Y-68824849D03*
%TO.N,IO14{slash}SCK{slash}TMS*%
X87056600Y-74055600D03*
X75688922Y-63346656D03*
X96774000Y-71170800D03*
X83286600Y-73597100D03*
X104800400Y-69119900D03*
X93700600Y-71043800D03*
X97129600Y-68580000D03*
%TO.N,LED1 DATA OUT*%
X110667800Y-71424800D03*
X87503000Y-68803337D03*
X88646000Y-70332100D03*
X77506700Y-68605400D03*
%TO.N,Net-(P7-Pad1)*%
X108491459Y-83173806D03*
%TO.N,Net-(R4-Pad1)*%
X77570500Y-73177400D03*
X83261200Y-63373000D03*
%TO.N,IO25{slash}VBUS*%
X80899000Y-77216000D03*
X84353400Y-76428600D03*
%TO.N,IO26{slash}BATT VOLT*%
X86918800Y-71069200D03*
X110530108Y-82156900D03*
%TO.N,Net-(R17-Pad2)*%
X106049299Y-73452501D03*
X108026200Y-75565000D03*
%TO.N,Net-(R18-Pad1)*%
X78308200Y-55778400D03*
%TO.N,Net-(R19-Pad1)*%
X89357200Y-77774800D03*
%TO.N,IO33{slash}MAINBUTTON*%
X113639600Y-54940200D03*
X89839800Y-67640200D03*
X93294200Y-58178600D03*
X87477600Y-67716400D03*
%TO.N,IO4{slash}BUTTON2*%
X79591399Y-60908311D03*
X95478600Y-61341000D03*
X96799400Y-61950600D03*
X90398600Y-61468000D03*
%TO.N,IO32{slash}SD*%
X87477600Y-66192400D03*
D18*
X108543100Y-68131700D03*
D19*
%TO.N,IO27{slash}BATT CHARGING*%
X114782600Y-78232000D03*
X111608358Y-70846714D03*
X87148202Y-69824600D03*
X113893600Y-69697600D03*
%TO.N,RXD0*%
X91770200Y-74274778D03*
X97917000Y-62153800D03*
X95021400Y-62331600D03*
%TO.N,TXD0*%
X93319600Y-74269600D03*
%TO.N,IO15{slash}WS{slash}TDO*%
X97815400Y-66014600D03*
D18*
X104648000Y-65842500D03*
D19*
X75333858Y-67385684D03*
X77564557Y-66221444D03*
%TD*%
D21*
%TO.N,IO14{slash}SCK{slash}TMS*%
X96774000Y-71170800D02*
X96723200Y-71221600D01*
X96723200Y-71221600D02*
X93878400Y-71221600D01*
X93878400Y-71221600D02*
X93700600Y-71043800D01*
D22*
%TO.N,3.3V AFTER MOSFET*%
X98552000Y-72415400D02*
X98247200Y-72110600D01*
X93065600Y-72161400D02*
X92049600Y-71145400D01*
X93395800Y-72161400D02*
X93065600Y-72161400D01*
X100660200Y-72415400D02*
X98552000Y-72415400D01*
X98247200Y-72110600D02*
X93446600Y-72110600D01*
X93446600Y-72110600D02*
X93395800Y-72161400D01*
X100660200Y-72415400D02*
X105884900Y-72415400D01*
D21*
%TO.N,IO14{slash}SCK{slash}TMS*%
X104800400Y-69119900D02*
X104349700Y-69570600D01*
X104349700Y-69570600D02*
X100203000Y-69570600D01*
X100203000Y-69570600D02*
X99212400Y-68580000D01*
X99212400Y-68580000D02*
X97129600Y-68580000D01*
%TO.N,IO19{slash}LED LETCH EN*%
X101854000Y-62026800D02*
X100253800Y-63627000D01*
X104648000Y-62026800D02*
X101854000Y-62026800D01*
X100253800Y-63627000D02*
X99923600Y-63957200D01*
X99923600Y-63957200D02*
X99923600Y-64439800D01*
D22*
%TO.N,5V AFTER MOSFET*%
X109674503Y-66041243D02*
X109931200Y-65784546D01*
X109931200Y-65784546D02*
X109931200Y-62230000D01*
X109931200Y-62230000D02*
X108864400Y-61163200D01*
X108864400Y-61163200D02*
X101879400Y-61163200D01*
X101879400Y-61163200D02*
X98763600Y-64279000D01*
X98763600Y-64279000D02*
X87266000Y-64279000D01*
X87266000Y-64279000D02*
X87071200Y-64084200D01*
X87071200Y-64084200D02*
X87071200Y-62941200D01*
X87071200Y-62941200D02*
X85115400Y-60985400D01*
X85115400Y-60985400D02*
X81797305Y-60985400D01*
X81797305Y-60985400D02*
X80933705Y-61849000D01*
X80933705Y-61849000D02*
X79857600Y-61849000D01*
X79857600Y-61849000D02*
X78435200Y-63271400D01*
X78435200Y-63271400D02*
X78435200Y-64308500D01*
X78435200Y-64308500D02*
X77520800Y-65222900D01*
D21*
%TO.N,IO22{slash}I2C SCL*%
X98526600Y-63703200D02*
X98526600Y-62585600D01*
X98526600Y-62585600D02*
X99949000Y-61163200D01*
X99949000Y-61163200D02*
X101092000Y-61163200D01*
%TO.N,RXD0*%
X97917000Y-62153800D02*
X97459800Y-62611000D01*
X97459800Y-62611000D02*
X95300800Y-62611000D01*
X95300800Y-62611000D02*
X95021400Y-62331600D01*
%TO.N,IO4{slash}BUTTON2*%
X96799400Y-61950600D02*
X96088200Y-61950600D01*
X96088200Y-61950600D02*
X95478600Y-61341000D01*
%TO.N,+3V3*%
X94386400Y-61341000D02*
X94335600Y-61391800D01*
X94335600Y-61391800D02*
X94335600Y-63144400D01*
X94335600Y-63144400D02*
X94691200Y-63500000D01*
X94691200Y-63500000D02*
X97180400Y-63500000D01*
%TO.N,GND*%
X104165400Y-60426600D02*
X103784400Y-60426600D01*
%TO.N,IO22{slash}I2C SCL*%
X100939600Y-63895780D02*
X102144020Y-63895780D01*
X103479600Y-62560200D02*
X105714800Y-62560200D01*
X102144020Y-63895780D02*
X103479600Y-62560200D01*
X105714800Y-62560200D02*
X106222800Y-63068200D01*
X107037726Y-63068200D02*
X106222800Y-63068200D01*
X107771705Y-62334221D02*
X107037726Y-63068200D01*
%TO.N,IO21{slash}I2C SDA*%
X105308400Y-63169800D02*
X105562400Y-63169800D01*
X105562400Y-63169800D02*
X106527600Y-64135000D01*
X106527600Y-64135000D02*
X107391200Y-64135000D01*
X107391200Y-64135000D02*
X108712000Y-62814200D01*
X108712000Y-62814200D02*
X108712000Y-62357000D01*
%TO.N,GYRO VDD*%
X109093000Y-63576200D02*
X109093000Y-63855600D01*
X109093000Y-63855600D02*
X108305600Y-64643000D01*
X108305600Y-64643000D02*
X105628200Y-64643000D01*
D23*
%TO.N,Net-(C14-Pad2)*%
X108102400Y-65760600D02*
X107111800Y-66751200D01*
X107111800Y-66751200D02*
X104876600Y-66751200D01*
X104876600Y-66751200D02*
X104328200Y-67299600D01*
X104328200Y-67299600D02*
X104328200Y-67843400D01*
D21*
%TO.N,IO32{slash}SD*%
X108543100Y-68131700D02*
X108864400Y-67810400D01*
X108864400Y-67810400D02*
X108864400Y-65532000D01*
X108864400Y-65532000D02*
X108483400Y-65151000D01*
X108483400Y-65151000D02*
X107696000Y-65151000D01*
X107696000Y-65151000D02*
X106527600Y-66319400D01*
X106527600Y-66319400D02*
X103632000Y-66319400D01*
X103632000Y-66319400D02*
X103261800Y-66689600D01*
X103261800Y-66689600D02*
X91058938Y-66689600D01*
X91058938Y-66689600D02*
X90561738Y-66192400D01*
X90561738Y-66192400D02*
X87477600Y-66192400D01*
D24*
%TO.N,GND*%
X111353600Y-63373000D02*
X111353600Y-61493400D01*
X111353600Y-61493400D02*
X110286800Y-60426600D01*
X110286800Y-60426600D02*
X105714800Y-60426600D01*
%TO.N,+5V*%
X78393100Y-59478100D02*
X76361100Y-59478100D01*
X110910000Y-59576600D02*
X89548600Y-59576600D01*
X111226600Y-59893200D02*
X110910000Y-59576600D01*
X89548600Y-59576600D02*
X88544400Y-58572400D01*
X88544400Y-58572400D02*
X79298800Y-58572400D01*
X79298800Y-58572400D02*
X78393100Y-59478100D01*
X76361100Y-59478100D02*
X75590400Y-60248800D01*
X75590400Y-60248800D02*
X75590400Y-60629800D01*
D21*
%TO.N,IO21{slash}I2C SDA*%
X102539800Y-64668400D02*
X100939600Y-64668400D01*
X104013000Y-63195200D02*
X102539800Y-64668400D01*
%TO.N,3.3V AFTER MOSFET*%
X98983800Y-65024000D02*
X99364800Y-65405000D01*
X99364800Y-65405000D02*
X103566200Y-65405000D01*
X103566200Y-65405000D02*
X104328200Y-64643000D01*
%TO.N,IO21{slash}I2C SDA*%
X105283000Y-63195200D02*
X104013000Y-63195200D01*
X105308400Y-63169800D02*
X105283000Y-63195200D01*
%TO.N,IO15{slash}WS{slash}TDO*%
X97561400Y-66014600D02*
X96393000Y-64846200D01*
X80162400Y-62382400D02*
X78994000Y-63550800D01*
X78994000Y-63550800D02*
X78994000Y-64792001D01*
X96393000Y-64846200D02*
X86969600Y-64846200D01*
X97815400Y-66014600D02*
X97561400Y-66014600D01*
X84836000Y-61493400D02*
X82118200Y-61493400D01*
X86487000Y-64363600D02*
X86487000Y-63144400D01*
X86969600Y-64846200D02*
X86487000Y-64363600D01*
X86487000Y-63144400D02*
X84836000Y-61493400D01*
X82118200Y-61493400D02*
X81229200Y-62382400D01*
X81229200Y-62382400D02*
X80162400Y-62382400D01*
X78994000Y-64792001D02*
X77564557Y-66221444D01*
X97815400Y-66014600D02*
X102793800Y-66014600D01*
X102793800Y-66014600D02*
X102965900Y-65842500D01*
X102965900Y-65842500D02*
X104648000Y-65842500D01*
%TO.N,IO13{slash}TCK*%
X88276300Y-66954400D02*
X88403300Y-66827400D01*
X88403300Y-66827400D02*
X90271600Y-66827400D01*
X90271600Y-66827400D02*
X91109800Y-67665600D01*
X91109800Y-67665600D02*
X91109800Y-67879980D01*
X91109800Y-67879980D02*
X90164931Y-68824849D01*
D22*
%TO.N,Net-(C1-Pad1)*%
X82270600Y-79806800D02*
X82270600Y-78333600D01*
X85471000Y-83007200D02*
X82270600Y-79806800D01*
X85471000Y-83134200D02*
X85471000Y-83007200D01*
%TO.N,GND*%
X79425800Y-59646776D02*
X79425800Y-59613800D01*
D23*
X75793600Y-82574532D02*
X75819434Y-82600366D01*
D24*
X75793600Y-82016600D02*
X75336400Y-81559400D01*
X77687400Y-63854218D02*
X77687400Y-62825400D01*
X88061800Y-59385200D02*
X79654400Y-59385200D01*
D22*
X112793600Y-70153235D02*
X114046000Y-71405635D01*
D24*
X105714800Y-60426600D02*
X103784400Y-60426600D01*
D21*
X110718600Y-63373000D02*
X111353600Y-63373000D01*
D22*
X83027524Y-82600366D02*
X79227676Y-82600366D01*
D21*
X81026000Y-80060800D02*
X83027524Y-82062324D01*
D24*
X77901800Y-61137800D02*
X79425800Y-59613800D01*
D22*
X104978200Y-78613000D02*
X106553000Y-77038200D01*
D24*
X77687400Y-71116982D02*
X76656700Y-70086282D01*
D21*
X77806635Y-62825400D02*
X77687400Y-62825400D01*
X78301162Y-62330873D02*
X77806635Y-62825400D01*
D24*
X76720500Y-73977950D02*
X76720500Y-72825318D01*
X76670800Y-64870818D02*
X77687400Y-63854218D01*
X111353600Y-67589400D02*
X111353600Y-63373000D01*
X77266800Y-67643218D02*
X77266800Y-67125769D01*
X77687400Y-62825400D02*
X77687400Y-61352200D01*
D22*
X106553000Y-77038200D02*
X107035600Y-77038200D01*
D24*
X112793600Y-69537400D02*
X112793600Y-70153235D01*
D22*
X112776000Y-80128230D02*
X112776000Y-78682965D01*
X112649000Y-78809964D02*
X113115782Y-78343182D01*
D24*
X76656700Y-68253318D02*
X77266800Y-67643218D01*
X76720500Y-72825318D02*
X77687400Y-71858418D01*
X77687400Y-61352200D02*
X77901800Y-61137800D01*
D22*
X75819434Y-82600366D02*
X76779124Y-82600366D01*
X76911200Y-60514100D02*
X77278100Y-60514100D01*
X114046000Y-77412965D02*
X113115782Y-78343182D01*
D24*
X111099600Y-67843400D02*
X112793600Y-69537400D01*
X77687400Y-74944850D02*
X76720500Y-73977950D01*
D22*
X77278100Y-60514100D02*
X77901800Y-61137800D01*
X112649000Y-78867000D02*
X112649000Y-78809964D01*
D24*
X77687400Y-71858418D02*
X77687400Y-71116982D01*
X75336400Y-81559400D02*
X75336400Y-79298800D01*
D25*
X76098400Y-78536800D02*
X76820882Y-77814318D01*
D24*
X111099600Y-67843400D02*
X111353600Y-67589400D01*
D22*
X114223563Y-81575793D02*
X112776000Y-80128230D01*
X114869865Y-81575793D02*
X114223563Y-81575793D01*
D24*
X77266800Y-67125769D02*
X76670800Y-66529769D01*
D25*
X75336400Y-76555600D02*
X74345798Y-76555600D01*
D21*
X110649450Y-63303850D02*
X110718600Y-63373000D01*
D25*
X74345798Y-76555600D02*
X74168000Y-76733398D01*
D24*
X89103200Y-60426600D02*
X88061800Y-59385200D01*
D22*
X114046000Y-71405635D02*
X114046000Y-77412965D01*
X72979276Y-82600366D02*
X75819434Y-82600366D01*
D23*
X75793600Y-82016600D02*
X75793600Y-82574532D01*
D24*
X79654400Y-59385200D02*
X79425800Y-59613800D01*
X103784400Y-60426600D02*
X89103200Y-60426600D01*
X76098400Y-78536800D02*
X77687400Y-76947800D01*
X75336400Y-79298800D02*
X76098400Y-78536800D01*
D22*
X79086688Y-59985888D02*
X79425800Y-59646776D01*
D24*
X77687400Y-76947800D02*
X77687400Y-74944850D01*
X76656700Y-70086282D02*
X76656700Y-68253318D01*
D22*
X112776000Y-78682965D02*
X113115782Y-78343182D01*
D24*
X76670800Y-66529769D02*
X76670800Y-64870818D01*
D21*
X83027524Y-82062324D02*
X83027524Y-82600366D01*
D25*
X76820882Y-77814318D02*
X76820882Y-77774771D01*
D22*
%TO.N,5V AFTER MOSFET*%
X108144640Y-69850000D02*
X107556900Y-69262260D01*
X109702600Y-69850000D02*
X108144640Y-69850000D01*
X110263900Y-69288700D02*
X109702600Y-69850000D01*
X109674503Y-66041243D02*
X110263900Y-66630640D01*
X110263900Y-66630640D02*
X110263900Y-69288700D01*
%TO.N,+3V3*%
X89535000Y-58318400D02*
X91795600Y-58318400D01*
X92380800Y-58903600D02*
X95807800Y-58903600D01*
X74587000Y-58903100D02*
X78028300Y-58903100D01*
X74459500Y-58775600D02*
X74587000Y-58903100D01*
X79044800Y-57886600D02*
X89103200Y-57886600D01*
X78028300Y-58903100D02*
X79044800Y-57886600D01*
D21*
X95758000Y-74574400D02*
X95758000Y-77470000D01*
D22*
X95807800Y-58903600D02*
X96215200Y-58496200D01*
X78130400Y-56921400D02*
X78130400Y-58801000D01*
X91795600Y-58318400D02*
X92380800Y-58903600D01*
D21*
X95758000Y-77470000D02*
X95986600Y-77698600D01*
D22*
X111912400Y-59105800D02*
X111302800Y-58496200D01*
X89103200Y-57886600D02*
X89535000Y-58318400D01*
X111302800Y-58496200D02*
X96215200Y-58496200D01*
D21*
X78130400Y-58801000D02*
X78028300Y-58903100D01*
X96062800Y-74269600D02*
X95758000Y-74574400D01*
D22*
%TO.N,3.3V AFTER MOSFET*%
X75742800Y-71577200D02*
X75683534Y-71636466D01*
X86029800Y-71602600D02*
X87020400Y-72593200D01*
D21*
X106881900Y-68982665D02*
X106881900Y-69217157D01*
X107277305Y-68587260D02*
X106881900Y-68982665D01*
D22*
X80086200Y-65706081D02*
X80086200Y-64033400D01*
D21*
X112420400Y-61722000D02*
X114020600Y-60121800D01*
D22*
X81762600Y-63500000D02*
X82626200Y-62636400D01*
X85242400Y-65074800D02*
X86029800Y-65862200D01*
D21*
X112420400Y-65963800D02*
X112420400Y-61722000D01*
X109539400Y-67447800D02*
X109539400Y-68641600D01*
D22*
X80086200Y-64033400D02*
X80619600Y-63500000D01*
X84277200Y-62636400D02*
X85242400Y-63601600D01*
X87020400Y-72593200D02*
X89738200Y-72593200D01*
D21*
X112826800Y-66370200D02*
X112420400Y-65963800D01*
X109539400Y-68641600D02*
X108940600Y-69240400D01*
D22*
X82626200Y-62636400D02*
X84277200Y-62636400D01*
X86029800Y-65862200D02*
X86029800Y-71602600D01*
X78467000Y-67325281D02*
X80086200Y-65706081D01*
X80619600Y-63500000D02*
X81762600Y-63500000D01*
D21*
X108058860Y-68587260D02*
X107277305Y-68587260D01*
D22*
X106017493Y-70081564D02*
X106017493Y-68232693D01*
D21*
X108712000Y-69240400D02*
X108058860Y-68587260D01*
D22*
X75683534Y-71636466D02*
X73613764Y-71636466D01*
X78467000Y-68789136D02*
X78467000Y-67325281D01*
X89738200Y-72593200D02*
X89992200Y-72847200D01*
X85242400Y-63601600D02*
X85242400Y-65074800D01*
X106017493Y-68232693D02*
X105628200Y-67843400D01*
X77514268Y-69741868D02*
X78467000Y-68789136D01*
D21*
X108940600Y-69240400D02*
X108712000Y-69240400D01*
X106881900Y-69217157D02*
X106017493Y-70081564D01*
D22*
%TO.N,+5V*%
X75590400Y-60629800D02*
X75692000Y-60629800D01*
D24*
X75937532Y-74184932D02*
X74168000Y-74184932D01*
X73050400Y-80213200D02*
X76987400Y-76276200D01*
X76479400Y-67328319D02*
X76479400Y-67440668D01*
X75970800Y-64313400D02*
X75970800Y-66819719D01*
X76860400Y-61899800D02*
X76860400Y-63423800D01*
X76987400Y-76276200D02*
X76987400Y-75234800D01*
X76987400Y-75234800D02*
X75937532Y-74184932D01*
X76860400Y-63423800D02*
X75970800Y-64313400D01*
X76479400Y-67440668D02*
X75956700Y-67963368D01*
X75956700Y-67963368D02*
X75956700Y-70376232D01*
X75956700Y-70376232D02*
X76682600Y-71102132D01*
X75970800Y-66819719D02*
X76479400Y-67328319D01*
X76682600Y-71102132D02*
X76682600Y-71873268D01*
X75590400Y-60629800D02*
X76860400Y-61899800D01*
X76682600Y-71873268D02*
X76020500Y-72535368D01*
X76020500Y-74267900D02*
X76987400Y-75234800D01*
X76020500Y-72535368D02*
X76020500Y-74267900D01*
D21*
%TO.N,EN*%
X98882200Y-74803000D02*
X98882200Y-79375000D01*
X91770200Y-73456800D02*
X97536000Y-73456800D01*
X90133300Y-71819900D02*
X91770200Y-73456800D01*
X97536000Y-73456800D02*
X98882200Y-74803000D01*
X99468400Y-79961200D02*
X99468400Y-81706030D01*
X98882200Y-79375000D02*
X99468400Y-79961200D01*
X88569800Y-71819900D02*
X90133300Y-71819900D01*
%TO.N,IO0*%
X97180400Y-78181200D02*
X97268400Y-78269200D01*
X97268400Y-78269200D02*
X97268400Y-81706030D01*
D22*
%TO.N,VBUS*%
X113055400Y-76454000D02*
X108991400Y-80518000D01*
X108991400Y-80518000D02*
X108991400Y-80772000D01*
X100584000Y-80314800D02*
X100914200Y-80314800D01*
X104876600Y-80086200D02*
X105562400Y-80772000D01*
X89712800Y-84429600D02*
X88468400Y-83185200D01*
X101803200Y-84150200D02*
X101523800Y-84429600D01*
X101523800Y-84429600D02*
X89712800Y-84429600D01*
X101803200Y-81203800D02*
X101803200Y-84150200D01*
X100914200Y-80314800D02*
X101803200Y-81203800D01*
X105562400Y-80772000D02*
X108991400Y-80772000D01*
X88468400Y-83185200D02*
X88468400Y-81706030D01*
D23*
%TO.N,+BATT*%
X87706200Y-77546200D02*
X81737200Y-77546200D01*
X78765400Y-78079600D02*
X78740000Y-78105000D01*
X101294700Y-78602696D02*
X103163996Y-76733400D01*
X103163996Y-76733400D02*
X103479600Y-76733400D01*
X81203800Y-78079600D02*
X78765400Y-78079600D01*
X81737200Y-77546200D02*
X81203800Y-78079600D01*
D22*
%TO.N,-BATT*%
X104596395Y-75114563D02*
X105765600Y-76283768D01*
D21*
X104419400Y-81737200D02*
X104419400Y-82473800D01*
D22*
X104063800Y-81623230D02*
X105765600Y-83325030D01*
X109626400Y-74549000D02*
X107569000Y-74549000D01*
D21*
X104419400Y-82473800D02*
X105232200Y-83286600D01*
D22*
X107569000Y-74549000D02*
X105765600Y-76352400D01*
X105765600Y-76352400D02*
X104063800Y-78054200D01*
X104063800Y-78054200D02*
X104063800Y-81623230D01*
X105765600Y-76283768D02*
X105765600Y-76352400D01*
D21*
%TO.N,IO12{slash}TDI*%
X74168000Y-61442602D02*
X72974200Y-62636402D01*
X81686400Y-75133200D02*
X84937600Y-75133200D01*
X73583800Y-75438000D02*
X75107800Y-75438000D01*
X72974200Y-62636402D02*
X72974200Y-74828400D01*
X84937600Y-75133200D02*
X85775800Y-75971400D01*
X72974200Y-74828400D02*
X73583800Y-75438000D01*
X80746600Y-76073000D02*
X81686400Y-75133200D01*
%TO.N,IO13{slash}TCK*%
X85521800Y-60477400D02*
X87985600Y-62941200D01*
X75020439Y-62603598D02*
X75001234Y-62603598D01*
X75001234Y-62603598D02*
X73609200Y-63995632D01*
X88671400Y-73380600D02*
X89687400Y-74396600D01*
X88112600Y-73380600D02*
X88671400Y-73380600D01*
X81280000Y-60477400D02*
X85521800Y-60477400D01*
X87985600Y-62941200D02*
X87985600Y-63627000D01*
X80670400Y-61087000D02*
X81280000Y-60477400D01*
%TO.N,IO14{slash}SCK{slash}TMS*%
X75311000Y-64842298D02*
X73609200Y-66544098D01*
X86598100Y-73597100D02*
X87056600Y-74055600D01*
X83286600Y-73597100D02*
X86598100Y-73597100D01*
X75311000Y-63724578D02*
X75311000Y-64842298D01*
X75688922Y-63346656D02*
X75311000Y-63724578D01*
%TO.N,LED1 DATA OUT*%
X81407000Y-62915800D02*
X80365600Y-62915800D01*
X85979000Y-63296800D02*
X84683600Y-62001400D01*
X80365600Y-62915800D02*
X79476600Y-63804800D01*
X98450400Y-70332600D02*
X88646500Y-70332600D01*
X87198005Y-68391400D02*
X86802600Y-67995995D01*
X77908200Y-68203900D02*
X77506700Y-68605400D01*
X79476600Y-63804800D02*
X79476600Y-65749995D01*
X87503000Y-68391400D02*
X87198005Y-68391400D01*
X88646500Y-70332600D02*
X88646000Y-70332100D01*
X110667800Y-71424800D02*
X110388400Y-71704200D01*
X86802600Y-67995995D02*
X86802600Y-65542800D01*
X77908200Y-67318395D02*
X77908200Y-68203900D01*
X85979000Y-64719200D02*
X85979000Y-63296800D01*
X79476600Y-65749995D02*
X77908200Y-67318395D01*
X110388400Y-71704200D02*
X99822000Y-71704200D01*
X87503000Y-68803337D02*
X87503000Y-68391400D01*
X82321400Y-62001400D02*
X81407000Y-62915800D01*
X84683600Y-62001400D02*
X82321400Y-62001400D01*
X99822000Y-71704200D02*
X98450400Y-70332600D01*
X86802600Y-65542800D02*
X85979000Y-64719200D01*
D22*
%TO.N,Net-(P7-Pad1)*%
X109943570Y-83325030D02*
X112572800Y-83325030D01*
X108491459Y-83173806D02*
X109792346Y-83173806D01*
X109792346Y-83173806D02*
X109943570Y-83325030D01*
D21*
%TO.N,Net-(R4-Pad1)*%
X77570500Y-73177400D02*
X78867000Y-71880900D01*
X78867000Y-71880900D02*
X78867000Y-67741800D01*
X80619600Y-65989200D02*
X80619600Y-64490600D01*
X80619600Y-64490600D02*
X81051400Y-64058800D01*
X78867000Y-67741800D02*
X80619600Y-65989200D01*
X81051400Y-64058800D02*
X82575400Y-64058800D01*
X82575400Y-64058800D02*
X83261200Y-63373000D01*
%TO.N,IO25{slash}VBUS*%
X84302600Y-76377800D02*
X84353400Y-76428600D01*
X81737200Y-76377800D02*
X84302600Y-76377800D01*
X80899000Y-77216000D02*
X81737200Y-76377800D01*
%TO.N,IO26{slash}BATT VOLT*%
X102539800Y-80581548D02*
X102539800Y-84074000D01*
X97891600Y-72974200D02*
X100620200Y-75702800D01*
X110492608Y-82194400D02*
X110530108Y-82156900D01*
X102539800Y-84074000D02*
X103098600Y-84632800D01*
X102207553Y-80581548D02*
X102539800Y-80581548D01*
X86918800Y-71069200D02*
X86995000Y-71145400D01*
X86995000Y-71145400D02*
X90754200Y-71145400D01*
X100620200Y-78994195D02*
X102207553Y-80581548D01*
X107543600Y-84251800D02*
X107543600Y-83058000D01*
X90754200Y-71145400D02*
X92583000Y-72974200D01*
X103098600Y-84632800D02*
X107162600Y-84632800D01*
X107162600Y-84632800D02*
X107543600Y-84251800D01*
X107543600Y-83058000D02*
X108407200Y-82194400D01*
X92583000Y-72974200D02*
X97891600Y-72974200D01*
X108407200Y-82194400D02*
X110492608Y-82194400D01*
X100620200Y-75702800D02*
X100620200Y-78994195D01*
%TO.N,Net-(R17-Pad2)*%
X110718600Y-73710800D02*
X110718600Y-75057000D01*
X110490000Y-73482200D02*
X110718600Y-73710800D01*
X110210600Y-75565000D02*
X108026200Y-75565000D01*
X106049299Y-73452501D02*
X106078998Y-73482200D01*
X106078998Y-73482200D02*
X110490000Y-73482200D01*
X110718600Y-75057000D02*
X110210600Y-75565000D01*
%TO.N,Net-(R18-Pad1)*%
X78308200Y-55778400D02*
X76276200Y-55778400D01*
D22*
X76779124Y-84100494D02*
X72979276Y-84100494D01*
D21*
X76276200Y-55778400D02*
X72364600Y-59690000D01*
X72364600Y-83735690D02*
X72729404Y-84100494D01*
X72729404Y-84100494D02*
X72979276Y-84100494D01*
X72364600Y-59690000D02*
X72364600Y-83735690D01*
D22*
%TO.N,Net-(R19-Pad1)*%
X79227676Y-84100494D02*
X83027524Y-84100494D01*
D23*
X89357200Y-77774800D02*
X86868000Y-80264000D01*
X86868000Y-83794600D02*
X86562106Y-84100494D01*
X86562106Y-84100494D02*
X83027524Y-84100494D01*
X86868000Y-80264000D02*
X86868000Y-83794600D01*
D21*
%TO.N,IO33{slash}MAINBUTTON*%
X89738200Y-67741800D02*
X87503000Y-67741800D01*
X111683800Y-56896000D02*
X113639600Y-54940200D01*
X110744000Y-56896000D02*
X111683800Y-56896000D01*
X109855000Y-57785000D02*
X110744000Y-56896000D01*
X109855000Y-57962800D02*
X109855000Y-57785000D01*
X109702600Y-57810400D02*
X109855000Y-57962800D01*
X93294200Y-58178600D02*
X93662400Y-57810400D01*
X87503000Y-67741800D02*
X87477600Y-67716400D01*
X89839800Y-67640200D02*
X89738200Y-67741800D01*
X93662400Y-57810400D02*
X109702600Y-57810400D01*
%TO.N,IO4{slash}BUTTON2*%
X80530310Y-59969400D02*
X85801200Y-59969400D01*
X89966800Y-61036200D02*
X90398600Y-61468000D01*
X79591399Y-60908311D02*
X80530310Y-59969400D01*
X86868000Y-61036200D02*
X89966800Y-61036200D01*
X85801200Y-59969400D02*
X86868000Y-61036200D01*
D23*
%TO.N,IO27{slash}BATT CHARGING*%
X111608358Y-70846714D02*
X111322844Y-70561200D01*
X98893400Y-69632600D02*
X87340202Y-69632600D01*
X100228400Y-70967600D02*
X98893400Y-69632600D01*
X107746800Y-70561200D02*
X107340400Y-70967600D01*
X114122200Y-69697600D02*
X113893600Y-69697600D01*
X87340202Y-69632600D02*
X87148202Y-69824600D01*
X111322844Y-70561200D02*
X107746800Y-70561200D01*
X114782600Y-70358000D02*
X114122200Y-69697600D01*
X114782600Y-78232000D02*
X114782600Y-70358000D01*
X107340400Y-70967600D02*
X100228400Y-70967600D01*
D21*
%TO.N,RXD0*%
X91795600Y-77089000D02*
X92868400Y-78161800D01*
X91795600Y-74300178D02*
X91795600Y-77089000D01*
X92868400Y-78161800D02*
X92868400Y-81706030D01*
X91770200Y-74274778D02*
X91795600Y-74300178D01*
%TO.N,TXD0*%
X95068400Y-78075800D02*
X93319600Y-76327000D01*
X93319600Y-76327000D02*
X93319600Y-74269600D01*
X95068400Y-81706030D02*
X95068400Y-78075800D01*
%TO.N,IO15{slash}WS{slash}TDO*%
X74168000Y-69088000D02*
X75333858Y-67922142D01*
X75333858Y-67922142D02*
X75333858Y-67385684D01*
%TD*%
%TA.AperFunction,Conductor*%
%TO.N,GND*%
G36*
X90840684Y-73372675D02*
G01*
X90891985Y-73403778D01*
X91038945Y-73550738D01*
X91072971Y-73613050D01*
X91067906Y-73683865D01*
X91043488Y-73724141D01*
X91035583Y-73732921D01*
X91035580Y-73732925D01*
X91031160Y-73737834D01*
X91027857Y-73743555D01*
X90957525Y-73865374D01*
X90935673Y-73903222D01*
X90876658Y-74084850D01*
X90875968Y-74091411D01*
X90875968Y-74091413D01*
X90871361Y-74135246D01*
X90856696Y-74274778D01*
X90857386Y-74281343D01*
X90873313Y-74432877D01*
X90876658Y-74464706D01*
X90935673Y-74646334D01*
X91031160Y-74811722D01*
X91035578Y-74816629D01*
X91035579Y-74816630D01*
X91140849Y-74933544D01*
X91158947Y-74953644D01*
X91164291Y-74957527D01*
X91169198Y-74961945D01*
X91167412Y-74963929D01*
X91203514Y-75010747D01*
X91212100Y-75056462D01*
X91212100Y-77042497D01*
X91211022Y-77058944D01*
X91207065Y-77089000D01*
X91224448Y-77221039D01*
X91227119Y-77241324D01*
X91285914Y-77383267D01*
X91379443Y-77505157D01*
X91385989Y-77510180D01*
X91403502Y-77523618D01*
X91415893Y-77534486D01*
X92247995Y-78366588D01*
X92282021Y-78428900D01*
X92284900Y-78455683D01*
X92284900Y-80288948D01*
X92264898Y-80357069D01*
X92217080Y-80400711D01*
X92088536Y-80467627D01*
X92084403Y-80470730D01*
X92084400Y-80470732D01*
X91900880Y-80608523D01*
X91896745Y-80611628D01*
X91893173Y-80615366D01*
X91737217Y-80778565D01*
X91731048Y-80785020D01*
X91728134Y-80789292D01*
X91728133Y-80789293D01*
X91714515Y-80809257D01*
X91595895Y-80983147D01*
X91579165Y-81019189D01*
X91497093Y-81195995D01*
X91497091Y-81196000D01*
X91494916Y-81200686D01*
X91493534Y-81205670D01*
X91489184Y-81221355D01*
X91456862Y-81276778D01*
X91040422Y-81693218D01*
X91032808Y-81707162D01*
X91032939Y-81708995D01*
X91037190Y-81715610D01*
X91458344Y-82136764D01*
X91485991Y-82178454D01*
X91560152Y-82361089D01*
X91560157Y-82361098D01*
X91562102Y-82365889D01*
X91564802Y-82370295D01*
X91564805Y-82370301D01*
X91684714Y-82565975D01*
X91687414Y-82570381D01*
X91844443Y-82751660D01*
X92028971Y-82904858D01*
X92236043Y-83025861D01*
X92240868Y-83027703D01*
X92240869Y-83027704D01*
X92319980Y-83057914D01*
X92460097Y-83111419D01*
X92465163Y-83112450D01*
X92465164Y-83112450D01*
X92478966Y-83115258D01*
X92695116Y-83159234D01*
X92830664Y-83164204D01*
X92929625Y-83167833D01*
X92929629Y-83167833D01*
X92934789Y-83168022D01*
X92939909Y-83167366D01*
X92939911Y-83167366D01*
X93167551Y-83138205D01*
X93167552Y-83138205D01*
X93172679Y-83137548D01*
X93179269Y-83135571D01*
X93397442Y-83070116D01*
X93397447Y-83070114D01*
X93402397Y-83068629D01*
X93617774Y-82963117D01*
X93621979Y-82960117D01*
X93621985Y-82960114D01*
X93723648Y-82887598D01*
X93813027Y-82823845D01*
X93876506Y-82760588D01*
X93938877Y-82726672D01*
X94009683Y-82731860D01*
X94045930Y-82752895D01*
X94208181Y-82887598D01*
X94228971Y-82904858D01*
X94436043Y-83025861D01*
X94440868Y-83027703D01*
X94440869Y-83027704D01*
X94519980Y-83057914D01*
X94660097Y-83111419D01*
X94665163Y-83112450D01*
X94665164Y-83112450D01*
X94678966Y-83115258D01*
X94895116Y-83159234D01*
X95030664Y-83164204D01*
X95129625Y-83167833D01*
X95129629Y-83167833D01*
X95134789Y-83168022D01*
X95139909Y-83167366D01*
X95139911Y-83167366D01*
X95367551Y-83138205D01*
X95367552Y-83138205D01*
X95372679Y-83137548D01*
X95379269Y-83135571D01*
X95597442Y-83070116D01*
X95597447Y-83070114D01*
X95602397Y-83068629D01*
X95817774Y-82963117D01*
X95821979Y-82960117D01*
X95821985Y-82960114D01*
X95923648Y-82887598D01*
X96013027Y-82823845D01*
X96076506Y-82760588D01*
X96138877Y-82726672D01*
X96209683Y-82731860D01*
X96245930Y-82752895D01*
X96408181Y-82887598D01*
X96428971Y-82904858D01*
X96636043Y-83025861D01*
X96640868Y-83027703D01*
X96640869Y-83027704D01*
X96719980Y-83057914D01*
X96860097Y-83111419D01*
X96865163Y-83112450D01*
X96865164Y-83112450D01*
X96878966Y-83115258D01*
X97095116Y-83159234D01*
X97230664Y-83164204D01*
X97329625Y-83167833D01*
X97329629Y-83167833D01*
X97334789Y-83168022D01*
X97339909Y-83167366D01*
X97339911Y-83167366D01*
X97567551Y-83138205D01*
X97567552Y-83138205D01*
X97572679Y-83137548D01*
X97579269Y-83135571D01*
X97797442Y-83070116D01*
X97797447Y-83070114D01*
X97802397Y-83068629D01*
X98017774Y-82963117D01*
X98021979Y-82960117D01*
X98021985Y-82960114D01*
X98123648Y-82887598D01*
X98213027Y-82823845D01*
X98276506Y-82760588D01*
X98338877Y-82726672D01*
X98409683Y-82731860D01*
X98445930Y-82752895D01*
X98608181Y-82887598D01*
X98628971Y-82904858D01*
X98836043Y-83025861D01*
X98840868Y-83027703D01*
X98840869Y-83027704D01*
X98919980Y-83057914D01*
X99060097Y-83111419D01*
X99065163Y-83112450D01*
X99065164Y-83112450D01*
X99078966Y-83115258D01*
X99295116Y-83159234D01*
X99430664Y-83164204D01*
X99529625Y-83167833D01*
X99529629Y-83167833D01*
X99534789Y-83168022D01*
X99539909Y-83167366D01*
X99539911Y-83167366D01*
X99767551Y-83138205D01*
X99767552Y-83138205D01*
X99772679Y-83137548D01*
X99779269Y-83135571D01*
X99997442Y-83070116D01*
X99997447Y-83070114D01*
X100002397Y-83068629D01*
X100217774Y-82963117D01*
X100221979Y-82960117D01*
X100221985Y-82960114D01*
X100323648Y-82887598D01*
X100413027Y-82823845D01*
X100582911Y-82654553D01*
X100722863Y-82459788D01*
X100726991Y-82451437D01*
X100826833Y-82249422D01*
X100826834Y-82249420D01*
X100829127Y-82244780D01*
X100898847Y-82015304D01*
X100918778Y-81863915D01*
X100947501Y-81798988D01*
X101006766Y-81759897D01*
X101077757Y-81759052D01*
X101137936Y-81796722D01*
X101168195Y-81860948D01*
X101169700Y-81880362D01*
X101169700Y-83670100D01*
X101149698Y-83738221D01*
X101096042Y-83784714D01*
X101043700Y-83796100D01*
X90027395Y-83796100D01*
X89959274Y-83776098D01*
X89938300Y-83759195D01*
X89278920Y-83099815D01*
X89244894Y-83037503D01*
X89249959Y-82966688D01*
X89294846Y-82908142D01*
X89299349Y-82904930D01*
X89834758Y-82904930D01*
X89838061Y-82909590D01*
X90031799Y-83022801D01*
X90041086Y-83027251D01*
X90255406Y-83109092D01*
X90265308Y-83111969D01*
X90490099Y-83157703D01*
X90500351Y-83158926D01*
X90729602Y-83167332D01*
X90739888Y-83166865D01*
X90967443Y-83137714D01*
X90977529Y-83135571D01*
X91197264Y-83069647D01*
X91206859Y-83065886D01*
X91412866Y-82964965D01*
X91421732Y-82959680D01*
X91489345Y-82911451D01*
X91497746Y-82900751D01*
X91490758Y-82887598D01*
X90681212Y-82078052D01*
X90667268Y-82070438D01*
X90665435Y-82070569D01*
X90658820Y-82074820D01*
X89842035Y-82891605D01*
X89834758Y-82904930D01*
X89299349Y-82904930D01*
X89413027Y-82823845D01*
X89582911Y-82654553D01*
X89722863Y-82459788D01*
X89726991Y-82451437D01*
X89826833Y-82249422D01*
X89826834Y-82249420D01*
X89829127Y-82244780D01*
X89831015Y-82238566D01*
X89845574Y-82190649D01*
X89877037Y-82138183D01*
X90296378Y-81718842D01*
X90303992Y-81704898D01*
X90303861Y-81703065D01*
X90299610Y-81696450D01*
X89882271Y-81279111D01*
X89854306Y-81234183D01*
X89853820Y-81234394D01*
X89852388Y-81231101D01*
X89841331Y-81205670D01*
X89760247Y-81019189D01*
X89760245Y-81019186D01*
X89758187Y-81014452D01*
X89749121Y-81000437D01*
X89630725Y-80817426D01*
X89630723Y-80817423D01*
X89627915Y-80813083D01*
X89603768Y-80786545D01*
X89469982Y-80639517D01*
X89469980Y-80639515D01*
X89466504Y-80635695D01*
X89462453Y-80632496D01*
X89462449Y-80632492D01*
X89308649Y-80511029D01*
X89838195Y-80511029D01*
X89844940Y-80523360D01*
X90655588Y-81334008D01*
X90669532Y-81341622D01*
X90671365Y-81341491D01*
X90677980Y-81337240D01*
X91492990Y-80522230D01*
X91500011Y-80509373D01*
X91492238Y-80498706D01*
X91482067Y-80490673D01*
X91473483Y-80484970D01*
X91272650Y-80374104D01*
X91263238Y-80369874D01*
X91046991Y-80293296D01*
X91037020Y-80290662D01*
X90811169Y-80250432D01*
X90800916Y-80249463D01*
X90571516Y-80246660D01*
X90561232Y-80247380D01*
X90334467Y-80282080D01*
X90324439Y-80284469D01*
X90106384Y-80355740D01*
X90096875Y-80359737D01*
X89893393Y-80465663D01*
X89884668Y-80471157D01*
X89846648Y-80499704D01*
X89838195Y-80511029D01*
X89308649Y-80511029D01*
X89278288Y-80487051D01*
X89068322Y-80371143D01*
X88936101Y-80324321D01*
X88847120Y-80292811D01*
X88847116Y-80292810D01*
X88842245Y-80291085D01*
X88837152Y-80290178D01*
X88837149Y-80290177D01*
X88611216Y-80249932D01*
X88611210Y-80249931D01*
X88606127Y-80249026D01*
X88518860Y-80247960D01*
X88371481Y-80246159D01*
X88371479Y-80246159D01*
X88366311Y-80246096D01*
X88129237Y-80282373D01*
X88007478Y-80322170D01*
X87936516Y-80324321D01*
X87875654Y-80287765D01*
X87844217Y-80224108D01*
X87852187Y-80153560D01*
X87879239Y-80113310D01*
X89272344Y-78720205D01*
X89334656Y-78686179D01*
X89361439Y-78683300D01*
X89452687Y-78683300D01*
X89459139Y-78681928D01*
X89459144Y-78681928D01*
X89546087Y-78663447D01*
X89639488Y-78643594D01*
X89690626Y-78620826D01*
X89807922Y-78568603D01*
X89807924Y-78568602D01*
X89813952Y-78565918D01*
X89842193Y-78545400D01*
X89908381Y-78497311D01*
X89968453Y-78453666D01*
X89978445Y-78442569D01*
X90091821Y-78316652D01*
X90091822Y-78316651D01*
X90096240Y-78311744D01*
X90171610Y-78181200D01*
X90188423Y-78152079D01*
X90188424Y-78152078D01*
X90191727Y-78146356D01*
X90250742Y-77964728D01*
X90260827Y-77868780D01*
X90270014Y-77781365D01*
X90270704Y-77774800D01*
X90261807Y-77690148D01*
X90251432Y-77591435D01*
X90251432Y-77591433D01*
X90250742Y-77584872D01*
X90191727Y-77403244D01*
X90183976Y-77389818D01*
X90140134Y-77313882D01*
X90096240Y-77237856D01*
X89968453Y-77095934D01*
X89857022Y-77014974D01*
X89819294Y-76987563D01*
X89819293Y-76987562D01*
X89813952Y-76983682D01*
X89807924Y-76980998D01*
X89807922Y-76980997D01*
X89645519Y-76908691D01*
X89645518Y-76908691D01*
X89639488Y-76906006D01*
X89516670Y-76879900D01*
X89459144Y-76867672D01*
X89459139Y-76867672D01*
X89452687Y-76866300D01*
X89261713Y-76866300D01*
X89255261Y-76867672D01*
X89255256Y-76867672D01*
X89197730Y-76879900D01*
X89074912Y-76906006D01*
X89068882Y-76908691D01*
X89068881Y-76908691D01*
X88906478Y-76980997D01*
X88906476Y-76980998D01*
X88900448Y-76983682D01*
X88895107Y-76987562D01*
X88895106Y-76987563D01*
X88857378Y-77014974D01*
X88745947Y-77095934D01*
X88709258Y-77136681D01*
X88648814Y-77173919D01*
X88577830Y-77172567D01*
X88518846Y-77133053D01*
X88506505Y-77115369D01*
X88448542Y-77014974D01*
X88448539Y-77014969D01*
X88445240Y-77009256D01*
X88353603Y-76907482D01*
X88321875Y-76872245D01*
X88321874Y-76872244D01*
X88317453Y-76867334D01*
X88217112Y-76794432D01*
X88168294Y-76758963D01*
X88168293Y-76758962D01*
X88162952Y-76755082D01*
X88156924Y-76752398D01*
X88156922Y-76752397D01*
X87994519Y-76680091D01*
X87994518Y-76680091D01*
X87988488Y-76677406D01*
X87879073Y-76654149D01*
X87808144Y-76639072D01*
X87808139Y-76639072D01*
X87801687Y-76637700D01*
X87610713Y-76637700D01*
X87604261Y-76639072D01*
X87604256Y-76639072D01*
X87533327Y-76654149D01*
X87423912Y-76677406D01*
X87417882Y-76680091D01*
X87417881Y-76680091D01*
X87255478Y-76752397D01*
X87255476Y-76752398D01*
X87249448Y-76755082D01*
X87244107Y-76758962D01*
X87244106Y-76758963D01*
X87194873Y-76794733D01*
X87094947Y-76867334D01*
X87090534Y-76872236D01*
X87090532Y-76872237D01*
X87069126Y-76896011D01*
X87008680Y-76933250D01*
X86975490Y-76937700D01*
X86379222Y-76937700D01*
X86311101Y-76917698D01*
X86264608Y-76864042D01*
X86254504Y-76793768D01*
X86283998Y-76729188D01*
X86305161Y-76709764D01*
X86308198Y-76707558D01*
X86357077Y-76672045D01*
X86381709Y-76654149D01*
X86381711Y-76654147D01*
X86387053Y-76650266D01*
X86397132Y-76639072D01*
X86510421Y-76513252D01*
X86510422Y-76513251D01*
X86514840Y-76508344D01*
X86591224Y-76376044D01*
X86607023Y-76348679D01*
X86607024Y-76348678D01*
X86610327Y-76342956D01*
X86669342Y-76161328D01*
X86670275Y-76152457D01*
X86688614Y-75977965D01*
X86689304Y-75971400D01*
X86683592Y-75917056D01*
X86670032Y-75788035D01*
X86670032Y-75788033D01*
X86669342Y-75781472D01*
X86610327Y-75599844D01*
X86514840Y-75434456D01*
X86454202Y-75367110D01*
X86391475Y-75297445D01*
X86391474Y-75297444D01*
X86387053Y-75292534D01*
X86269176Y-75206891D01*
X86237894Y-75184163D01*
X86237893Y-75184162D01*
X86232552Y-75180282D01*
X86226524Y-75177598D01*
X86226522Y-75177597D01*
X86064119Y-75105291D01*
X86064118Y-75105291D01*
X86058088Y-75102606D01*
X85948673Y-75079349D01*
X85877744Y-75064272D01*
X85877739Y-75064272D01*
X85871287Y-75062900D01*
X85744683Y-75062900D01*
X85676562Y-75042898D01*
X85655588Y-75025995D01*
X85383082Y-74753489D01*
X85372214Y-74741097D01*
X85358785Y-74723596D01*
X85353757Y-74717043D01*
X85231867Y-74623514D01*
X85089924Y-74564719D01*
X84975844Y-74549700D01*
X84937600Y-74544665D01*
X84929412Y-74545743D01*
X84907544Y-74548622D01*
X84891097Y-74549700D01*
X83908879Y-74549700D01*
X83840758Y-74529698D01*
X83794265Y-74476042D01*
X83784161Y-74405768D01*
X83813655Y-74341188D01*
X83834818Y-74321764D01*
X83854972Y-74307121D01*
X83897853Y-74275966D01*
X83946183Y-74222290D01*
X84006629Y-74185050D01*
X84039819Y-74180600D01*
X86050417Y-74180600D01*
X86118538Y-74200602D01*
X86165031Y-74254258D01*
X86170250Y-74267663D01*
X86177482Y-74289921D01*
X86222073Y-74427156D01*
X86225376Y-74432877D01*
X86225377Y-74432879D01*
X86244388Y-74465806D01*
X86317560Y-74592544D01*
X86321978Y-74597451D01*
X86321979Y-74597452D01*
X86440925Y-74729555D01*
X86445347Y-74734466D01*
X86471873Y-74753738D01*
X86576834Y-74829997D01*
X86599848Y-74846718D01*
X86605876Y-74849402D01*
X86605878Y-74849403D01*
X86768281Y-74921709D01*
X86774312Y-74924394D01*
X86863464Y-74943344D01*
X86954656Y-74962728D01*
X86954661Y-74962728D01*
X86961113Y-74964100D01*
X87152087Y-74964100D01*
X87158539Y-74962728D01*
X87158544Y-74962728D01*
X87249736Y-74943344D01*
X87338888Y-74924394D01*
X87344919Y-74921709D01*
X87507322Y-74849403D01*
X87507324Y-74849402D01*
X87513352Y-74846718D01*
X87536367Y-74829997D01*
X87641327Y-74753738D01*
X87667853Y-74734466D01*
X87672275Y-74729555D01*
X87791221Y-74597452D01*
X87791222Y-74597451D01*
X87795640Y-74592544D01*
X87891127Y-74427156D01*
X87901056Y-74396600D01*
X87907696Y-74376163D01*
X87947770Y-74317558D01*
X88013167Y-74289921D01*
X88027529Y-74289100D01*
X88208087Y-74289100D01*
X88214539Y-74287728D01*
X88214544Y-74287728D01*
X88306352Y-74268213D01*
X88394888Y-74249394D01*
X88400915Y-74246711D01*
X88400923Y-74246708D01*
X88537276Y-74186000D01*
X88607643Y-74176566D01*
X88671940Y-74206673D01*
X88677619Y-74212012D01*
X88739798Y-74274191D01*
X88773824Y-74336503D01*
X88776013Y-74376455D01*
X88773896Y-74396600D01*
X88774586Y-74403165D01*
X88792922Y-74577619D01*
X88793858Y-74586528D01*
X88852873Y-74768156D01*
X88856176Y-74773878D01*
X88856177Y-74773879D01*
X88887497Y-74828127D01*
X88948360Y-74933544D01*
X88952778Y-74938451D01*
X88952779Y-74938452D01*
X89071315Y-75070100D01*
X89076147Y-75075466D01*
X89129959Y-75114563D01*
X89216718Y-75177597D01*
X89230648Y-75187718D01*
X89236676Y-75190402D01*
X89236678Y-75190403D01*
X89399081Y-75262709D01*
X89405112Y-75265394D01*
X89482682Y-75281882D01*
X89585456Y-75303728D01*
X89585461Y-75303728D01*
X89591913Y-75305100D01*
X89782887Y-75305100D01*
X89789339Y-75303728D01*
X89789344Y-75303728D01*
X89892118Y-75281882D01*
X89969688Y-75265394D01*
X89975719Y-75262709D01*
X90138122Y-75190403D01*
X90138124Y-75190402D01*
X90144152Y-75187718D01*
X90158083Y-75177597D01*
X90244841Y-75114563D01*
X90298653Y-75075466D01*
X90303485Y-75070100D01*
X90422021Y-74938452D01*
X90422022Y-74938451D01*
X90426440Y-74933544D01*
X90487303Y-74828127D01*
X90518623Y-74773879D01*
X90518624Y-74773878D01*
X90521927Y-74768156D01*
X90580942Y-74586528D01*
X90581879Y-74577619D01*
X90600214Y-74403165D01*
X90600904Y-74396600D01*
X90593215Y-74323445D01*
X90581632Y-74213235D01*
X90581632Y-74213233D01*
X90580942Y-74206672D01*
X90521927Y-74025044D01*
X90508910Y-74002497D01*
X90480747Y-73953719D01*
X90426440Y-73859656D01*
X90406654Y-73837681D01*
X90375937Y-73773673D01*
X90384702Y-73703220D01*
X90430166Y-73648689D01*
X90437293Y-73644252D01*
X90442917Y-73641005D01*
X90448952Y-73638318D01*
X90603453Y-73526066D01*
X90709254Y-73408562D01*
X90769700Y-73371323D01*
X90840684Y-73372675D01*
G37*
%TD.AperFunction*%
%TA.AperFunction,Conductor*%
G36*
X84304172Y-63568801D02*
G01*
X84337673Y-63592778D01*
X84571995Y-63827100D01*
X84606021Y-63889412D01*
X84608900Y-63916195D01*
X84608900Y-64996033D01*
X84608373Y-65007216D01*
X84606698Y-65014709D01*
X84606947Y-65022635D01*
X84606947Y-65022636D01*
X84608838Y-65082786D01*
X84608900Y-65086745D01*
X84608900Y-65114656D01*
X84609397Y-65118590D01*
X84609397Y-65118591D01*
X84609405Y-65118656D01*
X84610338Y-65130493D01*
X84611727Y-65174689D01*
X84617378Y-65194139D01*
X84621387Y-65213500D01*
X84623926Y-65233597D01*
X84626845Y-65240968D01*
X84626845Y-65240970D01*
X84640204Y-65274712D01*
X84644049Y-65285942D01*
X84656382Y-65328393D01*
X84660415Y-65335212D01*
X84660417Y-65335217D01*
X84666693Y-65345828D01*
X84675388Y-65363576D01*
X84682848Y-65382417D01*
X84687510Y-65388833D01*
X84687510Y-65388834D01*
X84708836Y-65418187D01*
X84715352Y-65428107D01*
X84737858Y-65466162D01*
X84752179Y-65480483D01*
X84765019Y-65495516D01*
X84776928Y-65511907D01*
X84783033Y-65516958D01*
X84783038Y-65516963D01*
X84811004Y-65540099D01*
X84819782Y-65548087D01*
X85359395Y-66087700D01*
X85393421Y-66150012D01*
X85396300Y-66176795D01*
X85396300Y-71523833D01*
X85395773Y-71535016D01*
X85394098Y-71542509D01*
X85394347Y-71550435D01*
X85394347Y-71550436D01*
X85396238Y-71610586D01*
X85396300Y-71614545D01*
X85396300Y-71642456D01*
X85396797Y-71646390D01*
X85396797Y-71646391D01*
X85396805Y-71646456D01*
X85397738Y-71658293D01*
X85399127Y-71702489D01*
X85403308Y-71716880D01*
X85404778Y-71721939D01*
X85408787Y-71741300D01*
X85411326Y-71761397D01*
X85414245Y-71768768D01*
X85414245Y-71768770D01*
X85427604Y-71802512D01*
X85431449Y-71813742D01*
X85443782Y-71856193D01*
X85447815Y-71863012D01*
X85447817Y-71863017D01*
X85454093Y-71873628D01*
X85462788Y-71891376D01*
X85470248Y-71910217D01*
X85474910Y-71916633D01*
X85474910Y-71916634D01*
X85496236Y-71945987D01*
X85502752Y-71955907D01*
X85509702Y-71967658D01*
X85525258Y-71993962D01*
X85539579Y-72008283D01*
X85552419Y-72023316D01*
X85564328Y-72039707D01*
X85570432Y-72044757D01*
X85570437Y-72044762D01*
X85598398Y-72067893D01*
X85607179Y-72075883D01*
X86329800Y-72798505D01*
X86363825Y-72860817D01*
X86358760Y-72931633D01*
X86316213Y-72988468D01*
X86249693Y-73013279D01*
X86240704Y-73013600D01*
X84039819Y-73013600D01*
X83971698Y-72993598D01*
X83946183Y-72971910D01*
X83902275Y-72923145D01*
X83902274Y-72923144D01*
X83897853Y-72918234D01*
X83798757Y-72846236D01*
X83748694Y-72809863D01*
X83748693Y-72809862D01*
X83743352Y-72805982D01*
X83737324Y-72803298D01*
X83737322Y-72803297D01*
X83574919Y-72730991D01*
X83574918Y-72730991D01*
X83568888Y-72728306D01*
X83475487Y-72708453D01*
X83388544Y-72689972D01*
X83388539Y-72689972D01*
X83382087Y-72688600D01*
X83191113Y-72688600D01*
X83184661Y-72689972D01*
X83184656Y-72689972D01*
X83097713Y-72708453D01*
X83004312Y-72728306D01*
X82998282Y-72730991D01*
X82998281Y-72730991D01*
X82835878Y-72803297D01*
X82835876Y-72803298D01*
X82829848Y-72805982D01*
X82824507Y-72809862D01*
X82824506Y-72809863D01*
X82774443Y-72846236D01*
X82675347Y-72918234D01*
X82670926Y-72923144D01*
X82670925Y-72923145D01*
X82552211Y-73054991D01*
X82547560Y-73060156D01*
X82525627Y-73098145D01*
X82469734Y-73194955D01*
X82452073Y-73225544D01*
X82393058Y-73407172D01*
X82392368Y-73413733D01*
X82392368Y-73413735D01*
X82377555Y-73554679D01*
X82373096Y-73597100D01*
X82373786Y-73603665D01*
X82389934Y-73757301D01*
X82393058Y-73787028D01*
X82452073Y-73968656D01*
X82455376Y-73974378D01*
X82455377Y-73974379D01*
X82484629Y-74025044D01*
X82547560Y-74134044D01*
X82551978Y-74138951D01*
X82551979Y-74138952D01*
X82648639Y-74246304D01*
X82675347Y-74275966D01*
X82718228Y-74307121D01*
X82738382Y-74321764D01*
X82781736Y-74377987D01*
X82787811Y-74448723D01*
X82754679Y-74511515D01*
X82692859Y-74546426D01*
X82664321Y-74549700D01*
X81732903Y-74549700D01*
X81716456Y-74548622D01*
X81694588Y-74545743D01*
X81686400Y-74544665D01*
X81648156Y-74549700D01*
X81534076Y-74564719D01*
X81392133Y-74623514D01*
X81270243Y-74717043D01*
X81265220Y-74723589D01*
X81251782Y-74741102D01*
X81240914Y-74753493D01*
X80866812Y-75127595D01*
X80804500Y-75161621D01*
X80777717Y-75164500D01*
X80651113Y-75164500D01*
X80644661Y-75165872D01*
X80644656Y-75165872D01*
X80560140Y-75183837D01*
X80464312Y-75204206D01*
X80458282Y-75206891D01*
X80458281Y-75206891D01*
X80295878Y-75279197D01*
X80295876Y-75279198D01*
X80289848Y-75281882D01*
X80284507Y-75285762D01*
X80284506Y-75285763D01*
X80257891Y-75305100D01*
X80135347Y-75394134D01*
X80130926Y-75399044D01*
X80130925Y-75399045D01*
X80091749Y-75442555D01*
X80007560Y-75536056D01*
X80000098Y-75548981D01*
X79934988Y-75661755D01*
X79912073Y-75701444D01*
X79853058Y-75883072D01*
X79852368Y-75889633D01*
X79852368Y-75889635D01*
X79837980Y-76026535D01*
X79833096Y-76073000D01*
X79833786Y-76079565D01*
X79851463Y-76247749D01*
X79853058Y-76262928D01*
X79912073Y-76444556D01*
X79915376Y-76450278D01*
X79915377Y-76450279D01*
X79922884Y-76463282D01*
X80007560Y-76609944D01*
X80023654Y-76627818D01*
X80063476Y-76672045D01*
X80094193Y-76736053D01*
X80085428Y-76806507D01*
X80078958Y-76819355D01*
X80064473Y-76844444D01*
X80005458Y-77026072D01*
X80004768Y-77032633D01*
X80004768Y-77032635D01*
X79987401Y-77197872D01*
X79985496Y-77216000D01*
X79997681Y-77331931D01*
X79984909Y-77401768D01*
X79936407Y-77453614D01*
X79872371Y-77471100D01*
X79447840Y-77471100D01*
X79379719Y-77451098D01*
X79360901Y-77435104D01*
X79360580Y-77435460D01*
X79355668Y-77431037D01*
X79351253Y-77426134D01*
X79222384Y-77332505D01*
X79202094Y-77317763D01*
X79202093Y-77317762D01*
X79196752Y-77313882D01*
X79190724Y-77311198D01*
X79190722Y-77311197D01*
X79028319Y-77238891D01*
X79028318Y-77238891D01*
X79022288Y-77236206D01*
X78927227Y-77216000D01*
X78841944Y-77197872D01*
X78841939Y-77197872D01*
X78835487Y-77196500D01*
X78644513Y-77196500D01*
X78638061Y-77197872D01*
X78638056Y-77197872D01*
X78552773Y-77216000D01*
X78457712Y-77236206D01*
X78451682Y-77238891D01*
X78451681Y-77238891D01*
X78289278Y-77311197D01*
X78289276Y-77311198D01*
X78283248Y-77313882D01*
X78277907Y-77317762D01*
X78277906Y-77317763D01*
X78257616Y-77332505D01*
X78128747Y-77426134D01*
X78124326Y-77431044D01*
X78124325Y-77431045D01*
X78016197Y-77551134D01*
X78000960Y-77568056D01*
X77905473Y-77733444D01*
X77846458Y-77915072D01*
X77845768Y-77921633D01*
X77845768Y-77921635D01*
X77839994Y-77976574D01*
X77826496Y-78105000D01*
X77827186Y-78111565D01*
X77835625Y-78191853D01*
X77846458Y-78294928D01*
X77905473Y-78476556D01*
X77908776Y-78482278D01*
X77908777Y-78482279D01*
X77928803Y-78516965D01*
X78000960Y-78641944D01*
X78005378Y-78646851D01*
X78005379Y-78646852D01*
X78046275Y-78692272D01*
X78128747Y-78783866D01*
X78227843Y-78855864D01*
X78248049Y-78870544D01*
X78283248Y-78896118D01*
X78289276Y-78898802D01*
X78289278Y-78898803D01*
X78436026Y-78964139D01*
X78457712Y-78973794D01*
X78551113Y-78993647D01*
X78638056Y-79012128D01*
X78638061Y-79012128D01*
X78644513Y-79013500D01*
X78835487Y-79013500D01*
X78841939Y-79012128D01*
X78841944Y-79012128D01*
X78928887Y-78993647D01*
X79022288Y-78973794D01*
X79043974Y-78964139D01*
X79190722Y-78898803D01*
X79190724Y-78898802D01*
X79196752Y-78896118D01*
X79231952Y-78870544D01*
X79252157Y-78855864D01*
X79351253Y-78783866D01*
X79399943Y-78729790D01*
X79460389Y-78692550D01*
X79493579Y-78688100D01*
X81155664Y-78688100D01*
X81172107Y-78689178D01*
X81203800Y-78693350D01*
X81211989Y-78692272D01*
X81243674Y-78688101D01*
X81243684Y-78688100D01*
X81243685Y-78688100D01*
X81243693Y-78688099D01*
X81329861Y-78676755D01*
X81400010Y-78687695D01*
X81455426Y-78738677D01*
X81528258Y-78864826D01*
X81528261Y-78864831D01*
X81531560Y-78870544D01*
X81604737Y-78951815D01*
X81635453Y-79015821D01*
X81637100Y-79036124D01*
X81637100Y-79728033D01*
X81636573Y-79739216D01*
X81634898Y-79746709D01*
X81635147Y-79754635D01*
X81635147Y-79754636D01*
X81637038Y-79814786D01*
X81637100Y-79818745D01*
X81637100Y-79846656D01*
X81637597Y-79850590D01*
X81637597Y-79850591D01*
X81637605Y-79850656D01*
X81638538Y-79862499D01*
X81639600Y-79896272D01*
X81639927Y-79906689D01*
X81645539Y-79926005D01*
X81645578Y-79926139D01*
X81649587Y-79945500D01*
X81651056Y-79957124D01*
X81652126Y-79965597D01*
X81655045Y-79972968D01*
X81655045Y-79972970D01*
X81668404Y-80006712D01*
X81672249Y-80017942D01*
X81684582Y-80060393D01*
X81688615Y-80067212D01*
X81688617Y-80067217D01*
X81694893Y-80077828D01*
X81703588Y-80095576D01*
X81711048Y-80114417D01*
X81715710Y-80120833D01*
X81715710Y-80120834D01*
X81737036Y-80150187D01*
X81743552Y-80160107D01*
X81766058Y-80198162D01*
X81780379Y-80212483D01*
X81793219Y-80227516D01*
X81805128Y-80243907D01*
X81829416Y-80264000D01*
X81839205Y-80272098D01*
X81847984Y-80280088D01*
X82995167Y-81427271D01*
X83029193Y-81489583D01*
X83024128Y-81560398D01*
X82981581Y-81617234D01*
X82915061Y-81642045D01*
X82906072Y-81642366D01*
X82359855Y-81642367D01*
X82353034Y-81642737D01*
X82302172Y-81648261D01*
X82286920Y-81651887D01*
X82166470Y-81697042D01*
X82150875Y-81705580D01*
X82048800Y-81782081D01*
X82036239Y-81794642D01*
X81959738Y-81896717D01*
X81951200Y-81912312D01*
X81906046Y-82032760D01*
X81902419Y-82048015D01*
X81896893Y-82098880D01*
X81896524Y-82105694D01*
X81896524Y-82328251D01*
X81900999Y-82343490D01*
X81902389Y-82344695D01*
X81910072Y-82346366D01*
X83282524Y-82346366D01*
X83350645Y-82366368D01*
X83397138Y-82420024D01*
X83408524Y-82472366D01*
X83408524Y-82728366D01*
X83388522Y-82796487D01*
X83334866Y-82842980D01*
X83282524Y-82854366D01*
X81914640Y-82854366D01*
X81899401Y-82858841D01*
X81898196Y-82860231D01*
X81896525Y-82867914D01*
X81896525Y-83095035D01*
X81896895Y-83101856D01*
X81902419Y-83152718D01*
X81906045Y-83167970D01*
X81954328Y-83296764D01*
X81959511Y-83367571D01*
X81925590Y-83429940D01*
X81863335Y-83464070D01*
X81836346Y-83466994D01*
X80672854Y-83466994D01*
X80604733Y-83446992D01*
X80558240Y-83393336D01*
X80548136Y-83323062D01*
X80554872Y-83296764D01*
X80603154Y-83167972D01*
X80606781Y-83152717D01*
X80612307Y-83101852D01*
X80612676Y-83095038D01*
X80612676Y-82872481D01*
X80608201Y-82857242D01*
X80606811Y-82856037D01*
X80599128Y-82854366D01*
X76174240Y-82854366D01*
X76159001Y-82858841D01*
X76157796Y-82860231D01*
X76156125Y-82867914D01*
X76156125Y-83095035D01*
X76156495Y-83101856D01*
X76162019Y-83152718D01*
X76165645Y-83167970D01*
X76213928Y-83296764D01*
X76219111Y-83367571D01*
X76185190Y-83429940D01*
X76122935Y-83464070D01*
X76095946Y-83466994D01*
X74932454Y-83466994D01*
X74864333Y-83446992D01*
X74817840Y-83393336D01*
X74807736Y-83323062D01*
X74814472Y-83296764D01*
X74862754Y-83167972D01*
X74866381Y-83152717D01*
X74871907Y-83101852D01*
X74872276Y-83095038D01*
X74872276Y-82872481D01*
X74867801Y-82857242D01*
X74866411Y-82856037D01*
X74858728Y-82854366D01*
X73486276Y-82854366D01*
X73418155Y-82834364D01*
X73371662Y-82780708D01*
X73360276Y-82728366D01*
X73360276Y-82328251D01*
X73868276Y-82328251D01*
X73872751Y-82343490D01*
X73874141Y-82344695D01*
X73881824Y-82346366D01*
X74854160Y-82346366D01*
X74869399Y-82341891D01*
X74870604Y-82340501D01*
X74872275Y-82332818D01*
X74872275Y-82328251D01*
X76156124Y-82328251D01*
X76160599Y-82343490D01*
X76161989Y-82344695D01*
X76169672Y-82346366D01*
X77142009Y-82346366D01*
X77157248Y-82341891D01*
X77158453Y-82340501D01*
X77160124Y-82332818D01*
X77160124Y-82328251D01*
X77668124Y-82328251D01*
X77672599Y-82343490D01*
X77673989Y-82344695D01*
X77681672Y-82346366D01*
X79082561Y-82346366D01*
X79097800Y-82341891D01*
X79099005Y-82340501D01*
X79100676Y-82332818D01*
X79100676Y-82328251D01*
X79608676Y-82328251D01*
X79613151Y-82343490D01*
X79614541Y-82344695D01*
X79622224Y-82346366D01*
X80594560Y-82346366D01*
X80609799Y-82341891D01*
X80611004Y-82340501D01*
X80612675Y-82332818D01*
X80612675Y-82105697D01*
X80612305Y-82098876D01*
X80606781Y-82048014D01*
X80603155Y-82032762D01*
X80558000Y-81912312D01*
X80549462Y-81896717D01*
X80472961Y-81794642D01*
X80460400Y-81782081D01*
X80358325Y-81705580D01*
X80342730Y-81697042D01*
X80222282Y-81651888D01*
X80207027Y-81648261D01*
X80156162Y-81642735D01*
X80149348Y-81642366D01*
X79626791Y-81642366D01*
X79611552Y-81646841D01*
X79610347Y-81648231D01*
X79608676Y-81655914D01*
X79608676Y-82328251D01*
X79100676Y-82328251D01*
X79100676Y-81660482D01*
X79096201Y-81645243D01*
X79094811Y-81644038D01*
X79087128Y-81642367D01*
X78560007Y-81642367D01*
X78553186Y-81642737D01*
X78502326Y-81648261D01*
X78487069Y-81651888D01*
X78428629Y-81673796D01*
X78357822Y-81678979D01*
X78340171Y-81673796D01*
X78281726Y-81651886D01*
X78266481Y-81648261D01*
X78215610Y-81642735D01*
X78208796Y-81642366D01*
X77686239Y-81642366D01*
X77671000Y-81646841D01*
X77669795Y-81648231D01*
X77668124Y-81655914D01*
X77668124Y-82328251D01*
X77160124Y-82328251D01*
X77160124Y-81660482D01*
X77155649Y-81645243D01*
X77154259Y-81644038D01*
X77146576Y-81642367D01*
X76619455Y-81642367D01*
X76612634Y-81642737D01*
X76561772Y-81648261D01*
X76546520Y-81651887D01*
X76426070Y-81697042D01*
X76410475Y-81705580D01*
X76308400Y-81782081D01*
X76295839Y-81794642D01*
X76219338Y-81896717D01*
X76210800Y-81912312D01*
X76165646Y-82032760D01*
X76162019Y-82048015D01*
X76156493Y-82098880D01*
X76156124Y-82105694D01*
X76156124Y-82328251D01*
X74872275Y-82328251D01*
X74872275Y-82105697D01*
X74871905Y-82098876D01*
X74866381Y-82048014D01*
X74862755Y-82032762D01*
X74817600Y-81912312D01*
X74809062Y-81896717D01*
X74732561Y-81794642D01*
X74720000Y-81782081D01*
X74617925Y-81705580D01*
X74602330Y-81697042D01*
X74481882Y-81651888D01*
X74466627Y-81648261D01*
X74415762Y-81642735D01*
X74408948Y-81642366D01*
X73886391Y-81642366D01*
X73871152Y-81646841D01*
X73869947Y-81648231D01*
X73868276Y-81655914D01*
X73868276Y-82328251D01*
X73360276Y-82328251D01*
X73360276Y-81660482D01*
X73355801Y-81645243D01*
X73354411Y-81644038D01*
X73346728Y-81642367D01*
X73074100Y-81642367D01*
X73005979Y-81622365D01*
X72959486Y-81568709D01*
X72948100Y-81516367D01*
X72948100Y-81247700D01*
X72968102Y-81179579D01*
X73021758Y-81133086D01*
X73074100Y-81121700D01*
X73145887Y-81121700D01*
X73152339Y-81120328D01*
X73152344Y-81120328D01*
X73239287Y-81101847D01*
X73332688Y-81081994D01*
X73338719Y-81079309D01*
X73501122Y-81007003D01*
X73501124Y-81007002D01*
X73507152Y-81004318D01*
X73529827Y-80987844D01*
X73583513Y-80948838D01*
X73661653Y-80892066D01*
X73668365Y-80884612D01*
X73785021Y-80755052D01*
X73785022Y-80755051D01*
X73789440Y-80750144D01*
X73868482Y-80613240D01*
X73881623Y-80590479D01*
X73881624Y-80590478D01*
X73884927Y-80584756D01*
X73939787Y-80415914D01*
X73970525Y-80365756D01*
X77476311Y-76859970D01*
X77490723Y-76847584D01*
X77502318Y-76839051D01*
X77502323Y-76839046D01*
X77508218Y-76834708D01*
X77512957Y-76829130D01*
X77512960Y-76829127D01*
X77542435Y-76794432D01*
X77549365Y-76786916D01*
X77555061Y-76781220D01*
X77557324Y-76778359D01*
X77557329Y-76778354D01*
X77572693Y-76758934D01*
X77575482Y-76755533D01*
X77585996Y-76743157D01*
X77622733Y-76699915D01*
X77626059Y-76693402D01*
X77629420Y-76688363D01*
X77632596Y-76683221D01*
X77637134Y-76677484D01*
X77668055Y-76611325D01*
X77669961Y-76607425D01*
X77703169Y-76542392D01*
X77704908Y-76535283D01*
X77707004Y-76529649D01*
X77708923Y-76523879D01*
X77712022Y-76517250D01*
X77723248Y-76463283D01*
X77726890Y-76445771D01*
X77727861Y-76441482D01*
X77728647Y-76438271D01*
X77745208Y-76370590D01*
X77745900Y-76359436D01*
X77745935Y-76359438D01*
X77746175Y-76355466D01*
X77746552Y-76351245D01*
X77748041Y-76344085D01*
X77745946Y-76266658D01*
X77745900Y-76263250D01*
X77745900Y-75301870D01*
X77747333Y-75282920D01*
X77749499Y-75268685D01*
X77749499Y-75268681D01*
X77750599Y-75261451D01*
X77748395Y-75234346D01*
X77746315Y-75208782D01*
X77745900Y-75198567D01*
X77745900Y-75190507D01*
X77742611Y-75162293D01*
X77742178Y-75157918D01*
X77736854Y-75092461D01*
X77736853Y-75092458D01*
X77736260Y-75085163D01*
X77734005Y-75078202D01*
X77732819Y-75072267D01*
X77731430Y-75066389D01*
X77730582Y-75059119D01*
X77728084Y-75052237D01*
X77728083Y-75052233D01*
X77705675Y-74990502D01*
X77704265Y-74986398D01*
X77681752Y-74916901D01*
X77677956Y-74910646D01*
X77675457Y-74905187D01*
X77672729Y-74899739D01*
X77670233Y-74892863D01*
X77630205Y-74831810D01*
X77627881Y-74828127D01*
X77620905Y-74816630D01*
X77606131Y-74792284D01*
X77592900Y-74770480D01*
X77592899Y-74770479D01*
X77589995Y-74765693D01*
X77582598Y-74757317D01*
X77582625Y-74757293D01*
X77579970Y-74754299D01*
X77577268Y-74751068D01*
X77573256Y-74744948D01*
X77517017Y-74691672D01*
X77514575Y-74689294D01*
X77017741Y-74192460D01*
X76983715Y-74130148D01*
X76988780Y-74059333D01*
X77031327Y-74002497D01*
X77097847Y-73977686D01*
X77158085Y-73988258D01*
X77274974Y-74040300D01*
X77288212Y-74046194D01*
X77354585Y-74060302D01*
X77468556Y-74084528D01*
X77468561Y-74084528D01*
X77475013Y-74085900D01*
X77665987Y-74085900D01*
X77672439Y-74084528D01*
X77672444Y-74084528D01*
X77786415Y-74060302D01*
X77852788Y-74046194D01*
X77858819Y-74043509D01*
X78021222Y-73971203D01*
X78021224Y-73971202D01*
X78027252Y-73968518D01*
X78181753Y-73856266D01*
X78216413Y-73817772D01*
X78305121Y-73719252D01*
X78305122Y-73719251D01*
X78309540Y-73714344D01*
X78405027Y-73548956D01*
X78464042Y-73367328D01*
X78468607Y-73323900D01*
X78483314Y-73183965D01*
X78484004Y-73177400D01*
X78481887Y-73157255D01*
X78494660Y-73087417D01*
X78518102Y-73054991D01*
X79246707Y-72326386D01*
X79259098Y-72315518D01*
X79276611Y-72302080D01*
X79283157Y-72297057D01*
X79376686Y-72175167D01*
X79435481Y-72033224D01*
X79436661Y-72024261D01*
X79455535Y-71880900D01*
X79451578Y-71850844D01*
X79450500Y-71834397D01*
X79450500Y-68035683D01*
X79470502Y-67967562D01*
X79487405Y-67946588D01*
X80999311Y-66434683D01*
X81011702Y-66423815D01*
X81029211Y-66410380D01*
X81029212Y-66410379D01*
X81035757Y-66405357D01*
X81059237Y-66374757D01*
X81059240Y-66374754D01*
X81129286Y-66283467D01*
X81188081Y-66141524D01*
X81208135Y-65989200D01*
X81204178Y-65959142D01*
X81203100Y-65942697D01*
X81203100Y-64784484D01*
X81223102Y-64716363D01*
X81240007Y-64695386D01*
X81256192Y-64679202D01*
X81318506Y-64645179D01*
X81345285Y-64642300D01*
X82528897Y-64642300D01*
X82545344Y-64643378D01*
X82575400Y-64647335D01*
X82613644Y-64642300D01*
X82621134Y-64641314D01*
X82727724Y-64627281D01*
X82869667Y-64568486D01*
X82899317Y-64545735D01*
X82991557Y-64474957D01*
X83010019Y-64450897D01*
X83020886Y-64438507D01*
X83140988Y-64318405D01*
X83203300Y-64284379D01*
X83230083Y-64281500D01*
X83356687Y-64281500D01*
X83363139Y-64280128D01*
X83363144Y-64280128D01*
X83450087Y-64261647D01*
X83543488Y-64241794D01*
X83604976Y-64214418D01*
X83711922Y-64166803D01*
X83711924Y-64166802D01*
X83717952Y-64164118D01*
X83872453Y-64051866D01*
X83877648Y-64046096D01*
X83995821Y-63914852D01*
X83995822Y-63914851D01*
X84000240Y-63909944D01*
X84095727Y-63744556D01*
X84128746Y-63642936D01*
X84168818Y-63584331D01*
X84234215Y-63556694D01*
X84304172Y-63568801D01*
G37*
%TD.AperFunction*%
%TA.AperFunction,Conductor*%
G36*
X114103694Y-76633423D02*
G01*
X114156000Y-76681429D01*
X114174100Y-76746495D01*
X114174100Y-77501710D01*
X114154098Y-77569831D01*
X114141736Y-77586020D01*
X114061208Y-77675456D01*
X114043560Y-77695056D01*
X114040259Y-77700774D01*
X113973776Y-77815926D01*
X113948073Y-77860444D01*
X113889058Y-78042072D01*
X113888368Y-78048633D01*
X113888368Y-78048635D01*
X113878758Y-78140071D01*
X113869096Y-78232000D01*
X113869786Y-78238565D01*
X113887790Y-78409860D01*
X113889058Y-78421928D01*
X113948073Y-78603556D01*
X113951376Y-78609278D01*
X113951377Y-78609279D01*
X113971981Y-78644966D01*
X114043560Y-78768944D01*
X114047978Y-78773851D01*
X114047979Y-78773852D01*
X114139855Y-78875891D01*
X114171347Y-78910866D01*
X114244671Y-78964139D01*
X114316321Y-79016196D01*
X114325848Y-79023118D01*
X114331876Y-79025802D01*
X114331878Y-79025803D01*
X114494281Y-79098109D01*
X114500312Y-79100794D01*
X114591403Y-79120156D01*
X114680656Y-79139128D01*
X114680661Y-79139128D01*
X114687113Y-79140500D01*
X114878087Y-79140500D01*
X114884539Y-79139128D01*
X114884544Y-79139128D01*
X114973798Y-79120156D01*
X115044589Y-79125558D01*
X115101221Y-79168375D01*
X115125715Y-79235013D01*
X115125995Y-79243403D01*
X115125995Y-81772726D01*
X115105993Y-81840847D01*
X115052337Y-81887340D01*
X114982063Y-81897444D01*
X114924432Y-81873553D01*
X114874305Y-81835985D01*
X114737916Y-81784855D01*
X114675734Y-81778100D01*
X111433199Y-81778100D01*
X111365078Y-81758098D01*
X111324080Y-81715101D01*
X111320555Y-81708995D01*
X111269148Y-81619956D01*
X111256461Y-81605865D01*
X111145783Y-81482945D01*
X111145782Y-81482944D01*
X111141361Y-81478034D01*
X111038814Y-81403529D01*
X110992202Y-81369663D01*
X110992201Y-81369662D01*
X110986860Y-81365782D01*
X110980832Y-81363098D01*
X110980830Y-81363097D01*
X110818427Y-81290791D01*
X110818426Y-81290791D01*
X110812396Y-81288106D01*
X110718995Y-81268253D01*
X110632052Y-81249772D01*
X110632047Y-81249772D01*
X110625595Y-81248400D01*
X110434621Y-81248400D01*
X110428169Y-81249772D01*
X110428164Y-81249772D01*
X110341221Y-81268253D01*
X110247820Y-81288106D01*
X110241790Y-81290791D01*
X110241789Y-81290791D01*
X110079386Y-81363097D01*
X110079384Y-81363098D01*
X110073356Y-81365782D01*
X110068015Y-81369662D01*
X110068014Y-81369663D01*
X110021402Y-81403529D01*
X109918855Y-81478034D01*
X109914434Y-81482944D01*
X109914433Y-81482945D01*
X109836760Y-81569210D01*
X109776314Y-81606450D01*
X109743124Y-81610900D01*
X109741558Y-81610900D01*
X109673437Y-81590898D01*
X109626944Y-81537242D01*
X109616840Y-81466968D01*
X109647922Y-81400590D01*
X109726021Y-81313852D01*
X109726022Y-81313851D01*
X109730440Y-81308944D01*
X109825927Y-81143556D01*
X109884942Y-80961928D01*
X109895400Y-80862431D01*
X109904214Y-80778565D01*
X109904904Y-80772000D01*
X109898856Y-80714456D01*
X109885355Y-80585999D01*
X109898127Y-80516161D01*
X109921570Y-80483734D01*
X111457613Y-78947692D01*
X113005900Y-77399405D01*
X113068212Y-77365379D01*
X113094995Y-77362500D01*
X113150887Y-77362500D01*
X113157339Y-77361128D01*
X113157344Y-77361128D01*
X113244288Y-77342647D01*
X113337688Y-77322794D01*
X113348988Y-77317763D01*
X113506122Y-77247803D01*
X113506124Y-77247802D01*
X113512152Y-77245118D01*
X113522148Y-77237856D01*
X113609151Y-77174644D01*
X113666653Y-77132866D01*
X113695485Y-77100845D01*
X113790021Y-76995852D01*
X113790022Y-76995851D01*
X113794440Y-76990944D01*
X113875393Y-76850729D01*
X113886623Y-76831279D01*
X113886624Y-76831278D01*
X113889927Y-76825556D01*
X113928267Y-76707557D01*
X113968341Y-76648953D01*
X114033738Y-76621316D01*
X114103694Y-76633423D01*
G37*
%TD.AperFunction*%
%TA.AperFunction,Conductor*%
G36*
X110180183Y-51285258D02*
G01*
X110226676Y-51338914D01*
X110236780Y-51409188D01*
X110207286Y-51473768D01*
X110198639Y-51482800D01*
X110148507Y-51530208D01*
X110130676Y-51547070D01*
X110074669Y-51600033D01*
X109969823Y-51754309D01*
X109900552Y-51927500D01*
X109870087Y-52111526D01*
X109870444Y-52118343D01*
X109870444Y-52118347D01*
X109875886Y-52222176D01*
X109879849Y-52297801D01*
X109881660Y-52304374D01*
X109881660Y-52304377D01*
X109905997Y-52392732D01*
X109929383Y-52477635D01*
X110016379Y-52642636D01*
X110136776Y-52785108D01*
X110142199Y-52789255D01*
X110142201Y-52789256D01*
X110204627Y-52836984D01*
X110284959Y-52898402D01*
X110291139Y-52901284D01*
X110291141Y-52901285D01*
X110447837Y-52974354D01*
X110447840Y-52974355D01*
X110454014Y-52977234D01*
X110460662Y-52978720D01*
X110460665Y-52978721D01*
X110631009Y-53016797D01*
X110631012Y-53016797D01*
X110636052Y-53017924D01*
X110641775Y-53018244D01*
X110778911Y-53018244D01*
X110917754Y-53003161D01*
X111094542Y-52943665D01*
X111254430Y-52847595D01*
X111298282Y-52806126D01*
X111385001Y-52724120D01*
X111385003Y-52724118D01*
X111389959Y-52719431D01*
X111478721Y-52588822D01*
X111533554Y-52543724D01*
X111604064Y-52535430D01*
X111667866Y-52566573D01*
X111694387Y-52600876D01*
X111716405Y-52642636D01*
X111836802Y-52785108D01*
X111842225Y-52789255D01*
X111842227Y-52789256D01*
X111904653Y-52836984D01*
X111984985Y-52898402D01*
X111991165Y-52901284D01*
X111991167Y-52901285D01*
X112147863Y-52974354D01*
X112147866Y-52974355D01*
X112154040Y-52977234D01*
X112160688Y-52978720D01*
X112160691Y-52978721D01*
X112331035Y-53016797D01*
X112331038Y-53016797D01*
X112336078Y-53017924D01*
X112341801Y-53018244D01*
X112478937Y-53018244D01*
X112617780Y-53003161D01*
X112794568Y-52943665D01*
X112954456Y-52847595D01*
X112998308Y-52806126D01*
X113085027Y-52724120D01*
X113085029Y-52724118D01*
X113089985Y-52719431D01*
X113194831Y-52565155D01*
X113264102Y-52391964D01*
X113292210Y-52222176D01*
X113293452Y-52214676D01*
X113293452Y-52214672D01*
X113294567Y-52207938D01*
X113291811Y-52155334D01*
X113285162Y-52028476D01*
X113284805Y-52021663D01*
X113267359Y-51958323D01*
X113237084Y-51848411D01*
X113235271Y-51841829D01*
X113148275Y-51676828D01*
X113027878Y-51534356D01*
X112971631Y-51491352D01*
X112929663Y-51434088D01*
X112925318Y-51363224D01*
X112959974Y-51301261D01*
X113022628Y-51267870D01*
X113048160Y-51265256D01*
X113585129Y-51265256D01*
X113604514Y-51266756D01*
X113619347Y-51269066D01*
X113619351Y-51269066D01*
X113628220Y-51270447D01*
X113643477Y-51268452D01*
X113668798Y-51267709D01*
X113837774Y-51279794D01*
X113855566Y-51282352D01*
X113889232Y-51289675D01*
X114045908Y-51323757D01*
X114063147Y-51328818D01*
X114119214Y-51349730D01*
X114245658Y-51396891D01*
X114262010Y-51404359D01*
X114306336Y-51428562D01*
X114432971Y-51497708D01*
X114448087Y-51507422D01*
X114514155Y-51556879D01*
X114604027Y-51624155D01*
X114617614Y-51635928D01*
X114755348Y-51773660D01*
X114767120Y-51787245D01*
X114825784Y-51865608D01*
X114877733Y-51935000D01*
X114883854Y-51943177D01*
X114893574Y-51958301D01*
X114986928Y-52129261D01*
X114994396Y-52145614D01*
X115062468Y-52328113D01*
X115067533Y-52345361D01*
X115108942Y-52535694D01*
X115111501Y-52553488D01*
X115123067Y-52715151D01*
X115122276Y-52734185D01*
X115122185Y-52741619D01*
X115120804Y-52750491D01*
X115124599Y-52779512D01*
X115124931Y-52782047D01*
X115125995Y-52798387D01*
X115125995Y-59788357D01*
X115105993Y-59856478D01*
X115052337Y-59902971D01*
X114982063Y-59913075D01*
X114917483Y-59883581D01*
X114880162Y-59827294D01*
X114879445Y-59825085D01*
X114855127Y-59750244D01*
X114851395Y-59743779D01*
X114762941Y-59590574D01*
X114759640Y-59584856D01*
X114752839Y-59577302D01*
X114636275Y-59447845D01*
X114636274Y-59447844D01*
X114631853Y-59442934D01*
X114477352Y-59330682D01*
X114471324Y-59327998D01*
X114471322Y-59327997D01*
X114308919Y-59255691D01*
X114308918Y-59255691D01*
X114302888Y-59253006D01*
X114209487Y-59233153D01*
X114122544Y-59214672D01*
X114122539Y-59214672D01*
X114116087Y-59213300D01*
X113925113Y-59213300D01*
X113918661Y-59214672D01*
X113918656Y-59214672D01*
X113831713Y-59233153D01*
X113738312Y-59253006D01*
X113732282Y-59255691D01*
X113732281Y-59255691D01*
X113569878Y-59327997D01*
X113569876Y-59327998D01*
X113563848Y-59330682D01*
X113409347Y-59442934D01*
X113404926Y-59447844D01*
X113404925Y-59447845D01*
X113288362Y-59577302D01*
X113281560Y-59584856D01*
X113278259Y-59590574D01*
X113189806Y-59743779D01*
X113186073Y-59750244D01*
X113127058Y-59931872D01*
X113126368Y-59938433D01*
X113126368Y-59938435D01*
X113118330Y-60014913D01*
X113107096Y-60121800D01*
X113107786Y-60128365D01*
X113109213Y-60141942D01*
X113096441Y-60211781D01*
X113072998Y-60244208D01*
X112040693Y-61276514D01*
X112028303Y-61287381D01*
X112004243Y-61305843D01*
X111999220Y-61312389D01*
X111982304Y-61334435D01*
X111937812Y-61392418D01*
X111910714Y-61427733D01*
X111851919Y-61569676D01*
X111831865Y-61722000D01*
X111832943Y-61730188D01*
X111835822Y-61752056D01*
X111836900Y-61768503D01*
X111836900Y-65917297D01*
X111835822Y-65933744D01*
X111831865Y-65963800D01*
X111836900Y-66002044D01*
X111851919Y-66116124D01*
X111894093Y-66217939D01*
X111909928Y-66256169D01*
X111918829Y-66317558D01*
X111913296Y-66370200D01*
X111913986Y-66376765D01*
X111931003Y-66538669D01*
X111933258Y-66560128D01*
X111992273Y-66741756D01*
X112087760Y-66907144D01*
X112215547Y-67049066D01*
X112370048Y-67161318D01*
X112376076Y-67164002D01*
X112376078Y-67164003D01*
X112538481Y-67236309D01*
X112544512Y-67238994D01*
X112637912Y-67258847D01*
X112724856Y-67277328D01*
X112724861Y-67277328D01*
X112731313Y-67278700D01*
X112922287Y-67278700D01*
X112928739Y-67277328D01*
X112928744Y-67277328D01*
X113015688Y-67258847D01*
X113109088Y-67238994D01*
X113115119Y-67236309D01*
X113277522Y-67164003D01*
X113277524Y-67164002D01*
X113283552Y-67161318D01*
X113438053Y-67049066D01*
X113565840Y-66907144D01*
X113661327Y-66741756D01*
X113720342Y-66560128D01*
X113722598Y-66538669D01*
X113739614Y-66376765D01*
X113740304Y-66370200D01*
X113737325Y-66341858D01*
X113721032Y-66186835D01*
X113721032Y-66186833D01*
X113720342Y-66180272D01*
X113661327Y-65998644D01*
X113655875Y-65989200D01*
X113576213Y-65851223D01*
X113565840Y-65833256D01*
X113520400Y-65782789D01*
X113442475Y-65696245D01*
X113442474Y-65696244D01*
X113438053Y-65691334D01*
X113283552Y-65579082D01*
X113277524Y-65576398D01*
X113277522Y-65576397D01*
X113115121Y-65504092D01*
X113109088Y-65501406D01*
X113102626Y-65500032D01*
X113096352Y-65497994D01*
X113096822Y-65496548D01*
X113041227Y-65466531D01*
X113006908Y-65404380D01*
X113003900Y-65377015D01*
X113003900Y-62015884D01*
X113023902Y-61947763D01*
X113040805Y-61926788D01*
X113900390Y-61067204D01*
X113962702Y-61033179D01*
X113989485Y-61030300D01*
X114116087Y-61030300D01*
X114122539Y-61028928D01*
X114122544Y-61028928D01*
X114209488Y-61010447D01*
X114302888Y-60990594D01*
X114308919Y-60987909D01*
X114471322Y-60915603D01*
X114471324Y-60915602D01*
X114477352Y-60912918D01*
X114631853Y-60800666D01*
X114637815Y-60794045D01*
X114755221Y-60663652D01*
X114755222Y-60663651D01*
X114759640Y-60658744D01*
X114839069Y-60521170D01*
X114851823Y-60499079D01*
X114851824Y-60499078D01*
X114855127Y-60493356D01*
X114880163Y-60416305D01*
X114920236Y-60357701D01*
X114985632Y-60330064D01*
X115055589Y-60342171D01*
X115107895Y-60390177D01*
X115125995Y-60455243D01*
X115125995Y-69536656D01*
X115105993Y-69604777D01*
X115052337Y-69651270D01*
X114982063Y-69661374D01*
X114917483Y-69631880D01*
X114910900Y-69625751D01*
X114805800Y-69520651D01*
X114775062Y-69470493D01*
X114730168Y-69332325D01*
X114730167Y-69332324D01*
X114728127Y-69326044D01*
X114632640Y-69160656D01*
X114534339Y-69051481D01*
X114509275Y-69023645D01*
X114509274Y-69023644D01*
X114504853Y-69018734D01*
X114350352Y-68906482D01*
X114344324Y-68903798D01*
X114344322Y-68903797D01*
X114181919Y-68831491D01*
X114181918Y-68831491D01*
X114175888Y-68828806D01*
X114082487Y-68808953D01*
X113995544Y-68790472D01*
X113995539Y-68790472D01*
X113989087Y-68789100D01*
X113798113Y-68789100D01*
X113791661Y-68790472D01*
X113791656Y-68790472D01*
X113704713Y-68808953D01*
X113611312Y-68828806D01*
X113605282Y-68831491D01*
X113605281Y-68831491D01*
X113442878Y-68903797D01*
X113442876Y-68903798D01*
X113436848Y-68906482D01*
X113282347Y-69018734D01*
X113277926Y-69023644D01*
X113277925Y-69023645D01*
X113252862Y-69051481D01*
X113154560Y-69160656D01*
X113151259Y-69166374D01*
X113064534Y-69316586D01*
X113059073Y-69326044D01*
X113000058Y-69507672D01*
X112999368Y-69514233D01*
X112999368Y-69514235D01*
X112987003Y-69631880D01*
X112980096Y-69697600D01*
X112980786Y-69704165D01*
X112995152Y-69840846D01*
X113000058Y-69887528D01*
X113059073Y-70069156D01*
X113154560Y-70234544D01*
X113158978Y-70239451D01*
X113158979Y-70239452D01*
X113268632Y-70361234D01*
X113282347Y-70376466D01*
X113436848Y-70488718D01*
X113442876Y-70491402D01*
X113442878Y-70491403D01*
X113601218Y-70561900D01*
X113611312Y-70566394D01*
X113704712Y-70586247D01*
X113791656Y-70604728D01*
X113791661Y-70604728D01*
X113798113Y-70606100D01*
X113989087Y-70606100D01*
X113999415Y-70603905D01*
X114021904Y-70599125D01*
X114092695Y-70604528D01*
X114149327Y-70647345D01*
X114173820Y-70713983D01*
X114174100Y-70722372D01*
X114174100Y-76161505D01*
X114154098Y-76229626D01*
X114100442Y-76276119D01*
X114030168Y-76286223D01*
X113965588Y-76256729D01*
X113928267Y-76200442D01*
X113902849Y-76122212D01*
X113889927Y-76082444D01*
X113884475Y-76073000D01*
X113827862Y-75974944D01*
X113794440Y-75917056D01*
X113749632Y-75867291D01*
X113671075Y-75780045D01*
X113671074Y-75780044D01*
X113666653Y-75775134D01*
X113512152Y-75662882D01*
X113506124Y-75660198D01*
X113506122Y-75660197D01*
X113343719Y-75587891D01*
X113343718Y-75587891D01*
X113337688Y-75585206D01*
X113233542Y-75563069D01*
X113157344Y-75546872D01*
X113157339Y-75546872D01*
X113150887Y-75545500D01*
X112959913Y-75545500D01*
X112953461Y-75546872D01*
X112953456Y-75546872D01*
X112877258Y-75563069D01*
X112773112Y-75585206D01*
X112767082Y-75587891D01*
X112767081Y-75587891D01*
X112604678Y-75660197D01*
X112604676Y-75660198D01*
X112598648Y-75662882D01*
X112444147Y-75775134D01*
X112439726Y-75780044D01*
X112439725Y-75780045D01*
X112361169Y-75867291D01*
X112316360Y-75917056D01*
X112282938Y-75974944D01*
X112226326Y-76073000D01*
X112220873Y-76082444D01*
X112161858Y-76264072D01*
X112161168Y-76270633D01*
X112161168Y-76270635D01*
X112157368Y-76306794D01*
X112145021Y-76424273D01*
X112144493Y-76429293D01*
X112117480Y-76494950D01*
X112108278Y-76505218D01*
X110417106Y-78196389D01*
X108727748Y-79885747D01*
X108689901Y-79911759D01*
X108540681Y-79978195D01*
X108540674Y-79978199D01*
X108534648Y-79980882D01*
X108380147Y-80093134D01*
X108375732Y-80098037D01*
X108370820Y-80102460D01*
X108369695Y-80101211D01*
X108316386Y-80134051D01*
X108283200Y-80138500D01*
X105909052Y-80138500D01*
X105840931Y-80118498D01*
X105794438Y-80064842D01*
X105783742Y-80025670D01*
X105770832Y-79902835D01*
X105770832Y-79902833D01*
X105770142Y-79896272D01*
X105711127Y-79714644D01*
X105615640Y-79549256D01*
X105602764Y-79534955D01*
X105492275Y-79412245D01*
X105492274Y-79412244D01*
X105487853Y-79407334D01*
X105333352Y-79295082D01*
X105327324Y-79292398D01*
X105327322Y-79292397D01*
X105164919Y-79220091D01*
X105164918Y-79220091D01*
X105158888Y-79217406D01*
X105055900Y-79195515D01*
X104978544Y-79179072D01*
X104978539Y-79179072D01*
X104972087Y-79177700D01*
X104823300Y-79177700D01*
X104755179Y-79157698D01*
X104708686Y-79104042D01*
X104697300Y-79051700D01*
X104697300Y-78368794D01*
X104717302Y-78300673D01*
X104734205Y-78279699D01*
X106157847Y-76856057D01*
X106166137Y-76848513D01*
X106172618Y-76844400D01*
X106219259Y-76794732D01*
X106222013Y-76791891D01*
X107033716Y-75980188D01*
X107096028Y-75946162D01*
X107166843Y-75951227D01*
X107223679Y-75993774D01*
X107231930Y-76006283D01*
X107287160Y-76101944D01*
X107291578Y-76106851D01*
X107291579Y-76106852D01*
X107366617Y-76190190D01*
X107414947Y-76243866D01*
X107473246Y-76286223D01*
X107542821Y-76336772D01*
X107569448Y-76356118D01*
X107575476Y-76358802D01*
X107575478Y-76358803D01*
X107737881Y-76431109D01*
X107743912Y-76433794D01*
X107837313Y-76453647D01*
X107924256Y-76472128D01*
X107924261Y-76472128D01*
X107930713Y-76473500D01*
X108121687Y-76473500D01*
X108128139Y-76472128D01*
X108128144Y-76472128D01*
X108215087Y-76453647D01*
X108308488Y-76433794D01*
X108314519Y-76431109D01*
X108476922Y-76358803D01*
X108476924Y-76358802D01*
X108482952Y-76356118D01*
X108509580Y-76336772D01*
X108579154Y-76286223D01*
X108637453Y-76243866D01*
X108685783Y-76190190D01*
X108746229Y-76152950D01*
X108779419Y-76148500D01*
X110164097Y-76148500D01*
X110180544Y-76149578D01*
X110210600Y-76153535D01*
X110248844Y-76148500D01*
X110257633Y-76147343D01*
X110362924Y-76133481D01*
X110504867Y-76074686D01*
X110520734Y-76062511D01*
X110626757Y-75981157D01*
X110645215Y-75957102D01*
X110656083Y-75944710D01*
X111098319Y-75502475D01*
X111110710Y-75491609D01*
X111128207Y-75478183D01*
X111134757Y-75473157D01*
X111158239Y-75442555D01*
X111228286Y-75351268D01*
X111276717Y-75234344D01*
X111287081Y-75209324D01*
X111289559Y-75190507D01*
X111302100Y-75095244D01*
X111306057Y-75065189D01*
X111306057Y-75065188D01*
X111307135Y-75057000D01*
X111303178Y-75026944D01*
X111302100Y-75010497D01*
X111302100Y-73757301D01*
X111303178Y-73740853D01*
X111303576Y-73737834D01*
X111307135Y-73710800D01*
X111302100Y-73672556D01*
X111287081Y-73558476D01*
X111233481Y-73429075D01*
X111233482Y-73429075D01*
X111233480Y-73429073D01*
X111228286Y-73416532D01*
X111158239Y-73325246D01*
X111134757Y-73294643D01*
X111110697Y-73276181D01*
X111098307Y-73265314D01*
X110935482Y-73102489D01*
X110924614Y-73090097D01*
X110917591Y-73080945D01*
X110906157Y-73066043D01*
X110784267Y-72972514D01*
X110642324Y-72913719D01*
X110528244Y-72898700D01*
X110490000Y-72893665D01*
X110481812Y-72894743D01*
X110459944Y-72897622D01*
X110443497Y-72898700D01*
X106856543Y-72898700D01*
X106788422Y-72878698D01*
X106741929Y-72825042D01*
X106731825Y-72754768D01*
X106736709Y-72733769D01*
X106778442Y-72605328D01*
X106798404Y-72415400D01*
X106798091Y-72412418D01*
X106817716Y-72345579D01*
X106871372Y-72299086D01*
X106923714Y-72287700D01*
X110341900Y-72287700D01*
X110358343Y-72288778D01*
X110370916Y-72290433D01*
X110371373Y-72290493D01*
X110385492Y-72293688D01*
X110385512Y-72293594D01*
X110565856Y-72331928D01*
X110565861Y-72331928D01*
X110572313Y-72333300D01*
X110763287Y-72333300D01*
X110769739Y-72331928D01*
X110769744Y-72331928D01*
X110856688Y-72313447D01*
X110950088Y-72293594D01*
X110960905Y-72288778D01*
X111118522Y-72218603D01*
X111118524Y-72218602D01*
X111124552Y-72215918D01*
X111279053Y-72103666D01*
X111350550Y-72024261D01*
X111402421Y-71966652D01*
X111402422Y-71966651D01*
X111406840Y-71961744D01*
X111489708Y-71818213D01*
X111541089Y-71769221D01*
X111598826Y-71755214D01*
X111703845Y-71755214D01*
X111710297Y-71753842D01*
X111710302Y-71753842D01*
X111815593Y-71731461D01*
X111890646Y-71715508D01*
X111898296Y-71712102D01*
X112059080Y-71640517D01*
X112059082Y-71640516D01*
X112065110Y-71637832D01*
X112219611Y-71525580D01*
X112234179Y-71509401D01*
X112342979Y-71388566D01*
X112342980Y-71388565D01*
X112347398Y-71383658D01*
X112442885Y-71218270D01*
X112501900Y-71036642D01*
X112510691Y-70953005D01*
X112521172Y-70853279D01*
X112521862Y-70846714D01*
X112510120Y-70734996D01*
X112502590Y-70663349D01*
X112502590Y-70663347D01*
X112501900Y-70656786D01*
X112442885Y-70475158D01*
X112428894Y-70450924D01*
X112365783Y-70341614D01*
X112347398Y-70309770D01*
X112312933Y-70271492D01*
X112224033Y-70172759D01*
X112224032Y-70172758D01*
X112219611Y-70167848D01*
X112065110Y-70055596D01*
X112059082Y-70052912D01*
X112059080Y-70052911D01*
X111896677Y-69980605D01*
X111896676Y-69980605D01*
X111890646Y-69977920D01*
X111772001Y-69952701D01*
X111710302Y-69939586D01*
X111710297Y-69939586D01*
X111703845Y-69938214D01*
X111512871Y-69938214D01*
X111506416Y-69939586D01*
X111506407Y-69939587D01*
X111434538Y-69954864D01*
X111391895Y-69956540D01*
X111362729Y-69952700D01*
X111362724Y-69952700D01*
X111362717Y-69952699D01*
X111331033Y-69948528D01*
X111322844Y-69947450D01*
X111291151Y-69951622D01*
X111274708Y-69952700D01*
X110800568Y-69952700D01*
X110732447Y-69932698D01*
X110685954Y-69879042D01*
X110675850Y-69808768D01*
X110708716Y-69740449D01*
X110717541Y-69731051D01*
X110720298Y-69728207D01*
X110740035Y-69708470D01*
X110742515Y-69705273D01*
X110750220Y-69696251D01*
X110775059Y-69669800D01*
X110780486Y-69664021D01*
X110784305Y-69657075D01*
X110784307Y-69657072D01*
X110790248Y-69646266D01*
X110801099Y-69629747D01*
X110808658Y-69620001D01*
X110813514Y-69613741D01*
X110816659Y-69606472D01*
X110816662Y-69606468D01*
X110831074Y-69573163D01*
X110836291Y-69562513D01*
X110857595Y-69523760D01*
X110862633Y-69504137D01*
X110869037Y-69485434D01*
X110873933Y-69474120D01*
X110873933Y-69474119D01*
X110877081Y-69466845D01*
X110878320Y-69459022D01*
X110878323Y-69459012D01*
X110883999Y-69423176D01*
X110886405Y-69411556D01*
X110895428Y-69376411D01*
X110895428Y-69376410D01*
X110897400Y-69368730D01*
X110897400Y-69348476D01*
X110898951Y-69328765D01*
X110900880Y-69316586D01*
X110902120Y-69308757D01*
X110897959Y-69264738D01*
X110897400Y-69252881D01*
X110897400Y-66709407D01*
X110897927Y-66698224D01*
X110899602Y-66690731D01*
X110897462Y-66622654D01*
X110897400Y-66618695D01*
X110897400Y-66590784D01*
X110896895Y-66586784D01*
X110895962Y-66574941D01*
X110895497Y-66560128D01*
X110894573Y-66530750D01*
X110888922Y-66511298D01*
X110884914Y-66491946D01*
X110883367Y-66479703D01*
X110882374Y-66471843D01*
X110867662Y-66434683D01*
X110866100Y-66430737D01*
X110862255Y-66419510D01*
X110856241Y-66398812D01*
X110849918Y-66377047D01*
X110845884Y-66370225D01*
X110845881Y-66370219D01*
X110839606Y-66359608D01*
X110830910Y-66341858D01*
X110826372Y-66330396D01*
X110826369Y-66330391D01*
X110823452Y-66323023D01*
X110797473Y-66287265D01*
X110790957Y-66277347D01*
X110772475Y-66246097D01*
X110768442Y-66239277D01*
X110754118Y-66224953D01*
X110741276Y-66209918D01*
X110729372Y-66193533D01*
X110695306Y-66165351D01*
X110686527Y-66157362D01*
X110621625Y-66092460D01*
X110587599Y-66030148D01*
X110585410Y-66016535D01*
X110581677Y-65981012D01*
X110568045Y-65851315D01*
X110568920Y-65851223D01*
X110568113Y-65820361D01*
X110567930Y-65820355D01*
X110568030Y-65817186D01*
X110567944Y-65813916D01*
X110568179Y-65812432D01*
X110569419Y-65804603D01*
X110565259Y-65760592D01*
X110564700Y-65748735D01*
X110564700Y-62308767D01*
X110565227Y-62297584D01*
X110566902Y-62290091D01*
X110564762Y-62222014D01*
X110564700Y-62218055D01*
X110564700Y-62190144D01*
X110564195Y-62186144D01*
X110563262Y-62174301D01*
X110562122Y-62138030D01*
X110561873Y-62130111D01*
X110556221Y-62110657D01*
X110552213Y-62091300D01*
X110550668Y-62079070D01*
X110550668Y-62079069D01*
X110549674Y-62071203D01*
X110541483Y-62050514D01*
X110533396Y-62030088D01*
X110529551Y-62018858D01*
X110519429Y-61984017D01*
X110519429Y-61984016D01*
X110517218Y-61976407D01*
X110513185Y-61969588D01*
X110513183Y-61969583D01*
X110506907Y-61958972D01*
X110498212Y-61941224D01*
X110490752Y-61922383D01*
X110464764Y-61886613D01*
X110458248Y-61876693D01*
X110439780Y-61845465D01*
X110439778Y-61845462D01*
X110435742Y-61838638D01*
X110421421Y-61824317D01*
X110408580Y-61809283D01*
X110401331Y-61799306D01*
X110396672Y-61792893D01*
X110362595Y-61764702D01*
X110353816Y-61756712D01*
X109368052Y-60770947D01*
X109360512Y-60762661D01*
X109356400Y-60756182D01*
X109306748Y-60709556D01*
X109303907Y-60706802D01*
X109284170Y-60687065D01*
X109280973Y-60684585D01*
X109271951Y-60676880D01*
X109245500Y-60652041D01*
X109239721Y-60646614D01*
X109232775Y-60642795D01*
X109232772Y-60642793D01*
X109221966Y-60636852D01*
X109205447Y-60626001D01*
X109199938Y-60621728D01*
X109189441Y-60613586D01*
X109182172Y-60610441D01*
X109182168Y-60610438D01*
X109148863Y-60596026D01*
X109138203Y-60590804D01*
X109103116Y-60571515D01*
X109053057Y-60521170D01*
X109038163Y-60451753D01*
X109063163Y-60385304D01*
X109120120Y-60342919D01*
X109163816Y-60335100D01*
X110359940Y-60335100D01*
X110428061Y-60355102D01*
X110469058Y-60398098D01*
X110487560Y-60430144D01*
X110491978Y-60435051D01*
X110491979Y-60435052D01*
X110606024Y-60561712D01*
X110615347Y-60572066D01*
X110702077Y-60635079D01*
X110759611Y-60676880D01*
X110769848Y-60684318D01*
X110775876Y-60687002D01*
X110775878Y-60687003D01*
X110861100Y-60724946D01*
X110944312Y-60761994D01*
X111017958Y-60777648D01*
X111124656Y-60800328D01*
X111124661Y-60800328D01*
X111131113Y-60801700D01*
X111322087Y-60801700D01*
X111328539Y-60800328D01*
X111328544Y-60800328D01*
X111435242Y-60777648D01*
X111508888Y-60761994D01*
X111592100Y-60724946D01*
X111677322Y-60687003D01*
X111677324Y-60687002D01*
X111683352Y-60684318D01*
X111693590Y-60676880D01*
X111751123Y-60635079D01*
X111837853Y-60572066D01*
X111847176Y-60561712D01*
X111961221Y-60435052D01*
X111961222Y-60435051D01*
X111965640Y-60430144D01*
X112061127Y-60264756D01*
X112120142Y-60083128D01*
X112120832Y-60076567D01*
X112120833Y-60076560D01*
X112120847Y-60076425D01*
X112120877Y-60076352D01*
X112122206Y-60070100D01*
X112123350Y-60070343D01*
X112147864Y-60010770D01*
X112194907Y-59974497D01*
X112363122Y-59899603D01*
X112363124Y-59899602D01*
X112369152Y-59896918D01*
X112523653Y-59784666D01*
X112528075Y-59779755D01*
X112647021Y-59647652D01*
X112647022Y-59647651D01*
X112651440Y-59642744D01*
X112716671Y-59529761D01*
X112743623Y-59483079D01*
X112743624Y-59483078D01*
X112746927Y-59477356D01*
X112805942Y-59295728D01*
X112810577Y-59251634D01*
X112825214Y-59112365D01*
X112825904Y-59105800D01*
X112805942Y-58915872D01*
X112746927Y-58734244D01*
X112651440Y-58568856D01*
X112523653Y-58426934D01*
X112369152Y-58314682D01*
X112363124Y-58311998D01*
X112363122Y-58311997D01*
X112200719Y-58239691D01*
X112200718Y-58239691D01*
X112194688Y-58237006D01*
X112101287Y-58217153D01*
X112014344Y-58198672D01*
X112014339Y-58198672D01*
X112007887Y-58197300D01*
X111951995Y-58197300D01*
X111883874Y-58177298D01*
X111862900Y-58160395D01*
X111806452Y-58103947D01*
X111798912Y-58095661D01*
X111794800Y-58089182D01*
X111745148Y-58042556D01*
X111742307Y-58039802D01*
X111722570Y-58020065D01*
X111719373Y-58017585D01*
X111710351Y-58009880D01*
X111683900Y-57985041D01*
X111678121Y-57979614D01*
X111671175Y-57975795D01*
X111671172Y-57975793D01*
X111660366Y-57969852D01*
X111643847Y-57959001D01*
X111643383Y-57958641D01*
X111627841Y-57946586D01*
X111620572Y-57943441D01*
X111620568Y-57943438D01*
X111587263Y-57929026D01*
X111576613Y-57923809D01*
X111537860Y-57902505D01*
X111518237Y-57897467D01*
X111499534Y-57891063D01*
X111488220Y-57886167D01*
X111488219Y-57886167D01*
X111480945Y-57883019D01*
X111473122Y-57881780D01*
X111473112Y-57881777D01*
X111437276Y-57876101D01*
X111425656Y-57873695D01*
X111390511Y-57864672D01*
X111390510Y-57864672D01*
X111382830Y-57862700D01*
X111362576Y-57862700D01*
X111342865Y-57861149D01*
X111330686Y-57859220D01*
X111322857Y-57857980D01*
X111314965Y-57858726D01*
X111278839Y-57862141D01*
X111266981Y-57862700D01*
X110906683Y-57862700D01*
X110838562Y-57842698D01*
X110792069Y-57789042D01*
X110781965Y-57718768D01*
X110811459Y-57654188D01*
X110817588Y-57647605D01*
X110948788Y-57516405D01*
X111011100Y-57482379D01*
X111037883Y-57479500D01*
X111637297Y-57479500D01*
X111653744Y-57480578D01*
X111683800Y-57484535D01*
X111691988Y-57483457D01*
X111722044Y-57479500D01*
X111836124Y-57464481D01*
X111978067Y-57405686D01*
X112099957Y-57312157D01*
X112118419Y-57288097D01*
X112129286Y-57275707D01*
X113519388Y-55885605D01*
X113581700Y-55851579D01*
X113608483Y-55848700D01*
X113735087Y-55848700D01*
X113741539Y-55847328D01*
X113741544Y-55847328D01*
X113828488Y-55828847D01*
X113921888Y-55808994D01*
X113927919Y-55806309D01*
X114090322Y-55734003D01*
X114090324Y-55734002D01*
X114096352Y-55731318D01*
X114250853Y-55619066D01*
X114378640Y-55477144D01*
X114447881Y-55357216D01*
X114470823Y-55317479D01*
X114470824Y-55317478D01*
X114474127Y-55311756D01*
X114533142Y-55130128D01*
X114535842Y-55104445D01*
X114552414Y-54946765D01*
X114553104Y-54940200D01*
X114550171Y-54912291D01*
X114533832Y-54756835D01*
X114533832Y-54756833D01*
X114533142Y-54750272D01*
X114474127Y-54568644D01*
X114378640Y-54403256D01*
X114250853Y-54261334D01*
X114096352Y-54149082D01*
X114090324Y-54146398D01*
X114090322Y-54146397D01*
X113927919Y-54074091D01*
X113927918Y-54074091D01*
X113921888Y-54071406D01*
X113828487Y-54051553D01*
X113741544Y-54033072D01*
X113741539Y-54033072D01*
X113735087Y-54031700D01*
X113544113Y-54031700D01*
X113537661Y-54033072D01*
X113537656Y-54033072D01*
X113450713Y-54051553D01*
X113357312Y-54071406D01*
X113351282Y-54074091D01*
X113351281Y-54074091D01*
X113188878Y-54146397D01*
X113188876Y-54146398D01*
X113182848Y-54149082D01*
X113028347Y-54261334D01*
X112900560Y-54403256D01*
X112805073Y-54568644D01*
X112746058Y-54750272D01*
X112745368Y-54756833D01*
X112745368Y-54756835D01*
X112729029Y-54912291D01*
X112726096Y-54940200D01*
X112726786Y-54946765D01*
X112726786Y-54946767D01*
X112728213Y-54960345D01*
X112715440Y-55030183D01*
X112691998Y-55062609D01*
X111479012Y-56275595D01*
X111416700Y-56309621D01*
X111389917Y-56312500D01*
X110790503Y-56312500D01*
X110774056Y-56311422D01*
X110752188Y-56308543D01*
X110744000Y-56307465D01*
X110684154Y-56315344D01*
X110591676Y-56327519D01*
X110449733Y-56386314D01*
X110397261Y-56426577D01*
X110336824Y-56472952D01*
X110327843Y-56479843D01*
X110322820Y-56486389D01*
X110309382Y-56503902D01*
X110298514Y-56516293D01*
X109624812Y-57189995D01*
X109562500Y-57224021D01*
X109535717Y-57226900D01*
X108372899Y-57226900D01*
X108304778Y-57206898D01*
X108258285Y-57153242D01*
X108248181Y-57082968D01*
X108272029Y-57025394D01*
X108337615Y-56937782D01*
X108441027Y-56748404D01*
X108516437Y-56546236D01*
X108517394Y-56541838D01*
X108561354Y-56339791D01*
X108561355Y-56339785D01*
X108562310Y-56335395D01*
X108574817Y-56160624D01*
X108576243Y-56148714D01*
X108578125Y-56137531D01*
X108578125Y-56137529D01*
X108578934Y-56132723D01*
X108579088Y-56120171D01*
X108575131Y-56092531D01*
X108573859Y-56074675D01*
X108573859Y-51806102D01*
X108575358Y-51786724D01*
X108577669Y-51771875D01*
X108579050Y-51763003D01*
X108577886Y-51754104D01*
X108577886Y-51754094D01*
X108577870Y-51753973D01*
X108577598Y-51723535D01*
X108584587Y-51661476D01*
X108590864Y-51633965D01*
X108617835Y-51556879D01*
X108630078Y-51531457D01*
X108673521Y-51462315D01*
X108691114Y-51440254D01*
X108748855Y-51382513D01*
X108770916Y-51364920D01*
X108840059Y-51321476D01*
X108865483Y-51309233D01*
X108942566Y-51282264D01*
X108970074Y-51275987D01*
X109004442Y-51272116D01*
X109025567Y-51269737D01*
X109041217Y-51268955D01*
X109050184Y-51269065D01*
X109059053Y-51270447D01*
X109067951Y-51269284D01*
X109067954Y-51269284D01*
X109088915Y-51266544D01*
X109090636Y-51266319D01*
X109106965Y-51265256D01*
X110112062Y-51265256D01*
X110180183Y-51285258D01*
G37*
%TD.AperFunction*%
%TA.AperFunction,Conductor*%
G36*
X74212033Y-76434322D02*
G01*
X74257095Y-76463283D01*
X74438115Y-76644303D01*
X74472141Y-76706615D01*
X74467076Y-76777430D01*
X74438116Y-76822493D01*
X73488822Y-77771787D01*
X73482394Y-77783561D01*
X73491687Y-77795573D01*
X73532088Y-77823862D01*
X73541584Y-77829345D01*
X73731113Y-77917724D01*
X73741405Y-77921470D01*
X73947059Y-77976574D01*
X74007682Y-78013526D01*
X74038703Y-78077386D01*
X74030275Y-78147881D01*
X74003543Y-78187376D01*
X73163195Y-79027724D01*
X73100883Y-79061750D01*
X73030068Y-79056685D01*
X72973232Y-79014138D01*
X72948421Y-78947618D01*
X72948100Y-78938629D01*
X72948100Y-77542508D01*
X72968102Y-77474387D01*
X73021758Y-77427894D01*
X73087072Y-77417178D01*
X73114751Y-77420043D01*
X73130333Y-77411853D01*
X74078905Y-76463282D01*
X74141217Y-76429257D01*
X74212033Y-76434322D01*
G37*
%TD.AperFunction*%
%TA.AperFunction,Conductor*%
G36*
X76158494Y-75610036D02*
G01*
X76210800Y-75658042D01*
X76228900Y-75723108D01*
X76228900Y-75909829D01*
X76208898Y-75977950D01*
X76191995Y-75998924D01*
X75912054Y-76278865D01*
X75904057Y-76283232D01*
X75890374Y-76300545D01*
X75621978Y-76568941D01*
X75559666Y-76602967D01*
X75488851Y-76597902D01*
X75432015Y-76555355D01*
X75411176Y-76512457D01*
X75387547Y-76424273D01*
X75389237Y-76353297D01*
X75429031Y-76294501D01*
X75458006Y-76276555D01*
X75458986Y-76276119D01*
X75471303Y-76270635D01*
X75558519Y-76231805D01*
X75558526Y-76231801D01*
X75564552Y-76229118D01*
X75604021Y-76200442D01*
X75713709Y-76120749D01*
X75713711Y-76120747D01*
X75719053Y-76116866D01*
X75719135Y-76116775D01*
X75722425Y-76115196D01*
X75729323Y-76105460D01*
X75842421Y-75979852D01*
X75842422Y-75979851D01*
X75846840Y-75974944D01*
X75942327Y-75809556D01*
X75983067Y-75684172D01*
X76023141Y-75625566D01*
X76088537Y-75597929D01*
X76158494Y-75610036D01*
G37*
%TD.AperFunction*%
%TA.AperFunction,Conductor*%
G36*
X78219458Y-70443530D02*
G01*
X78268938Y-70494443D01*
X78283500Y-70553244D01*
X78283500Y-71587017D01*
X78263498Y-71655138D01*
X78246595Y-71676112D01*
X77690712Y-72231995D01*
X77628400Y-72266021D01*
X77601617Y-72268900D01*
X77529610Y-72268900D01*
X77461489Y-72248898D01*
X77414996Y-72195242D01*
X77404892Y-72124968D01*
X77407399Y-72114356D01*
X77407222Y-72114319D01*
X77422090Y-72042839D01*
X77423061Y-72038550D01*
X77424347Y-72033294D01*
X77440408Y-71967658D01*
X77441100Y-71956504D01*
X77441135Y-71956506D01*
X77441375Y-71952534D01*
X77441752Y-71948313D01*
X77443241Y-71941153D01*
X77441146Y-71863726D01*
X77441100Y-71860318D01*
X77441100Y-71169202D01*
X77442533Y-71150252D01*
X77444699Y-71136017D01*
X77444699Y-71136013D01*
X77445799Y-71128783D01*
X77441515Y-71076114D01*
X77441100Y-71065899D01*
X77441100Y-71057839D01*
X77437809Y-71029612D01*
X77437378Y-71025253D01*
X77432054Y-70959794D01*
X77432053Y-70959791D01*
X77431460Y-70952496D01*
X77429204Y-70945532D01*
X77428017Y-70939593D01*
X77426630Y-70933722D01*
X77425782Y-70926451D01*
X77423286Y-70919575D01*
X77423284Y-70919566D01*
X77400875Y-70857834D01*
X77399465Y-70853730D01*
X77386982Y-70815195D01*
X77385018Y-70744229D01*
X77421734Y-70683463D01*
X77485474Y-70652194D01*
X77506850Y-70650368D01*
X77609755Y-70650368D01*
X77616207Y-70648996D01*
X77616212Y-70648996D01*
X77703155Y-70630515D01*
X77796556Y-70610662D01*
X77802587Y-70607977D01*
X77964990Y-70535671D01*
X77964992Y-70535670D01*
X77971020Y-70532986D01*
X77986103Y-70522028D01*
X78037291Y-70484837D01*
X78083440Y-70451308D01*
X78150306Y-70427450D01*
X78219458Y-70443530D01*
G37*
%TD.AperFunction*%
%TA.AperFunction,Conductor*%
G36*
X77748391Y-63669219D02*
G01*
X77792493Y-63724856D01*
X77801700Y-63772136D01*
X77801700Y-63993905D01*
X77781698Y-64062026D01*
X77764795Y-64083001D01*
X77667402Y-64180393D01*
X77605090Y-64214418D01*
X77534274Y-64209352D01*
X77477438Y-64166805D01*
X77452628Y-64100285D01*
X77469189Y-64028296D01*
X77479027Y-64011256D01*
X77538042Y-63829628D01*
X77544193Y-63771100D01*
X77557287Y-63726970D01*
X77563486Y-63714830D01*
X77612280Y-63663260D01*
X77681211Y-63646257D01*
X77748391Y-63669219D01*
G37*
%TD.AperFunction*%
%TA.AperFunction,Conductor*%
G36*
X93905603Y-60355102D02*
G01*
X93952096Y-60408758D01*
X93962200Y-60479032D01*
X93932706Y-60543612D01*
X93911543Y-60563036D01*
X93775147Y-60662134D01*
X93770726Y-60667044D01*
X93770725Y-60667045D01*
X93695351Y-60750757D01*
X93647360Y-60804056D01*
X93551873Y-60969444D01*
X93492858Y-61151072D01*
X93472896Y-61341000D01*
X93473586Y-61347565D01*
X93483854Y-61445255D01*
X93492858Y-61530928D01*
X93551873Y-61712556D01*
X93555176Y-61718278D01*
X93555177Y-61718279D01*
X93577799Y-61757461D01*
X93647360Y-61877944D01*
X93651778Y-61882851D01*
X93651779Y-61882852D01*
X93719736Y-61958326D01*
X93750454Y-62022333D01*
X93752100Y-62042636D01*
X93752100Y-63097897D01*
X93751022Y-63114344D01*
X93747065Y-63144400D01*
X93752100Y-63182644D01*
X93767119Y-63296724D01*
X93825914Y-63438667D01*
X93830941Y-63445219D01*
X93835071Y-63452372D01*
X93833202Y-63453451D01*
X93854683Y-63509022D01*
X93840415Y-63578570D01*
X93790811Y-63629364D01*
X93729119Y-63645500D01*
X89014500Y-63645500D01*
X88946379Y-63625498D01*
X88899886Y-63571842D01*
X88889190Y-63532671D01*
X88879832Y-63443635D01*
X88879832Y-63443633D01*
X88879142Y-63437072D01*
X88820127Y-63255444D01*
X88724640Y-63090056D01*
X88597493Y-62948845D01*
X88566207Y-62880981D01*
X88555159Y-62797065D01*
X88554081Y-62788876D01*
X88545330Y-62767748D01*
X88511267Y-62685514D01*
X88498446Y-62654562D01*
X88495286Y-62646932D01*
X88441596Y-62576962D01*
X88406786Y-62531596D01*
X88406783Y-62531593D01*
X88401757Y-62525043D01*
X88377697Y-62506581D01*
X88365307Y-62495714D01*
X87704388Y-61834795D01*
X87670362Y-61772483D01*
X87675427Y-61701668D01*
X87717974Y-61644832D01*
X87784494Y-61620021D01*
X87793483Y-61619700D01*
X89401093Y-61619700D01*
X89469214Y-61639702D01*
X89515707Y-61693358D01*
X89520925Y-61706763D01*
X89564073Y-61839556D01*
X89567376Y-61845278D01*
X89567377Y-61845279D01*
X89582935Y-61872226D01*
X89659560Y-62004944D01*
X89787347Y-62146866D01*
X89941848Y-62259118D01*
X89947876Y-62261802D01*
X89947878Y-62261803D01*
X90110281Y-62334109D01*
X90116312Y-62336794D01*
X90209713Y-62356647D01*
X90296656Y-62375128D01*
X90296661Y-62375128D01*
X90303113Y-62376500D01*
X90494087Y-62376500D01*
X90500539Y-62375128D01*
X90500544Y-62375128D01*
X90587487Y-62356647D01*
X90680888Y-62336794D01*
X90686919Y-62334109D01*
X90849322Y-62261803D01*
X90849324Y-62261802D01*
X90855352Y-62259118D01*
X91009853Y-62146866D01*
X91137640Y-62004944D01*
X91214265Y-61872226D01*
X91229823Y-61845279D01*
X91229824Y-61845278D01*
X91233127Y-61839556D01*
X91292142Y-61657928D01*
X91293519Y-61644832D01*
X91311414Y-61474565D01*
X91312104Y-61468000D01*
X91307740Y-61426482D01*
X91292832Y-61284635D01*
X91292832Y-61284633D01*
X91292142Y-61278072D01*
X91233127Y-61096444D01*
X91226227Y-61084492D01*
X91140941Y-60936774D01*
X91137640Y-60931056D01*
X91123072Y-60914876D01*
X91014275Y-60794045D01*
X91014274Y-60794044D01*
X91009853Y-60789134D01*
X90869368Y-60687065D01*
X90860694Y-60680763D01*
X90860693Y-60680762D01*
X90855352Y-60676882D01*
X90849324Y-60674198D01*
X90849322Y-60674197D01*
X90686919Y-60601891D01*
X90686918Y-60601891D01*
X90680888Y-60599206D01*
X90610982Y-60584347D01*
X90548509Y-60550619D01*
X90514187Y-60488469D01*
X90518915Y-60417630D01*
X90561191Y-60360592D01*
X90627592Y-60335465D01*
X90637179Y-60335100D01*
X93837482Y-60335100D01*
X93905603Y-60355102D01*
G37*
%TD.AperFunction*%
%TA.AperFunction,Conductor*%
G36*
X78839852Y-60193539D02*
G01*
X78878291Y-60253229D01*
X78878357Y-60324226D01*
X78859362Y-60362904D01*
X78856782Y-60366455D01*
X78852359Y-60371367D01*
X78849057Y-60377086D01*
X78849055Y-60377089D01*
X78760176Y-60531032D01*
X78756872Y-60536755D01*
X78697857Y-60718383D01*
X78697167Y-60724944D01*
X78697167Y-60724946D01*
X78688128Y-60810949D01*
X78677895Y-60908311D01*
X78678585Y-60914876D01*
X78695986Y-61080434D01*
X78697857Y-61098239D01*
X78756872Y-61279867D01*
X78852359Y-61445255D01*
X78856777Y-61450162D01*
X78856778Y-61450163D01*
X78955096Y-61559356D01*
X78980146Y-61587177D01*
X78985488Y-61591058D01*
X78985490Y-61591060D01*
X79001754Y-61602876D01*
X79045108Y-61659098D01*
X79051184Y-61729834D01*
X79016788Y-61793907D01*
X78042947Y-62767748D01*
X78034661Y-62775288D01*
X78028182Y-62779400D01*
X78022757Y-62785177D01*
X77981557Y-62829051D01*
X77978802Y-62831893D01*
X77959065Y-62851630D01*
X77956585Y-62854827D01*
X77948882Y-62863847D01*
X77918614Y-62896079D01*
X77914795Y-62903025D01*
X77914793Y-62903028D01*
X77908852Y-62913834D01*
X77898001Y-62930353D01*
X77885586Y-62946359D01*
X77882441Y-62953628D01*
X77882438Y-62953632D01*
X77868026Y-62986937D01*
X77862803Y-62997599D01*
X77855314Y-63011221D01*
X77804968Y-63061279D01*
X77735551Y-63076172D01*
X77669102Y-63051170D01*
X77626718Y-62994213D01*
X77618900Y-62950519D01*
X77618900Y-61966869D01*
X77620333Y-61947918D01*
X77622499Y-61933683D01*
X77622499Y-61933681D01*
X77623599Y-61926451D01*
X77622747Y-61915966D01*
X77619315Y-61873782D01*
X77618900Y-61863567D01*
X77618900Y-61855507D01*
X77616933Y-61838638D01*
X77615611Y-61827293D01*
X77615178Y-61822918D01*
X77609854Y-61757461D01*
X77609853Y-61757458D01*
X77609260Y-61750163D01*
X77607004Y-61743199D01*
X77605813Y-61737240D01*
X77604429Y-61731385D01*
X77603582Y-61724119D01*
X77578665Y-61655473D01*
X77577248Y-61651345D01*
X77557007Y-61588864D01*
X77557006Y-61588862D01*
X77554751Y-61581901D01*
X77550955Y-61575646D01*
X77548449Y-61570172D01*
X77545730Y-61564742D01*
X77543233Y-61557863D01*
X77503209Y-61496816D01*
X77500872Y-61493112D01*
X77465909Y-61435493D01*
X77465905Y-61435488D01*
X77462995Y-61430692D01*
X77455597Y-61422316D01*
X77455623Y-61422293D01*
X77452974Y-61419303D01*
X77450266Y-61416064D01*
X77446256Y-61409948D01*
X77440949Y-61404921D01*
X77440946Y-61404917D01*
X77390017Y-61356672D01*
X77387575Y-61354294D01*
X76630293Y-60597012D01*
X76596267Y-60534700D01*
X76594078Y-60521087D01*
X76586232Y-60446434D01*
X76586231Y-60446431D01*
X76585542Y-60439872D01*
X76582381Y-60430144D01*
X76581558Y-60427609D01*
X76579534Y-60356642D01*
X76612298Y-60299583D01*
X76638376Y-60273505D01*
X76700688Y-60239479D01*
X76727471Y-60236600D01*
X78326030Y-60236600D01*
X78344980Y-60238033D01*
X78359215Y-60240199D01*
X78359219Y-60240199D01*
X78366449Y-60241299D01*
X78373741Y-60240706D01*
X78373744Y-60240706D01*
X78419118Y-60237015D01*
X78429333Y-60236600D01*
X78437393Y-60236600D01*
X78450683Y-60235051D01*
X78465607Y-60233311D01*
X78469982Y-60232878D01*
X78535439Y-60227554D01*
X78535442Y-60227553D01*
X78542737Y-60226960D01*
X78549701Y-60224704D01*
X78555660Y-60223513D01*
X78561515Y-60222129D01*
X78568781Y-60221282D01*
X78637427Y-60196365D01*
X78641555Y-60194948D01*
X78704034Y-60174708D01*
X78704039Y-60174706D01*
X78705682Y-60174173D01*
X78705685Y-60174173D01*
X78711000Y-60172451D01*
X78711295Y-60173361D01*
X78775243Y-60164106D01*
X78839852Y-60193539D01*
G37*
%TD.AperFunction*%
%TA.AperFunction,Conductor*%
G36*
X88246150Y-59350902D02*
G01*
X88267124Y-59367805D01*
X88964830Y-60065511D01*
X88977216Y-60079923D01*
X88985749Y-60091518D01*
X88985754Y-60091523D01*
X88990092Y-60097418D01*
X88995670Y-60102157D01*
X88995673Y-60102160D01*
X89030368Y-60131635D01*
X89037884Y-60138565D01*
X89043579Y-60144260D01*
X89046461Y-60146540D01*
X89065851Y-60161881D01*
X89069255Y-60164672D01*
X89106573Y-60196376D01*
X89124885Y-60211933D01*
X89131404Y-60215262D01*
X89136442Y-60218622D01*
X89137865Y-60219501D01*
X89139251Y-60221044D01*
X89146558Y-60225735D01*
X89147289Y-60226313D01*
X89145742Y-60228270D01*
X89185310Y-60272317D01*
X89196668Y-60342399D01*
X89168334Y-60407497D01*
X89109304Y-60446942D01*
X89071650Y-60452700D01*
X87161883Y-60452700D01*
X87093762Y-60432698D01*
X87072788Y-60415795D01*
X86246686Y-59589693D01*
X86235818Y-59577302D01*
X86222380Y-59559789D01*
X86217357Y-59553243D01*
X86210811Y-59548220D01*
X86208586Y-59545995D01*
X86174560Y-59483683D01*
X86179625Y-59412868D01*
X86222172Y-59356032D01*
X86288692Y-59331221D01*
X86297681Y-59330900D01*
X88178029Y-59330900D01*
X88246150Y-59350902D01*
G37*
%TD.AperFunction*%
%TA.AperFunction,Conductor*%
G36*
X80101951Y-59350902D02*
G01*
X80148444Y-59404558D01*
X80158548Y-59474832D01*
X80129054Y-59539412D01*
X80122925Y-59545995D01*
X80120703Y-59548217D01*
X80114153Y-59553243D01*
X80109127Y-59559793D01*
X80095698Y-59577294D01*
X80084831Y-59589685D01*
X79711610Y-59962906D01*
X79649298Y-59996932D01*
X79622515Y-59999811D01*
X79495912Y-59999811D01*
X79489460Y-60001183D01*
X79489455Y-60001183D01*
X79402512Y-60019664D01*
X79309111Y-60039517D01*
X79200595Y-60087831D01*
X79130229Y-60097265D01*
X79065932Y-60067159D01*
X79028118Y-60007070D01*
X79028794Y-59936076D01*
X79060252Y-59883629D01*
X79576076Y-59367805D01*
X79638388Y-59333779D01*
X79665171Y-59330900D01*
X80033830Y-59330900D01*
X80101951Y-59350902D01*
G37*
%TD.AperFunction*%
%TD*%
M02*
