%TF.GenerationSoftware,KiCad,Pcbnew,(6.0.9-0)*%
%TF.CreationDate,2022-11-23T11:56:12+01:00*%
%TF.ProjectId,GlowBand PCB,476c6f77-4261-46e6-9420-5043422e6b69,rev?*%
%TF.SameCoordinates,Original*%
%TF.FileFunction,Soldermask,Top*%
%TF.FilePolarity,Negative*%
%FSLAX46Y46*%
G04 Gerber Fmt 4.6, Leading zero omitted, Abs format (unit mm)*
G04 Created by KiCad (PCBNEW (6.0.9-0)) date 2022-11-23 11:56:12*
%MOMM*%
%LPD*%
G01*
G04 APERTURE LIST*
G04 Aperture macros list*
%AMRoundRect*
0 Rectangle with rounded corners*
0 $1 Rounding radius*
0 $2 $3 $4 $5 $6 $7 $8 $9 X,Y pos of 4 corners*
0 Add a 4 corners polygon primitive as box body*
4,1,4,$2,$3,$4,$5,$6,$7,$8,$9,$2,$3,0*
0 Add four circle primitives for the rounded corners*
1,1,$1+$1,$2,$3*
1,1,$1+$1,$4,$5*
1,1,$1+$1,$6,$7*
1,1,$1+$1,$8,$9*
0 Add four rect primitives between the rounded corners*
20,1,$1+$1,$2,$3,$4,$5,0*
20,1,$1+$1,$4,$5,$6,$7,0*
20,1,$1+$1,$6,$7,$8,$9,0*
20,1,$1+$1,$8,$9,$2,$3,0*%
G04 Aperture macros list end*
%ADD10C,1.900000*%
%ADD11RoundRect,0.140000X-0.140000X-0.170000X0.140000X-0.170000X0.140000X0.170000X-0.140000X0.170000X0*%
%ADD12RoundRect,0.225000X-0.250000X0.225000X-0.250000X-0.225000X0.250000X-0.225000X0.250000X0.225000X0*%
%ADD13R,3.500000X2.000000*%
%ADD14C,0.700025*%
%ADD15R,0.900000X1.200000*%
%ADD16R,1.200000X1.300000*%
%ADD17O,0.750013X0.250013*%
%ADD18RoundRect,0.200000X0.200000X0.275000X-0.200000X0.275000X-0.200000X-0.275000X0.200000X-0.275000X0*%
%ADD19RoundRect,0.135000X0.185000X-0.135000X0.185000X0.135000X-0.185000X0.135000X-0.185000X-0.135000X0*%
%ADD20RoundRect,0.135000X0.135000X0.185000X-0.135000X0.185000X-0.135000X-0.185000X0.135000X-0.185000X0*%
%ADD21RoundRect,0.225000X0.250000X-0.225000X0.250000X0.225000X-0.250000X0.225000X-0.250000X-0.225000X0*%
%ADD22RoundRect,0.140000X-0.170000X0.140000X-0.170000X-0.140000X0.170000X-0.140000X0.170000X0.140000X0*%
%ADD23R,1.250013X0.700000*%
%ADD24R,1.050013X0.550013*%
%ADD25R,0.450013X1.400000*%
%ADD26R,2.400000X0.450013*%
%ADD27R,2.310000X2.460000*%
%ADD28RoundRect,0.100000X0.100000X-0.687500X0.100000X0.687500X-0.100000X0.687500X-0.100000X-0.687500X0*%
%ADD29RoundRect,0.237500X0.237500X-0.250000X0.237500X0.250000X-0.237500X0.250000X-0.237500X-0.250000X0*%
%ADD30RoundRect,0.250000X0.312500X1.450000X-0.312500X1.450000X-0.312500X-1.450000X0.312500X-1.450000X0*%
%ADD31RoundRect,0.135000X-0.135000X-0.185000X0.135000X-0.185000X0.135000X0.185000X-0.135000X0.185000X0*%
%ADD32R,1.000000X0.600000*%
%ADD33R,2.046380X1.620015*%
%ADD34RoundRect,0.135000X-0.185000X0.135000X-0.185000X-0.135000X0.185000X-0.135000X0.185000X0.135000X0*%
%ADD35RoundRect,0.225000X-0.225000X-0.250000X0.225000X-0.250000X0.225000X0.250000X-0.225000X0.250000X0*%
%ADD36R,0.675006X0.280010*%
%ADD37R,0.280010X0.675006*%
%ADD38RoundRect,0.250000X-0.325000X-0.650000X0.325000X-0.650000X0.325000X0.650000X-0.325000X0.650000X0*%
%ADD39R,0.700000X1.250013*%
%ADD40RoundRect,0.225000X0.225000X0.250000X-0.225000X0.250000X-0.225000X-0.250000X0.225000X-0.250000X0*%
%ADD41RoundRect,0.140000X0.170000X-0.140000X0.170000X0.140000X-0.170000X0.140000X-0.170000X-0.140000X0*%
%ADD42R,2.000000X0.900000*%
%ADD43R,0.900000X2.000000*%
%ADD44R,1.330000X1.330000*%
%ADD45R,1.000000X0.550013*%
%ADD46R,0.600000X1.070003*%
%ADD47RoundRect,0.140000X0.140000X0.170000X-0.140000X0.170000X-0.140000X-0.170000X0.140000X-0.170000X0*%
%ADD48R,1.072009X0.532004*%
%ADD49R,1.900000X2.500000*%
%ADD50RoundRect,0.250000X-0.650000X0.325000X-0.650000X-0.325000X0.650000X-0.325000X0.650000X0.325000X0*%
%ADD51R,0.550013X1.000000*%
%ADD52R,1.200000X0.600000*%
%ADD53R,2.500000X3.499873*%
G04 APERTURE END LIST*
D10*
%TO.C,P9*%
X99468400Y-81706030D03*
X97268400Y-81706030D03*
X95068400Y-81706030D03*
X92868400Y-81706030D03*
X90668400Y-81706030D03*
X88468400Y-81706030D03*
%TD*%
D11*
%TO.C,C17*%
X103454800Y-77686230D03*
X104414800Y-77686230D03*
%TD*%
D12*
%TO.C,C19*%
X114147600Y-82652970D03*
X114147600Y-84202970D03*
%TD*%
D13*
%TO.C,P5*%
X114300000Y-68008830D03*
%TD*%
D14*
%TO.C,SW1*%
X112432340Y-52159732D03*
X110732314Y-52159732D03*
D15*
X109282225Y-52159732D03*
X113882175Y-52159732D03*
D16*
X109907321Y-53709643D03*
X113257333Y-53709643D03*
%TD*%
D17*
%TO.C,U3*%
X107772711Y-71486893D03*
X107772711Y-70986766D03*
X107772711Y-70486893D03*
X107772711Y-69986766D03*
X104672889Y-69986766D03*
X104672889Y-70486893D03*
X104672889Y-70986766D03*
X104672889Y-71486893D03*
%TD*%
D18*
%TO.C,R8*%
X80390000Y-79375000D03*
X78740000Y-79375000D03*
%TD*%
D19*
%TO.C,R5*%
X109016800Y-62714600D03*
X109016800Y-61694600D03*
%TD*%
D13*
%TO.C,P6*%
X114300000Y-71348600D03*
%TD*%
D20*
%TO.C,R4*%
X74839800Y-79070200D03*
X73819800Y-79070200D03*
%TD*%
D21*
%TO.C,C18*%
X113868200Y-75705000D03*
X113868200Y-74155000D03*
%TD*%
D22*
%TO.C,C20*%
X104343200Y-75733030D03*
X104343200Y-76693030D03*
%TD*%
D20*
%TO.C,R20*%
X80418400Y-59004200D03*
X79398400Y-59004200D03*
%TD*%
D19*
%TO.C,R16*%
X113233200Y-57558400D03*
X113233200Y-56538400D03*
%TD*%
D11*
%TO.C,C2*%
X108435200Y-69265800D03*
X109395200Y-69265800D03*
%TD*%
D23*
%TO.C,U5*%
X77158600Y-81137762D03*
X77158600Y-79237838D03*
X75158600Y-80187800D03*
%TD*%
D24*
%TO.C,U15*%
X106961083Y-66494545D03*
X105610816Y-66494545D03*
X105610816Y-67344431D03*
X106961083Y-67344431D03*
D25*
X108010867Y-66919488D03*
D26*
X106285949Y-65694443D03*
D25*
X104561032Y-66919488D03*
D26*
X106285949Y-68144532D03*
%TD*%
D27*
%TO.C,U4*%
X80645000Y-68833830D03*
D28*
X78370000Y-71696330D03*
X79020000Y-71696330D03*
X79670000Y-71696330D03*
X80320000Y-71696330D03*
X80970000Y-71696330D03*
X81620000Y-71696330D03*
X82270000Y-71696330D03*
X82920000Y-71696330D03*
X82920000Y-65971330D03*
X82270000Y-65971330D03*
X81620000Y-65971330D03*
X80970000Y-65971330D03*
X80320000Y-65971330D03*
X79670000Y-65971330D03*
X79020000Y-65971330D03*
X78370000Y-65971330D03*
%TD*%
D29*
%TO.C,R22*%
X106578400Y-78153900D03*
X106578400Y-76328900D03*
%TD*%
D30*
%TO.C,F1*%
X105744100Y-82524600D03*
X101469100Y-82524600D03*
%TD*%
D31*
%TO.C,R1*%
X108821531Y-71424800D03*
X109841531Y-71424800D03*
%TD*%
D32*
%TO.C,U7*%
X76026902Y-59662341D03*
X76026902Y-58712379D03*
X76026902Y-57762417D03*
X73426698Y-57762417D03*
X73426698Y-59662341D03*
%TD*%
D33*
%TO.C,U6*%
X74193369Y-83325005D03*
X79324180Y-83325005D03*
%TD*%
D31*
%TO.C,R2*%
X108823531Y-70485000D03*
X109843531Y-70485000D03*
%TD*%
D21*
%TO.C,C9*%
X78206600Y-59576000D03*
X78206600Y-58026000D03*
%TD*%
D13*
%TO.C,P1*%
X72948800Y-64732230D03*
%TD*%
D34*
%TO.C,R15*%
X109651800Y-56741600D03*
X109651800Y-57761600D03*
%TD*%
D35*
%TO.C,C1*%
X84315000Y-77597000D03*
X85865000Y-77597000D03*
%TD*%
D13*
%TO.C,P3*%
X72948800Y-71183830D03*
%TD*%
D31*
%TO.C,R7*%
X78509400Y-80721200D03*
X79529400Y-80721200D03*
%TD*%
D36*
%TO.C,U8*%
X104527068Y-62597536D03*
X104527068Y-63097664D03*
X104527068Y-63597536D03*
X104527068Y-64097664D03*
D37*
X105289197Y-64360148D03*
X105789070Y-64360148D03*
X106289197Y-64360148D03*
D36*
X107051072Y-64097664D03*
X107051072Y-63597536D03*
X107051072Y-63097664D03*
X107051072Y-62597536D03*
D37*
X106289197Y-62335052D03*
X105789070Y-62335052D03*
X105289197Y-62335052D03*
%TD*%
D35*
%TO.C,C7*%
X74510600Y-56286400D03*
X76060600Y-56286400D03*
%TD*%
D38*
%TO.C,C6*%
X78916000Y-63779400D03*
X81866000Y-63779400D03*
%TD*%
D39*
%TO.C,U16*%
X114183162Y-57826400D03*
X112283238Y-57826400D03*
X113233200Y-59826400D03*
%TD*%
D40*
%TO.C,C16*%
X83274200Y-60706000D03*
X81724200Y-60706000D03*
%TD*%
D41*
%TO.C,C14*%
X108839000Y-66824800D03*
X108839000Y-65864800D03*
%TD*%
D42*
%TO.C,U1*%
X85548700Y-58364280D03*
X85548700Y-59634280D03*
X85548700Y-60904280D03*
X85548700Y-62174280D03*
X85548700Y-63444280D03*
X85548700Y-64714280D03*
X85548700Y-65984280D03*
X85548700Y-67254280D03*
X85548700Y-68524280D03*
X85548700Y-69794280D03*
X85548700Y-71064280D03*
X85548700Y-72334280D03*
X85548700Y-73604280D03*
X85548700Y-74874280D03*
D43*
X88333700Y-75874280D03*
X89603700Y-75874280D03*
X90873700Y-75874280D03*
X92143700Y-75874280D03*
X93413700Y-75874280D03*
X94683700Y-75874280D03*
X95953700Y-75874280D03*
X97223700Y-75874280D03*
X98493700Y-75874280D03*
X99763700Y-75874280D03*
D42*
X102548700Y-74874280D03*
X102548700Y-73604280D03*
X102548700Y-72334280D03*
X102548700Y-71064280D03*
X102548700Y-69794280D03*
X102548700Y-68524280D03*
X102548700Y-67254280D03*
X102548700Y-65984280D03*
X102548700Y-64714280D03*
X102548700Y-63444280D03*
X102548700Y-62174280D03*
X102548700Y-60904280D03*
X102548700Y-59634280D03*
X102548700Y-58364280D03*
D44*
X91213700Y-67699280D03*
X93048700Y-64029280D03*
X94883700Y-67699280D03*
X91213700Y-64029280D03*
X93048700Y-67699280D03*
X94883700Y-64029280D03*
X93048700Y-65864280D03*
X91213700Y-65864280D03*
X94883700Y-65864280D03*
%TD*%
D45*
%TO.C,U18*%
X111276470Y-74482860D03*
X111276470Y-73532898D03*
X111276470Y-72582936D03*
X108476368Y-72582936D03*
X108476368Y-73532898D03*
X108476368Y-74482860D03*
%TD*%
D13*
%TO.C,P2*%
X72948800Y-68008830D03*
%TD*%
D19*
%TO.C,R6*%
X108051600Y-62716600D03*
X108051600Y-61696600D03*
%TD*%
D40*
%TO.C,C15*%
X110807800Y-64592200D03*
X109257800Y-64592200D03*
%TD*%
D22*
%TO.C,C11*%
X108077000Y-63934400D03*
X108077000Y-64894400D03*
%TD*%
D35*
%TO.C,C3*%
X81724200Y-59182000D03*
X83274200Y-59182000D03*
%TD*%
D20*
%TO.C,R21*%
X100078000Y-77673200D03*
X99058000Y-77673200D03*
%TD*%
D46*
%TO.C,U17*%
X110584021Y-57949322D03*
X108684097Y-57949322D03*
X109634059Y-60419476D03*
%TD*%
D13*
%TO.C,P4*%
X114300000Y-64732230D03*
%TD*%
D34*
%TO.C,R12*%
X112699800Y-83464400D03*
X112699800Y-84484400D03*
%TD*%
D47*
%TO.C,C4*%
X106677400Y-69189600D03*
X105717400Y-69189600D03*
%TD*%
D22*
%TO.C,C8*%
X73279000Y-55781000D03*
X73279000Y-56741000D03*
%TD*%
D11*
%TO.C,C10*%
X107774800Y-60680600D03*
X108734800Y-60680600D03*
%TD*%
D48*
%TO.C,U20*%
X107020406Y-74482962D03*
X107020406Y-73533000D03*
X107020406Y-72583038D03*
X104722210Y-72583038D03*
X104722210Y-73533000D03*
X104722210Y-74482962D03*
%TD*%
D49*
%TO.C,U2*%
X82695038Y-75514200D03*
X78594962Y-75514200D03*
%TD*%
D39*
%TO.C,U13*%
X112913162Y-61585600D03*
X111013238Y-61585600D03*
X111963200Y-63585600D03*
%TD*%
D50*
%TO.C,C12*%
X111023400Y-66114400D03*
X111023400Y-69064400D03*
%TD*%
D51*
%TO.C,U10*%
X104714140Y-61204681D03*
X105664102Y-61204681D03*
X106614064Y-61204681D03*
X106614064Y-58404579D03*
X105664102Y-58404579D03*
X104714140Y-58404579D03*
%TD*%
D34*
%TO.C,R13*%
X111633000Y-83462400D03*
X111633000Y-84482400D03*
%TD*%
D19*
%TO.C,R11*%
X110617000Y-84482400D03*
X110617000Y-83462400D03*
%TD*%
D31*
%TO.C,R18*%
X79398400Y-57988200D03*
X80418400Y-57988200D03*
%TD*%
D20*
%TO.C,R3*%
X74839800Y-81305400D03*
X73819800Y-81305400D03*
%TD*%
D19*
%TO.C,R14*%
X111963200Y-61317600D03*
X111963200Y-60297600D03*
%TD*%
D14*
%TO.C,SW2*%
X76999340Y-52167232D03*
X75299314Y-52167232D03*
D15*
X73849225Y-52167232D03*
X78449175Y-52167232D03*
D16*
X74474321Y-53717143D03*
X77824333Y-53717143D03*
%TD*%
D23*
%TO.C,U9*%
X109229400Y-84134962D03*
X109229400Y-82235038D03*
X107229400Y-83185000D03*
%TD*%
D34*
%TO.C,R23*%
X105359200Y-75703030D03*
X105359200Y-76723030D03*
%TD*%
D12*
%TO.C,C5*%
X77292200Y-62623400D03*
X77292200Y-64173400D03*
%TD*%
D52*
%TO.C,U19*%
X108000800Y-76961997D03*
X108000800Y-78232000D03*
X108000800Y-79502002D03*
X108000800Y-80772005D03*
X113817412Y-80772005D03*
X113817412Y-79502002D03*
X113817412Y-78232000D03*
X113817412Y-76961997D03*
D53*
X110909106Y-78867001D03*
%TD*%
D20*
%TO.C,R17*%
X109167200Y-75666600D03*
X110187200Y-75666600D03*
%TD*%
D31*
%TO.C,R19*%
X101496400Y-77686230D03*
X102516400Y-77686230D03*
%TD*%
M02*
