%TF.GenerationSoftware,KiCad,Pcbnew,(6.0.9-0)*%
%TF.CreationDate,2022-11-16T12:00:47+01:00*%
%TF.ProjectId,GlowBand PCB,476c6f77-4261-46e6-9420-5043422e6b69,rev?*%
%TF.SameCoordinates,Original*%
%TF.FileFunction,Legend,Top*%
%TF.FilePolarity,Positive*%
%FSLAX46Y46*%
G04 Gerber Fmt 4.6, Leading zero omitted, Abs format (unit mm)*
G04 Created by KiCad (PCBNEW (6.0.9-0)) date 2022-11-16 12:00:47*
%MOMM*%
%LPD*%
G01*
G04 APERTURE LIST*
G04 Aperture macros list*
%AMRoundRect*
0 Rectangle with rounded corners*
0 $1 Rounding radius*
0 $2 $3 $4 $5 $6 $7 $8 $9 X,Y pos of 4 corners*
0 Add a 4 corners polygon primitive as box body*
4,1,4,$2,$3,$4,$5,$6,$7,$8,$9,$2,$3,0*
0 Add four circle primitives for the rounded corners*
1,1,$1+$1,$2,$3*
1,1,$1+$1,$4,$5*
1,1,$1+$1,$6,$7*
1,1,$1+$1,$8,$9*
0 Add four rect primitives between the rounded corners*
20,1,$1+$1,$2,$3,$4,$5,0*
20,1,$1+$1,$4,$5,$6,$7,0*
20,1,$1+$1,$6,$7,$8,$9,0*
20,1,$1+$1,$8,$9,$2,$3,0*%
G04 Aperture macros list end*
%ADD10C,0.150000*%
%ADD11C,0.120000*%
%ADD12C,0.254001*%
%ADD13C,0.200000*%
%ADD14C,0.131597*%
%ADD15C,0.152400*%
%ADD16C,0.059995*%
%ADD17C,0.151994*%
%ADD18C,0.127000*%
%ADD19C,0.300000*%
%ADD20C,0.100000*%
%ADD21RoundRect,0.140000X-0.140000X-0.170000X0.140000X-0.170000X0.140000X0.170000X-0.140000X0.170000X0*%
%ADD22RoundRect,0.225000X-0.250000X0.225000X-0.250000X-0.225000X0.250000X-0.225000X0.250000X0.225000X0*%
%ADD23R,3.500000X2.000000*%
%ADD24C,0.700025*%
%ADD25R,0.900000X1.200000*%
%ADD26R,1.200000X1.300000*%
%ADD27O,0.750013X0.250013*%
%ADD28RoundRect,0.200000X0.200000X0.275000X-0.200000X0.275000X-0.200000X-0.275000X0.200000X-0.275000X0*%
%ADD29RoundRect,0.135000X0.135000X0.185000X-0.135000X0.185000X-0.135000X-0.185000X0.135000X-0.185000X0*%
%ADD30RoundRect,0.225000X0.250000X-0.225000X0.250000X0.225000X-0.250000X0.225000X-0.250000X-0.225000X0*%
%ADD31RoundRect,0.140000X-0.170000X0.140000X-0.170000X-0.140000X0.170000X-0.140000X0.170000X0.140000X0*%
%ADD32RoundRect,0.135000X0.185000X-0.135000X0.185000X0.135000X-0.185000X0.135000X-0.185000X-0.135000X0*%
%ADD33R,1.250013X0.700000*%
%ADD34R,1.050013X0.550013*%
%ADD35R,0.450013X1.400000*%
%ADD36R,2.400000X0.450013*%
%ADD37R,2.310000X2.460000*%
%ADD38RoundRect,0.100000X0.100000X-0.687500X0.100000X0.687500X-0.100000X0.687500X-0.100000X-0.687500X0*%
%ADD39RoundRect,0.237500X0.237500X-0.250000X0.237500X0.250000X-0.237500X0.250000X-0.237500X-0.250000X0*%
%ADD40RoundRect,0.250000X0.312500X1.450000X-0.312500X1.450000X-0.312500X-1.450000X0.312500X-1.450000X0*%
%ADD41RoundRect,0.135000X-0.135000X-0.185000X0.135000X-0.185000X0.135000X0.185000X-0.135000X0.185000X0*%
%ADD42R,1.000000X0.600000*%
%ADD43R,2.046380X1.620015*%
%ADD44RoundRect,0.135000X-0.185000X0.135000X-0.185000X-0.135000X0.185000X-0.135000X0.185000X0.135000X0*%
%ADD45RoundRect,0.225000X-0.225000X-0.250000X0.225000X-0.250000X0.225000X0.250000X-0.225000X0.250000X0*%
%ADD46RoundRect,0.250000X-0.325000X-0.650000X0.325000X-0.650000X0.325000X0.650000X-0.325000X0.650000X0*%
%ADD47R,0.700000X1.250013*%
%ADD48RoundRect,0.225000X0.225000X0.250000X-0.225000X0.250000X-0.225000X-0.250000X0.225000X-0.250000X0*%
%ADD49R,2.000000X0.900000*%
%ADD50R,0.900000X2.000000*%
%ADD51R,1.330000X1.330000*%
%ADD52R,1.000000X0.550013*%
%ADD53R,0.600000X1.070003*%
%ADD54RoundRect,0.140000X0.140000X0.170000X-0.140000X0.170000X-0.140000X-0.170000X0.140000X-0.170000X0*%
%ADD55R,1.072009X0.532004*%
%ADD56R,1.900000X2.500000*%
%ADD57RoundRect,0.250000X-0.650000X0.325000X-0.650000X-0.325000X0.650000X-0.325000X0.650000X0.325000X0*%
%ADD58R,0.550013X1.000000*%
%ADD59C,1.900000*%
%ADD60R,1.200000X0.600000*%
%ADD61R,2.500000X3.499873*%
G04 APERTURE END LIST*
D10*
X89857576Y-79038504D02*
X89857576Y-79609933D01*
X89819480Y-79724219D01*
X89743290Y-79800409D01*
X89629004Y-79838504D01*
X89552814Y-79838504D01*
X90619480Y-79838504D02*
X90238528Y-79838504D01*
X90238528Y-79038504D01*
X91343290Y-79762314D02*
X91305195Y-79800409D01*
X91190909Y-79838504D01*
X91114719Y-79838504D01*
X91000433Y-79800409D01*
X90924242Y-79724219D01*
X90886147Y-79648028D01*
X90848052Y-79495647D01*
X90848052Y-79381361D01*
X90886147Y-79228980D01*
X90924242Y-79152790D01*
X91000433Y-79076600D01*
X91114719Y-79038504D01*
X91190909Y-79038504D01*
X91305195Y-79076600D01*
X91343290Y-79114695D01*
X91914719Y-79038504D02*
X91914719Y-79609933D01*
X91876623Y-79724219D01*
X91800433Y-79800409D01*
X91686147Y-79838504D01*
X91609957Y-79838504D01*
X92676623Y-79838504D02*
X92295671Y-79838504D01*
X92295671Y-79038504D01*
X93400433Y-79762314D02*
X93362338Y-79800409D01*
X93248052Y-79838504D01*
X93171861Y-79838504D01*
X93057576Y-79800409D01*
X92981385Y-79724219D01*
X92943290Y-79648028D01*
X92905195Y-79495647D01*
X92905195Y-79381361D01*
X92943290Y-79228980D01*
X92981385Y-79152790D01*
X93057576Y-79076600D01*
X93171861Y-79038504D01*
X93248052Y-79038504D01*
X93362338Y-79076600D01*
X93400433Y-79114695D01*
X93971861Y-79038504D02*
X93971861Y-79609933D01*
X93933766Y-79724219D01*
X93857576Y-79800409D01*
X93743290Y-79838504D01*
X93667100Y-79838504D01*
X94733766Y-79838504D02*
X94352814Y-79838504D01*
X94352814Y-79038504D01*
X95457576Y-79762314D02*
X95419480Y-79800409D01*
X95305195Y-79838504D01*
X95229004Y-79838504D01*
X95114719Y-79800409D01*
X95038528Y-79724219D01*
X95000433Y-79648028D01*
X94962338Y-79495647D01*
X94962338Y-79381361D01*
X95000433Y-79228980D01*
X95038528Y-79152790D01*
X95114719Y-79076600D01*
X95229004Y-79038504D01*
X95305195Y-79038504D01*
X95419480Y-79076600D01*
X95457576Y-79114695D01*
X96029004Y-79038504D02*
X96029004Y-79609933D01*
X95990909Y-79724219D01*
X95914719Y-79800409D01*
X95800433Y-79838504D01*
X95724242Y-79838504D01*
X96790909Y-79838504D02*
X96409957Y-79838504D01*
X96409957Y-79038504D01*
X97514719Y-79762314D02*
X97476623Y-79800409D01*
X97362338Y-79838504D01*
X97286147Y-79838504D01*
X97171861Y-79800409D01*
X97095671Y-79724219D01*
X97057576Y-79648028D01*
X97019480Y-79495647D01*
X97019480Y-79381361D01*
X97057576Y-79228980D01*
X97095671Y-79152790D01*
X97171861Y-79076600D01*
X97286147Y-79038504D01*
X97362338Y-79038504D01*
X97476623Y-79076600D01*
X97514719Y-79114695D01*
X92602066Y-84080304D02*
X92335400Y-83699352D01*
X92144923Y-84080304D02*
X92144923Y-83280304D01*
X92449685Y-83280304D01*
X92525876Y-83318400D01*
X92563971Y-83356495D01*
X92602066Y-83432685D01*
X92602066Y-83546971D01*
X92563971Y-83623161D01*
X92525876Y-83661257D01*
X92449685Y-83699352D01*
X92144923Y-83699352D01*
X92868733Y-83280304D02*
X93402066Y-84080304D01*
X93402066Y-83280304D02*
X92868733Y-84080304D01*
X113747600Y-72952976D02*
X113709504Y-73029166D01*
X113709504Y-73143452D01*
X113747600Y-73257738D01*
X113823790Y-73333928D01*
X113899980Y-73372023D01*
X114052361Y-73410119D01*
X114166647Y-73410119D01*
X114319028Y-73372023D01*
X114395219Y-73333928D01*
X114471409Y-73257738D01*
X114509504Y-73143452D01*
X114509504Y-73067261D01*
X114471409Y-72952976D01*
X114433314Y-72914880D01*
X114166647Y-72914880D01*
X114166647Y-73067261D01*
X113785704Y-62526271D02*
X113785704Y-62907223D01*
X114166657Y-62945319D01*
X114128561Y-62907223D01*
X114090466Y-62831033D01*
X114090466Y-62640557D01*
X114128561Y-62564366D01*
X114166657Y-62526271D01*
X114242847Y-62488176D01*
X114433323Y-62488176D01*
X114509514Y-62526271D01*
X114547609Y-62564366D01*
X114585704Y-62640557D01*
X114585704Y-62831033D01*
X114547609Y-62907223D01*
X114509514Y-62945319D01*
X113785704Y-62259604D02*
X114585704Y-61992938D01*
X113785704Y-61726271D01*
X94361076Y-83280304D02*
X94818219Y-83280304D01*
X94589647Y-84080304D02*
X94589647Y-83280304D01*
X95008695Y-83280304D02*
X95542028Y-84080304D01*
X95542028Y-83280304D02*
X95008695Y-84080304D01*
X76028504Y-69028623D02*
X75228504Y-69028623D01*
X75228504Y-68495290D02*
X75228504Y-68342909D01*
X75266600Y-68266719D01*
X75342790Y-68190528D01*
X75495171Y-68152433D01*
X75761838Y-68152433D01*
X75914219Y-68190528D01*
X75990409Y-68266719D01*
X76028504Y-68342909D01*
X76028504Y-68495290D01*
X75990409Y-68571480D01*
X75914219Y-68647671D01*
X75761838Y-68685766D01*
X75495171Y-68685766D01*
X75342790Y-68647671D01*
X75266600Y-68571480D01*
X75228504Y-68495290D01*
X76028504Y-67390528D02*
X76028504Y-67847671D01*
X76028504Y-67619100D02*
X75228504Y-67619100D01*
X75342790Y-67695290D01*
X75418980Y-67771480D01*
X75457076Y-67847671D01*
X75228504Y-66704814D02*
X75228504Y-66857195D01*
X75266600Y-66933385D01*
X75304695Y-66971480D01*
X75418980Y-67047671D01*
X75571361Y-67085766D01*
X75876123Y-67085766D01*
X75952314Y-67047671D01*
X75990409Y-67009576D01*
X76028504Y-66933385D01*
X76028504Y-66781004D01*
X75990409Y-66704814D01*
X75952314Y-66666719D01*
X75876123Y-66628623D01*
X75685647Y-66628623D01*
X75609457Y-66666719D01*
X75571361Y-66704814D01*
X75533266Y-66781004D01*
X75533266Y-66933385D01*
X75571361Y-67009576D01*
X75609457Y-67047671D01*
X75685647Y-67085766D01*
X112020304Y-56252423D02*
X111220304Y-56252423D01*
X111220304Y-55719090D02*
X111220304Y-55566709D01*
X111258400Y-55490519D01*
X111334590Y-55414328D01*
X111486971Y-55376233D01*
X111753638Y-55376233D01*
X111906019Y-55414328D01*
X111982209Y-55490519D01*
X112020304Y-55566709D01*
X112020304Y-55719090D01*
X111982209Y-55795280D01*
X111906019Y-55871471D01*
X111753638Y-55909566D01*
X111486971Y-55909566D01*
X111334590Y-55871471D01*
X111258400Y-55795280D01*
X111220304Y-55719090D01*
X111220304Y-55109566D02*
X111220304Y-54614328D01*
X111525066Y-54880995D01*
X111525066Y-54766709D01*
X111563161Y-54690519D01*
X111601257Y-54652423D01*
X111677447Y-54614328D01*
X111867923Y-54614328D01*
X111944114Y-54652423D01*
X111982209Y-54690519D01*
X112020304Y-54766709D01*
X112020304Y-54995280D01*
X111982209Y-55071471D01*
X111944114Y-55109566D01*
X111220304Y-54347661D02*
X111220304Y-53852423D01*
X111525066Y-54119090D01*
X111525066Y-54004804D01*
X111563161Y-53928614D01*
X111601257Y-53890519D01*
X111677447Y-53852423D01*
X111867923Y-53852423D01*
X111944114Y-53890519D01*
X111982209Y-53928614D01*
X112020304Y-54004804D01*
X112020304Y-54233376D01*
X111982209Y-54309566D01*
X111944114Y-54347661D01*
X96456600Y-84080304D02*
X96456600Y-83280304D01*
X96989933Y-83280304D02*
X97142314Y-83280304D01*
X97218504Y-83318400D01*
X97294695Y-83394590D01*
X97332790Y-83546971D01*
X97332790Y-83813638D01*
X97294695Y-83966019D01*
X97218504Y-84042209D01*
X97142314Y-84080304D01*
X96989933Y-84080304D01*
X96913742Y-84042209D01*
X96837552Y-83966019D01*
X96799457Y-83813638D01*
X96799457Y-83546971D01*
X96837552Y-83394590D01*
X96913742Y-83318400D01*
X96989933Y-83280304D01*
X97828028Y-83280304D02*
X97904219Y-83280304D01*
X97980409Y-83318400D01*
X98018504Y-83356495D01*
X98056600Y-83432685D01*
X98094695Y-83585066D01*
X98094695Y-83775542D01*
X98056600Y-83927923D01*
X98018504Y-84004114D01*
X97980409Y-84042209D01*
X97904219Y-84080304D01*
X97828028Y-84080304D01*
X97751838Y-84042209D01*
X97713742Y-84004114D01*
X97675647Y-83927923D01*
X97637552Y-83775542D01*
X97637552Y-83585066D01*
X97675647Y-83432685D01*
X97713742Y-83356495D01*
X97751838Y-83318400D01*
X97828028Y-83280304D01*
X112045704Y-69054023D02*
X111245704Y-69054023D01*
X111245704Y-68520690D02*
X111245704Y-68368309D01*
X111283800Y-68292119D01*
X111359990Y-68215928D01*
X111512371Y-68177833D01*
X111779038Y-68177833D01*
X111931419Y-68215928D01*
X112007609Y-68292119D01*
X112045704Y-68368309D01*
X112045704Y-68520690D01*
X112007609Y-68596880D01*
X111931419Y-68673071D01*
X111779038Y-68711166D01*
X111512371Y-68711166D01*
X111359990Y-68673071D01*
X111283800Y-68596880D01*
X111245704Y-68520690D01*
X112045704Y-67415928D02*
X112045704Y-67873071D01*
X112045704Y-67644500D02*
X111245704Y-67644500D01*
X111359990Y-67720690D01*
X111436180Y-67796880D01*
X111474276Y-67873071D01*
X111245704Y-67149261D02*
X111245704Y-66615928D01*
X112045704Y-66958785D01*
X88125333Y-83280304D02*
X88392000Y-84080304D01*
X88658666Y-83280304D01*
X98825123Y-83661257D02*
X99091790Y-83661257D01*
X99206076Y-84080304D02*
X98825123Y-84080304D01*
X98825123Y-83280304D01*
X99206076Y-83280304D01*
X99548933Y-84080304D02*
X99548933Y-83280304D01*
X100006076Y-84080304D01*
X100006076Y-83280304D01*
X72752000Y-72825976D02*
X72713904Y-72902166D01*
X72713904Y-73016452D01*
X72752000Y-73130738D01*
X72828190Y-73206928D01*
X72904380Y-73245023D01*
X73056761Y-73283119D01*
X73171047Y-73283119D01*
X73323428Y-73245023D01*
X73399619Y-73206928D01*
X73475809Y-73130738D01*
X73513904Y-73016452D01*
X73513904Y-72940261D01*
X73475809Y-72825976D01*
X73437714Y-72787880D01*
X73171047Y-72787880D01*
X73171047Y-72940261D01*
X72688504Y-62780271D02*
X72688504Y-63161223D01*
X73069457Y-63199319D01*
X73031361Y-63161223D01*
X72993266Y-63085033D01*
X72993266Y-62894557D01*
X73031361Y-62818366D01*
X73069457Y-62780271D01*
X73145647Y-62742176D01*
X73336123Y-62742176D01*
X73412314Y-62780271D01*
X73450409Y-62818366D01*
X73488504Y-62894557D01*
X73488504Y-63085033D01*
X73450409Y-63161223D01*
X73412314Y-63199319D01*
X72688504Y-62513604D02*
X73488504Y-62246938D01*
X72688504Y-61980271D01*
X76536504Y-55439623D02*
X75736504Y-55439623D01*
X75736504Y-54906290D02*
X75736504Y-54753909D01*
X75774600Y-54677719D01*
X75850790Y-54601528D01*
X76003171Y-54563433D01*
X76269838Y-54563433D01*
X76422219Y-54601528D01*
X76498409Y-54677719D01*
X76536504Y-54753909D01*
X76536504Y-54906290D01*
X76498409Y-54982480D01*
X76422219Y-55058671D01*
X76269838Y-55096766D01*
X76003171Y-55096766D01*
X75850790Y-55058671D01*
X75774600Y-54982480D01*
X75736504Y-54906290D01*
X76003171Y-53877719D02*
X76536504Y-53877719D01*
X75698409Y-54068195D02*
X76269838Y-54258671D01*
X76269838Y-53763433D01*
X90735123Y-83318400D02*
X90658933Y-83280304D01*
X90544647Y-83280304D01*
X90430361Y-83318400D01*
X90354171Y-83394590D01*
X90316076Y-83470780D01*
X90277980Y-83623161D01*
X90277980Y-83737447D01*
X90316076Y-83889828D01*
X90354171Y-83966019D01*
X90430361Y-84042209D01*
X90544647Y-84080304D01*
X90620838Y-84080304D01*
X90735123Y-84042209D01*
X90773219Y-84004114D01*
X90773219Y-83737447D01*
X90620838Y-83737447D01*
D11*
%TO.C,C17*%
X103826964Y-78046230D02*
X104042636Y-78046230D01*
X103826964Y-77326230D02*
X104042636Y-77326230D01*
%TO.C,C19*%
X114657600Y-83287390D02*
X114657600Y-83568550D01*
X113637600Y-83287390D02*
X113637600Y-83568550D01*
D12*
%TO.C,SW1*%
X110693198Y-53559706D02*
X112471202Y-53559706D01*
D13*
%TO.C,U3*%
X107122673Y-69736931D02*
X105322648Y-69736931D01*
X105322648Y-69736931D02*
X105322648Y-71736880D01*
X107122673Y-71736880D02*
X107122673Y-69736931D01*
X106476699Y-71752933D02*
X107122673Y-71752933D01*
X105968698Y-71752933D02*
X105322648Y-71752933D01*
X106476674Y-71752908D02*
G75*
G03*
X105968672Y-71752908I-254001J0D01*
G01*
D14*
X107710998Y-71989532D02*
G75*
G03*
X107710998Y-71989532I-65798J0D01*
G01*
D11*
%TO.C,R8*%
X79802258Y-78852500D02*
X79327742Y-78852500D01*
X79802258Y-79897500D02*
X79327742Y-79897500D01*
%TO.C,R4*%
X74483441Y-79450200D02*
X74176159Y-79450200D01*
X74483441Y-78690200D02*
X74176159Y-78690200D01*
%TO.C,C18*%
X114378200Y-75070580D02*
X114378200Y-74789420D01*
X113358200Y-75070580D02*
X113358200Y-74789420D01*
%TO.C,C20*%
X104703200Y-76105194D02*
X104703200Y-76320866D01*
X103983200Y-76105194D02*
X103983200Y-76320866D01*
%TO.C,R20*%
X80062041Y-58624200D02*
X79754759Y-58624200D01*
X80062041Y-59384200D02*
X79754759Y-59384200D01*
%TO.C,R16*%
X112853200Y-57202041D02*
X112853200Y-56894759D01*
X113613200Y-57202041D02*
X113613200Y-56894759D01*
%TO.C,C2*%
X108807364Y-68791830D02*
X109023036Y-68791830D01*
X108807364Y-69511830D02*
X109023036Y-69511830D01*
D15*
%TO.C,U5*%
X76884813Y-79732402D02*
X76884813Y-80643198D01*
X76884813Y-78661587D02*
X75432387Y-78661587D01*
X75432387Y-78661587D02*
X75432387Y-79693210D01*
X75432387Y-81714013D02*
X75432387Y-80682390D01*
X76884813Y-81714013D02*
X75432387Y-81714013D01*
D16*
X77388597Y-81637813D02*
G75*
G03*
X77388597Y-81637813I-29997J0D01*
G01*
D17*
%TO.C,U15*%
X108285009Y-65683710D02*
X108285009Y-65041089D01*
X104938858Y-68062247D02*
X104305964Y-68062247D01*
X104927885Y-65042206D02*
X104286000Y-65042206D01*
X108286000Y-68062247D02*
X108286000Y-67400322D01*
X104305964Y-68062247D02*
X104286000Y-68042206D01*
X108085975Y-65242181D02*
X108085975Y-65642181D01*
X107923668Y-65042206D02*
X107644115Y-65042206D01*
X104286000Y-65684091D02*
X104286000Y-65042206D01*
X107685975Y-65242181D02*
X108085975Y-65242181D01*
X108285009Y-65041089D02*
X107924278Y-65041089D01*
X104286000Y-68042206D02*
X104286000Y-67400322D01*
X108286000Y-68062247D02*
X107633142Y-68062247D01*
D16*
X108315972Y-65042181D02*
G75*
G03*
X108315972Y-65042181I-29997J0D01*
G01*
D11*
%TO.C,U4*%
X77885000Y-68833830D02*
X77885000Y-72483830D01*
X83405000Y-68833830D02*
X83405000Y-66633830D01*
X77885000Y-68833830D02*
X77885000Y-66633830D01*
X83405000Y-68833830D02*
X83405000Y-71033830D01*
%TO.C,R22*%
X106055900Y-77496124D02*
X106055900Y-76986676D01*
X107100900Y-77496124D02*
X107100900Y-76986676D01*
%TO.C,F1*%
X104992852Y-80814600D02*
X102220348Y-80814600D01*
X104992852Y-84234600D02*
X102220348Y-84234600D01*
%TO.C,R1*%
X109177890Y-71804800D02*
X109485172Y-71804800D01*
X109177890Y-71044800D02*
X109485172Y-71044800D01*
D12*
%TO.C,U7*%
X73826749Y-57162417D02*
X75626775Y-57162417D01*
X73826749Y-60262443D02*
X75626775Y-60262443D01*
X73826749Y-59112455D02*
X73826749Y-58312430D01*
X76377676Y-60363383D02*
G75*
G03*
X76377676Y-60363383I-127000J0D01*
G01*
D16*
X76156797Y-60162468D02*
G75*
G03*
X76156797Y-60162468I-29997J0D01*
G01*
D15*
%TO.C,U6*%
X79459968Y-84688733D02*
X79459968Y-84338238D01*
X74057632Y-84688733D02*
X79459968Y-84688733D01*
X74057632Y-81961327D02*
X79459968Y-81961327D01*
X79459968Y-81961327D02*
X79459968Y-82311822D01*
X75419836Y-81961327D02*
X75419836Y-84688733D01*
D16*
X73988645Y-84699909D02*
G75*
G03*
X73988645Y-84699909I-29972J0D01*
G01*
D11*
%TO.C,R2*%
X109179890Y-70028800D02*
X109487172Y-70028800D01*
X109179890Y-70788800D02*
X109487172Y-70788800D01*
%TO.C,C9*%
X78716600Y-58941580D02*
X78716600Y-58660420D01*
X77696600Y-58941580D02*
X77696600Y-58660420D01*
%TO.C,R15*%
X109447600Y-57720589D02*
X109447600Y-58027871D01*
X108687600Y-57720589D02*
X108687600Y-58027871D01*
%TO.C,C1*%
X84949420Y-78107000D02*
X85230580Y-78107000D01*
X84949420Y-77087000D02*
X85230580Y-77087000D01*
%TO.C,R7*%
X78865759Y-81101200D02*
X79173041Y-81101200D01*
X78865759Y-80341200D02*
X79173041Y-80341200D01*
%TO.C,C7*%
X75145020Y-55776400D02*
X75426180Y-55776400D01*
X75145020Y-56796400D02*
X75426180Y-56796400D01*
%TO.C,C6*%
X79679748Y-62869400D02*
X81102252Y-62869400D01*
X79679748Y-64689400D02*
X81102252Y-64689400D01*
D15*
%TO.C,U16*%
X111706987Y-58100187D02*
X111706987Y-59552613D01*
X111706987Y-59552613D02*
X112738610Y-59552613D01*
X112777802Y-58100187D02*
X113688598Y-58100187D01*
X114759413Y-58100187D02*
X114759413Y-59552613D01*
X114759413Y-59552613D02*
X113727790Y-59552613D01*
D16*
X114713210Y-57626400D02*
G75*
G03*
X114713210Y-57626400I-29997J0D01*
G01*
D11*
%TO.C,C16*%
X82639780Y-60196000D02*
X82358620Y-60196000D01*
X82639780Y-61216000D02*
X82358620Y-61216000D01*
%TO.C,C14*%
X107369364Y-64723600D02*
X107585036Y-64723600D01*
X107369364Y-64003600D02*
X107585036Y-64003600D01*
D18*
%TO.C,U1*%
X85048700Y-76374280D02*
X87498700Y-76374280D01*
X100598700Y-76374280D02*
X103048700Y-76374280D01*
X85048700Y-75724280D02*
X85048700Y-76374280D01*
X103048700Y-76374280D02*
X103048700Y-75724280D01*
D13*
X84148700Y-58374280D02*
G75*
G03*
X84148700Y-58374280I-100000J0D01*
G01*
D12*
%TO.C,U18*%
X108976419Y-75127338D02*
X110776444Y-75127338D01*
X108976419Y-72027312D02*
X110776444Y-72027312D01*
D16*
X111306442Y-75012301D02*
G75*
G03*
X111306442Y-75012301I-29998J0D01*
G01*
D12*
X111400422Y-75228227D02*
G75*
G03*
X111400422Y-75228227I-127000J0D01*
G01*
D11*
%TO.C,C15*%
X106768020Y-62583600D02*
X107049180Y-62583600D01*
X106768020Y-63603600D02*
X107049180Y-63603600D01*
%TO.C,C3*%
X82358620Y-58672000D02*
X82639780Y-58672000D01*
X82358620Y-59692000D02*
X82639780Y-59692000D01*
%TO.C,R21*%
X99721641Y-78053200D02*
X99414359Y-78053200D01*
X99721641Y-77293200D02*
X99414359Y-77293200D01*
D15*
%TO.C,U17*%
X107513664Y-60683356D02*
X108555269Y-60683356D01*
X110586054Y-58930956D02*
X110586054Y-60683356D01*
X107513664Y-58930956D02*
X107513664Y-60683356D01*
X110586054Y-60683356D02*
X109544449Y-60683356D01*
X108594461Y-58930956D02*
X109505257Y-58930956D01*
D16*
X110539851Y-58407156D02*
G75*
G03*
X110539851Y-58407156I-29997J0D01*
G01*
D11*
%TO.C,R12*%
X112319800Y-83820759D02*
X112319800Y-84128041D01*
X113079800Y-83820759D02*
X113079800Y-84128041D01*
%TO.C,C4*%
X106305236Y-69549600D02*
X106089564Y-69549600D01*
X106305236Y-68829600D02*
X106089564Y-68829600D01*
%TO.C,C8*%
X72919000Y-56153164D02*
X72919000Y-56368836D01*
X73639000Y-56153164D02*
X73639000Y-56368836D01*
D15*
%TO.C,U20*%
X106760513Y-72058940D02*
X104982103Y-72058940D01*
X106760513Y-75137324D02*
X104982103Y-75137324D01*
D19*
X107322921Y-75266407D02*
G75*
G03*
X107322921Y-75266407I-150114J0D01*
G01*
D20*
X107321321Y-75061175D02*
G75*
G03*
X107321321Y-75061175I-50013J0D01*
G01*
D12*
%TO.C,U2*%
X77945000Y-72914225D02*
X77945000Y-74033047D01*
X77945000Y-72914225D02*
X83345000Y-72914200D01*
X83345000Y-74033047D02*
X83345000Y-72914200D01*
X83345000Y-78114200D02*
X83345000Y-76995353D01*
X83345000Y-78114200D02*
X77945000Y-78114175D01*
X77945000Y-76995353D02*
X77945000Y-78114175D01*
D16*
X83375022Y-72914200D02*
G75*
G03*
X83375022Y-72914200I-29997J0D01*
G01*
D15*
%TO.C,U13*%
X113311613Y-61859387D02*
X113311613Y-63311813D01*
X113311613Y-63311813D02*
X112279990Y-63311813D01*
X111330002Y-61859387D02*
X112240798Y-61859387D01*
X110259187Y-63311813D02*
X111290810Y-63311813D01*
X110259187Y-61859387D02*
X110259187Y-63311813D01*
D16*
X113265410Y-61385600D02*
G75*
G03*
X113265410Y-61385600I-29997J0D01*
G01*
D11*
%TO.C,C12*%
X110726600Y-65573386D02*
X110726600Y-66995890D01*
X108906600Y-65573386D02*
X108906600Y-66995890D01*
D12*
%TO.C,U10*%
X104113987Y-58904630D02*
X104113987Y-60704655D01*
X107214013Y-58904630D02*
X107214013Y-60704655D01*
D16*
X104259022Y-61204655D02*
G75*
G03*
X104259022Y-61204655I-29998J0D01*
G01*
D12*
X104140098Y-61201633D02*
G75*
G03*
X104140098Y-61201633I-127000J0D01*
G01*
D11*
%TO.C,R13*%
X112013000Y-83818759D02*
X112013000Y-84126041D01*
X111253000Y-83818759D02*
X111253000Y-84126041D01*
%TO.C,R11*%
X110997000Y-84126041D02*
X110997000Y-83818759D01*
X110237000Y-84126041D02*
X110237000Y-83818759D01*
%TO.C,R18*%
X79754759Y-58368200D02*
X80062041Y-58368200D01*
X79754759Y-57608200D02*
X80062041Y-57608200D01*
%TO.C,R3*%
X74483441Y-80925400D02*
X74176159Y-80925400D01*
X74483441Y-81685400D02*
X74176159Y-81685400D01*
%TO.C,R14*%
X112165400Y-60961241D02*
X112165400Y-60653959D01*
X111405400Y-60961241D02*
X111405400Y-60653959D01*
D12*
%TO.C,SW2*%
X75260198Y-53567206D02*
X77038202Y-53567206D01*
D15*
%TO.C,U9*%
X108955613Y-82729602D02*
X108955613Y-83640398D01*
X108955613Y-84711213D02*
X107503187Y-84711213D01*
X108955613Y-81658787D02*
X107503187Y-81658787D01*
X107503187Y-84711213D02*
X107503187Y-83679590D01*
X107503187Y-81658787D02*
X107503187Y-82690410D01*
D16*
X109459397Y-84635013D02*
G75*
G03*
X109459397Y-84635013I-29997J0D01*
G01*
D11*
%TO.C,R23*%
X104979200Y-76059389D02*
X104979200Y-76366671D01*
X105739200Y-76059389D02*
X105739200Y-76366671D01*
%TO.C,P9*%
X84148400Y-78266030D02*
X103778400Y-78256030D01*
X84148400Y-85166030D02*
X103778400Y-85156030D01*
X103778400Y-85156030D02*
G75*
G03*
X103778400Y-78256030I0J3450000D01*
G01*
X84148400Y-78266030D02*
G75*
G03*
X84148400Y-85166030I0J-3450000D01*
G01*
%TO.C,C5*%
X77802200Y-63257820D02*
X77802200Y-63538980D01*
X76782200Y-63257820D02*
X76782200Y-63538980D01*
D12*
%TO.C,U19*%
X112959144Y-81416912D02*
X108859068Y-81416912D01*
X110109004Y-76317090D02*
X108859068Y-76317090D01*
X112959144Y-76317090D02*
X112959144Y-81417166D01*
X108859068Y-81416912D02*
X108859068Y-76316836D01*
X111709208Y-76317090D02*
X112959144Y-76317090D01*
X111709208Y-76367128D02*
G75*
G03*
X110109004Y-76367128I-800102J-1683851D01*
G01*
D16*
X107989116Y-76412848D02*
G75*
G03*
X107989116Y-76412848I-29972J0D01*
G01*
D12*
X108579159Y-75837029D02*
G75*
G03*
X108579159Y-75837029I-170180J0D01*
G01*
D11*
%TO.C,R17*%
X109830841Y-75286600D02*
X109523559Y-75286600D01*
X109830841Y-76046600D02*
X109523559Y-76046600D01*
%TO.C,R19*%
X101852759Y-78066230D02*
X102160041Y-78066230D01*
X101852759Y-77306230D02*
X102160041Y-77306230D01*
%TD*%
%LPC*%
D21*
%TO.C,C17*%
X103454800Y-77686230D03*
X104414800Y-77686230D03*
%TD*%
D22*
%TO.C,C19*%
X114147600Y-82652970D03*
X114147600Y-84202970D03*
%TD*%
D23*
%TO.C,P5*%
X114300000Y-68008830D03*
%TD*%
D24*
%TO.C,SW1*%
X112432340Y-52159732D03*
X110732314Y-52159732D03*
D25*
X109282225Y-52159732D03*
X113882175Y-52159732D03*
D26*
X109907321Y-53709643D03*
X113257333Y-53709643D03*
%TD*%
D27*
%TO.C,U3*%
X107772711Y-71486893D03*
X107772711Y-70986766D03*
X107772711Y-70486893D03*
X107772711Y-69986766D03*
X104672889Y-69986766D03*
X104672889Y-70486893D03*
X104672889Y-70986766D03*
X104672889Y-71486893D03*
%TD*%
D28*
%TO.C,R8*%
X80390000Y-79375000D03*
X78740000Y-79375000D03*
%TD*%
D23*
%TO.C,P6*%
X114300000Y-71348600D03*
%TD*%
D29*
%TO.C,R4*%
X74839800Y-79070200D03*
X73819800Y-79070200D03*
%TD*%
D30*
%TO.C,C18*%
X113868200Y-75705000D03*
X113868200Y-74155000D03*
%TD*%
D31*
%TO.C,C20*%
X104343200Y-75733030D03*
X104343200Y-76693030D03*
%TD*%
D29*
%TO.C,R20*%
X80418400Y-59004200D03*
X79398400Y-59004200D03*
%TD*%
D32*
%TO.C,R16*%
X113233200Y-57558400D03*
X113233200Y-56538400D03*
%TD*%
D21*
%TO.C,C2*%
X108435200Y-69151830D03*
X109395200Y-69151830D03*
%TD*%
D33*
%TO.C,U5*%
X77158600Y-81137762D03*
X77158600Y-79237838D03*
X75158600Y-80187800D03*
%TD*%
D34*
%TO.C,U15*%
X106961083Y-66117213D03*
X105610816Y-66117213D03*
X105610816Y-66967099D03*
X106961083Y-66967099D03*
D35*
X108010867Y-66542156D03*
D36*
X106285949Y-65317111D03*
D35*
X104561032Y-66542156D03*
D36*
X106285949Y-67767200D03*
%TD*%
D37*
%TO.C,U4*%
X80645000Y-68833830D03*
D38*
X78370000Y-71696330D03*
X79020000Y-71696330D03*
X79670000Y-71696330D03*
X80320000Y-71696330D03*
X80970000Y-71696330D03*
X81620000Y-71696330D03*
X82270000Y-71696330D03*
X82920000Y-71696330D03*
X82920000Y-65971330D03*
X82270000Y-65971330D03*
X81620000Y-65971330D03*
X80970000Y-65971330D03*
X80320000Y-65971330D03*
X79670000Y-65971330D03*
X79020000Y-65971330D03*
X78370000Y-65971330D03*
%TD*%
D39*
%TO.C,R22*%
X106578400Y-78153900D03*
X106578400Y-76328900D03*
%TD*%
D40*
%TO.C,F1*%
X105744100Y-82524600D03*
X101469100Y-82524600D03*
%TD*%
D41*
%TO.C,R1*%
X108821531Y-71424800D03*
X109841531Y-71424800D03*
%TD*%
D42*
%TO.C,U7*%
X76026902Y-59662341D03*
X76026902Y-58712379D03*
X76026902Y-57762417D03*
X73426698Y-57762417D03*
X73426698Y-59662341D03*
%TD*%
D43*
%TO.C,U6*%
X74193369Y-83325005D03*
X79324180Y-83325005D03*
%TD*%
D41*
%TO.C,R2*%
X108823531Y-70408800D03*
X109843531Y-70408800D03*
%TD*%
D30*
%TO.C,C9*%
X78206600Y-59576000D03*
X78206600Y-58026000D03*
%TD*%
D23*
%TO.C,P1*%
X72948800Y-64732230D03*
%TD*%
D44*
%TO.C,R15*%
X109067600Y-57364230D03*
X109067600Y-58384230D03*
%TD*%
D45*
%TO.C,C1*%
X84315000Y-77597000D03*
X85865000Y-77597000D03*
%TD*%
D23*
%TO.C,P3*%
X72948800Y-71183830D03*
%TD*%
D41*
%TO.C,R7*%
X78509400Y-80721200D03*
X79529400Y-80721200D03*
%TD*%
D45*
%TO.C,C7*%
X74510600Y-56286400D03*
X76060600Y-56286400D03*
%TD*%
D46*
%TO.C,C6*%
X78916000Y-63779400D03*
X81866000Y-63779400D03*
%TD*%
D47*
%TO.C,U16*%
X114183162Y-57826400D03*
X112283238Y-57826400D03*
X113233200Y-59826400D03*
%TD*%
D48*
%TO.C,C16*%
X83274200Y-60706000D03*
X81724200Y-60706000D03*
%TD*%
D21*
%TO.C,C14*%
X106997200Y-64363600D03*
X107957200Y-64363600D03*
%TD*%
D49*
%TO.C,U1*%
X85548700Y-58364280D03*
X85548700Y-59634280D03*
X85548700Y-60904280D03*
X85548700Y-62174280D03*
X85548700Y-63444280D03*
X85548700Y-64714280D03*
X85548700Y-65984280D03*
X85548700Y-67254280D03*
X85548700Y-68524280D03*
X85548700Y-69794280D03*
X85548700Y-71064280D03*
X85548700Y-72334280D03*
X85548700Y-73604280D03*
X85548700Y-74874280D03*
D50*
X88333700Y-75874280D03*
X89603700Y-75874280D03*
X90873700Y-75874280D03*
X92143700Y-75874280D03*
X93413700Y-75874280D03*
X94683700Y-75874280D03*
X95953700Y-75874280D03*
X97223700Y-75874280D03*
X98493700Y-75874280D03*
X99763700Y-75874280D03*
D49*
X102548700Y-74874280D03*
X102548700Y-73604280D03*
X102548700Y-72334280D03*
X102548700Y-71064280D03*
X102548700Y-69794280D03*
X102548700Y-68524280D03*
X102548700Y-67254280D03*
X102548700Y-65984280D03*
X102548700Y-64714280D03*
X102548700Y-63444280D03*
X102548700Y-62174280D03*
X102548700Y-60904280D03*
X102548700Y-59634280D03*
X102548700Y-58364280D03*
D51*
X91213700Y-67699280D03*
X93048700Y-64029280D03*
X94883700Y-67699280D03*
X91213700Y-64029280D03*
X93048700Y-67699280D03*
X94883700Y-64029280D03*
X93048700Y-65864280D03*
X91213700Y-65864280D03*
X94883700Y-65864280D03*
%TD*%
D52*
%TO.C,U18*%
X111276470Y-74527185D03*
X111276470Y-73577223D03*
X111276470Y-72627261D03*
X108476368Y-72627261D03*
X108476368Y-73577223D03*
X108476368Y-74527185D03*
%TD*%
D23*
%TO.C,P2*%
X72948800Y-68008830D03*
%TD*%
D45*
%TO.C,C15*%
X106133600Y-63093600D03*
X107683600Y-63093600D03*
%TD*%
%TO.C,C3*%
X81724200Y-59182000D03*
X83274200Y-59182000D03*
%TD*%
D29*
%TO.C,R21*%
X100078000Y-77673200D03*
X99058000Y-77673200D03*
%TD*%
D53*
%TO.C,U17*%
X109999821Y-58571952D03*
X108099897Y-58571952D03*
X109049859Y-61042106D03*
%TD*%
D23*
%TO.C,P4*%
X114300000Y-64732230D03*
%TD*%
D44*
%TO.C,R12*%
X112699800Y-83464400D03*
X112699800Y-84484400D03*
%TD*%
D54*
%TO.C,C4*%
X106677400Y-69189600D03*
X105717400Y-69189600D03*
%TD*%
D31*
%TO.C,C8*%
X73279000Y-55781000D03*
X73279000Y-56741000D03*
%TD*%
D55*
%TO.C,U20*%
X107020406Y-74548094D03*
X107020406Y-73598132D03*
X107020406Y-72648170D03*
X104722210Y-72648170D03*
X104722210Y-73598132D03*
X104722210Y-74548094D03*
%TD*%
D56*
%TO.C,U2*%
X82695038Y-75514200D03*
X78594962Y-75514200D03*
%TD*%
D47*
%TO.C,U13*%
X112735362Y-61585600D03*
X110835438Y-61585600D03*
X111785400Y-63585600D03*
%TD*%
D57*
%TO.C,C12*%
X109816600Y-64809638D03*
X109816600Y-67759638D03*
%TD*%
D58*
%TO.C,U10*%
X104714140Y-61204681D03*
X105664102Y-61204681D03*
X106614064Y-61204681D03*
X106614064Y-58404579D03*
X105664102Y-58404579D03*
X104714140Y-58404579D03*
%TD*%
D44*
%TO.C,R13*%
X111633000Y-83462400D03*
X111633000Y-84482400D03*
%TD*%
D32*
%TO.C,R11*%
X110617000Y-84482400D03*
X110617000Y-83462400D03*
%TD*%
D41*
%TO.C,R18*%
X79398400Y-57988200D03*
X80418400Y-57988200D03*
%TD*%
D29*
%TO.C,R3*%
X74839800Y-81305400D03*
X73819800Y-81305400D03*
%TD*%
D32*
%TO.C,R14*%
X111785400Y-61317600D03*
X111785400Y-60297600D03*
%TD*%
D24*
%TO.C,SW2*%
X76999340Y-52167232D03*
X75299314Y-52167232D03*
D25*
X73849225Y-52167232D03*
X78449175Y-52167232D03*
D26*
X74474321Y-53717143D03*
X77824333Y-53717143D03*
%TD*%
D33*
%TO.C,U9*%
X109229400Y-84134962D03*
X109229400Y-82235038D03*
X107229400Y-83185000D03*
%TD*%
D44*
%TO.C,R23*%
X105359200Y-75703030D03*
X105359200Y-76723030D03*
%TD*%
D59*
%TO.C,P9*%
X88468400Y-81706030D03*
X90668400Y-81706030D03*
X92868400Y-81706030D03*
X95068400Y-81706030D03*
X97268400Y-81706030D03*
X99468400Y-81706030D03*
%TD*%
D22*
%TO.C,C5*%
X77292200Y-62623400D03*
X77292200Y-64173400D03*
%TD*%
D60*
%TO.C,U19*%
X108000800Y-76961997D03*
X108000800Y-78232000D03*
X108000800Y-79502002D03*
X108000800Y-80772005D03*
X113817412Y-80772005D03*
X113817412Y-79502002D03*
X113817412Y-78232000D03*
X113817412Y-76961997D03*
D61*
X110909106Y-78867001D03*
%TD*%
D29*
%TO.C,R17*%
X110187200Y-75666600D03*
X109167200Y-75666600D03*
%TD*%
D41*
%TO.C,R19*%
X101496400Y-77686230D03*
X102516400Y-77686230D03*
%TD*%
M02*
