%TF.GenerationSoftware,KiCad,Pcbnew,(6.0.9-0)*%
%TF.CreationDate,2022-11-23T11:56:12+01:00*%
%TF.ProjectId,GlowBand PCB,476c6f77-4261-46e6-9420-5043422e6b69,rev?*%
%TF.SameCoordinates,Original*%
%TF.FileFunction,Copper,L1,Top*%
%TF.FilePolarity,Positive*%
%FSLAX46Y46*%
G04 Gerber Fmt 4.6, Leading zero omitted, Abs format (unit mm)*
G04 Created by KiCad (PCBNEW (6.0.9-0)) date 2022-11-23 11:56:12*
%MOMM*%
%LPD*%
G01*
G04 APERTURE LIST*
G04 Aperture macros list*
%AMRoundRect*
0 Rectangle with rounded corners*
0 $1 Rounding radius*
0 $2 $3 $4 $5 $6 $7 $8 $9 X,Y pos of 4 corners*
0 Add a 4 corners polygon primitive as box body*
4,1,4,$2,$3,$4,$5,$6,$7,$8,$9,$2,$3,0*
0 Add four circle primitives for the rounded corners*
1,1,$1+$1,$2,$3*
1,1,$1+$1,$4,$5*
1,1,$1+$1,$6,$7*
1,1,$1+$1,$8,$9*
0 Add four rect primitives between the rounded corners*
20,1,$1+$1,$2,$3,$4,$5,0*
20,1,$1+$1,$4,$5,$6,$7,0*
20,1,$1+$1,$6,$7,$8,$9,0*
20,1,$1+$1,$8,$9,$2,$3,0*%
G04 Aperture macros list end*
%TA.AperFunction,ComponentPad*%
%ADD10C,1.900000*%
%TD*%
%TA.AperFunction,SMDPad,CuDef*%
%ADD11RoundRect,0.140000X-0.140000X-0.170000X0.140000X-0.170000X0.140000X0.170000X-0.140000X0.170000X0*%
%TD*%
%TA.AperFunction,SMDPad,CuDef*%
%ADD12RoundRect,0.225000X-0.250000X0.225000X-0.250000X-0.225000X0.250000X-0.225000X0.250000X0.225000X0*%
%TD*%
%TA.AperFunction,SMDPad,CuDef*%
%ADD13R,3.500000X2.000000*%
%TD*%
%TA.AperFunction,SMDPad,CuDef*%
%ADD14R,0.900000X1.200000*%
%TD*%
%TA.AperFunction,SMDPad,CuDef*%
%ADD15R,1.200000X1.300000*%
%TD*%
%TA.AperFunction,SMDPad,CuDef*%
%ADD16O,0.750013X0.250013*%
%TD*%
%TA.AperFunction,SMDPad,CuDef*%
%ADD17RoundRect,0.200000X0.200000X0.275000X-0.200000X0.275000X-0.200000X-0.275000X0.200000X-0.275000X0*%
%TD*%
%TA.AperFunction,SMDPad,CuDef*%
%ADD18RoundRect,0.135000X0.185000X-0.135000X0.185000X0.135000X-0.185000X0.135000X-0.185000X-0.135000X0*%
%TD*%
%TA.AperFunction,SMDPad,CuDef*%
%ADD19RoundRect,0.135000X0.135000X0.185000X-0.135000X0.185000X-0.135000X-0.185000X0.135000X-0.185000X0*%
%TD*%
%TA.AperFunction,SMDPad,CuDef*%
%ADD20RoundRect,0.225000X0.250000X-0.225000X0.250000X0.225000X-0.250000X0.225000X-0.250000X-0.225000X0*%
%TD*%
%TA.AperFunction,SMDPad,CuDef*%
%ADD21RoundRect,0.140000X-0.170000X0.140000X-0.170000X-0.140000X0.170000X-0.140000X0.170000X0.140000X0*%
%TD*%
%TA.AperFunction,SMDPad,CuDef*%
%ADD22R,1.250013X0.700000*%
%TD*%
%TA.AperFunction,SMDPad,CuDef*%
%ADD23R,1.050013X0.550013*%
%TD*%
%TA.AperFunction,SMDPad,CuDef*%
%ADD24R,0.450013X1.400000*%
%TD*%
%TA.AperFunction,SMDPad,CuDef*%
%ADD25R,2.400000X0.450013*%
%TD*%
%TA.AperFunction,SMDPad,CuDef*%
%ADD26RoundRect,0.100000X0.100000X-0.687500X0.100000X0.687500X-0.100000X0.687500X-0.100000X-0.687500X0*%
%TD*%
%TA.AperFunction,SMDPad,CuDef*%
%ADD27R,5.000000X3.400000*%
%TD*%
%TA.AperFunction,SMDPad,CuDef*%
%ADD28RoundRect,0.237500X0.237500X-0.250000X0.237500X0.250000X-0.237500X0.250000X-0.237500X-0.250000X0*%
%TD*%
%TA.AperFunction,SMDPad,CuDef*%
%ADD29RoundRect,0.250000X0.312500X1.450000X-0.312500X1.450000X-0.312500X-1.450000X0.312500X-1.450000X0*%
%TD*%
%TA.AperFunction,SMDPad,CuDef*%
%ADD30RoundRect,0.135000X-0.135000X-0.185000X0.135000X-0.185000X0.135000X0.185000X-0.135000X0.185000X0*%
%TD*%
%TA.AperFunction,SMDPad,CuDef*%
%ADD31R,1.000000X0.600000*%
%TD*%
%TA.AperFunction,SMDPad,CuDef*%
%ADD32R,2.046380X1.620015*%
%TD*%
%TA.AperFunction,SMDPad,CuDef*%
%ADD33RoundRect,0.135000X-0.185000X0.135000X-0.185000X-0.135000X0.185000X-0.135000X0.185000X0.135000X0*%
%TD*%
%TA.AperFunction,SMDPad,CuDef*%
%ADD34RoundRect,0.225000X-0.225000X-0.250000X0.225000X-0.250000X0.225000X0.250000X-0.225000X0.250000X0*%
%TD*%
%TA.AperFunction,SMDPad,CuDef*%
%ADD35R,0.675006X0.280010*%
%TD*%
%TA.AperFunction,SMDPad,CuDef*%
%ADD36R,0.280010X0.675006*%
%TD*%
%TA.AperFunction,SMDPad,CuDef*%
%ADD37RoundRect,0.250000X-0.325000X-0.650000X0.325000X-0.650000X0.325000X0.650000X-0.325000X0.650000X0*%
%TD*%
%TA.AperFunction,SMDPad,CuDef*%
%ADD38R,0.700000X1.250013*%
%TD*%
%TA.AperFunction,SMDPad,CuDef*%
%ADD39RoundRect,0.225000X0.225000X0.250000X-0.225000X0.250000X-0.225000X-0.250000X0.225000X-0.250000X0*%
%TD*%
%TA.AperFunction,SMDPad,CuDef*%
%ADD40RoundRect,0.140000X0.170000X-0.140000X0.170000X0.140000X-0.170000X0.140000X-0.170000X-0.140000X0*%
%TD*%
%TA.AperFunction,SMDPad,CuDef*%
%ADD41R,2.000000X0.900000*%
%TD*%
%TA.AperFunction,SMDPad,CuDef*%
%ADD42R,0.900000X2.000000*%
%TD*%
%TA.AperFunction,SMDPad,CuDef*%
%ADD43R,1.330000X1.330000*%
%TD*%
%TA.AperFunction,SMDPad,CuDef*%
%ADD44R,1.000000X0.550013*%
%TD*%
%TA.AperFunction,SMDPad,CuDef*%
%ADD45R,0.600000X1.070003*%
%TD*%
%TA.AperFunction,SMDPad,CuDef*%
%ADD46RoundRect,0.140000X0.140000X0.170000X-0.140000X0.170000X-0.140000X-0.170000X0.140000X-0.170000X0*%
%TD*%
%TA.AperFunction,SMDPad,CuDef*%
%ADD47R,1.072009X0.532004*%
%TD*%
%TA.AperFunction,SMDPad,CuDef*%
%ADD48R,1.900000X2.500000*%
%TD*%
%TA.AperFunction,SMDPad,CuDef*%
%ADD49RoundRect,0.250000X-0.650000X0.325000X-0.650000X-0.325000X0.650000X-0.325000X0.650000X0.325000X0*%
%TD*%
%TA.AperFunction,SMDPad,CuDef*%
%ADD50R,0.550013X1.000000*%
%TD*%
%TA.AperFunction,SMDPad,CuDef*%
%ADD51R,1.200000X0.600000*%
%TD*%
%TA.AperFunction,SMDPad,CuDef*%
%ADD52R,2.500000X3.499873*%
%TD*%
%TA.AperFunction,ViaPad*%
%ADD53C,0.500000*%
%TD*%
%TA.AperFunction,ViaPad*%
%ADD54C,0.800000*%
%TD*%
%TA.AperFunction,ViaPad*%
%ADD55C,1.300000*%
%TD*%
%TA.AperFunction,Conductor*%
%ADD56C,0.250000*%
%TD*%
%TA.AperFunction,Conductor*%
%ADD57C,0.200000*%
%TD*%
%TA.AperFunction,Conductor*%
%ADD58C,0.150000*%
%TD*%
%TA.AperFunction,Conductor*%
%ADD59C,0.400000*%
%TD*%
%TA.AperFunction,Conductor*%
%ADD60C,0.500000*%
%TD*%
%TA.AperFunction,Conductor*%
%ADD61C,1.000000*%
%TD*%
%TA.AperFunction,Conductor*%
%ADD62C,0.300000*%
%TD*%
%TA.AperFunction,Conductor*%
%ADD63C,0.127000*%
%TD*%
G04 APERTURE END LIST*
D10*
%TO.P,P9,6*%
%TO.N,EN*%
X99468400Y-81706030D03*
%TO.P,P9,5*%
%TO.N,IO0*%
X97268400Y-81706030D03*
%TO.P,P9,4*%
%TO.N,TXD0*%
X95068400Y-81706030D03*
%TO.P,P9,3*%
%TO.N,RXD0*%
X92868400Y-81706030D03*
%TO.P,P9,2*%
%TO.N,GND*%
X90668400Y-81706030D03*
%TO.P,P9,1*%
%TO.N,VBUS*%
X88468400Y-81706030D03*
%TD*%
D11*
%TO.P,C17,1*%
%TO.N,IO0*%
X103454800Y-77686230D03*
%TO.P,C17,2*%
%TO.N,GND*%
X104414800Y-77686230D03*
%TD*%
D12*
%TO.P,C19,1*%
%TO.N,+BATT*%
X114147600Y-82652970D03*
%TO.P,C19,2*%
%TO.N,GND*%
X114147600Y-84202970D03*
%TD*%
D13*
%TO.P,P5,1*%
%TO.N,LED2 DATA OUT*%
X114300000Y-68008830D03*
%TD*%
D14*
%TO.P,SW1,1,1*%
%TO.N,unconnected-(SW1-Pad1)*%
X109282225Y-52159732D03*
%TO.P,SW1,2,2*%
%TO.N,unconnected-(SW1-Pad2)*%
X113882175Y-52159732D03*
D15*
%TO.P,SW1,3,3*%
%TO.N,+3V3*%
X109907321Y-53709643D03*
%TO.P,SW1,4,4*%
%TO.N,IO33{slash}MAINBUTTON*%
X113257333Y-53709643D03*
%TD*%
D16*
%TO.P,U3,1,VCCA*%
%TO.N,5V AFTER MOSFET*%
X107772711Y-71486893D03*
%TO.P,U3,2,A1*%
%TO.N,Net-(R1-Pad1)*%
X107772711Y-70986766D03*
%TO.P,U3,3,A2*%
%TO.N,Net-(R2-Pad1)*%
X107772711Y-70486893D03*
%TO.P,U3,4,GND*%
%TO.N,GND*%
X107772711Y-69986766D03*
%TO.P,U3,5,DIR*%
X104672889Y-69986766D03*
%TO.P,U3,6,B2*%
%TO.N,IO17{slash}LED2*%
X104672889Y-70486893D03*
%TO.P,U3,7,B1*%
%TO.N,IO16{slash}LED1*%
X104672889Y-70986766D03*
%TO.P,U3,8,VCCB*%
%TO.N,3.3V AFTER MOSFET*%
X104672889Y-71486893D03*
%TD*%
D17*
%TO.P,R8,1*%
%TO.N,GND*%
X80390000Y-79375000D03*
%TO.P,R8,2*%
%TO.N,IO25{slash}VBUS*%
X78740000Y-79375000D03*
%TD*%
D18*
%TO.P,R5,1*%
%TO.N,IO21{slash}I2C SDA*%
X109016800Y-62714600D03*
%TO.P,R5,2*%
%TO.N,GYRO VDD*%
X109016800Y-61694600D03*
%TD*%
D13*
%TO.P,P6,1*%
%TO.N,GND*%
X114300000Y-71348600D03*
%TD*%
D19*
%TO.P,R4,1*%
%TO.N,Net-(R4-Pad1)*%
X74839800Y-79070200D03*
%TO.P,R4,2*%
%TO.N,GND*%
X73819800Y-79070200D03*
%TD*%
D20*
%TO.P,C18,1*%
%TO.N,VBUS*%
X113868200Y-75705000D03*
%TO.P,C18,2*%
%TO.N,GND*%
X113868200Y-74155000D03*
%TD*%
D21*
%TO.P,C20,1*%
%TO.N,-BATT*%
X104343200Y-75733030D03*
%TO.P,C20,2*%
%TO.N,+BATT*%
X104343200Y-76693030D03*
%TD*%
D19*
%TO.P,R20,1*%
%TO.N,EN*%
X80418400Y-59004200D03*
%TO.P,R20,2*%
%TO.N,+3V3*%
X79398400Y-59004200D03*
%TD*%
D18*
%TO.P,R16,1*%
%TO.N,Net-(R14-Pad1)*%
X113233200Y-57558400D03*
%TO.P,R16,2*%
%TO.N,+3V3*%
X113233200Y-56538400D03*
%TD*%
D11*
%TO.P,C2,1*%
%TO.N,5V AFTER MOSFET*%
X108435200Y-69265800D03*
%TO.P,C2,2*%
%TO.N,GND*%
X109395200Y-69265800D03*
%TD*%
D22*
%TO.P,U5,1,G*%
%TO.N,VBUS*%
X77158600Y-81137762D03*
%TO.P,U5,2,S*%
%TO.N,+BATT*%
X77158600Y-79237838D03*
%TO.P,U5,3,D*%
%TO.N,Net-(R4-Pad1)*%
X75158600Y-80187800D03*
%TD*%
D23*
%TO.P,U15,1,VDD*%
%TO.N,Net-(C14-Pad2)*%
X106961083Y-66494545D03*
%TO.P,U15,2,L/R*%
%TO.N,IO15{slash}WS{slash}TDO*%
X105610816Y-66494545D03*
%TO.P,U15,3,CLK*%
%TO.N,IO14{slash}SCK{slash}TMS*%
X105610816Y-67344431D03*
%TO.P,U15,4,DATA*%
%TO.N,IO32{slash}SD*%
X106961083Y-67344431D03*
D24*
%TO.P,U15,5,GND*%
%TO.N,GND*%
X108010867Y-66919488D03*
D25*
%TO.P,U15,6,GND*%
X106285949Y-65694443D03*
D24*
%TO.P,U15,7,GND*%
X104561032Y-66919488D03*
D25*
%TO.P,U15,8,GND*%
X106285949Y-68144532D03*
%TD*%
D26*
%TO.P,U4,1,SW*%
%TO.N,Net-(U2-Pad2)*%
X78370000Y-71696330D03*
%TO.P,U4,2,SW*%
X79020000Y-71696330D03*
%TO.P,U4,3,PGND*%
%TO.N,GND*%
X79670000Y-71696330D03*
%TO.P,U4,4,PGND*%
X80320000Y-71696330D03*
%TO.P,U4,5,PGND*%
X80970000Y-71696330D03*
%TO.P,U4,6,VBAT*%
%TO.N,Net-(C1-Pad1)*%
X81620000Y-71696330D03*
%TO.P,U4,7,LBI*%
%TO.N,GND*%
X82270000Y-71696330D03*
%TO.P,U4,8,SYNC*%
X82920000Y-71696330D03*
%TO.P,U4,9,EN*%
%TO.N,Net-(R4-Pad1)*%
X82920000Y-65971330D03*
%TO.P,U4,10,LBO*%
%TO.N,unconnected-(U4-Pad10)*%
X82270000Y-65971330D03*
%TO.P,U4,11,GND*%
%TO.N,GND*%
X81620000Y-65971330D03*
%TO.P,U4,12,FB*%
%TO.N,unconnected-(U4-Pad12)*%
X80970000Y-65971330D03*
%TO.P,U4,13,VOUT*%
%TO.N,+5V*%
X80320000Y-65971330D03*
%TO.P,U4,14,VOUT*%
X79670000Y-65971330D03*
%TO.P,U4,15,VOUT*%
X79020000Y-65971330D03*
%TO.P,U4,16,NC*%
%TO.N,unconnected-(U4-Pad16)*%
X78370000Y-65971330D03*
D27*
%TO.P,U4,17,EP*%
%TO.N,GND*%
X80645000Y-68833830D03*
%TD*%
D28*
%TO.P,R22,1*%
%TO.N,Net-(R22-Pad1)*%
X106578400Y-78153900D03*
%TO.P,R22,2*%
%TO.N,GND*%
X106578400Y-76328900D03*
%TD*%
D29*
%TO.P,F1,1*%
%TO.N,+BATT*%
X105744100Y-82524600D03*
%TO.P,F1,2*%
%TO.N,Net-(C1-Pad1)*%
X101469100Y-82524600D03*
%TD*%
D30*
%TO.P,R1,1*%
%TO.N,Net-(R1-Pad1)*%
X108821531Y-71424800D03*
%TO.P,R1,2*%
%TO.N,LED1 DATA OUT*%
X109841531Y-71424800D03*
%TD*%
D31*
%TO.P,U7,1,IN*%
%TO.N,+5V*%
X76026902Y-59662341D03*
%TO.P,U7,2,GND*%
%TO.N,GND*%
X76026902Y-58712379D03*
%TO.P,U7,3,EN*%
%TO.N,+5V*%
X76026902Y-57762417D03*
%TO.P,U7,4,BYP*%
%TO.N,Net-(C8-Pad2)*%
X73426698Y-57762417D03*
%TO.P,U7,5,OUT*%
%TO.N,+3V3*%
X73426698Y-59662341D03*
%TD*%
D32*
%TO.P,U6,1,K*%
%TO.N,+5V*%
X74193369Y-83325005D03*
%TO.P,U6,2,A*%
%TO.N,VBUS*%
X79324180Y-83325005D03*
%TD*%
D30*
%TO.P,R2,1*%
%TO.N,Net-(R2-Pad1)*%
X108823531Y-70485000D03*
%TO.P,R2,2*%
%TO.N,LED2 DATA OUT*%
X109843531Y-70485000D03*
%TD*%
D20*
%TO.P,C9,1*%
%TO.N,GND*%
X78206600Y-59576000D03*
%TO.P,C9,2*%
%TO.N,+3V3*%
X78206600Y-58026000D03*
%TD*%
D13*
%TO.P,P1,1*%
%TO.N,5V AFTER MOSFET*%
X72948800Y-64732230D03*
%TD*%
D33*
%TO.P,R15,1*%
%TO.N,GND*%
X109651800Y-56741600D03*
%TO.P,R15,2*%
%TO.N,Net-(R15-Pad2)*%
X109651800Y-57761600D03*
%TD*%
D34*
%TO.P,C1,1*%
%TO.N,Net-(C1-Pad1)*%
X84315000Y-77597000D03*
%TO.P,C1,2*%
%TO.N,GND*%
X85865000Y-77597000D03*
%TD*%
D13*
%TO.P,P3,1*%
%TO.N,GND*%
X72948800Y-71183830D03*
%TD*%
D30*
%TO.P,R7,1*%
%TO.N,IO25{slash}VBUS*%
X78509400Y-80721200D03*
%TO.P,R7,2*%
%TO.N,VBUS*%
X79529400Y-80721200D03*
%TD*%
D35*
%TO.P,U8,1,SDO/SA0*%
%TO.N,GND*%
X104527068Y-62597536D03*
%TO.P,U8,2,SDx*%
X104527068Y-63097664D03*
%TO.P,U8,3,SCx*%
X104527068Y-63597536D03*
%TO.P,U8,4,INT1*%
%TO.N,IO18{slash}I2C INT1*%
X104527068Y-64097664D03*
D36*
%TO.P,U8,5,VDDIO*%
%TO.N,GYRO VDD*%
X105289197Y-64360148D03*
%TO.P,U8,6,GND*%
%TO.N,GND*%
X105789070Y-64360148D03*
%TO.P,U8,7,GND*%
X106289197Y-64360148D03*
D35*
%TO.P,U8,8,VDD*%
%TO.N,GYRO VDD*%
X107051072Y-64097664D03*
%TO.P,U8,9,INT2*%
%TO.N,unconnected-(U8-Pad9)*%
X107051072Y-63597536D03*
%TO.P,U8,10,NC*%
%TO.N,unconnected-(U8-Pad10)*%
X107051072Y-63097664D03*
%TO.P,U8,11,NC*%
%TO.N,unconnected-(U8-Pad11)*%
X107051072Y-62597536D03*
D36*
%TO.P,U8,12,CS*%
%TO.N,GYRO VDD*%
X106289197Y-62335052D03*
%TO.P,U8,13,SCL*%
%TO.N,IO22{slash}I2C SCL*%
X105789070Y-62335052D03*
%TO.P,U8,14,SDA*%
%TO.N,IO21{slash}I2C SDA*%
X105289197Y-62335052D03*
%TD*%
D34*
%TO.P,C7,1*%
%TO.N,GND*%
X74510600Y-56286400D03*
%TO.P,C7,2*%
%TO.N,+5V*%
X76060600Y-56286400D03*
%TD*%
D37*
%TO.P,C6,1*%
%TO.N,+5V*%
X78916000Y-63779400D03*
%TO.P,C6,2*%
%TO.N,GND*%
X81866000Y-63779400D03*
%TD*%
D38*
%TO.P,U16,1,G*%
%TO.N,Net-(R14-Pad1)*%
X114183162Y-57826400D03*
%TO.P,U16,2,S*%
%TO.N,+3V3*%
X112283238Y-57826400D03*
%TO.P,U16,3,D*%
%TO.N,3.3V AFTER MOSFET*%
X113233200Y-59826400D03*
%TD*%
D39*
%TO.P,C16,1*%
%TO.N,GND*%
X83274200Y-60706000D03*
%TO.P,C16,2*%
%TO.N,EN*%
X81724200Y-60706000D03*
%TD*%
D40*
%TO.P,C14,1*%
%TO.N,GND*%
X108839000Y-66824800D03*
%TO.P,C14,2*%
%TO.N,Net-(C14-Pad2)*%
X108839000Y-65864800D03*
%TD*%
D41*
%TO.P,U1,1,GND*%
%TO.N,GND*%
X85548700Y-58364280D03*
%TO.P,U1,2,3V3*%
%TO.N,+3V3*%
X85548700Y-59634280D03*
%TO.P,U1,3,EN*%
%TO.N,EN*%
X85548700Y-60904280D03*
%TO.P,U1,4,SENSOR_VP*%
%TO.N,unconnected-(U1-Pad4)*%
X85548700Y-62174280D03*
%TO.P,U1,5,SENSOR_VN*%
%TO.N,unconnected-(U1-Pad5)*%
X85548700Y-63444280D03*
%TO.P,U1,6,I34*%
%TO.N,unconnected-(U1-Pad6)*%
X85548700Y-64714280D03*
%TO.P,U1,7,I35*%
%TO.N,unconnected-(U1-Pad7)*%
X85548700Y-65984280D03*
%TO.P,U1,8,IO32*%
%TO.N,IO32{slash}SD*%
X85548700Y-67254280D03*
%TO.P,U1,9,IO33*%
%TO.N,IO33{slash}MAINBUTTON*%
X85548700Y-68524280D03*
%TO.P,U1,10,IO25*%
%TO.N,IO25{slash}VBUS*%
X85548700Y-69794280D03*
%TO.P,U1,11,IO26*%
%TO.N,IO26{slash}BATT VOLT*%
X85548700Y-71064280D03*
%TO.P,U1,12,IO27*%
%TO.N,IO27{slash}BATT CHARGING*%
X85548700Y-72334280D03*
%TO.P,U1,13,IO14*%
%TO.N,IO14{slash}SCK{slash}TMS*%
X85548700Y-73604280D03*
%TO.P,U1,14,IO12*%
%TO.N,IO12{slash}TDI*%
X85548700Y-74874280D03*
D42*
%TO.P,U1,15,GND*%
%TO.N,GND*%
X88333700Y-75874280D03*
%TO.P,U1,16,IO13*%
%TO.N,IO13{slash}TCK*%
X89603700Y-75874280D03*
%TO.P,U1,17,NC*%
%TO.N,unconnected-(U1-Pad17)*%
X90873700Y-75874280D03*
%TO.P,U1,18,NC*%
%TO.N,unconnected-(U1-Pad18)*%
X92143700Y-75874280D03*
%TO.P,U1,19,NC*%
%TO.N,unconnected-(U1-Pad19)*%
X93413700Y-75874280D03*
%TO.P,U1,20,NC*%
%TO.N,unconnected-(U1-Pad20)*%
X94683700Y-75874280D03*
%TO.P,U1,21,NC*%
%TO.N,unconnected-(U1-Pad21)*%
X95953700Y-75874280D03*
%TO.P,U1,22,NC*%
%TO.N,unconnected-(U1-Pad22)*%
X97223700Y-75874280D03*
%TO.P,U1,23,IO15*%
%TO.N,IO15{slash}WS{slash}TDO*%
X98493700Y-75874280D03*
%TO.P,U1,24,IO2*%
%TO.N,unconnected-(U1-Pad24)*%
X99763700Y-75874280D03*
D41*
%TO.P,U1,25,IO0*%
%TO.N,IO0*%
X102548700Y-74874280D03*
%TO.P,U1,26,IO4*%
%TO.N,IO4{slash}BUTTON2*%
X102548700Y-73604280D03*
%TO.P,U1,27,IO16*%
%TO.N,IO16{slash}LED1*%
X102548700Y-72334280D03*
%TO.P,U1,28,IO17*%
%TO.N,IO17{slash}LED2*%
X102548700Y-71064280D03*
%TO.P,U1,29,IO5*%
%TO.N,unconnected-(U1-Pad29)*%
X102548700Y-69794280D03*
%TO.P,U1,30,IO18*%
%TO.N,IO18{slash}I2C INT1*%
X102548700Y-68524280D03*
%TO.P,U1,31,IO19*%
%TO.N,IO19{slash}LED LETCH EN*%
X102548700Y-67254280D03*
%TO.P,U1,32,NC1*%
%TO.N,unconnected-(U1-Pad32)*%
X102548700Y-65984280D03*
%TO.P,U1,33,IO21*%
%TO.N,IO21{slash}I2C SDA*%
X102548700Y-64714280D03*
%TO.P,U1,34,RXD0*%
%TO.N,RXD0*%
X102548700Y-63444280D03*
%TO.P,U1,35,TXD0*%
%TO.N,TXD0*%
X102548700Y-62174280D03*
%TO.P,U1,36,IO22*%
%TO.N,IO22{slash}I2C SCL*%
X102548700Y-60904280D03*
%TO.P,U1,37,IO23*%
%TO.N,IO23{slash}POWERMOSFETS*%
X102548700Y-59634280D03*
%TO.P,U1,38,GND*%
%TO.N,GND*%
X102548700Y-58364280D03*
D43*
%TO.P,U1,39,GND*%
X91213700Y-67699280D03*
X93048700Y-64029280D03*
X94883700Y-67699280D03*
X91213700Y-64029280D03*
X93048700Y-67699280D03*
X94883700Y-64029280D03*
X93048700Y-65864280D03*
X91213700Y-65864280D03*
X94883700Y-65864280D03*
%TD*%
D44*
%TO.P,U18,1,S1*%
%TO.N,-BATT*%
X111276470Y-74482860D03*
%TO.P,U18,2,D1/D2*%
%TO.N,unconnected-(U18-Pad2)*%
X111276470Y-73532898D03*
%TO.P,U18,3,S2*%
%TO.N,GND*%
X111276470Y-72582936D03*
%TO.P,U18,4,G2*%
%TO.N,Net-(U18-Pad4)*%
X108476368Y-72582936D03*
%TO.P,U18,5,D1/D2*%
%TO.N,unconnected-(U18-Pad5)*%
X108476368Y-73532898D03*
%TO.P,U18,6,G1*%
%TO.N,Net-(U18-Pad6)*%
X108476368Y-74482860D03*
%TD*%
D13*
%TO.P,P2,1*%
%TO.N,LED1 DATA OUT*%
X72948800Y-68008830D03*
%TD*%
D18*
%TO.P,R6,1*%
%TO.N,IO22{slash}I2C SCL*%
X108051600Y-62716600D03*
%TO.P,R6,2*%
%TO.N,GYRO VDD*%
X108051600Y-61696600D03*
%TD*%
D39*
%TO.P,C15,1*%
%TO.N,GND*%
X110807800Y-64592200D03*
%TO.P,C15,2*%
%TO.N,Net-(C14-Pad2)*%
X109257800Y-64592200D03*
%TD*%
D21*
%TO.P,C11,1*%
%TO.N,GYRO VDD*%
X108077000Y-63934400D03*
%TO.P,C11,2*%
%TO.N,GND*%
X108077000Y-64894400D03*
%TD*%
D34*
%TO.P,C3,1*%
%TO.N,GND*%
X81724200Y-59182000D03*
%TO.P,C3,2*%
%TO.N,+3V3*%
X83274200Y-59182000D03*
%TD*%
D19*
%TO.P,R21,1*%
%TO.N,IO0*%
X100078000Y-77673200D03*
%TO.P,R21,2*%
%TO.N,+3V3*%
X99058000Y-77673200D03*
%TD*%
D45*
%TO.P,U17,1,G*%
%TO.N,Net-(R15-Pad2)*%
X110584021Y-57949322D03*
%TO.P,U17,2,S*%
%TO.N,GND*%
X108684097Y-57949322D03*
%TO.P,U17,3,D*%
%TO.N,Net-(R14-Pad1)*%
X109634059Y-60419476D03*
%TD*%
D13*
%TO.P,P4,1*%
%TO.N,5V AFTER MOSFET*%
X114300000Y-64732230D03*
%TD*%
D33*
%TO.P,R12,1*%
%TO.N,IO26{slash}BATT VOLT*%
X112699800Y-83464400D03*
%TO.P,R12,2*%
%TO.N,+BATT*%
X112699800Y-84484400D03*
%TD*%
D46*
%TO.P,C4,1*%
%TO.N,3.3V AFTER MOSFET*%
X106677400Y-69189600D03*
%TO.P,C4,2*%
%TO.N,GND*%
X105717400Y-69189600D03*
%TD*%
D21*
%TO.P,C8,1*%
%TO.N,GND*%
X73279000Y-55781000D03*
%TO.P,C8,2*%
%TO.N,Net-(C8-Pad2)*%
X73279000Y-56741000D03*
%TD*%
D11*
%TO.P,C10,1*%
%TO.N,GYRO VDD*%
X107774800Y-60680600D03*
%TO.P,C10,2*%
%TO.N,GND*%
X108734800Y-60680600D03*
%TD*%
D47*
%TO.P,U20,1,OD*%
%TO.N,Net-(U18-Pad6)*%
X107020406Y-74482962D03*
%TO.P,U20,2,VM*%
%TO.N,Net-(R17-Pad2)*%
X107020406Y-73533000D03*
%TO.P,U20,3,OC*%
%TO.N,Net-(U18-Pad4)*%
X107020406Y-72583038D03*
%TO.P,U20,4,TD*%
%TO.N,unconnected-(U20-Pad4)*%
X104722210Y-72583038D03*
%TO.P,U20,5,VCC*%
%TO.N,Net-(R23-Pad1)*%
X104722210Y-73533000D03*
%TO.P,U20,6,GND*%
%TO.N,-BATT*%
X104722210Y-74482962D03*
%TD*%
D48*
%TO.P,U2,1,1*%
%TO.N,Net-(C1-Pad1)*%
X82695038Y-75514200D03*
%TO.P,U2,2,2*%
%TO.N,Net-(U2-Pad2)*%
X78594962Y-75514200D03*
%TD*%
D38*
%TO.P,U13,1,G*%
%TO.N,Net-(R14-Pad1)*%
X112913162Y-61585600D03*
%TO.P,U13,2,S*%
%TO.N,+5V*%
X111013238Y-61585600D03*
%TO.P,U13,3,D*%
%TO.N,5V AFTER MOSFET*%
X111963200Y-63585600D03*
%TD*%
D49*
%TO.P,C12,1*%
%TO.N,5V AFTER MOSFET*%
X111023400Y-66114400D03*
%TO.P,C12,2*%
%TO.N,GND*%
X111023400Y-69064400D03*
%TD*%
D50*
%TO.P,U10,1,LE*%
%TO.N,IO19{slash}LED LETCH EN*%
X104714140Y-61204681D03*
%TO.P,U10,2,GND*%
%TO.N,GND*%
X105664102Y-61204681D03*
%TO.P,U10,3,D*%
%TO.N,IO23{slash}POWERMOSFETS*%
X106614064Y-61204681D03*
%TO.P,U10,4,Q*%
%TO.N,Net-(R15-Pad2)*%
X106614064Y-58404579D03*
%TO.P,U10,5,VCC*%
%TO.N,+3V3*%
X105664102Y-58404579D03*
%TO.P,U10,6,OE#*%
%TO.N,unconnected-(U10-Pad6)*%
X104714140Y-58404579D03*
%TD*%
D33*
%TO.P,R13,1*%
%TO.N,-BATT*%
X111633000Y-83462400D03*
%TO.P,R13,2*%
%TO.N,IO26{slash}BATT VOLT*%
X111633000Y-84482400D03*
%TD*%
D18*
%TO.P,R11,1*%
%TO.N,-BATT*%
X110617000Y-84482400D03*
%TO.P,R11,2*%
%TO.N,Net-(R11-Pad2)*%
X110617000Y-83462400D03*
%TD*%
D30*
%TO.P,R18,1*%
%TO.N,Net-(R18-Pad1)*%
X79398400Y-57988200D03*
%TO.P,R18,2*%
%TO.N,EN*%
X80418400Y-57988200D03*
%TD*%
D19*
%TO.P,R3,1*%
%TO.N,VBUS*%
X74839800Y-81305400D03*
%TO.P,R3,2*%
%TO.N,GND*%
X73819800Y-81305400D03*
%TD*%
D18*
%TO.P,R14,1*%
%TO.N,Net-(R14-Pad1)*%
X111963200Y-61317600D03*
%TO.P,R14,2*%
%TO.N,+5V*%
X111963200Y-60297600D03*
%TD*%
D14*
%TO.P,SW2,1,1*%
%TO.N,unconnected-(SW2-Pad1)*%
X73849225Y-52167232D03*
%TO.P,SW2,2,2*%
%TO.N,unconnected-(SW2-Pad2)*%
X78449175Y-52167232D03*
D15*
%TO.P,SW2,3,3*%
%TO.N,+3V3*%
X74474321Y-53717143D03*
%TO.P,SW2,4,4*%
%TO.N,IO4{slash}BUTTON2*%
X77824333Y-53717143D03*
%TD*%
D22*
%TO.P,U9,1,G*%
%TO.N,Net-(R11-Pad2)*%
X109229400Y-84134962D03*
%TO.P,U9,2,S*%
%TO.N,+BATT*%
X109229400Y-82235038D03*
%TO.P,U9,3,D*%
%TO.N,Net-(P7-Pad1)*%
X107229400Y-83185000D03*
%TD*%
D33*
%TO.P,R23,1*%
%TO.N,Net-(R23-Pad1)*%
X105359200Y-75703030D03*
%TO.P,R23,2*%
%TO.N,+BATT*%
X105359200Y-76723030D03*
%TD*%
D12*
%TO.P,C5,1*%
%TO.N,GND*%
X77292200Y-62623400D03*
%TO.P,C5,2*%
%TO.N,+5V*%
X77292200Y-64173400D03*
%TD*%
D51*
%TO.P,U19,1,TEMP*%
%TO.N,GND*%
X108000800Y-76961997D03*
%TO.P,U19,2,PROG*%
%TO.N,Net-(R22-Pad1)*%
X108000800Y-78232000D03*
%TO.P,U19,3,GND*%
%TO.N,GND*%
X108000800Y-79502002D03*
%TO.P,U19,4,VCC*%
%TO.N,VBUS*%
X108000800Y-80772005D03*
%TO.P,U19,5,BAT*%
%TO.N,+BATT*%
X113817412Y-80772005D03*
%TO.P,U19,6,STDBY#*%
%TO.N,unconnected-(U19-Pad6)*%
X113817412Y-79502002D03*
%TO.P,U19,7,CHRG#*%
%TO.N,IO27{slash}BATT CHARGING*%
X113817412Y-78232000D03*
%TO.P,U19,8,CE*%
%TO.N,VBUS*%
X113817412Y-76961997D03*
D52*
%TO.P,U19,9,EP*%
%TO.N,GND*%
X110909106Y-78867001D03*
%TD*%
D19*
%TO.P,R17,2*%
%TO.N,Net-(R17-Pad2)*%
X109167200Y-75666600D03*
%TO.P,R17,1*%
%TO.N,GND*%
X110187200Y-75666600D03*
%TD*%
D30*
%TO.P,R19,1*%
%TO.N,Net-(R19-Pad1)*%
X101496400Y-77686230D03*
%TO.P,R19,2*%
%TO.N,IO0*%
X102516400Y-77686230D03*
%TD*%
D53*
%TO.N,GND*%
X108416393Y-60387402D03*
%TO.N,IO19{slash}LED LETCH EN*%
X99923600Y-64439800D03*
X104648000Y-62026800D03*
%TO.N,IO22{slash}I2C SCL*%
X101092000Y-61163200D03*
X98526600Y-63703200D03*
X100939600Y-63895780D03*
X106222800Y-63068200D03*
X107771705Y-62334221D03*
%TO.N,IO21{slash}I2C SDA*%
X108712000Y-62357000D03*
X100939600Y-64668400D03*
X105308400Y-63169800D03*
D54*
%TO.N,GYRO VDD*%
X109093000Y-63576200D03*
%TO.N,3.3V AFTER MOSFET*%
X100660200Y-72415400D03*
X98983800Y-65024000D03*
D55*
%TO.N,*%
X102971600Y-79705200D03*
X84302600Y-79654400D03*
D54*
%TO.N,Net-(C1-Pad1)*%
X82270600Y-78333600D03*
X85471000Y-83134200D03*
%TO.N,GND*%
X77570500Y-71831200D03*
X112547400Y-74803000D03*
X114869865Y-81575793D03*
X75793600Y-82016600D03*
X76911200Y-60514100D03*
X93048700Y-62043700D03*
X81559834Y-82600366D03*
X109524800Y-55600600D03*
X76820882Y-77774771D03*
X75336400Y-76555600D03*
X73228200Y-77927200D03*
X110649450Y-63303850D03*
D53*
X104165400Y-60426600D03*
D54*
X109905800Y-72593200D03*
X112649000Y-78867000D03*
D53*
X105714800Y-60426600D03*
D54*
X78301162Y-62330873D03*
X87160100Y-76415900D03*
X81026000Y-80060800D03*
X111099600Y-67843400D03*
X107035600Y-77038200D03*
X104978200Y-78613000D03*
X80441800Y-73812400D03*
X106654600Y-79603600D03*
X93065600Y-60463300D03*
X79086688Y-59985888D03*
X88061800Y-59421900D03*
X112598200Y-73177400D03*
X100406200Y-60463300D03*
%TO.N,5V AFTER MOSFET*%
X109674503Y-66041243D03*
X107556900Y-69262260D03*
X77520800Y-65222900D03*
%TO.N,+3V3*%
X97180400Y-63500000D03*
X111912400Y-59105800D03*
X96215200Y-58496200D03*
X89535000Y-58318400D03*
X74459500Y-58775600D03*
X96062800Y-74269600D03*
X94386400Y-61341000D03*
X78130400Y-56921400D03*
X95986600Y-77698600D03*
D53*
%TO.N,3.3V AFTER MOSFET*%
X109539400Y-67447800D03*
D54*
X75742800Y-71577200D03*
X106017493Y-70081564D03*
X112826800Y-66370200D03*
X105884900Y-72415400D03*
X92049600Y-71145400D03*
X89992200Y-72847200D03*
X77514268Y-69741868D03*
X114020600Y-60121800D03*
%TO.N,+5V*%
X111226600Y-59893200D03*
X73050400Y-80213200D03*
X76644500Y-63639700D03*
X75692000Y-60629800D03*
D53*
%TO.N,Net-(C14-Pad2)*%
X108102400Y-65760600D03*
D54*
%TO.N,EN*%
X88569800Y-71819900D03*
%TO.N,IO0*%
X97180400Y-78181200D03*
%TO.N,VBUS*%
X104876600Y-80086200D03*
X113055400Y-76454000D03*
X100584000Y-80314800D03*
X108991400Y-80772000D03*
%TO.N,+BATT*%
X87706200Y-77546200D03*
X101294700Y-78602696D03*
X103479600Y-76733400D03*
X78740000Y-78105000D03*
%TO.N,-BATT*%
X104419400Y-81737200D03*
X109626400Y-74549000D03*
X104596395Y-75114563D03*
%TO.N,IO12{slash}TDI*%
X80746600Y-76073000D03*
X85775800Y-75971400D03*
X75107800Y-75438000D03*
%TO.N,IO13{slash}TCK*%
X88112600Y-73380600D03*
X88276300Y-66954400D03*
X80670400Y-61087000D03*
X89687400Y-74396600D03*
X87985600Y-63627000D03*
X75020439Y-62603598D03*
X90164931Y-68824849D03*
%TO.N,IO14{slash}SCK{slash}TMS*%
X87056600Y-74055600D03*
X75688922Y-63346656D03*
X96774000Y-71170800D03*
X83286600Y-73597100D03*
X104800400Y-69119900D03*
X93700600Y-71043800D03*
X97129600Y-68580000D03*
%TO.N,LED1 DATA OUT*%
X110667800Y-71424800D03*
X87503000Y-68803337D03*
X88646000Y-70332100D03*
X77506700Y-68605400D03*
%TO.N,Net-(P7-Pad1)*%
X108491459Y-83173806D03*
%TO.N,Net-(R4-Pad1)*%
X77570500Y-73177400D03*
X83261200Y-63373000D03*
%TO.N,IO25{slash}VBUS*%
X80899000Y-77216000D03*
X84353400Y-76428600D03*
%TO.N,IO26{slash}BATT VOLT*%
X86918800Y-71069200D03*
X110530108Y-82156900D03*
%TO.N,Net-(R17-Pad2)*%
X106049299Y-73452501D03*
X108026200Y-75565000D03*
%TO.N,Net-(R18-Pad1)*%
X78308200Y-55778400D03*
%TO.N,Net-(R19-Pad1)*%
X89357200Y-77774800D03*
%TO.N,IO33{slash}MAINBUTTON*%
X113639600Y-54940200D03*
X89839800Y-67640200D03*
X93294200Y-58178600D03*
X87477600Y-67716400D03*
%TO.N,IO4{slash}BUTTON2*%
X79591399Y-60908311D03*
X95478600Y-61341000D03*
X96799400Y-61950600D03*
X90398600Y-61468000D03*
%TO.N,IO32{slash}SD*%
X87477600Y-66192400D03*
D53*
X108543100Y-68131700D03*
D54*
%TO.N,IO27{slash}BATT CHARGING*%
X114782600Y-78232000D03*
X111608358Y-70846714D03*
X87148202Y-69824600D03*
X113893600Y-69697600D03*
%TO.N,RXD0*%
X91770200Y-74274778D03*
X97917000Y-62153800D03*
X95021400Y-62331600D03*
%TO.N,TXD0*%
X93319600Y-74269600D03*
%TO.N,IO15{slash}WS{slash}TDO*%
X97815400Y-66014600D03*
D53*
X104648000Y-65842500D03*
D54*
X75333858Y-67385684D03*
X77564557Y-66221444D03*
%TD*%
D56*
%TO.N,LED1 DATA OUT*%
X110667800Y-71424800D02*
X109841531Y-71424800D01*
D57*
%TO.N,Net-(R1-Pad1)*%
X107772711Y-70986766D02*
X108383497Y-70986766D01*
X108383497Y-70986766D02*
X108821531Y-71424800D01*
%TO.N,GND*%
X111023400Y-69064400D02*
X109751600Y-69064400D01*
X109751600Y-69064400D02*
X108940600Y-69875400D01*
X107884077Y-69875400D02*
X107772711Y-69986766D01*
X108940600Y-69875400D02*
X107884077Y-69875400D01*
D58*
%TO.N,IO21{slash}I2C SDA*%
X100939600Y-64668400D02*
X100985480Y-64714280D01*
X100985480Y-64714280D02*
X102548700Y-64714280D01*
D57*
%TO.N,GND*%
X108010867Y-66919488D02*
X108706179Y-67614800D01*
X109550200Y-68199000D02*
X109550200Y-69110800D01*
X108706179Y-67614800D02*
X108966000Y-67614800D01*
X108966000Y-67614800D02*
X109550200Y-68199000D01*
X109550200Y-69110800D02*
X109395200Y-69265800D01*
X111099600Y-67843400D02*
X111099600Y-68988200D01*
X111099600Y-68988200D02*
X111023400Y-69064400D01*
D58*
X108077000Y-64894400D02*
X107825600Y-64894400D01*
X107825600Y-64894400D02*
X107025557Y-65694443D01*
X107025557Y-65694443D02*
X106285949Y-65694443D01*
%TO.N,TXD0*%
X93319600Y-74269600D02*
X93319600Y-73406000D01*
X93319600Y-73406000D02*
X96494600Y-70231000D01*
X96494600Y-70231000D02*
X96494600Y-63042800D01*
X96494600Y-63042800D02*
X95961200Y-62509400D01*
X95961200Y-62509400D02*
X95961200Y-61772800D01*
X95961200Y-61772800D02*
X96647000Y-61087000D01*
X96647000Y-61087000D02*
X100075305Y-61087000D01*
X100075305Y-61087000D02*
X101162585Y-62174280D01*
X101162585Y-62174280D02*
X102548700Y-62174280D01*
%TO.N,IO14{slash}SCK{slash}TMS*%
X96774000Y-71170800D02*
X97129600Y-70815200D01*
X97129600Y-70815200D02*
X97129600Y-68580000D01*
%TO.N,+3V3*%
X97180400Y-63500000D02*
X97078800Y-63601600D01*
X97967800Y-71348600D02*
X96062800Y-73253600D01*
X97078800Y-63601600D02*
X97078800Y-67310000D01*
X97078800Y-67310000D02*
X97967800Y-68199000D01*
X97967800Y-68199000D02*
X97967800Y-71348600D01*
X96062800Y-73253600D02*
X96062800Y-74269600D01*
%TO.N,IO15{slash}WS{slash}TDO*%
X97815400Y-66014600D02*
X97815400Y-67208400D01*
X97815400Y-67208400D02*
X98856800Y-68249800D01*
X98493700Y-75290280D02*
X98493700Y-75874280D01*
X98856800Y-68249800D02*
X98856800Y-71399400D01*
X98856800Y-71399400D02*
X98552000Y-71704200D01*
X98552000Y-71704200D02*
X98552000Y-75231980D01*
X98552000Y-75231980D02*
X98493700Y-75290280D01*
%TO.N,IO4{slash}BUTTON2*%
X96799400Y-61950600D02*
X97942400Y-63093600D01*
X97942400Y-63093600D02*
X97942400Y-64973200D01*
X97942400Y-64973200D02*
X98417400Y-65448200D01*
X98417400Y-65448200D02*
X98417400Y-66946800D01*
X98417400Y-66946800D02*
X99644200Y-68173600D01*
X99644200Y-68173600D02*
X99644200Y-73025000D01*
X99644200Y-73025000D02*
X100223480Y-73604280D01*
X100223480Y-73604280D02*
X102548700Y-73604280D01*
%TO.N,3.3V AFTER MOSFET*%
X100660200Y-72415400D02*
X100406200Y-72161400D01*
X100406200Y-72161400D02*
X100406200Y-67970400D01*
X100406200Y-67970400D02*
X98983800Y-66548000D01*
X98983800Y-66548000D02*
X98983800Y-65024000D01*
%TO.N,GND*%
X108734800Y-60680600D02*
X108709591Y-60680600D01*
X108709591Y-60680600D02*
X108416393Y-60387402D01*
%TO.N,IO18{slash}I2C INT1*%
X104527068Y-64097664D02*
X104527068Y-64382932D01*
X103433720Y-68524280D02*
X102548700Y-68524280D01*
X104527068Y-64382932D02*
X103835200Y-65074800D01*
X103835200Y-65074800D02*
X103835200Y-68122800D01*
X103835200Y-68122800D02*
X103433720Y-68524280D01*
%TO.N,GND*%
X104561032Y-66919488D02*
X104190800Y-67289720D01*
X104190800Y-67289720D02*
X104190800Y-69754677D01*
X104190800Y-69754677D02*
X104422889Y-69986766D01*
%TO.N,IO14{slash}SCK{slash}TMS*%
X104800400Y-69119900D02*
X104622600Y-68942100D01*
X104622600Y-68942100D02*
X104622600Y-68072000D01*
X104622600Y-68072000D02*
X105350169Y-67344431D01*
X105350169Y-67344431D02*
X105610816Y-67344431D01*
%TO.N,GND*%
X106285949Y-65694443D02*
X105216843Y-65694443D01*
X104775000Y-65252600D02*
X104470200Y-65252600D01*
X104470200Y-65252600D02*
X104190800Y-65532000D01*
X104190800Y-65532000D02*
X104190800Y-66549256D01*
X105216843Y-65694443D02*
X104775000Y-65252600D01*
X104190800Y-66549256D02*
X104561032Y-66919488D01*
%TO.N,IO19{slash}LED LETCH EN*%
X100563520Y-67254280D02*
X102548700Y-67254280D01*
X99923600Y-64439800D02*
X99923600Y-66624200D01*
X99923600Y-66624200D02*
X100558600Y-67259200D01*
X100558600Y-67259200D02*
X100563520Y-67254280D01*
%TO.N,RXD0*%
X97917000Y-62153800D02*
X99207480Y-63444280D01*
X99207480Y-63444280D02*
X102548700Y-63444280D01*
%TO.N,IO4{slash}BUTTON2*%
X95478600Y-61341000D02*
X97256600Y-59563000D01*
X97256600Y-59563000D02*
X97256600Y-58064400D01*
X97256600Y-58064400D02*
X96926400Y-57734200D01*
X96926400Y-57734200D02*
X95377000Y-57734200D01*
X95377000Y-57734200D02*
X94183200Y-58928000D01*
X94183200Y-58928000D02*
X91186000Y-58928000D01*
X91186000Y-58928000D02*
X90398600Y-59715400D01*
X90398600Y-59715400D02*
X90398600Y-61468000D01*
%TO.N,RXD0*%
X95021400Y-62331600D02*
X95199200Y-62331600D01*
X96062800Y-63195200D02*
X96062800Y-69697600D01*
X95199200Y-62331600D02*
X96062800Y-63195200D01*
X96062800Y-69697600D02*
X91770200Y-73990200D01*
X91770200Y-73990200D02*
X91770200Y-74274778D01*
%TO.N,+3V3*%
X94386400Y-61341000D02*
X96215200Y-59512200D01*
X96215200Y-59512200D02*
X96215200Y-58496200D01*
%TO.N,IO19{slash}LED LETCH EN*%
X104714140Y-61960660D02*
X104648000Y-62026800D01*
X104714140Y-61204681D02*
X104714140Y-61960660D01*
%TO.N,GND*%
X104165400Y-60426600D02*
X104038400Y-60553600D01*
X104038400Y-60553600D02*
X104038400Y-62407800D01*
X104038400Y-62407800D02*
X104228136Y-62597536D01*
X104228136Y-62597536D02*
X104527068Y-62597536D01*
%TO.N,IO22{slash}I2C SCL*%
X98719180Y-63895780D02*
X98526600Y-63703200D01*
X100939600Y-63895780D02*
X98719180Y-63895780D01*
X101092000Y-61163200D02*
X101350920Y-60904280D01*
X101350920Y-60904280D02*
X102548700Y-60904280D01*
X106222800Y-63068200D02*
X105943400Y-63068200D01*
X105943400Y-63068200D02*
X105789070Y-62913870D01*
X105789070Y-62913870D02*
X105789070Y-62335052D01*
%TO.N,GYRO VDD*%
X109093000Y-63576200D02*
X109448600Y-63576200D01*
X109448600Y-63576200D02*
X109804200Y-63220600D01*
X109804200Y-63220600D02*
X109804200Y-61925200D01*
X109804200Y-61925200D02*
X109573600Y-61694600D01*
X109573600Y-61694600D02*
X109016800Y-61694600D01*
X109093000Y-63576200D02*
X108435200Y-63576200D01*
X108435200Y-63576200D02*
X108077000Y-63934400D01*
%TO.N,IO22{slash}I2C SCL*%
X108051600Y-62614116D02*
X107771705Y-62334221D01*
X108051600Y-62716600D02*
X108051600Y-62614116D01*
%TO.N,IO21{slash}I2C SDA*%
X109016800Y-62714600D02*
X109016800Y-62661800D01*
X109016800Y-62661800D02*
X108712000Y-62357000D01*
D56*
%TO.N,+5V*%
X111226600Y-59893200D02*
X111631000Y-60297600D01*
X111631000Y-60297600D02*
X111963200Y-60297600D01*
D58*
%TO.N,IO21{slash}I2C SDA*%
X105289197Y-62335052D02*
X105289197Y-63150597D01*
X105289197Y-63150597D02*
X105308400Y-63169800D01*
%TO.N,GND*%
X105789070Y-64360148D02*
X105789070Y-63904470D01*
X105789070Y-63904470D02*
X105562400Y-63677800D01*
X105562400Y-63677800D02*
X104607332Y-63677800D01*
X104607332Y-63677800D02*
X104527068Y-63597536D01*
%TO.N,GYRO VDD*%
X105289197Y-64360148D02*
X105289197Y-64826997D01*
X105289197Y-64826997D02*
X105537000Y-65074800D01*
X107051072Y-64754528D02*
X107051072Y-64097664D01*
X105537000Y-65074800D02*
X106730800Y-65074800D01*
X106730800Y-65074800D02*
X107051072Y-64754528D01*
%TO.N,Net-(R14-Pad1)*%
X110210600Y-61264800D02*
X110210600Y-62204600D01*
X109634059Y-60688259D02*
X110210600Y-61264800D01*
X109634059Y-60419476D02*
X109634059Y-60688259D01*
X112649000Y-61849762D02*
X112649000Y-58902600D01*
X112649000Y-58902600D02*
X113233200Y-58318400D01*
X110210600Y-62204600D02*
X110540800Y-62534800D01*
X110540800Y-62534800D02*
X111963962Y-62534800D01*
X111963962Y-62534800D02*
X112649000Y-61849762D01*
X113233200Y-58318400D02*
X113233200Y-57558400D01*
%TO.N,GYRO VDD*%
X108077000Y-63934400D02*
X107744200Y-63934400D01*
X107744200Y-63934400D02*
X107580936Y-64097664D01*
X107580936Y-64097664D02*
X107051072Y-64097664D01*
D56*
%TO.N,Net-(C1-Pad1)*%
X84315000Y-77597000D02*
X83007200Y-77597000D01*
X85471000Y-83134200D02*
X86664800Y-84328000D01*
D59*
X82245200Y-73939400D02*
X82245200Y-75064362D01*
D56*
X82695038Y-77909162D02*
X82695038Y-75412600D01*
D59*
X82245200Y-75064362D02*
X82695038Y-75514200D01*
X81620000Y-71696330D02*
X81620000Y-73314200D01*
D56*
X82270600Y-78333600D02*
X82695038Y-77909162D01*
X99665700Y-84328000D02*
X101469100Y-82524600D01*
X86664800Y-84328000D02*
X99665700Y-84328000D01*
D59*
X81620000Y-73314200D02*
X82245200Y-73939400D01*
D56*
X83007200Y-77597000D02*
X82270600Y-78333600D01*
D58*
%TO.N,GND*%
X108364354Y-57629579D02*
X103283401Y-57629579D01*
D56*
X104414800Y-77686230D02*
X104414800Y-78049600D01*
X104672889Y-69986766D02*
X104920234Y-69986766D01*
D59*
X74281970Y-72517000D02*
X72948800Y-71183830D01*
D56*
X111276470Y-72627261D02*
X111276470Y-72568730D01*
X102548700Y-58364280D02*
X101173120Y-58364280D01*
X110909106Y-78867001D02*
X112649000Y-78867000D01*
D59*
X82270000Y-71696330D02*
X82270000Y-70458830D01*
D56*
X105664102Y-61204681D02*
X105664102Y-60477298D01*
D60*
X75793600Y-82702400D02*
X75793600Y-82016600D01*
D56*
X108000800Y-79502002D02*
X110274105Y-79502002D01*
D59*
X80970000Y-71696330D02*
X80970000Y-69158830D01*
X79670000Y-71696330D02*
X79670000Y-69808830D01*
D56*
X107221970Y-76470830D02*
X107575763Y-76470830D01*
X87701720Y-75874280D02*
X87160100Y-76415900D01*
D60*
X77724000Y-84632800D02*
X75793600Y-82702400D01*
D56*
X114947600Y-83402970D02*
X114147600Y-84202970D01*
D60*
X87757000Y-83210400D02*
X86563200Y-82016600D01*
D56*
X79086688Y-59985888D02*
X78874576Y-60198000D01*
D59*
X77570500Y-70816300D02*
X77570500Y-71831200D01*
D58*
X106289197Y-64360148D02*
X105789070Y-64360148D01*
D56*
X86639400Y-76936600D02*
X86639400Y-77876400D01*
X106680000Y-76470830D02*
X107221970Y-76470830D01*
D58*
X109395200Y-69265800D02*
X109395200Y-69187000D01*
X80320000Y-69158830D02*
X80645000Y-68833830D01*
D56*
X108328753Y-77223820D02*
X109332055Y-77223820D01*
D58*
X93048700Y-67699280D02*
X93048700Y-64029280D01*
D56*
X104920234Y-69986766D02*
X105717400Y-69189600D01*
D60*
X89164030Y-83210400D02*
X87757000Y-83210400D01*
D58*
X83248200Y-60706000D02*
X81724200Y-59182000D01*
D56*
X76911200Y-59004200D02*
X76619379Y-58712379D01*
D58*
X94883700Y-67699280D02*
X91213700Y-67699280D01*
D56*
X111276470Y-72568730D02*
X112661370Y-71183830D01*
D60*
X86563200Y-82016600D02*
X82296000Y-82016600D01*
X81127600Y-84254782D02*
X80749582Y-84632800D01*
D56*
X87004180Y-58364280D02*
X88061800Y-59421900D01*
D58*
X74510600Y-55410400D02*
X74803000Y-55118000D01*
D56*
X85548700Y-58364280D02*
X82541920Y-58364280D01*
X90469030Y-81706030D02*
X90668400Y-81706030D01*
D58*
X110604600Y-63348700D02*
X110604600Y-64211200D01*
X80390000Y-79375000D02*
X80390000Y-79424800D01*
X81620000Y-67858830D02*
X80645000Y-68833830D01*
X82016430Y-68833830D02*
X80645000Y-68833830D01*
D56*
X76619379Y-58712379D02*
X76026902Y-58712379D01*
X107035600Y-77038200D02*
X107035600Y-76657200D01*
D61*
X93048700Y-62043700D02*
X93048700Y-60480200D01*
D60*
X90668400Y-81706030D02*
X89164030Y-83210400D01*
D57*
X73819800Y-81566800D02*
X74269600Y-82016600D01*
X74269600Y-82016600D02*
X75793600Y-82016600D01*
D59*
X82920000Y-71696330D02*
X82920000Y-69737400D01*
D58*
X108684097Y-57709303D02*
X108684097Y-57949322D01*
D56*
X87160100Y-76415900D02*
X86639400Y-76936600D01*
X105717400Y-69189600D02*
X105717400Y-68713081D01*
D58*
X94883700Y-67699280D02*
X94883700Y-64029280D01*
X91213700Y-67699280D02*
X91213700Y-64029280D01*
X91213700Y-65864280D02*
X94883700Y-65864280D01*
X80645000Y-68833830D02*
X79552970Y-68833830D01*
D56*
X101173120Y-58364280D02*
X100406200Y-59131200D01*
D58*
X80390000Y-79424800D02*
X81026000Y-80060800D01*
X76504800Y-55118000D02*
X76911200Y-55524400D01*
X74510600Y-56286400D02*
X74510600Y-55410400D01*
D56*
X104414800Y-78049600D02*
X104978200Y-78613000D01*
X111237059Y-76875341D02*
X113868200Y-74244200D01*
D58*
X73279000Y-55781000D02*
X74005200Y-55781000D01*
D60*
X81127600Y-83185000D02*
X81127600Y-84254782D01*
D62*
X78008635Y-62623400D02*
X77292200Y-62623400D01*
D56*
X110274105Y-79502002D02*
X110909106Y-78867001D01*
D58*
X109651800Y-56741600D02*
X108684097Y-57709303D01*
D56*
X110187200Y-75666600D02*
X111237059Y-76716459D01*
D58*
X110649450Y-63303850D02*
X110604600Y-63348700D01*
D56*
X107575763Y-76470830D02*
X108328753Y-77223820D01*
X109332055Y-77223820D02*
X111237059Y-79128824D01*
X104422889Y-69986766D02*
X104672889Y-69986766D01*
D59*
X77570500Y-71831200D02*
X76884700Y-72517000D01*
D58*
X108684097Y-57949322D02*
X108364354Y-57629579D01*
X107393767Y-68144532D02*
X106285949Y-68144532D01*
D56*
X112661370Y-71183830D02*
X114300000Y-71183830D01*
X100406200Y-59131200D02*
X100406200Y-60463300D01*
D58*
X104561032Y-66812768D02*
X104561032Y-66919488D01*
X107905435Y-68656200D02*
X107393767Y-68144532D01*
D56*
X86639400Y-77876400D02*
X90469030Y-81706030D01*
D58*
X80970000Y-69158830D02*
X80645000Y-68833830D01*
D59*
X81620000Y-65971330D02*
X81620000Y-67858830D01*
D56*
X107035600Y-76657200D02*
X107221970Y-76470830D01*
D59*
X76555571Y-77774771D02*
X75336400Y-76555600D01*
D56*
X78874576Y-60198000D02*
X78701600Y-60198000D01*
D58*
X83274200Y-60706000D02*
X83248200Y-60706000D01*
D56*
X78701600Y-60198000D02*
X78079600Y-59576000D01*
X113868200Y-74244200D02*
X113868200Y-74155000D01*
D58*
X109395200Y-69187000D02*
X108864400Y-68656200D01*
D56*
X114869865Y-81575793D02*
X114947600Y-81653528D01*
X88333700Y-75874280D02*
X87701720Y-75874280D01*
X111237059Y-76716459D02*
X111237059Y-79128824D01*
D58*
X82270000Y-70458830D02*
X80645000Y-68833830D01*
X93048700Y-60480200D02*
X93065600Y-60463300D01*
D59*
X79552970Y-68833830D02*
X77570500Y-70816300D01*
D61*
X93048700Y-64029280D02*
X93048700Y-62043700D01*
D58*
X91213700Y-64029280D02*
X94883700Y-64029280D01*
D59*
X80320000Y-71696330D02*
X80320000Y-69158830D01*
D57*
X73819800Y-79070200D02*
X73819800Y-81305400D01*
D58*
X108839000Y-66824800D02*
X108105555Y-66824800D01*
D60*
X82296000Y-82016600D02*
X81127600Y-83185000D01*
D59*
X76884700Y-72517000D02*
X74281970Y-72517000D01*
D58*
X104527068Y-62597536D02*
X104527068Y-63597536D01*
X79670000Y-69808830D02*
X80645000Y-68833830D01*
D56*
X111237059Y-79128824D02*
X111237059Y-76875341D01*
D62*
X78301162Y-62330873D02*
X78008635Y-62623400D01*
D56*
X85548700Y-58364280D02*
X87004180Y-58364280D01*
D58*
X82920000Y-69737400D02*
X82016430Y-68833830D01*
D60*
X90668400Y-81880000D02*
X90668400Y-81706030D01*
D56*
X105664102Y-60477298D02*
X105714800Y-60426600D01*
D58*
X74005200Y-55781000D02*
X74510600Y-56286400D01*
D59*
X76820882Y-77774771D02*
X76555571Y-77774771D01*
D58*
X108105555Y-66824800D02*
X108010867Y-66919488D01*
D60*
X80749582Y-84632800D02*
X77724000Y-84632800D01*
D58*
X108864400Y-68656200D02*
X107905435Y-68656200D01*
D57*
X73819800Y-81305400D02*
X73819800Y-81566800D01*
D56*
X76911200Y-60514100D02*
X76911200Y-59004200D01*
D57*
X111099600Y-67843400D02*
X111015838Y-67759638D01*
D56*
X86144400Y-77876400D02*
X85865000Y-77597000D01*
X86639400Y-77876400D02*
X86144400Y-77876400D01*
X82541920Y-58364280D02*
X81724200Y-59182000D01*
X114947600Y-81653528D02*
X114947600Y-83402970D01*
D58*
X76911200Y-55524400D02*
X76911200Y-59004200D01*
X103283401Y-57629579D02*
X102548700Y-58364280D01*
D56*
X105717400Y-68713081D02*
X106285949Y-68144532D01*
D59*
X81620000Y-65971330D02*
X81620000Y-64025400D01*
X81620000Y-64025400D02*
X81866000Y-63779400D01*
D58*
X74803000Y-55118000D02*
X76504800Y-55118000D01*
D56*
%TO.N,5V AFTER MOSFET*%
X73139630Y-64732230D02*
X72948800Y-64732230D01*
X111797770Y-65037030D02*
X111797770Y-64732230D01*
X110793557Y-66041243D02*
X111797770Y-65037030D01*
X111785400Y-64719860D02*
X111797770Y-64732230D01*
X111797770Y-64732230D02*
X114300000Y-64732230D01*
D57*
X106996093Y-71486893D02*
X106984800Y-71475600D01*
X108321230Y-69265800D02*
X108435200Y-69151830D01*
D56*
X77491100Y-65252600D02*
X73660000Y-65252600D01*
X111785400Y-63585600D02*
X111785400Y-64719860D01*
X107556900Y-69262260D02*
X107641660Y-69262260D01*
D57*
X106984800Y-69850000D02*
X107569000Y-69265800D01*
X106984800Y-71475600D02*
X106984800Y-69850000D01*
X107772711Y-71486893D02*
X106996093Y-71486893D01*
D56*
X73660000Y-65252600D02*
X73139630Y-64732230D01*
D57*
X107569000Y-69265800D02*
X108321230Y-69265800D01*
D56*
X109674503Y-66041243D02*
X110793557Y-66041243D01*
X77520800Y-65222900D02*
X77491100Y-65252600D01*
%TO.N,+3V3*%
X112736078Y-56538400D02*
X113233200Y-56538400D01*
D58*
X109708734Y-59105800D02*
X109132059Y-59682475D01*
D56*
X112283238Y-57488362D02*
X112283238Y-57826400D01*
D58*
X109132059Y-59682475D02*
X106393075Y-59682475D01*
D56*
X89052400Y-60299600D02*
X88696800Y-60655200D01*
X74459500Y-58775600D02*
X74313439Y-58775600D01*
D58*
X74019457Y-53717143D02*
X72617800Y-55118800D01*
X97688400Y-77393800D02*
X96291400Y-77393800D01*
X105664102Y-58953502D02*
X105664102Y-58404579D01*
D56*
X111912400Y-58197238D02*
X112283238Y-57826400D01*
D58*
X96291400Y-77393800D02*
X95986600Y-77698600D01*
D56*
X88696800Y-60655200D02*
X87858600Y-60655200D01*
X86837680Y-59634280D02*
X85548700Y-59634280D01*
D58*
X78079600Y-56972200D02*
X78130400Y-56921400D01*
D56*
X83726480Y-59634280D02*
X83274200Y-59182000D01*
D58*
X72617800Y-55118800D02*
X72617800Y-58853443D01*
D56*
X111912400Y-59105800D02*
X111912400Y-58197238D01*
X110325407Y-54127729D02*
X112736078Y-56538400D01*
D58*
X78079600Y-58026000D02*
X78420200Y-58026000D01*
D56*
X78079600Y-58026000D02*
X78079600Y-56972200D01*
D58*
X74474321Y-53717143D02*
X74019457Y-53717143D01*
D56*
X89052400Y-58801000D02*
X89052400Y-60299600D01*
X89535000Y-58318400D02*
X89052400Y-58801000D01*
D58*
X99058000Y-77673200D02*
X97967800Y-77673200D01*
X72617800Y-58853443D02*
X73426698Y-59662341D01*
X111912400Y-59105800D02*
X109708734Y-59105800D01*
D56*
X74313439Y-58775600D02*
X73426698Y-59662341D01*
D58*
X78420200Y-58026000D02*
X79398400Y-59004200D01*
X106393075Y-59682475D02*
X105664102Y-58953502D01*
D56*
X87858600Y-60655200D02*
X86837680Y-59634280D01*
X113233200Y-56538400D02*
X112283238Y-57488362D01*
D58*
X97967800Y-77673200D02*
X97688400Y-77393800D01*
D56*
X85548700Y-59634280D02*
X83726480Y-59634280D01*
X110325407Y-53480541D02*
X110325407Y-54127729D01*
D58*
%TO.N,3.3V AFTER MOSFET*%
X112496600Y-66370200D02*
X112826800Y-66370200D01*
D56*
X89992200Y-72847200D02*
X90601800Y-72847200D01*
D58*
X111785400Y-67081400D02*
X112496600Y-66370200D01*
D56*
X105410000Y-70510400D02*
X105410000Y-71247000D01*
D58*
X113233200Y-59826400D02*
X113725200Y-59826400D01*
D56*
X104672889Y-71486893D02*
X104956393Y-71486893D01*
D58*
X109539400Y-67447800D02*
X109905800Y-67081400D01*
D56*
X75742800Y-71513336D02*
X75742800Y-71577200D01*
D58*
X106677400Y-69421657D02*
X106017493Y-70081564D01*
D56*
X104956393Y-71486893D02*
X105884900Y-72415400D01*
X77514268Y-69741868D02*
X75742800Y-71513336D01*
X105410000Y-71247000D02*
X105170107Y-71486893D01*
X92049600Y-71399400D02*
X92049600Y-71145400D01*
X106017493Y-70081564D02*
X105838836Y-70081564D01*
X105170107Y-71486893D02*
X104672889Y-71486893D01*
D58*
X113725200Y-59826400D02*
X114020600Y-60121800D01*
X109905800Y-67081400D02*
X111785400Y-67081400D01*
D56*
X105838836Y-70081564D02*
X105410000Y-70510400D01*
X90601800Y-72847200D02*
X92049600Y-71399400D01*
D58*
X106677400Y-69189600D02*
X106677400Y-69421657D01*
D56*
%TO.N,+5V*%
X75184000Y-58039000D02*
X75184000Y-59461400D01*
X75184000Y-59461400D02*
X75384941Y-59662341D01*
D60*
X78916000Y-63779400D02*
X78522000Y-64173400D01*
X72974200Y-80289400D02*
X72974200Y-82651600D01*
D56*
X110835438Y-61585600D02*
X110835438Y-61425362D01*
D59*
X79654400Y-63779400D02*
X78916000Y-63779400D01*
D56*
X76026902Y-60294898D02*
X76026902Y-59662341D01*
D60*
X76644500Y-63639700D02*
X77178200Y-64173400D01*
D59*
X79670000Y-64533400D02*
X78916000Y-63779400D01*
D56*
X75692000Y-60629800D02*
X76026902Y-60294898D01*
D59*
X79020000Y-65971330D02*
X79020000Y-63883400D01*
D56*
X75384941Y-59662341D02*
X76026902Y-59662341D01*
D58*
X76026902Y-56320098D02*
X76060600Y-56286400D01*
D60*
X77178200Y-64173400D02*
X77292200Y-64173400D01*
X73050400Y-80213200D02*
X72974200Y-80289400D01*
D56*
X76026902Y-57762417D02*
X75460583Y-57762417D01*
D59*
X80320000Y-64445000D02*
X79654400Y-63779400D01*
X80320000Y-65971330D02*
X80320000Y-64445000D01*
D61*
X74193369Y-83325005D02*
X73647605Y-83325005D01*
D56*
X110835438Y-61425362D02*
X111963200Y-60297600D01*
D60*
X72974200Y-82651600D02*
X73647605Y-83325005D01*
D56*
X76026902Y-57762417D02*
X76026902Y-56320098D01*
X75460583Y-57762417D02*
X75184000Y-58039000D01*
D58*
X79020000Y-63883400D02*
X78916000Y-63779400D01*
D60*
X78522000Y-64173400D02*
X77292200Y-64173400D01*
D59*
X79670000Y-65971330D02*
X79670000Y-64533400D01*
D58*
%TO.N,Net-(C8-Pad2)*%
X73279000Y-57614719D02*
X73426698Y-57762417D01*
X73279000Y-56741000D02*
X73279000Y-57614719D01*
%TO.N,Net-(C14-Pad2)*%
X106961083Y-66494545D02*
X107216055Y-66494545D01*
X109054600Y-65649200D02*
X108839000Y-65864800D01*
X108102400Y-65760600D02*
X108734800Y-65760600D01*
X107950000Y-65760600D02*
X108102400Y-65760600D01*
X108734800Y-65760600D02*
X108839000Y-65864800D01*
X109054600Y-64211200D02*
X109054600Y-65649200D01*
X107216055Y-66494545D02*
X107950000Y-65760600D01*
%TO.N,EN*%
X89433400Y-70866000D02*
X89433400Y-69291200D01*
X84459920Y-60904280D02*
X85548700Y-60904280D01*
X88569800Y-71729600D02*
X89433400Y-70866000D01*
X82651600Y-61468000D02*
X83896200Y-61468000D01*
X88950800Y-68808600D02*
X88950800Y-62865000D01*
X80418400Y-59400200D02*
X81724200Y-60706000D01*
X80418400Y-57988200D02*
X80418400Y-59004200D01*
X81889600Y-60706000D02*
X82651600Y-61468000D01*
X88569800Y-71819900D02*
X88569800Y-71729600D01*
X80418400Y-59004200D02*
X80418400Y-59400200D01*
X86990080Y-60904280D02*
X85548700Y-60904280D01*
X89433400Y-69291200D02*
X88950800Y-68808600D01*
X88950800Y-62865000D02*
X86990080Y-60904280D01*
X83896200Y-61468000D02*
X84459920Y-60904280D01*
X81724200Y-60706000D02*
X81889600Y-60706000D01*
%TO.N,IO0*%
X102548700Y-77653930D02*
X102548700Y-76953100D01*
X100101400Y-77673200D02*
X100914200Y-76860400D01*
D56*
X103454800Y-77686230D02*
X102516400Y-77686230D01*
D58*
X97459800Y-78460600D02*
X99241138Y-78460600D01*
D56*
X102516400Y-77686230D02*
X102548700Y-77653930D01*
X100078000Y-77673200D02*
X100028538Y-77673200D01*
X100078000Y-77673200D02*
X100101400Y-77673200D01*
D58*
X100914200Y-76860400D02*
X102456000Y-76860400D01*
X102456000Y-76860400D02*
X102548700Y-76953100D01*
X99241138Y-78460600D02*
X100028538Y-77673200D01*
X102548700Y-76953100D02*
X102548700Y-74874280D01*
X97180400Y-78181200D02*
X97459800Y-78460600D01*
D56*
%TO.N,VBUS*%
X103657400Y-78486000D02*
X104876600Y-79705200D01*
X113804400Y-75705000D02*
X113055400Y-76454000D01*
X100720305Y-80314800D02*
X102020200Y-79014905D01*
X113817412Y-76961997D02*
X113817412Y-75755788D01*
D60*
X80943155Y-81706030D02*
X80333992Y-82315192D01*
D56*
X104876600Y-79705200D02*
X104876600Y-80086200D01*
D60*
X88468400Y-81706030D02*
X87864570Y-81102200D01*
D56*
X102539800Y-78486000D02*
X103657400Y-78486000D01*
D57*
X77158600Y-81557192D02*
X78926413Y-83325005D01*
D56*
X113817412Y-75755788D02*
X113868200Y-75705000D01*
X102020200Y-79005600D02*
X102539800Y-78486000D01*
D57*
X79529400Y-80721200D02*
X79958325Y-80721200D01*
D60*
X81546985Y-81102200D02*
X80943155Y-81706030D01*
D57*
X79958325Y-80721200D02*
X80943155Y-81706030D01*
D56*
X108991400Y-80772000D02*
X108000805Y-80772000D01*
D57*
X74839800Y-81305400D02*
X75007438Y-81137762D01*
D56*
X102020200Y-79014905D02*
X102020200Y-79005600D01*
X100584000Y-80314800D02*
X100720305Y-80314800D01*
D57*
X78926413Y-83325005D02*
X79324180Y-83325005D01*
D56*
X108000805Y-80772000D02*
X108000800Y-80772005D01*
D57*
X75007438Y-81137762D02*
X77158600Y-81137762D01*
D60*
X80333992Y-82315192D02*
X79324180Y-83325005D01*
X87864570Y-81102200D02*
X81546985Y-81102200D01*
D57*
X77158600Y-81137762D02*
X77158600Y-81557192D01*
D56*
X113868200Y-75705000D02*
X113804400Y-75705000D01*
D57*
%TO.N,+BATT*%
X100319196Y-79578200D02*
X89738200Y-79578200D01*
D56*
X105740200Y-83011100D02*
X105740200Y-77104030D01*
D58*
X113347600Y-83452970D02*
X113347600Y-83836600D01*
D57*
X103479600Y-76733400D02*
X104302830Y-76733400D01*
X89738200Y-79578200D02*
X87706200Y-77546200D01*
D56*
X105359200Y-76723030D02*
X104373200Y-76723030D01*
X106506100Y-82245200D02*
X105740200Y-83011100D01*
X114098170Y-82652970D02*
X112877600Y-81432400D01*
X109305600Y-82245200D02*
X106506100Y-82245200D01*
D57*
X104302830Y-76733400D02*
X104343200Y-76693030D01*
D56*
X109305600Y-81956400D02*
X109305600Y-82245200D01*
D58*
X113347600Y-83836600D02*
X112699800Y-84484400D01*
D56*
X104373200Y-76723030D02*
X104343200Y-76693030D01*
X105740200Y-77104030D02*
X105359200Y-76723030D01*
X114145365Y-82650735D02*
X114147600Y-82652970D01*
D58*
X114187370Y-82613200D02*
X113347600Y-83452970D01*
D57*
X78291438Y-78105000D02*
X77158600Y-79237838D01*
X101294700Y-78602696D02*
X100319196Y-79578200D01*
D56*
X114145365Y-81033828D02*
X114145365Y-82650735D01*
D57*
X78740000Y-78105000D02*
X78291438Y-78105000D01*
D56*
X114147600Y-82652970D02*
X114098170Y-82652970D01*
X112877600Y-81432400D02*
X109829600Y-81432400D01*
X109829600Y-81432400D02*
X109305600Y-81956400D01*
%TO.N,-BATT*%
X104343200Y-75733030D02*
X104343200Y-74927104D01*
X111633000Y-83462400D02*
X111633000Y-83466400D01*
D58*
X111633000Y-83466400D02*
X110617000Y-84482400D01*
D56*
X111276470Y-74527185D02*
X109648215Y-74527185D01*
X104596395Y-75114563D02*
X104722210Y-74988748D01*
D58*
X110339600Y-84759800D02*
X110617000Y-84482400D01*
D56*
X109648215Y-74527185D02*
X109626400Y-74549000D01*
X104343200Y-74927104D02*
X104722210Y-74548094D01*
D58*
X104419400Y-81737200D02*
X104419400Y-84201000D01*
X104978200Y-84759800D02*
X110339600Y-84759800D01*
X104419400Y-84201000D02*
X104978200Y-84759800D01*
D56*
X104722210Y-74988748D02*
X104722210Y-74548094D01*
D58*
%TO.N,IO12{slash}TDI*%
X85775800Y-75971400D02*
X85775800Y-75101380D01*
X80111600Y-76708000D02*
X80111600Y-76885800D01*
X85775800Y-75101380D02*
X85548700Y-74874280D01*
X80746600Y-76073000D02*
X80111600Y-76708000D01*
X80111600Y-76885800D02*
X79679800Y-77317600D01*
X79679800Y-77317600D02*
X78181200Y-77317600D01*
X77470000Y-77470000D02*
X75438000Y-75438000D01*
X78181200Y-77317600D02*
X78028800Y-77470000D01*
X75438000Y-75438000D02*
X75107800Y-75438000D01*
X78028800Y-77470000D02*
X77470000Y-77470000D01*
%TO.N,IO13{slash}TCK*%
X89687400Y-74396600D02*
X89603700Y-74480300D01*
X89603700Y-74480300D02*
X89603700Y-75874280D01*
X75020439Y-62603598D02*
X76435437Y-61188600D01*
X90164931Y-71328269D02*
X90164931Y-68824849D01*
X79363379Y-61634179D02*
X80123221Y-61634179D01*
X76435437Y-61188600D02*
X78917800Y-61188600D01*
X80123221Y-61634179D02*
X80670400Y-61087000D01*
X88112600Y-73380600D02*
X90164931Y-71328269D01*
X87985600Y-63627000D02*
X88276300Y-63917700D01*
X78917800Y-61188600D02*
X79363379Y-61634179D01*
X88276300Y-63917700D02*
X88276300Y-66954400D01*
%TO.N,IO14{slash}SCK{slash}TMS*%
X83667600Y-73216100D02*
X83286600Y-73597100D01*
X75688922Y-63346656D02*
X75688922Y-62741078D01*
X86000020Y-74055600D02*
X85548700Y-73604280D01*
X83515200Y-62204600D02*
X84175600Y-62865000D01*
X76809600Y-61620400D02*
X78689200Y-61620400D01*
X93700600Y-71043800D02*
X93446600Y-71043800D01*
X83667600Y-67792600D02*
X83667600Y-73216100D01*
X87056600Y-74055600D02*
X86000020Y-74055600D01*
X93446600Y-71043800D02*
X90932000Y-73558400D01*
X84175600Y-62865000D02*
X84175600Y-67284600D01*
X79273400Y-62204600D02*
X83515200Y-62204600D01*
X78689200Y-61620400D02*
X79273400Y-62204600D01*
X89154000Y-73558400D02*
X88656800Y-74055600D01*
X75688922Y-62741078D02*
X76809600Y-61620400D01*
X90932000Y-73558400D02*
X89154000Y-73558400D01*
X88656800Y-74055600D02*
X87056600Y-74055600D01*
X84175600Y-67284600D02*
X83667600Y-67792600D01*
%TO.N,GYRO VDD*%
X106984800Y-62052200D02*
X106572049Y-62052200D01*
X108051600Y-61696600D02*
X108051600Y-60957400D01*
X109016800Y-61694600D02*
X108053600Y-61694600D01*
X106572049Y-62052200D02*
X106289197Y-62335052D01*
X107340400Y-61696600D02*
X106984800Y-62052200D01*
X108053600Y-61694600D02*
X108051600Y-61696600D01*
X108051600Y-61696600D02*
X107340400Y-61696600D01*
X108051600Y-60957400D02*
X107774800Y-60680600D01*
%TO.N,LED1 DATA OUT*%
X88529863Y-70215963D02*
X88529863Y-69830200D01*
X88529863Y-69830200D02*
X87503000Y-68803337D01*
X76465300Y-69646800D02*
X74586770Y-69646800D01*
X74586770Y-69646800D02*
X72948800Y-68008830D01*
X77506700Y-68605400D02*
X76465300Y-69646800D01*
X88646000Y-70332100D02*
X88529863Y-70215963D01*
D57*
%TO.N,LED2 DATA OUT*%
X114300000Y-68008830D02*
X113626570Y-68008830D01*
D58*
X113626570Y-68008830D02*
X113626570Y-68262830D01*
X113626570Y-68262830D02*
X111785400Y-70104000D01*
X110376931Y-70104000D02*
X109843531Y-70637400D01*
X111785400Y-70104000D02*
X110376931Y-70104000D01*
D56*
%TO.N,Net-(P7-Pad1)*%
X108480265Y-83185000D02*
X107573970Y-83185000D01*
X108491459Y-83173806D02*
X108480265Y-83185000D01*
D57*
%TO.N,Net-(R2-Pad1)*%
X107772711Y-70486893D02*
X108823531Y-70486893D01*
D58*
%TO.N,Net-(R4-Pad1)*%
X74320400Y-75057000D02*
X74320400Y-77647800D01*
X74803000Y-79033400D02*
X74839800Y-79070200D01*
D57*
X75158600Y-79389000D02*
X74839800Y-79070200D01*
D58*
X83261200Y-63373000D02*
X83261200Y-65630130D01*
X77570500Y-73177400D02*
X76682600Y-73177400D01*
X76682600Y-73177400D02*
X75311000Y-74549000D01*
X74828400Y-74549000D02*
X74320400Y-75057000D01*
X83261200Y-65630130D02*
X82920000Y-65971330D01*
X74803000Y-78130400D02*
X74803000Y-79033400D01*
D57*
X75158600Y-80187800D02*
X75158600Y-79389000D01*
D58*
X75311000Y-74549000D02*
X74828400Y-74549000D01*
X74320400Y-77647800D02*
X74803000Y-78130400D01*
D56*
%TO.N,Net-(U18-Pad6)*%
X107020406Y-74548094D02*
X108455459Y-74548094D01*
X108455459Y-74548094D02*
X108476368Y-74527185D01*
D58*
%TO.N,IO25{slash}VBUS*%
X80899000Y-77216000D02*
X78740000Y-79375000D01*
X84536120Y-69794280D02*
X84150200Y-70180200D01*
D57*
X78509400Y-79605600D02*
X78740000Y-79375000D01*
X78509400Y-80721200D02*
X78509400Y-79605600D01*
D58*
X84150200Y-76225400D02*
X84353400Y-76428600D01*
X84150200Y-70180200D02*
X84150200Y-76225400D01*
X85548700Y-69794280D02*
X84536120Y-69794280D01*
%TO.N,Net-(R11-Pad2)*%
X109901962Y-83462400D02*
X109229400Y-84134962D01*
X110617000Y-83462400D02*
X109901962Y-83462400D01*
%TO.N,IO26{slash}BATT VOLT*%
X86913880Y-71064280D02*
X85548700Y-71064280D01*
D56*
X111633000Y-84482400D02*
X111681800Y-84482400D01*
D58*
X112699800Y-83083400D02*
X111912400Y-82296000D01*
X112699800Y-83464400D02*
X112699800Y-83083400D01*
X111681800Y-84482400D02*
X112699800Y-83464400D01*
X86918800Y-71069200D02*
X86913880Y-71064280D01*
X111912400Y-82296000D02*
X110669208Y-82296000D01*
X110669208Y-82296000D02*
X110530108Y-82156900D01*
D56*
%TO.N,Net-(R14-Pad1)*%
X113233200Y-57558400D02*
X113915162Y-57558400D01*
D58*
X112645162Y-61317600D02*
X112913162Y-61585600D01*
D56*
X113915162Y-57558400D02*
X114183162Y-57826400D01*
D58*
X111963200Y-61317600D02*
X112645162Y-61317600D01*
%TO.N,Net-(R15-Pad2)*%
X109651800Y-58220620D02*
X109651800Y-57761600D01*
X106614064Y-58658864D02*
X107010200Y-59055000D01*
X109651800Y-57761600D02*
X110396299Y-57761600D01*
X108817420Y-59055000D02*
X109651800Y-58220620D01*
X107010200Y-59055000D02*
X108817420Y-59055000D01*
X110396299Y-57761600D02*
X110584021Y-57949322D01*
X106614064Y-58404579D02*
X106614064Y-58658864D01*
%TO.N,Net-(R17-Pad2)*%
X106049299Y-73452501D02*
X106116901Y-73452501D01*
X109167200Y-75666600D02*
X108204000Y-75666600D01*
X106262532Y-73598132D02*
X107020406Y-73598132D01*
X106116901Y-73452501D02*
X106262532Y-73598132D01*
X108204000Y-75666600D02*
X108127800Y-75666600D01*
X108127800Y-75666600D02*
X108026200Y-75565000D01*
%TO.N,Net-(R18-Pad1)*%
X79398400Y-57988200D02*
X79398400Y-56868600D01*
X79398400Y-56868600D02*
X78308200Y-55778400D01*
D57*
%TO.N,Net-(R19-Pad1)*%
X99822000Y-79019400D02*
X101155170Y-77686230D01*
X90601800Y-79019400D02*
X99822000Y-79019400D01*
X101155170Y-77686230D02*
X101496400Y-77686230D01*
X89357200Y-77774800D02*
X90601800Y-79019400D01*
D56*
%TO.N,Net-(R22-Pad1)*%
X106680000Y-78295830D02*
X108130760Y-78295830D01*
%TO.N,Net-(R23-Pad1)*%
X105398970Y-75703030D02*
X105867200Y-75234800D01*
X105359200Y-75703030D02*
X105398970Y-75703030D01*
X105867200Y-75234800D02*
X105867200Y-74295000D01*
X105867200Y-74295000D02*
X105170332Y-73598132D01*
X105170332Y-73598132D02*
X104722210Y-73598132D01*
D58*
%TO.N,IO33{slash}MAINBUTTON*%
X86669720Y-68524280D02*
X85548700Y-68524280D01*
X87477600Y-67716400D02*
X86669720Y-68524280D01*
X93281600Y-58166000D02*
X90830400Y-58166000D01*
X89723600Y-67524000D02*
X89839800Y-67640200D01*
X113675419Y-54904381D02*
X113639600Y-54940200D01*
X113675419Y-53480541D02*
X113675419Y-54904381D01*
X93294200Y-58178600D02*
X93281600Y-58166000D01*
X89723600Y-59272800D02*
X89723600Y-67524000D01*
X90830400Y-58166000D02*
X89723600Y-59272800D01*
%TO.N,IO4{slash}BUTTON2*%
X79146400Y-60706000D02*
X78105000Y-60706000D01*
X77368400Y-59969400D02*
X77368400Y-53597122D01*
X79348711Y-60908311D02*
X79146400Y-60706000D01*
X78105000Y-60706000D02*
X77368400Y-59969400D01*
X79591399Y-60908311D02*
X79348711Y-60908311D01*
%TO.N,IO32{slash}SD*%
X86415720Y-67254280D02*
X85548700Y-67254280D01*
X87477600Y-66192400D02*
X86415720Y-67254280D01*
X106961083Y-67344431D02*
X107197031Y-67344431D01*
X107197031Y-67344431D02*
X107984300Y-68131700D01*
X107984300Y-68131700D02*
X108543100Y-68131700D01*
D63*
%TO.N,IO27{slash}BATT CHARGING*%
X111652286Y-70846714D02*
X112801400Y-69697600D01*
X112801400Y-69697600D02*
X113893600Y-69697600D01*
D57*
X113817412Y-78232000D02*
X114782600Y-78232000D01*
X87706200Y-71779750D02*
X87151670Y-72334280D01*
X87706200Y-70382598D02*
X87706200Y-71779750D01*
X87148202Y-69824600D02*
X87706200Y-70382598D01*
X87151670Y-72334280D02*
X85548700Y-72334280D01*
X111608358Y-70846714D02*
X111652286Y-70846714D01*
D58*
%TO.N,IO16{slash}LED1*%
X103911400Y-71602600D02*
X103911400Y-71196200D01*
X103911400Y-71196200D02*
X104120834Y-70986766D01*
D57*
X102548700Y-72334280D02*
X103179720Y-72334280D01*
D58*
X104120834Y-70986766D02*
X104672889Y-70986766D01*
X103179720Y-72334280D02*
X103911400Y-71602600D01*
%TO.N,IO17{slash}LED2*%
X103281320Y-71064280D02*
X103858707Y-70486893D01*
D57*
X102548700Y-71064280D02*
X103281320Y-71064280D01*
D58*
X103858707Y-70486893D02*
X104672889Y-70486893D01*
%TO.N,IO23{slash}POWERMOSFETS*%
X106614064Y-61204681D02*
X106614064Y-60360664D01*
X105887680Y-59634280D02*
X102548700Y-59634280D01*
X106614064Y-60360664D02*
X105887680Y-59634280D01*
D59*
%TO.N,Net-(U2-Pad2)*%
X79019400Y-73585000D02*
X79019400Y-75089762D01*
X79020000Y-71696330D02*
X79020000Y-73559000D01*
X79019400Y-75089762D02*
X78594962Y-75514200D01*
X78370000Y-71696330D02*
X78370000Y-75289238D01*
X78370000Y-75289238D02*
X78594962Y-75514200D01*
D56*
%TO.N,Net-(U18-Pad4)*%
X108455459Y-72648170D02*
X108476368Y-72627261D01*
X107020406Y-72648170D02*
X108455459Y-72648170D01*
D58*
%TO.N,IO15{slash}WS{slash}TDO*%
X76400317Y-67385684D02*
X77564557Y-66221444D01*
X75333858Y-67385684D02*
X76400317Y-67385684D01*
X105610816Y-66494545D02*
X105360816Y-66494545D01*
X104708771Y-65842500D02*
X104648000Y-65842500D01*
X105360816Y-66494545D02*
X104708771Y-65842500D01*
%TD*%
%TA.AperFunction,Conductor*%
%TO.N,GND*%
G36*
X76096913Y-81766264D02*
G01*
X76129618Y-81796697D01*
X76170333Y-81851023D01*
X76286889Y-81938377D01*
X76423278Y-81989507D01*
X76485460Y-81996262D01*
X76684931Y-81996262D01*
X76753052Y-82016264D01*
X76774026Y-82033167D01*
X77755585Y-83014726D01*
X77789611Y-83077038D01*
X77792490Y-83103821D01*
X77792490Y-84183146D01*
X77799245Y-84245328D01*
X77850375Y-84381717D01*
X77855760Y-84388902D01*
X77855761Y-84388904D01*
X77919522Y-84473980D01*
X77944370Y-84540487D01*
X77929317Y-84609869D01*
X77879143Y-84660099D01*
X77818696Y-84675545D01*
X75698853Y-84675545D01*
X75630732Y-84655543D01*
X75584239Y-84601887D01*
X75574135Y-84531613D01*
X75598027Y-84473980D01*
X75661788Y-84388904D01*
X75661789Y-84388902D01*
X75667174Y-84381717D01*
X75718304Y-84245328D01*
X75725059Y-84183146D01*
X75725059Y-82466864D01*
X75718304Y-82404682D01*
X75667174Y-82268293D01*
X75579820Y-82151737D01*
X75492445Y-82086253D01*
X75449930Y-82029394D01*
X75444904Y-81958575D01*
X75476965Y-81899901D01*
X75476844Y-81899807D01*
X75477426Y-81899056D01*
X75478915Y-81896332D01*
X75487306Y-81887941D01*
X75534510Y-81808123D01*
X75586403Y-81759670D01*
X75642964Y-81746262D01*
X76028792Y-81746262D01*
X76096913Y-81766264D01*
G37*
%TD.AperFunction*%
%TA.AperFunction,Conductor*%
G36*
X86061121Y-77363002D02*
G01*
X86107614Y-77416658D01*
X86119000Y-77469000D01*
X86119000Y-78561885D01*
X86123475Y-78577124D01*
X86124865Y-78578329D01*
X86132548Y-78580000D01*
X86135438Y-78580000D01*
X86141953Y-78579663D01*
X86234057Y-78570106D01*
X86247456Y-78567212D01*
X86396107Y-78517619D01*
X86409286Y-78511445D01*
X86542173Y-78429212D01*
X86553574Y-78420176D01*
X86663986Y-78309571D01*
X86672998Y-78298160D01*
X86755004Y-78165120D01*
X86761150Y-78151941D01*
X86765062Y-78140147D01*
X86805494Y-78081788D01*
X86871058Y-78054552D01*
X86940940Y-78067086D01*
X86978290Y-78095505D01*
X87094947Y-78225066D01*
X87187968Y-78292650D01*
X87235295Y-78327035D01*
X87249448Y-78337318D01*
X87255476Y-78340002D01*
X87255478Y-78340003D01*
X87417881Y-78412309D01*
X87423912Y-78414994D01*
X87494500Y-78429998D01*
X87604256Y-78453328D01*
X87604261Y-78453328D01*
X87610713Y-78454700D01*
X87701961Y-78454700D01*
X87770082Y-78474702D01*
X87791056Y-78491605D01*
X89273880Y-79974429D01*
X89284745Y-79986817D01*
X89304213Y-80012187D01*
X89310759Y-80017210D01*
X89310762Y-80017213D01*
X89336127Y-80036676D01*
X89336129Y-80036677D01*
X89431324Y-80109724D01*
X89438950Y-80112883D01*
X89438952Y-80112884D01*
X89547363Y-80157789D01*
X89579349Y-80171038D01*
X89580694Y-80171215D01*
X89698315Y-80186700D01*
X89698316Y-80186700D01*
X89698326Y-80186701D01*
X89730011Y-80190872D01*
X89738200Y-80191950D01*
X89769893Y-80187778D01*
X89786336Y-80186700D01*
X89914358Y-80186700D01*
X89982479Y-80206702D01*
X90028972Y-80260358D01*
X90039076Y-80330632D01*
X90009582Y-80395212D01*
X89972538Y-80424463D01*
X89893393Y-80465663D01*
X89884668Y-80471157D01*
X89846648Y-80499704D01*
X89838195Y-80511029D01*
X89844940Y-80523360D01*
X90655588Y-81334008D01*
X90669532Y-81341622D01*
X90671365Y-81341491D01*
X90677980Y-81337240D01*
X91492990Y-80522230D01*
X91500011Y-80509373D01*
X91492238Y-80498706D01*
X91482067Y-80490673D01*
X91473492Y-80484976D01*
X91361239Y-80423009D01*
X91311269Y-80372576D01*
X91296497Y-80303133D01*
X91321613Y-80236728D01*
X91378644Y-80194443D01*
X91422133Y-80186700D01*
X92113273Y-80186700D01*
X92181394Y-80206702D01*
X92227887Y-80260358D01*
X92237991Y-80330632D01*
X92208497Y-80395212D01*
X92171453Y-80424463D01*
X92104394Y-80459372D01*
X92088536Y-80467627D01*
X92084403Y-80470730D01*
X92084400Y-80470732D01*
X91932535Y-80584756D01*
X91896745Y-80611628D01*
X91893173Y-80615366D01*
X91780563Y-80733206D01*
X91731048Y-80785020D01*
X91728134Y-80789292D01*
X91728133Y-80789293D01*
X91695920Y-80836516D01*
X91595895Y-80983147D01*
X91593715Y-80987844D01*
X91497093Y-81195995D01*
X91497091Y-81196000D01*
X91494916Y-81200686D01*
X91493534Y-81205670D01*
X91489184Y-81221355D01*
X91456862Y-81276778D01*
X91040422Y-81693218D01*
X91032808Y-81707162D01*
X91032939Y-81708995D01*
X91037190Y-81715610D01*
X91458344Y-82136764D01*
X91485991Y-82178454D01*
X91560152Y-82361089D01*
X91560156Y-82361097D01*
X91562102Y-82365889D01*
X91564802Y-82370295D01*
X91564805Y-82370301D01*
X91623979Y-82466864D01*
X91687414Y-82570381D01*
X91844443Y-82751660D01*
X92028971Y-82904858D01*
X92236043Y-83025861D01*
X92240868Y-83027703D01*
X92240869Y-83027704D01*
X92280716Y-83042920D01*
X92460097Y-83111419D01*
X92465163Y-83112450D01*
X92465164Y-83112450D01*
X92505749Y-83120707D01*
X92695116Y-83159234D01*
X92830664Y-83164204D01*
X92929625Y-83167833D01*
X92929629Y-83167833D01*
X92934789Y-83168022D01*
X92939909Y-83167366D01*
X92939911Y-83167366D01*
X93167551Y-83138205D01*
X93167552Y-83138205D01*
X93172679Y-83137548D01*
X93179269Y-83135571D01*
X93397442Y-83070116D01*
X93397447Y-83070114D01*
X93402397Y-83068629D01*
X93617774Y-82963117D01*
X93621979Y-82960117D01*
X93621985Y-82960114D01*
X93723648Y-82887598D01*
X93813027Y-82823845D01*
X93876506Y-82760588D01*
X93938877Y-82726672D01*
X94009683Y-82731860D01*
X94045930Y-82752895D01*
X94119503Y-82813976D01*
X94228971Y-82904858D01*
X94436043Y-83025861D01*
X94440868Y-83027703D01*
X94440869Y-83027704D01*
X94480716Y-83042920D01*
X94660097Y-83111419D01*
X94665163Y-83112450D01*
X94665164Y-83112450D01*
X94705749Y-83120707D01*
X94895116Y-83159234D01*
X95030664Y-83164204D01*
X95129625Y-83167833D01*
X95129629Y-83167833D01*
X95134789Y-83168022D01*
X95139909Y-83167366D01*
X95139911Y-83167366D01*
X95367551Y-83138205D01*
X95367552Y-83138205D01*
X95372679Y-83137548D01*
X95379269Y-83135571D01*
X95597442Y-83070116D01*
X95597447Y-83070114D01*
X95602397Y-83068629D01*
X95817774Y-82963117D01*
X95821979Y-82960117D01*
X95821985Y-82960114D01*
X95923648Y-82887598D01*
X96013027Y-82823845D01*
X96076506Y-82760588D01*
X96138877Y-82726672D01*
X96209683Y-82731860D01*
X96245930Y-82752895D01*
X96319503Y-82813976D01*
X96428971Y-82904858D01*
X96636043Y-83025861D01*
X96640868Y-83027703D01*
X96640869Y-83027704D01*
X96680716Y-83042920D01*
X96860097Y-83111419D01*
X96865163Y-83112450D01*
X96865164Y-83112450D01*
X96905749Y-83120707D01*
X97095116Y-83159234D01*
X97230664Y-83164204D01*
X97329625Y-83167833D01*
X97329629Y-83167833D01*
X97334789Y-83168022D01*
X97339909Y-83167366D01*
X97339911Y-83167366D01*
X97567551Y-83138205D01*
X97567552Y-83138205D01*
X97572679Y-83137548D01*
X97579269Y-83135571D01*
X97797442Y-83070116D01*
X97797447Y-83070114D01*
X97802397Y-83068629D01*
X98017774Y-82963117D01*
X98021979Y-82960117D01*
X98021985Y-82960114D01*
X98123648Y-82887598D01*
X98213027Y-82823845D01*
X98276506Y-82760588D01*
X98338877Y-82726672D01*
X98409683Y-82731860D01*
X98445930Y-82752895D01*
X98519503Y-82813976D01*
X98628971Y-82904858D01*
X98836043Y-83025861D01*
X98840868Y-83027703D01*
X98840869Y-83027704D01*
X98880716Y-83042920D01*
X99060097Y-83111419D01*
X99065163Y-83112450D01*
X99065164Y-83112450D01*
X99105749Y-83120707D01*
X99295116Y-83159234D01*
X99430664Y-83164204D01*
X99529625Y-83167833D01*
X99529629Y-83167833D01*
X99534789Y-83168022D01*
X99539908Y-83167366D01*
X99539913Y-83167366D01*
X99621732Y-83156885D01*
X99691842Y-83168070D01*
X99744775Y-83215383D01*
X99763726Y-83283804D01*
X99742678Y-83351609D01*
X99726836Y-83370959D01*
X99440200Y-83657595D01*
X99377888Y-83691621D01*
X99351105Y-83694500D01*
X86979394Y-83694500D01*
X86911273Y-83674498D01*
X86890299Y-83657595D01*
X86418122Y-83185418D01*
X86384096Y-83123106D01*
X86381907Y-83109493D01*
X86377769Y-83070116D01*
X86367932Y-82976526D01*
X86365232Y-82950835D01*
X86365232Y-82950833D01*
X86364542Y-82944272D01*
X86305527Y-82762644D01*
X86301093Y-82754963D01*
X86245227Y-82658201D01*
X86210040Y-82597256D01*
X86189361Y-82574289D01*
X86086675Y-82460245D01*
X86086674Y-82460244D01*
X86082253Y-82455334D01*
X85965216Y-82370301D01*
X85933094Y-82346963D01*
X85933093Y-82346962D01*
X85927752Y-82343082D01*
X85921724Y-82340398D01*
X85921722Y-82340397D01*
X85759319Y-82268091D01*
X85759318Y-82268091D01*
X85753288Y-82265406D01*
X85632921Y-82239821D01*
X85572944Y-82227072D01*
X85572939Y-82227072D01*
X85566487Y-82225700D01*
X85375513Y-82225700D01*
X85369061Y-82227072D01*
X85369056Y-82227072D01*
X85309079Y-82239821D01*
X85188712Y-82265406D01*
X85182682Y-82268091D01*
X85182681Y-82268091D01*
X85020278Y-82340397D01*
X85020276Y-82340398D01*
X85014248Y-82343082D01*
X85008907Y-82346962D01*
X85008906Y-82346963D01*
X84976784Y-82370301D01*
X84859747Y-82455334D01*
X84855326Y-82460244D01*
X84855325Y-82460245D01*
X84752640Y-82574289D01*
X84731960Y-82597256D01*
X84696773Y-82658201D01*
X84640908Y-82754963D01*
X84636473Y-82762644D01*
X84577458Y-82944272D01*
X84576768Y-82950833D01*
X84576768Y-82950835D01*
X84574068Y-82976526D01*
X84557496Y-83134200D01*
X84558186Y-83140765D01*
X84566029Y-83215383D01*
X84577458Y-83324128D01*
X84636473Y-83505756D01*
X84639776Y-83511478D01*
X84639777Y-83511479D01*
X84650336Y-83529768D01*
X84731960Y-83671144D01*
X84736378Y-83676051D01*
X84736379Y-83676052D01*
X84843651Y-83795190D01*
X84859747Y-83813066D01*
X85014248Y-83925318D01*
X85020276Y-83928002D01*
X85020278Y-83928003D01*
X85182681Y-84000309D01*
X85188712Y-84002994D01*
X85277107Y-84021783D01*
X85369056Y-84041328D01*
X85369061Y-84041328D01*
X85375513Y-84042700D01*
X85431406Y-84042700D01*
X85499527Y-84062702D01*
X85520501Y-84079605D01*
X85901346Y-84460450D01*
X85935372Y-84522762D01*
X85930307Y-84593577D01*
X85887760Y-84650413D01*
X85821240Y-84675224D01*
X85812251Y-84675545D01*
X80829664Y-84675545D01*
X80761543Y-84655543D01*
X80715050Y-84601887D01*
X80704946Y-84531613D01*
X80728838Y-84473980D01*
X80792599Y-84388904D01*
X80792600Y-84388902D01*
X80797985Y-84381717D01*
X80849115Y-84245328D01*
X80855870Y-84183146D01*
X80855870Y-82918185D01*
X80875872Y-82850064D01*
X80892775Y-82829090D01*
X80901653Y-82820212D01*
X81510815Y-82211051D01*
X81824261Y-81897605D01*
X81886573Y-81863579D01*
X81913356Y-81860700D01*
X86907335Y-81860700D01*
X86975456Y-81880702D01*
X87021949Y-81934358D01*
X87030252Y-81958999D01*
X87071870Y-82143676D01*
X87162102Y-82365889D01*
X87287414Y-82570381D01*
X87444443Y-82751660D01*
X87628971Y-82904858D01*
X87836043Y-83025861D01*
X87840868Y-83027703D01*
X87840869Y-83027704D01*
X87880716Y-83042920D01*
X88060097Y-83111419D01*
X88065163Y-83112450D01*
X88065164Y-83112450D01*
X88105749Y-83120707D01*
X88295116Y-83159234D01*
X88430664Y-83164204D01*
X88529625Y-83167833D01*
X88529629Y-83167833D01*
X88534789Y-83168022D01*
X88539909Y-83167366D01*
X88539911Y-83167366D01*
X88767551Y-83138205D01*
X88767552Y-83138205D01*
X88772679Y-83137548D01*
X88779269Y-83135571D01*
X88997442Y-83070116D01*
X88997447Y-83070114D01*
X89002397Y-83068629D01*
X89217774Y-82963117D01*
X89221979Y-82960117D01*
X89221985Y-82960114D01*
X89299350Y-82904930D01*
X89834758Y-82904930D01*
X89838061Y-82909590D01*
X90031799Y-83022801D01*
X90041086Y-83027251D01*
X90255406Y-83109092D01*
X90265308Y-83111969D01*
X90490099Y-83157703D01*
X90500351Y-83158926D01*
X90729602Y-83167332D01*
X90739888Y-83166865D01*
X90967443Y-83137714D01*
X90977529Y-83135571D01*
X91197264Y-83069647D01*
X91206859Y-83065886D01*
X91412866Y-82964965D01*
X91421732Y-82959680D01*
X91489345Y-82911451D01*
X91497746Y-82900751D01*
X91490758Y-82887598D01*
X90681212Y-82078052D01*
X90667268Y-82070438D01*
X90665435Y-82070569D01*
X90658820Y-82074820D01*
X89842035Y-82891605D01*
X89834758Y-82904930D01*
X89299350Y-82904930D01*
X89323648Y-82887598D01*
X89413027Y-82823845D01*
X89582911Y-82654553D01*
X89611474Y-82614804D01*
X89719845Y-82463988D01*
X89722863Y-82459788D01*
X89726984Y-82451451D01*
X89826833Y-82249422D01*
X89826834Y-82249420D01*
X89829127Y-82244780D01*
X89830634Y-82239821D01*
X89845574Y-82190649D01*
X89877037Y-82138183D01*
X90296378Y-81718842D01*
X90303992Y-81704898D01*
X90303861Y-81703065D01*
X90299610Y-81696450D01*
X89882271Y-81279111D01*
X89854306Y-81234183D01*
X89853820Y-81234394D01*
X89852388Y-81231101D01*
X89841331Y-81205670D01*
X89760247Y-81019189D01*
X89760245Y-81019186D01*
X89758187Y-81014452D01*
X89740974Y-80987844D01*
X89630725Y-80817426D01*
X89630723Y-80817423D01*
X89627915Y-80813083D01*
X89615010Y-80798900D01*
X89469982Y-80639517D01*
X89469980Y-80639515D01*
X89466504Y-80635695D01*
X89462453Y-80632496D01*
X89462449Y-80632492D01*
X89306878Y-80509630D01*
X89278288Y-80487051D01*
X89068322Y-80371143D01*
X88934341Y-80323698D01*
X88847120Y-80292811D01*
X88847116Y-80292810D01*
X88842245Y-80291085D01*
X88837152Y-80290178D01*
X88837149Y-80290177D01*
X88611216Y-80249932D01*
X88611210Y-80249931D01*
X88606127Y-80249026D01*
X88518860Y-80247960D01*
X88371481Y-80246159D01*
X88371479Y-80246159D01*
X88366311Y-80246096D01*
X88209821Y-80270042D01*
X88134346Y-80281591D01*
X88134343Y-80281592D01*
X88129237Y-80282373D01*
X87966989Y-80335404D01*
X87931255Y-80341592D01*
X87858672Y-80343556D01*
X87855049Y-80343654D01*
X87851642Y-80343700D01*
X85459444Y-80343700D01*
X85391323Y-80323698D01*
X85344830Y-80270042D01*
X85334726Y-80199768D01*
X85349510Y-80156134D01*
X85362653Y-80132666D01*
X85362658Y-80132655D01*
X85365476Y-80127623D01*
X85433916Y-79926005D01*
X85437056Y-79904354D01*
X85463937Y-79718961D01*
X85463937Y-79718959D01*
X85464469Y-79715291D01*
X85466063Y-79654400D01*
X85453052Y-79512796D01*
X85447110Y-79448130D01*
X85447109Y-79448127D01*
X85446581Y-79442376D01*
X85441952Y-79425963D01*
X85390354Y-79243011D01*
X85390353Y-79243009D01*
X85388786Y-79237452D01*
X85385186Y-79230150D01*
X85297170Y-79051673D01*
X85294615Y-79046492D01*
X85289316Y-79039395D01*
X85170674Y-78880514D01*
X85167222Y-78875891D01*
X85010871Y-78731363D01*
X85005985Y-78728280D01*
X85005977Y-78728274D01*
X84930852Y-78680873D01*
X84883914Y-78627606D01*
X84873226Y-78557419D01*
X84902180Y-78492595D01*
X84931780Y-78467172D01*
X84998713Y-78425752D01*
X85003886Y-78420570D01*
X85009623Y-78416023D01*
X85011055Y-78417830D01*
X85063575Y-78389098D01*
X85134395Y-78394108D01*
X85170853Y-78417499D01*
X85171683Y-78416448D01*
X85188840Y-78429998D01*
X85321880Y-78512004D01*
X85335061Y-78518151D01*
X85483814Y-78567491D01*
X85497190Y-78570358D01*
X85588097Y-78579672D01*
X85593126Y-78579929D01*
X85608124Y-78575525D01*
X85609329Y-78574135D01*
X85611000Y-78566452D01*
X85611000Y-77469000D01*
X85631002Y-77400879D01*
X85684658Y-77354386D01*
X85737000Y-77343000D01*
X85993000Y-77343000D01*
X86061121Y-77363002D01*
G37*
%TD.AperFunction*%
%TA.AperFunction,Conductor*%
G36*
X115060565Y-81215145D02*
G01*
X115110683Y-81265431D01*
X115125995Y-81325632D01*
X115125995Y-81814823D01*
X115105993Y-81882944D01*
X115052337Y-81929437D01*
X114982063Y-81939541D01*
X114917483Y-81910047D01*
X114910977Y-81903996D01*
X114860479Y-81853586D01*
X114855302Y-81848418D01*
X114849075Y-81844580D01*
X114849073Y-81844578D01*
X114838749Y-81838214D01*
X114791256Y-81785442D01*
X114778865Y-81730954D01*
X114778865Y-81479654D01*
X114798867Y-81411533D01*
X114804039Y-81404089D01*
X114816294Y-81387738D01*
X114868027Y-81318710D01*
X114882013Y-81281403D01*
X114924654Y-81224638D01*
X114991216Y-81199938D01*
X115060565Y-81215145D01*
G37*
%TD.AperFunction*%
%TA.AperFunction,Conductor*%
G36*
X83462622Y-78250502D02*
G01*
X83501644Y-78290195D01*
X83507395Y-78299488D01*
X83507399Y-78299493D01*
X83511248Y-78305713D01*
X83632298Y-78426552D01*
X83638530Y-78430394D01*
X83638532Y-78430395D01*
X83685115Y-78459110D01*
X83732608Y-78511882D01*
X83744030Y-78581954D01*
X83715756Y-78647078D01*
X83683421Y-78674654D01*
X83618734Y-78713139D01*
X83458654Y-78853525D01*
X83326838Y-79020733D01*
X83324149Y-79025844D01*
X83324147Y-79025847D01*
X83284608Y-79100999D01*
X83227700Y-79209162D01*
X83225986Y-79214683D01*
X83225984Y-79214687D01*
X83186131Y-79343034D01*
X83164561Y-79412502D01*
X83139536Y-79623944D01*
X83153461Y-79836406D01*
X83154882Y-79842002D01*
X83154883Y-79842007D01*
X83201027Y-80023694D01*
X83205872Y-80042772D01*
X83208289Y-80048015D01*
X83262196Y-80164949D01*
X83272551Y-80235187D01*
X83243288Y-80299872D01*
X83183699Y-80338469D01*
X83147770Y-80343700D01*
X81614055Y-80343700D01*
X81595105Y-80342267D01*
X81580870Y-80340101D01*
X81580866Y-80340101D01*
X81573636Y-80339001D01*
X81566344Y-80339594D01*
X81566341Y-80339594D01*
X81520967Y-80343285D01*
X81510752Y-80343700D01*
X81502692Y-80343700D01*
X81499058Y-80344124D01*
X81499052Y-80344124D01*
X81486027Y-80345643D01*
X81474465Y-80346991D01*
X81470117Y-80347421D01*
X81448044Y-80349216D01*
X81404647Y-80352746D01*
X81404644Y-80352747D01*
X81397349Y-80353340D01*
X81390385Y-80355596D01*
X81384446Y-80356783D01*
X81378575Y-80358170D01*
X81371304Y-80359018D01*
X81364428Y-80361514D01*
X81364419Y-80361516D01*
X81302687Y-80383925D01*
X81298583Y-80385335D01*
X81229086Y-80407848D01*
X81222831Y-80411644D01*
X81217372Y-80414143D01*
X81211924Y-80416871D01*
X81205048Y-80419367D01*
X81143995Y-80459395D01*
X81140322Y-80461713D01*
X81124269Y-80471454D01*
X81093285Y-80490256D01*
X81077878Y-80499605D01*
X81069502Y-80507002D01*
X81069478Y-80506975D01*
X81066484Y-80509630D01*
X81063253Y-80512332D01*
X81057133Y-80516344D01*
X81042696Y-80531584D01*
X81003857Y-80572583D01*
X81001479Y-80575025D01*
X80926184Y-80650320D01*
X80863872Y-80684346D01*
X80793057Y-80679281D01*
X80747994Y-80650320D01*
X80659978Y-80562304D01*
X80625952Y-80499992D01*
X80631017Y-80429177D01*
X80673564Y-80372341D01*
X80720067Y-80351566D01*
X80719970Y-80351257D01*
X80722610Y-80350430D01*
X80724324Y-80349664D01*
X80726346Y-80349259D01*
X80876243Y-80302285D01*
X80889988Y-80296079D01*
X81023574Y-80215176D01*
X81035443Y-80205869D01*
X81145869Y-80095443D01*
X81155176Y-80083574D01*
X81236079Y-79949988D01*
X81242285Y-79936243D01*
X81289256Y-79786356D01*
X81291869Y-79773306D01*
X81297734Y-79709479D01*
X81298000Y-79703691D01*
X81298000Y-79647115D01*
X81293525Y-79631876D01*
X81292135Y-79630671D01*
X81284452Y-79629000D01*
X80262000Y-79629000D01*
X80193879Y-79608998D01*
X80147386Y-79555342D01*
X80136000Y-79503000D01*
X80136000Y-79247000D01*
X80156002Y-79178879D01*
X80209658Y-79132386D01*
X80262000Y-79121000D01*
X81279884Y-79121000D01*
X81295123Y-79116525D01*
X81296328Y-79115135D01*
X81297999Y-79107452D01*
X81297999Y-79046295D01*
X81297736Y-79040546D01*
X81291868Y-78976685D01*
X81289258Y-78963652D01*
X81279075Y-78931159D01*
X81277790Y-78860174D01*
X81315087Y-78799763D01*
X81379124Y-78769106D01*
X81449569Y-78777937D01*
X81504057Y-78823452D01*
X81508426Y-78830474D01*
X81531560Y-78870544D01*
X81659347Y-79012466D01*
X81706180Y-79046492D01*
X81793061Y-79109615D01*
X81813848Y-79124718D01*
X81819876Y-79127402D01*
X81819878Y-79127403D01*
X81879320Y-79153868D01*
X81988312Y-79202394D01*
X82081712Y-79222247D01*
X82168656Y-79240728D01*
X82168661Y-79240728D01*
X82175113Y-79242100D01*
X82366087Y-79242100D01*
X82372539Y-79240728D01*
X82372544Y-79240728D01*
X82459488Y-79222247D01*
X82552888Y-79202394D01*
X82661880Y-79153868D01*
X82721322Y-79127403D01*
X82721324Y-79127402D01*
X82727352Y-79124718D01*
X82748140Y-79109615D01*
X82835020Y-79046492D01*
X82881853Y-79012466D01*
X83009640Y-78870544D01*
X83105127Y-78705156D01*
X83164142Y-78523528D01*
X83164902Y-78516302D01*
X83175831Y-78412309D01*
X83181507Y-78358306D01*
X83208520Y-78292650D01*
X83217722Y-78282382D01*
X83232699Y-78267405D01*
X83295011Y-78233379D01*
X83321794Y-78230500D01*
X83394501Y-78230500D01*
X83462622Y-78250502D01*
G37*
%TD.AperFunction*%
%TA.AperFunction,Conductor*%
G36*
X106843113Y-79169902D02*
G01*
X106889606Y-79223558D01*
X106895889Y-79240403D01*
X106897276Y-79245127D01*
X106898665Y-79246331D01*
X106906348Y-79248002D01*
X108128800Y-79248002D01*
X108196921Y-79268004D01*
X108243414Y-79321660D01*
X108254800Y-79374002D01*
X108254800Y-79630002D01*
X108234798Y-79698123D01*
X108181142Y-79744616D01*
X108128800Y-79756002D01*
X106910916Y-79756002D01*
X106895677Y-79760477D01*
X106894472Y-79761867D01*
X106892801Y-79769550D01*
X106892801Y-79846671D01*
X106893171Y-79853492D01*
X106898695Y-79904354D01*
X106902321Y-79919606D01*
X106947476Y-80040056D01*
X106956015Y-80055652D01*
X106960042Y-80061026D01*
X106984887Y-80127533D01*
X106969832Y-80196915D01*
X106960044Y-80212145D01*
X106950185Y-80225300D01*
X106899055Y-80361689D01*
X106892300Y-80423871D01*
X106892300Y-80540539D01*
X106872298Y-80608660D01*
X106818642Y-80655153D01*
X106748368Y-80665257D01*
X106683788Y-80635763D01*
X106663627Y-80612092D01*
X106663475Y-80612212D01*
X106660062Y-80607906D01*
X106659156Y-80606842D01*
X106658932Y-80606480D01*
X106655078Y-80600252D01*
X106529903Y-80475295D01*
X106522501Y-80470732D01*
X106455086Y-80429177D01*
X106433584Y-80415923D01*
X106386091Y-80363151D01*
X106373700Y-80308663D01*
X106373700Y-79275900D01*
X106393702Y-79207779D01*
X106447358Y-79161286D01*
X106499700Y-79149900D01*
X106774992Y-79149900D01*
X106843113Y-79169902D01*
G37*
%TD.AperFunction*%
%TA.AperFunction,Conductor*%
G36*
X77626915Y-70670370D02*
G01*
X77673408Y-70724026D01*
X77676776Y-70732139D01*
X77682704Y-70747952D01*
X77687887Y-70818759D01*
X77681129Y-70840402D01*
X77677162Y-70849980D01*
X77661500Y-70968945D01*
X77661500Y-72142900D01*
X77641498Y-72211021D01*
X77587842Y-72257514D01*
X77535500Y-72268900D01*
X77475013Y-72268900D01*
X77468561Y-72270272D01*
X77468556Y-72270272D01*
X77381612Y-72288753D01*
X77288212Y-72308606D01*
X77282182Y-72311291D01*
X77282181Y-72311291D01*
X77119778Y-72383597D01*
X77119776Y-72383598D01*
X77113748Y-72386282D01*
X77108407Y-72390162D01*
X77108406Y-72390163D01*
X77058343Y-72426536D01*
X76959247Y-72498534D01*
X76911003Y-72552115D01*
X76910917Y-72552210D01*
X76850471Y-72589450D01*
X76817281Y-72593900D01*
X76729101Y-72593900D01*
X76712656Y-72592822D01*
X76682600Y-72588865D01*
X76644358Y-72593900D01*
X76644356Y-72593900D01*
X76530276Y-72608919D01*
X76441286Y-72645780D01*
X76388332Y-72667714D01*
X76381784Y-72672739D01*
X76381778Y-72672742D01*
X76331064Y-72711657D01*
X76331064Y-72711658D01*
X76266443Y-72761243D01*
X76261420Y-72767789D01*
X76247982Y-72785302D01*
X76237114Y-72797693D01*
X75106212Y-73928595D01*
X75043900Y-73962621D01*
X75017117Y-73965500D01*
X74874901Y-73965500D01*
X74858456Y-73964422D01*
X74828400Y-73960465D01*
X74790157Y-73965500D01*
X74790156Y-73965500D01*
X74676076Y-73980519D01*
X74668447Y-73983679D01*
X74653583Y-73989836D01*
X74603457Y-74010599D01*
X74534132Y-74039314D01*
X74446386Y-74106644D01*
X74412243Y-74132843D01*
X74393785Y-74156898D01*
X74382924Y-74169282D01*
X73940686Y-74611521D01*
X73928293Y-74622389D01*
X73904243Y-74640843D01*
X73838717Y-74726239D01*
X73810714Y-74762733D01*
X73767086Y-74868061D01*
X73759819Y-74885605D01*
X73751919Y-74904676D01*
X73731865Y-75057000D01*
X73732943Y-75065188D01*
X73735822Y-75087056D01*
X73736900Y-75103503D01*
X73736900Y-77601297D01*
X73735822Y-77617744D01*
X73731865Y-77647800D01*
X73748525Y-77774344D01*
X73751919Y-77800124D01*
X73810714Y-77942067D01*
X73904243Y-78063957D01*
X73910789Y-78068980D01*
X73928298Y-78082415D01*
X73940690Y-78093283D01*
X74036896Y-78189490D01*
X74070921Y-78251802D01*
X74073800Y-78278585D01*
X74073800Y-78732658D01*
X74068797Y-78767810D01*
X74065966Y-78777553D01*
X74065965Y-78777560D01*
X74064171Y-78783734D01*
X74063667Y-78790141D01*
X74063666Y-78790145D01*
X74061493Y-78817756D01*
X74061300Y-78820211D01*
X74061301Y-79063122D01*
X74061301Y-79198200D01*
X74041299Y-79266320D01*
X73987644Y-79312813D01*
X73935301Y-79324200D01*
X73250872Y-79324200D01*
X73224675Y-79321447D01*
X73152344Y-79306072D01*
X73152339Y-79306072D01*
X73145887Y-79304700D01*
X72954913Y-79304700D01*
X72948461Y-79306072D01*
X72948456Y-79306072D01*
X72882048Y-79320188D01*
X72768112Y-79344406D01*
X72762082Y-79347091D01*
X72762081Y-79347091D01*
X72599678Y-79419397D01*
X72599676Y-79419398D01*
X72593648Y-79422082D01*
X72439147Y-79534334D01*
X72434726Y-79539244D01*
X72434725Y-79539245D01*
X72393241Y-79585318D01*
X72332795Y-79622558D01*
X72261812Y-79621206D01*
X72202827Y-79581693D01*
X72174569Y-79516562D01*
X72173605Y-79501008D01*
X72173605Y-78798143D01*
X73043540Y-78798143D01*
X73046710Y-78813230D01*
X73058174Y-78816200D01*
X73547685Y-78816200D01*
X73562924Y-78811725D01*
X73564129Y-78810335D01*
X73565800Y-78802652D01*
X73565800Y-78268300D01*
X73561827Y-78254769D01*
X73553929Y-78253634D01*
X73435017Y-78288181D01*
X73420578Y-78294430D01*
X73294395Y-78369054D01*
X73281959Y-78378701D01*
X73178301Y-78482359D01*
X73168654Y-78494795D01*
X73094030Y-78620978D01*
X73087781Y-78635417D01*
X73046462Y-78777636D01*
X73044163Y-78790223D01*
X73043540Y-78798143D01*
X72173605Y-78798143D01*
X72173605Y-72817830D01*
X72193607Y-72749709D01*
X72247263Y-72703216D01*
X72299605Y-72691830D01*
X72676685Y-72691830D01*
X72691924Y-72687355D01*
X72693129Y-72685965D01*
X72694800Y-72678282D01*
X72694800Y-71055830D01*
X72714802Y-70987709D01*
X72768458Y-70941216D01*
X72820800Y-70929830D01*
X73076800Y-70929830D01*
X73144921Y-70949832D01*
X73191414Y-71003488D01*
X73202800Y-71055830D01*
X73202800Y-72673715D01*
X73207275Y-72688954D01*
X73208665Y-72690159D01*
X73216348Y-72691830D01*
X74743469Y-72691829D01*
X74750290Y-72691459D01*
X74801152Y-72685935D01*
X74816404Y-72682309D01*
X74936854Y-72637154D01*
X74952449Y-72628616D01*
X75054524Y-72552115D01*
X75067085Y-72539554D01*
X75143590Y-72437473D01*
X75146215Y-72432679D01*
X75196474Y-72382534D01*
X75265866Y-72367522D01*
X75307981Y-72378084D01*
X75454477Y-72443308D01*
X75454485Y-72443311D01*
X75460512Y-72445994D01*
X75553913Y-72465847D01*
X75640856Y-72484328D01*
X75640861Y-72484328D01*
X75647313Y-72485700D01*
X75838287Y-72485700D01*
X75844739Y-72484328D01*
X75844744Y-72484328D01*
X75931687Y-72465847D01*
X76025088Y-72445994D01*
X76044227Y-72437473D01*
X76193522Y-72371003D01*
X76193524Y-72371002D01*
X76199552Y-72368318D01*
X76212064Y-72359228D01*
X76259532Y-72324740D01*
X76354053Y-72256066D01*
X76359129Y-72250429D01*
X76477421Y-72119052D01*
X76477422Y-72119051D01*
X76481840Y-72114144D01*
X76569728Y-71961918D01*
X76574023Y-71954479D01*
X76574024Y-71954478D01*
X76577327Y-71948756D01*
X76636342Y-71767128D01*
X76641768Y-71715508D01*
X76655614Y-71583765D01*
X76656304Y-71577200D01*
X76654838Y-71563255D01*
X76667609Y-71493417D01*
X76691053Y-71460987D01*
X77464769Y-70687272D01*
X77527081Y-70653247D01*
X77553864Y-70650368D01*
X77558794Y-70650368D01*
X77626915Y-70670370D01*
G37*
%TD.AperFunction*%
%TA.AperFunction,Conductor*%
G36*
X75513209Y-76338402D02*
G01*
X77024514Y-77849707D01*
X77035381Y-77862097D01*
X77053843Y-77886157D01*
X77173635Y-77978076D01*
X77175733Y-77979686D01*
X77216946Y-77996757D01*
X77270548Y-78018960D01*
X77325829Y-78063509D01*
X77348250Y-78130872D01*
X77330692Y-78199663D01*
X77311425Y-78224464D01*
X77193456Y-78342433D01*
X77131144Y-78376459D01*
X77104361Y-78379338D01*
X76485460Y-78379338D01*
X76423278Y-78386093D01*
X76286889Y-78437223D01*
X76170333Y-78524577D01*
X76082979Y-78641133D01*
X76031849Y-78777522D01*
X76025094Y-78839704D01*
X76025094Y-79209876D01*
X76005092Y-79277997D01*
X75951436Y-79324490D01*
X75885486Y-79335139D01*
X75861012Y-79332480D01*
X75795450Y-79305236D01*
X75755025Y-79246873D01*
X75752915Y-79239828D01*
X75752516Y-79238339D01*
X75751438Y-79230150D01*
X75730201Y-79178879D01*
X75693284Y-79089753D01*
X75693283Y-79089751D01*
X75690124Y-79082125D01*
X75660946Y-79044100D01*
X75657336Y-79039395D01*
X75644335Y-79022451D01*
X75618736Y-78956231D01*
X75618299Y-78945749D01*
X75618299Y-78820212D01*
X75615429Y-78783734D01*
X75570069Y-78627604D01*
X75517521Y-78538749D01*
X75491340Y-78494480D01*
X75487306Y-78487659D01*
X75423405Y-78423758D01*
X75389379Y-78361446D01*
X75386500Y-78334663D01*
X75386500Y-78176901D01*
X75387578Y-78160453D01*
X75389788Y-78143672D01*
X75391535Y-78130400D01*
X75386500Y-78092156D01*
X75371481Y-77978076D01*
X75335011Y-77890030D01*
X75312686Y-77836132D01*
X75242639Y-77744845D01*
X75242637Y-77744843D01*
X75219157Y-77714243D01*
X75195102Y-77695785D01*
X75182718Y-77684924D01*
X74940805Y-77443012D01*
X74906780Y-77380699D01*
X74903900Y-77353916D01*
X74903900Y-76472500D01*
X74923902Y-76404379D01*
X74977558Y-76357886D01*
X75029900Y-76346500D01*
X75203287Y-76346500D01*
X75209739Y-76345128D01*
X75209744Y-76345128D01*
X75369035Y-76311269D01*
X75390088Y-76306794D01*
X75390242Y-76307520D01*
X75456143Y-76305636D01*
X75513209Y-76338402D01*
G37*
%TD.AperFunction*%
%TA.AperFunction,Conductor*%
G36*
X114496121Y-71114602D02*
G01*
X114542614Y-71168258D01*
X114554000Y-71220600D01*
X114554000Y-72838484D01*
X114558475Y-72853723D01*
X114559865Y-72854928D01*
X114567548Y-72856599D01*
X114999995Y-72856599D01*
X115068116Y-72876601D01*
X115114609Y-72930257D01*
X115125995Y-72982599D01*
X115125995Y-76408370D01*
X115105993Y-76476491D01*
X115052337Y-76522984D01*
X114982063Y-76533088D01*
X114917483Y-76503594D01*
X114882013Y-76452599D01*
X114871180Y-76423702D01*
X114871179Y-76423701D01*
X114868027Y-76415292D01*
X114811888Y-76340386D01*
X114787041Y-76273882D01*
X114793122Y-76225156D01*
X114794726Y-76220322D01*
X114841349Y-76079757D01*
X114851700Y-75978732D01*
X114851700Y-75431268D01*
X114841087Y-75328981D01*
X114820074Y-75265997D01*
X114789273Y-75173676D01*
X114789272Y-75173674D01*
X114786956Y-75166732D01*
X114737185Y-75086302D01*
X114700806Y-75027515D01*
X114696952Y-75021287D01*
X114691770Y-75016114D01*
X114687223Y-75010377D01*
X114689030Y-75008945D01*
X114660298Y-74956425D01*
X114665308Y-74885605D01*
X114688699Y-74849147D01*
X114687648Y-74848317D01*
X114701198Y-74831160D01*
X114783204Y-74698120D01*
X114789351Y-74684939D01*
X114838691Y-74536186D01*
X114841558Y-74522810D01*
X114850872Y-74431903D01*
X114851129Y-74426874D01*
X114846725Y-74411876D01*
X114845335Y-74410671D01*
X114837652Y-74409000D01*
X112903315Y-74409000D01*
X112888076Y-74413475D01*
X112886871Y-74414865D01*
X112885200Y-74422548D01*
X112885200Y-74425438D01*
X112885537Y-74431953D01*
X112895094Y-74524057D01*
X112897988Y-74537456D01*
X112947581Y-74686107D01*
X112953755Y-74699286D01*
X113035988Y-74832173D01*
X113049571Y-74849311D01*
X113047641Y-74850841D01*
X113076103Y-74902880D01*
X113071087Y-74973699D01*
X113047401Y-75010617D01*
X113048357Y-75011372D01*
X113043819Y-75017118D01*
X113038648Y-75022298D01*
X113034808Y-75028528D01*
X113034807Y-75028529D01*
X112953455Y-75160507D01*
X112948898Y-75167899D01*
X112895051Y-75330243D01*
X112884700Y-75431268D01*
X112884700Y-75459454D01*
X112864698Y-75527575D01*
X112811042Y-75574068D01*
X112784897Y-75582701D01*
X112773112Y-75585206D01*
X112767082Y-75587891D01*
X112767081Y-75587891D01*
X112604678Y-75660197D01*
X112604676Y-75660198D01*
X112598648Y-75662882D01*
X112444147Y-75775134D01*
X112439726Y-75780044D01*
X112439725Y-75780045D01*
X112374233Y-75852782D01*
X112316360Y-75917056D01*
X112220873Y-76082444D01*
X112161858Y-76264072D01*
X112161168Y-76270633D01*
X112161168Y-76270635D01*
X112152184Y-76356118D01*
X112141896Y-76454000D01*
X112142586Y-76460565D01*
X112142586Y-76460570D01*
X112143566Y-76469891D01*
X112130797Y-76539729D01*
X112082296Y-76591578D01*
X112018257Y-76609065D01*
X111181221Y-76609065D01*
X111165982Y-76613540D01*
X111164777Y-76614930D01*
X111163106Y-76622613D01*
X111163106Y-78995001D01*
X111143104Y-79063122D01*
X111089448Y-79109615D01*
X111037106Y-79121001D01*
X110781106Y-79121001D01*
X110712985Y-79100999D01*
X110666492Y-79047343D01*
X110655106Y-78995001D01*
X110655106Y-76627181D01*
X110650631Y-76611941D01*
X110640525Y-76603184D01*
X110602142Y-76543457D01*
X110602142Y-76472461D01*
X110640526Y-76412735D01*
X110658899Y-76399506D01*
X110712610Y-76367741D01*
X110725041Y-76358099D01*
X110828699Y-76254441D01*
X110838346Y-76242005D01*
X110912970Y-76115822D01*
X110919219Y-76101383D01*
X110960538Y-75959164D01*
X110962837Y-75946577D01*
X110963460Y-75938657D01*
X110960290Y-75923570D01*
X110948826Y-75920600D01*
X110071700Y-75920600D01*
X110003579Y-75900598D01*
X109957086Y-75846942D01*
X109945700Y-75794600D01*
X109945699Y-75538600D01*
X109965701Y-75470480D01*
X110019356Y-75423987D01*
X110071699Y-75412600D01*
X110946766Y-75412600D01*
X110961561Y-75408256D01*
X110966416Y-75380785D01*
X110968499Y-75381153D01*
X110978665Y-75332767D01*
X111028510Y-75282210D01*
X111089679Y-75266366D01*
X111824604Y-75266366D01*
X111886786Y-75259611D01*
X112023175Y-75208481D01*
X112139731Y-75121127D01*
X112227085Y-75004571D01*
X112278215Y-74868182D01*
X112284970Y-74806000D01*
X112284970Y-74159720D01*
X112278215Y-74097538D01*
X112261184Y-74052108D01*
X112256001Y-73981302D01*
X112261184Y-73963649D01*
X112278215Y-73918220D01*
X112282027Y-73883126D01*
X112885271Y-73883126D01*
X112889675Y-73898124D01*
X112891065Y-73899329D01*
X112898748Y-73901000D01*
X113596085Y-73901000D01*
X113611324Y-73896525D01*
X113612529Y-73895135D01*
X113614200Y-73887452D01*
X113614200Y-73882885D01*
X114122200Y-73882885D01*
X114126675Y-73898124D01*
X114128065Y-73899329D01*
X114135748Y-73901000D01*
X114833085Y-73901000D01*
X114848324Y-73896525D01*
X114849529Y-73895135D01*
X114851200Y-73887452D01*
X114851200Y-73884562D01*
X114850863Y-73878047D01*
X114841306Y-73785943D01*
X114838412Y-73772544D01*
X114788819Y-73623893D01*
X114782645Y-73610714D01*
X114700412Y-73477827D01*
X114691376Y-73466426D01*
X114580771Y-73356014D01*
X114569360Y-73347002D01*
X114436320Y-73264996D01*
X114423139Y-73258849D01*
X114274386Y-73209509D01*
X114261010Y-73206642D01*
X114170103Y-73197328D01*
X114163686Y-73197000D01*
X114140315Y-73197000D01*
X114125076Y-73201475D01*
X114123871Y-73202865D01*
X114122200Y-73210548D01*
X114122200Y-73882885D01*
X113614200Y-73882885D01*
X113614200Y-73215115D01*
X113609725Y-73199876D01*
X113608335Y-73198671D01*
X113600652Y-73197000D01*
X113572762Y-73197000D01*
X113566247Y-73197337D01*
X113474143Y-73206894D01*
X113460744Y-73209788D01*
X113312093Y-73259381D01*
X113298914Y-73265555D01*
X113166027Y-73347788D01*
X113154626Y-73356824D01*
X113044214Y-73467429D01*
X113035202Y-73478840D01*
X112953196Y-73611880D01*
X112947049Y-73625061D01*
X112897709Y-73773814D01*
X112894842Y-73787190D01*
X112885528Y-73878097D01*
X112885271Y-73883126D01*
X112282027Y-73883126D01*
X112284970Y-73856038D01*
X112284970Y-73209758D01*
X112278215Y-73147576D01*
X112260917Y-73101433D01*
X112255734Y-73030629D01*
X112260917Y-73012974D01*
X112274949Y-72975544D01*
X112278577Y-72960287D01*
X112279011Y-72956292D01*
X112280217Y-72953391D01*
X112280402Y-72952611D01*
X112280528Y-72952641D01*
X112306255Y-72890731D01*
X112364620Y-72850307D01*
X112433419Y-72847322D01*
X112447649Y-72850705D01*
X112498514Y-72856231D01*
X112505328Y-72856600D01*
X114027885Y-72856600D01*
X114043124Y-72852125D01*
X114044329Y-72850735D01*
X114046000Y-72843052D01*
X114046000Y-71220600D01*
X114066002Y-71152479D01*
X114119658Y-71105986D01*
X114172000Y-71094600D01*
X114428000Y-71094600D01*
X114496121Y-71114602D01*
G37*
%TD.AperFunction*%
%TA.AperFunction,Conductor*%
G36*
X105052709Y-78400182D02*
G01*
X105097178Y-78455527D01*
X105106700Y-78503578D01*
X105106700Y-78735205D01*
X105086698Y-78803326D01*
X105033042Y-78849819D01*
X104962768Y-78859923D01*
X104898188Y-78830429D01*
X104891605Y-78824300D01*
X104739181Y-78671876D01*
X104705155Y-78609564D01*
X104710220Y-78538749D01*
X104752767Y-78481913D01*
X104793121Y-78461785D01*
X104806580Y-78457875D01*
X104821020Y-78451626D01*
X104916561Y-78395124D01*
X104985378Y-78377665D01*
X105052709Y-78400182D01*
G37*
%TD.AperFunction*%
%TA.AperFunction,Conductor*%
G36*
X87294294Y-74954322D02*
G01*
X87350926Y-74997139D01*
X87375420Y-75063777D01*
X87375700Y-75072167D01*
X87375700Y-75602165D01*
X87380175Y-75617404D01*
X87381565Y-75618609D01*
X87389248Y-75620280D01*
X88461700Y-75620280D01*
X88529821Y-75640282D01*
X88576314Y-75693938D01*
X88587700Y-75746280D01*
X88587700Y-76002280D01*
X88567698Y-76070401D01*
X88514042Y-76116894D01*
X88461700Y-76128280D01*
X87393816Y-76128280D01*
X87378577Y-76132755D01*
X87377372Y-76134145D01*
X87375701Y-76141828D01*
X87375701Y-76617045D01*
X87355699Y-76685166D01*
X87300950Y-76732151D01*
X87255485Y-76752394D01*
X87249448Y-76755082D01*
X87094947Y-76867334D01*
X87090526Y-76872244D01*
X87090525Y-76872245D01*
X87024807Y-76945233D01*
X86967160Y-77009256D01*
X86963859Y-77014974D01*
X86959976Y-77020318D01*
X86958773Y-77019444D01*
X86912964Y-77063123D01*
X86843250Y-77076559D01*
X86777339Y-77050173D01*
X86748083Y-77017433D01*
X86672212Y-76894827D01*
X86663176Y-76883426D01*
X86552571Y-76773014D01*
X86541157Y-76764000D01*
X86504824Y-76741604D01*
X86457330Y-76688832D01*
X86445906Y-76618761D01*
X86477302Y-76550035D01*
X86510421Y-76513252D01*
X86510422Y-76513251D01*
X86514840Y-76508344D01*
X86610327Y-76342956D01*
X86669342Y-76161328D01*
X86672816Y-76128280D01*
X86688614Y-75977965D01*
X86689304Y-75971400D01*
X86683644Y-75917549D01*
X86696416Y-75847711D01*
X86744918Y-75795865D01*
X86764724Y-75786397D01*
X86786997Y-75778047D01*
X86795405Y-75774895D01*
X86911961Y-75687541D01*
X86999315Y-75570985D01*
X87050445Y-75434596D01*
X87057200Y-75372414D01*
X87057200Y-75086302D01*
X87077202Y-75018181D01*
X87130858Y-74971688D01*
X87157003Y-74963055D01*
X87223503Y-74948920D01*
X87294294Y-74954322D01*
G37*
%TD.AperFunction*%
%TA.AperFunction,Conductor*%
G36*
X80853621Y-71516332D02*
G01*
X80900114Y-71569988D01*
X80911500Y-71622330D01*
X80911500Y-71770330D01*
X80891498Y-71838451D01*
X80837842Y-71884944D01*
X80785500Y-71896330D01*
X80538115Y-71896330D01*
X80522876Y-71900805D01*
X80521671Y-71902195D01*
X80520000Y-71909878D01*
X80520000Y-72965795D01*
X80524044Y-72979566D01*
X80537583Y-72981595D01*
X80570533Y-72977258D01*
X80586345Y-72973021D01*
X80596779Y-72968699D01*
X80667369Y-72961108D01*
X80693221Y-72968699D01*
X80703654Y-72973021D01*
X80719468Y-72977258D01*
X80801946Y-72988116D01*
X80866873Y-73016838D01*
X80905965Y-73076103D01*
X80911500Y-73113038D01*
X80911500Y-73285288D01*
X80911208Y-73293858D01*
X80907275Y-73351552D01*
X80908580Y-73359029D01*
X80908580Y-73359030D01*
X80918261Y-73414499D01*
X80919223Y-73421021D01*
X80926898Y-73484442D01*
X80929581Y-73491543D01*
X80930222Y-73494152D01*
X80934685Y-73510462D01*
X80935450Y-73512998D01*
X80936757Y-73520484D01*
X80958744Y-73570570D01*
X80962442Y-73578995D01*
X80964935Y-73585104D01*
X80982260Y-73630953D01*
X80987513Y-73644856D01*
X80991817Y-73651119D01*
X80993054Y-73653485D01*
X81001299Y-73668297D01*
X81002632Y-73670551D01*
X81005685Y-73677505D01*
X81044243Y-73727753D01*
X81044579Y-73728191D01*
X81048459Y-73733532D01*
X81080339Y-73779920D01*
X81080344Y-73779925D01*
X81084643Y-73786181D01*
X81090313Y-73791232D01*
X81090314Y-73791234D01*
X81131170Y-73827635D01*
X81136446Y-73832616D01*
X81244395Y-73940565D01*
X81278421Y-74002877D01*
X81273282Y-74073888D01*
X81243293Y-74153884D01*
X81236538Y-74216066D01*
X81236538Y-75102634D01*
X81216536Y-75170755D01*
X81162880Y-75217248D01*
X81092606Y-75227352D01*
X81059290Y-75217741D01*
X81034923Y-75206893D01*
X81028888Y-75204206D01*
X80935487Y-75184353D01*
X80848544Y-75165872D01*
X80848539Y-75165872D01*
X80842087Y-75164500D01*
X80651113Y-75164500D01*
X80644661Y-75165872D01*
X80644656Y-75165872D01*
X80557713Y-75184353D01*
X80464312Y-75204206D01*
X80458282Y-75206891D01*
X80458281Y-75206891D01*
X80295878Y-75279197D01*
X80295876Y-75279198D01*
X80289848Y-75281882D01*
X80253521Y-75308275D01*
X80186656Y-75332132D01*
X80117504Y-75316052D01*
X80068024Y-75265139D01*
X80053462Y-75206338D01*
X80053462Y-74216066D01*
X80046707Y-74153884D01*
X79995577Y-74017495D01*
X79908223Y-73900939D01*
X79859843Y-73864680D01*
X79798854Y-73818971D01*
X79798852Y-73818970D01*
X79791667Y-73813585D01*
X79790604Y-73813186D01*
X79743246Y-73765723D01*
X79727900Y-73705460D01*
X79727900Y-73614861D01*
X79728101Y-73608740D01*
X79728500Y-73605706D01*
X79728500Y-73113037D01*
X79748502Y-73044916D01*
X79802158Y-72998423D01*
X79838055Y-72988115D01*
X79920533Y-72977258D01*
X79936345Y-72973021D01*
X79946779Y-72968699D01*
X80017369Y-72961108D01*
X80043221Y-72968699D01*
X80053652Y-72973020D01*
X80069469Y-72977258D01*
X80102040Y-72981546D01*
X80116222Y-72979335D01*
X80120000Y-72966178D01*
X80120000Y-71914445D01*
X80115525Y-71899206D01*
X80114135Y-71898001D01*
X80106452Y-71896330D01*
X79854500Y-71896330D01*
X79786379Y-71876328D01*
X79739886Y-71822672D01*
X79728500Y-71770330D01*
X79728500Y-71653327D01*
X79728499Y-71653323D01*
X79728499Y-71622330D01*
X79748501Y-71554209D01*
X79802157Y-71507716D01*
X79854499Y-71496330D01*
X80785500Y-71496330D01*
X80853621Y-71516332D01*
G37*
%TD.AperFunction*%
%TA.AperFunction,Conductor*%
G36*
X110187506Y-72239444D02*
G01*
X110247122Y-72277999D01*
X110272557Y-72324740D01*
X110272945Y-72326060D01*
X110274335Y-72327265D01*
X110282018Y-72328936D01*
X110538537Y-72328936D01*
X110564734Y-72331690D01*
X110565847Y-72331927D01*
X110565860Y-72331928D01*
X110572313Y-72333300D01*
X110763287Y-72333300D01*
X110769740Y-72331928D01*
X110769753Y-72331927D01*
X110770866Y-72331690D01*
X110797063Y-72328936D01*
X111404470Y-72328936D01*
X111472591Y-72348938D01*
X111519084Y-72402594D01*
X111530470Y-72454936D01*
X111530470Y-72623392D01*
X111510468Y-72691513D01*
X111456812Y-72738006D01*
X111404470Y-72749392D01*
X110728336Y-72749392D01*
X110666154Y-72756147D01*
X110529765Y-72807277D01*
X110522578Y-72812663D01*
X110514710Y-72816971D01*
X110513883Y-72815460D01*
X110457278Y-72836610D01*
X110448216Y-72836936D01*
X110286586Y-72836936D01*
X110271347Y-72841411D01*
X110270142Y-72842801D01*
X110268471Y-72850484D01*
X110268471Y-72902611D01*
X110268841Y-72909432D01*
X110274365Y-72960294D01*
X110277990Y-72975542D01*
X110292023Y-73012974D01*
X110297206Y-73083782D01*
X110292026Y-73101425D01*
X110274725Y-73147576D01*
X110267970Y-73209758D01*
X110267970Y-73647145D01*
X110247968Y-73715266D01*
X110194312Y-73761759D01*
X110124038Y-73771863D01*
X110083218Y-73757734D01*
X110083152Y-73757882D01*
X110026494Y-73732656D01*
X109914719Y-73682891D01*
X109914718Y-73682891D01*
X109908688Y-73680206D01*
X109815137Y-73660321D01*
X109728344Y-73641872D01*
X109728339Y-73641872D01*
X109721887Y-73640500D01*
X109610868Y-73640500D01*
X109542747Y-73620498D01*
X109496254Y-73566842D01*
X109484868Y-73514500D01*
X109484868Y-73209758D01*
X109478113Y-73147576D01*
X109461082Y-73102146D01*
X109455899Y-73031340D01*
X109461082Y-73013687D01*
X109478113Y-72968258D01*
X109484868Y-72906076D01*
X109484868Y-72377276D01*
X109504870Y-72309155D01*
X109558526Y-72262662D01*
X109620754Y-72251664D01*
X109639084Y-72253107D01*
X109639096Y-72253107D01*
X109641542Y-72253300D01*
X109841409Y-72253300D01*
X110041519Y-72253299D01*
X110077997Y-72250429D01*
X110084184Y-72248632D01*
X110084187Y-72248631D01*
X110116510Y-72239241D01*
X110187506Y-72239444D01*
G37*
%TD.AperFunction*%
%TA.AperFunction,Conductor*%
G36*
X83026221Y-71516332D02*
G01*
X83072714Y-71569988D01*
X83084100Y-71622330D01*
X83084100Y-71770330D01*
X83064098Y-71838451D01*
X83010442Y-71884944D01*
X82958100Y-71896330D01*
X82454500Y-71896330D01*
X82386379Y-71876328D01*
X82339886Y-71822672D01*
X82328500Y-71770330D01*
X82328500Y-71653327D01*
X82328499Y-71653323D01*
X82328499Y-71622330D01*
X82348501Y-71554209D01*
X82402157Y-71507716D01*
X82454499Y-71496330D01*
X82958100Y-71496330D01*
X83026221Y-71516332D01*
G37*
%TD.AperFunction*%
%TA.AperFunction,Conductor*%
G36*
X95291887Y-58748672D02*
G01*
X95348723Y-58791219D01*
X95367687Y-58827791D01*
X95380673Y-58867756D01*
X95476160Y-59033144D01*
X95480578Y-59038051D01*
X95480579Y-59038052D01*
X95582308Y-59151034D01*
X95613026Y-59215041D01*
X95604261Y-59285495D01*
X95577767Y-59324439D01*
X94506612Y-60395595D01*
X94444300Y-60429620D01*
X94417517Y-60432500D01*
X94290913Y-60432500D01*
X94284461Y-60433872D01*
X94284456Y-60433872D01*
X94225354Y-60446435D01*
X94104112Y-60472206D01*
X94098082Y-60474891D01*
X94098081Y-60474891D01*
X93935678Y-60547197D01*
X93935676Y-60547198D01*
X93929648Y-60549882D01*
X93924307Y-60553762D01*
X93924306Y-60553763D01*
X93891891Y-60577314D01*
X93775147Y-60662134D01*
X93770726Y-60667044D01*
X93770725Y-60667045D01*
X93678952Y-60768970D01*
X93647360Y-60804056D01*
X93551873Y-60969444D01*
X93492858Y-61151072D01*
X93472896Y-61341000D01*
X93492858Y-61530928D01*
X93551873Y-61712556D01*
X93647360Y-61877944D01*
X93775147Y-62019866D01*
X93929648Y-62132118D01*
X93935674Y-62134801D01*
X93935681Y-62134805D01*
X94036326Y-62179614D01*
X94090422Y-62225594D01*
X94111072Y-62293521D01*
X94110388Y-62307888D01*
X94107896Y-62331600D01*
X94108586Y-62338165D01*
X94121109Y-62457311D01*
X94127858Y-62521528D01*
X94173247Y-62661221D01*
X94186873Y-62703156D01*
X94184539Y-62703914D01*
X94192510Y-62763254D01*
X94162419Y-62827559D01*
X94107540Y-62860490D01*
X94108492Y-62863028D01*
X94010429Y-62899790D01*
X93939622Y-62904973D01*
X93921971Y-62899790D01*
X93831309Y-62865802D01*
X93816051Y-62862175D01*
X93765186Y-62856649D01*
X93758372Y-62856280D01*
X93320815Y-62856280D01*
X93305576Y-62860755D01*
X93304371Y-62862145D01*
X93302700Y-62869828D01*
X93302700Y-63757165D01*
X93307175Y-63772404D01*
X93308565Y-63773609D01*
X93316248Y-63775280D01*
X95011700Y-63775280D01*
X95079821Y-63795282D01*
X95126314Y-63848938D01*
X95137700Y-63901280D01*
X95137700Y-68854164D01*
X95142175Y-68869403D01*
X95143565Y-68870608D01*
X95151248Y-68872279D01*
X95353300Y-68872279D01*
X95421421Y-68892281D01*
X95467914Y-68945937D01*
X95479300Y-68998279D01*
X95479300Y-69403717D01*
X95459298Y-69471838D01*
X95442395Y-69492812D01*
X94528178Y-70407029D01*
X94465866Y-70441055D01*
X94395051Y-70435990D01*
X94345448Y-70402245D01*
X94311853Y-70364934D01*
X94299970Y-70356300D01*
X94162694Y-70256563D01*
X94162693Y-70256562D01*
X94157352Y-70252682D01*
X94151324Y-70249998D01*
X94151322Y-70249997D01*
X93988919Y-70177691D01*
X93988918Y-70177691D01*
X93982888Y-70175006D01*
X93889487Y-70155153D01*
X93802544Y-70136672D01*
X93802539Y-70136672D01*
X93796087Y-70135300D01*
X93605113Y-70135300D01*
X93598661Y-70136672D01*
X93598656Y-70136672D01*
X93511713Y-70155153D01*
X93418312Y-70175006D01*
X93412282Y-70177691D01*
X93412281Y-70177691D01*
X93249878Y-70249997D01*
X93249876Y-70249998D01*
X93243848Y-70252682D01*
X93238507Y-70256562D01*
X93238506Y-70256563D01*
X93207883Y-70278812D01*
X93089347Y-70364934D01*
X93084929Y-70369841D01*
X93084925Y-70369845D01*
X92977892Y-70488718D01*
X92961560Y-70506856D01*
X92944971Y-70535589D01*
X92893591Y-70584581D01*
X92823877Y-70598018D01*
X92757966Y-70571632D01*
X92742217Y-70556898D01*
X92665275Y-70471445D01*
X92665274Y-70471444D01*
X92660853Y-70466534D01*
X92506352Y-70354282D01*
X92500324Y-70351598D01*
X92500322Y-70351597D01*
X92337919Y-70279291D01*
X92337918Y-70279291D01*
X92331888Y-70276606D01*
X92237594Y-70256563D01*
X92151544Y-70238272D01*
X92151539Y-70238272D01*
X92145087Y-70236900D01*
X91954113Y-70236900D01*
X91947661Y-70238272D01*
X91947656Y-70238272D01*
X91861606Y-70256563D01*
X91767312Y-70276606D01*
X91761282Y-70279291D01*
X91761281Y-70279291D01*
X91598878Y-70351597D01*
X91598876Y-70351598D01*
X91592848Y-70354282D01*
X91438347Y-70466534D01*
X91310560Y-70608456D01*
X91215073Y-70773844D01*
X91156058Y-70955472D01*
X91155368Y-70962033D01*
X91155368Y-70962035D01*
X91140146Y-71106866D01*
X91136096Y-71145400D01*
X91136786Y-71151965D01*
X91155645Y-71331400D01*
X91142873Y-71401238D01*
X91119430Y-71433665D01*
X90940280Y-71612815D01*
X90877968Y-71646841D01*
X90807153Y-71641776D01*
X90750317Y-71599229D01*
X90725506Y-71532709D01*
X90729478Y-71491109D01*
X90730251Y-71488225D01*
X90733412Y-71480593D01*
X90748431Y-71366513D01*
X90748431Y-71366511D01*
X90753466Y-71328269D01*
X90749509Y-71298213D01*
X90748431Y-71281766D01*
X90748431Y-69582904D01*
X90768433Y-69514783D01*
X90780795Y-69498594D01*
X90899552Y-69366701D01*
X90899553Y-69366700D01*
X90903971Y-69361793D01*
X90999458Y-69196405D01*
X91058473Y-69014777D01*
X91059403Y-69005935D01*
X91075354Y-68854164D01*
X91467700Y-68854164D01*
X91472175Y-68869403D01*
X91473565Y-68870608D01*
X91481248Y-68872279D01*
X91923369Y-68872279D01*
X91930190Y-68871909D01*
X91981052Y-68866385D01*
X91996306Y-68862758D01*
X92086971Y-68828770D01*
X92157778Y-68823587D01*
X92175429Y-68828770D01*
X92266091Y-68862758D01*
X92281349Y-68866385D01*
X92332214Y-68871911D01*
X92339028Y-68872280D01*
X92776585Y-68872280D01*
X92791824Y-68867805D01*
X92793029Y-68866415D01*
X92794700Y-68858732D01*
X92794700Y-68854164D01*
X93302700Y-68854164D01*
X93307175Y-68869403D01*
X93308565Y-68870608D01*
X93316248Y-68872279D01*
X93758369Y-68872279D01*
X93765190Y-68871909D01*
X93816052Y-68866385D01*
X93831306Y-68862758D01*
X93921971Y-68828770D01*
X93992778Y-68823587D01*
X94010429Y-68828770D01*
X94101091Y-68862758D01*
X94116349Y-68866385D01*
X94167214Y-68871911D01*
X94174028Y-68872280D01*
X94611585Y-68872280D01*
X94626824Y-68867805D01*
X94628029Y-68866415D01*
X94629700Y-68858732D01*
X94629700Y-67971395D01*
X94625225Y-67956156D01*
X94623835Y-67954951D01*
X94616152Y-67953280D01*
X93320815Y-67953280D01*
X93305576Y-67957755D01*
X93304371Y-67959145D01*
X93302700Y-67966828D01*
X93302700Y-68854164D01*
X92794700Y-68854164D01*
X92794700Y-67971395D01*
X92790225Y-67956156D01*
X92788835Y-67954951D01*
X92781152Y-67953280D01*
X91485815Y-67953280D01*
X91470576Y-67957755D01*
X91469371Y-67959145D01*
X91467700Y-67966828D01*
X91467700Y-68854164D01*
X91075354Y-68854164D01*
X91077745Y-68831414D01*
X91078435Y-68824849D01*
X91072420Y-68767618D01*
X91059163Y-68641484D01*
X91059163Y-68641482D01*
X91058473Y-68634921D01*
X90999458Y-68453293D01*
X90980067Y-68419706D01*
X90976581Y-68413669D01*
X90959700Y-68350669D01*
X90959700Y-67427165D01*
X91467700Y-67427165D01*
X91472175Y-67442404D01*
X91473565Y-67443609D01*
X91481248Y-67445280D01*
X92776585Y-67445280D01*
X92791824Y-67440805D01*
X92793029Y-67439415D01*
X92794700Y-67431732D01*
X92794700Y-67427165D01*
X93302700Y-67427165D01*
X93307175Y-67442404D01*
X93308565Y-67443609D01*
X93316248Y-67445280D01*
X94611585Y-67445280D01*
X94626824Y-67440805D01*
X94628029Y-67439415D01*
X94629700Y-67431732D01*
X94629700Y-66136395D01*
X94625225Y-66121156D01*
X94623835Y-66119951D01*
X94616152Y-66118280D01*
X93320815Y-66118280D01*
X93305576Y-66122755D01*
X93304371Y-66124145D01*
X93302700Y-66131828D01*
X93302700Y-67427165D01*
X92794700Y-67427165D01*
X92794700Y-66136395D01*
X92790225Y-66121156D01*
X92788835Y-66119951D01*
X92781152Y-66118280D01*
X91485815Y-66118280D01*
X91470576Y-66122755D01*
X91469371Y-66124145D01*
X91467700Y-66131828D01*
X91467700Y-67427165D01*
X90959700Y-67427165D01*
X90959700Y-65592165D01*
X91467700Y-65592165D01*
X91472175Y-65607404D01*
X91473565Y-65608609D01*
X91481248Y-65610280D01*
X92776585Y-65610280D01*
X92791824Y-65605805D01*
X92793029Y-65604415D01*
X92794700Y-65596732D01*
X92794700Y-65592165D01*
X93302700Y-65592165D01*
X93307175Y-65607404D01*
X93308565Y-65608609D01*
X93316248Y-65610280D01*
X94611585Y-65610280D01*
X94626824Y-65605805D01*
X94628029Y-65604415D01*
X94629700Y-65596732D01*
X94629700Y-64301395D01*
X94625225Y-64286156D01*
X94623835Y-64284951D01*
X94616152Y-64283280D01*
X93320815Y-64283280D01*
X93305576Y-64287755D01*
X93304371Y-64289145D01*
X93302700Y-64296828D01*
X93302700Y-65592165D01*
X92794700Y-65592165D01*
X92794700Y-64301395D01*
X92790225Y-64286156D01*
X92788835Y-64284951D01*
X92781152Y-64283280D01*
X91485815Y-64283280D01*
X91470576Y-64287755D01*
X91469371Y-64289145D01*
X91467700Y-64296828D01*
X91467700Y-65592165D01*
X90959700Y-65592165D01*
X90959700Y-63757165D01*
X91467700Y-63757165D01*
X91472175Y-63772404D01*
X91473565Y-63773609D01*
X91481248Y-63775280D01*
X92776585Y-63775280D01*
X92791824Y-63770805D01*
X92793029Y-63769415D01*
X92794700Y-63761732D01*
X92794700Y-62874396D01*
X92790225Y-62859157D01*
X92788835Y-62857952D01*
X92781152Y-62856281D01*
X92339031Y-62856281D01*
X92332210Y-62856651D01*
X92281348Y-62862175D01*
X92266094Y-62865802D01*
X92175429Y-62899790D01*
X92104622Y-62904973D01*
X92086971Y-62899790D01*
X91996309Y-62865802D01*
X91981051Y-62862175D01*
X91930186Y-62856649D01*
X91923372Y-62856280D01*
X91485815Y-62856280D01*
X91470576Y-62860755D01*
X91469371Y-62862145D01*
X91467700Y-62869828D01*
X91467700Y-63757165D01*
X90959700Y-63757165D01*
X90959700Y-62874396D01*
X90955225Y-62859157D01*
X90953835Y-62857952D01*
X90946152Y-62856281D01*
X90504031Y-62856281D01*
X90497210Y-62856651D01*
X90446705Y-62862136D01*
X90376823Y-62849607D01*
X90324808Y-62801285D01*
X90307100Y-62736873D01*
X90307100Y-62502500D01*
X90327102Y-62434379D01*
X90380758Y-62387886D01*
X90433100Y-62376500D01*
X90494087Y-62376500D01*
X90500539Y-62375128D01*
X90500544Y-62375128D01*
X90587487Y-62356647D01*
X90680888Y-62336794D01*
X90707295Y-62325037D01*
X90849322Y-62261803D01*
X90849324Y-62261802D01*
X90855352Y-62259118D01*
X91009853Y-62146866D01*
X91026627Y-62128237D01*
X91133221Y-62009852D01*
X91133222Y-62009851D01*
X91137640Y-62004944D01*
X91233127Y-61839556D01*
X91292142Y-61657928D01*
X91312104Y-61468000D01*
X91296211Y-61316783D01*
X91292832Y-61284635D01*
X91292832Y-61284633D01*
X91292142Y-61278072D01*
X91233127Y-61096444D01*
X91137640Y-60931056D01*
X91124175Y-60916101D01*
X91014464Y-60794255D01*
X90983746Y-60730248D01*
X90982100Y-60709945D01*
X90982100Y-60009284D01*
X91002102Y-59941163D01*
X91019005Y-59920188D01*
X91390790Y-59548404D01*
X91453102Y-59514379D01*
X91479885Y-59511500D01*
X94136697Y-59511500D01*
X94153144Y-59512578D01*
X94183200Y-59516535D01*
X94191388Y-59515457D01*
X94221444Y-59511500D01*
X94232709Y-59510017D01*
X94335524Y-59496481D01*
X94477467Y-59437686D01*
X94493838Y-59425124D01*
X94599357Y-59344157D01*
X94617819Y-59320097D01*
X94628686Y-59307707D01*
X95158760Y-58777633D01*
X95221072Y-58743607D01*
X95291887Y-58748672D01*
G37*
%TD.AperFunction*%
%TA.AperFunction,Conductor*%
G36*
X111969202Y-67665911D02*
G01*
X112022301Y-67713039D01*
X112041500Y-67779894D01*
X112041500Y-67888316D01*
X112021498Y-67956437D01*
X111967842Y-68002930D01*
X111897568Y-68013034D01*
X111875831Y-68007909D01*
X111834687Y-67994262D01*
X111821314Y-67991395D01*
X111726962Y-67981728D01*
X111720545Y-67981400D01*
X111295515Y-67981400D01*
X111280276Y-67985875D01*
X111279071Y-67987265D01*
X111277400Y-67994948D01*
X111277400Y-69192400D01*
X111257398Y-69260521D01*
X111203742Y-69307014D01*
X111151400Y-69318400D01*
X110241315Y-69318400D01*
X110226076Y-69322875D01*
X110224871Y-69324265D01*
X110223200Y-69331948D01*
X110223200Y-69393800D01*
X110203198Y-69461921D01*
X110149542Y-69508414D01*
X110097200Y-69519800D01*
X109349700Y-69519800D01*
X109281579Y-69499798D01*
X109235086Y-69446142D01*
X109223700Y-69393800D01*
X109223700Y-69137800D01*
X109243702Y-69069679D01*
X109297358Y-69023186D01*
X109349700Y-69011800D01*
X109557285Y-69011800D01*
X109572524Y-69007325D01*
X109573729Y-69005935D01*
X109575400Y-68998252D01*
X109575400Y-68936400D01*
X109595402Y-68868279D01*
X109649058Y-68821786D01*
X109701400Y-68810400D01*
X110751285Y-68810400D01*
X110766524Y-68805925D01*
X110767729Y-68804535D01*
X110769400Y-68796852D01*
X110769400Y-67999516D01*
X110764925Y-67984277D01*
X110763535Y-67983072D01*
X110755852Y-67981401D01*
X110328907Y-67981401D01*
X110260786Y-67961399D01*
X110214293Y-67907743D01*
X110204189Y-67837469D01*
X110216179Y-67799880D01*
X110218291Y-67796702D01*
X110237492Y-67746156D01*
X110280381Y-67689578D01*
X110347050Y-67665169D01*
X110355280Y-67664900D01*
X111738897Y-67664900D01*
X111755344Y-67665978D01*
X111785400Y-67669935D01*
X111823644Y-67664900D01*
X111831134Y-67663914D01*
X111831136Y-67663914D01*
X111870423Y-67658741D01*
X111899054Y-67654972D01*
X111969202Y-67665911D01*
G37*
%TD.AperFunction*%
%TA.AperFunction,Conductor*%
G36*
X106004105Y-68147939D02*
G01*
X106050598Y-68201595D01*
X106060702Y-68271869D01*
X106031208Y-68336449D01*
X105976183Y-68371812D01*
X105973071Y-68375403D01*
X105971400Y-68383086D01*
X105971400Y-68668221D01*
X105953854Y-68732360D01*
X105937506Y-68760003D01*
X105935295Y-68767613D01*
X105935293Y-68767618D01*
X105910726Y-68852181D01*
X105872514Y-68912017D01*
X105808017Y-68941695D01*
X105737715Y-68931792D01*
X105683926Y-68885453D01*
X105669896Y-68855966D01*
X105650193Y-68795328D01*
X105634927Y-68748344D01*
X105604228Y-68695171D01*
X105560233Y-68618971D01*
X105539440Y-68582956D01*
X105495763Y-68534448D01*
X105465047Y-68470442D01*
X105463400Y-68450139D01*
X105463400Y-68387653D01*
X105458925Y-68372414D01*
X105433230Y-68350149D01*
X105433844Y-68349440D01*
X105422109Y-68343032D01*
X105388084Y-68280719D01*
X105393150Y-68209904D01*
X105435697Y-68153068D01*
X105502217Y-68128258D01*
X105511205Y-68127937D01*
X105935984Y-68127937D01*
X106004105Y-68147939D01*
G37*
%TD.AperFunction*%
%TA.AperFunction,Conductor*%
G36*
X108195812Y-66533861D02*
G01*
X108220090Y-66550371D01*
X108241738Y-66569129D01*
X108249421Y-66570800D01*
X108317621Y-66570800D01*
X108381760Y-66588346D01*
X108409403Y-66604694D01*
X108417014Y-66606905D01*
X108417016Y-66606906D01*
X108459609Y-66619280D01*
X108566746Y-66650406D01*
X108573151Y-66650910D01*
X108573156Y-66650911D01*
X108601060Y-66653107D01*
X108601068Y-66653107D01*
X108603516Y-66653300D01*
X108946997Y-66653300D01*
X109015118Y-66673302D01*
X109040627Y-66694983D01*
X109045698Y-66700616D01*
X109076417Y-66764619D01*
X109067655Y-66835073D01*
X109040222Y-66874950D01*
X108954283Y-66959109D01*
X108947886Y-66965373D01*
X108912000Y-67021057D01*
X108858286Y-67067480D01*
X108806090Y-67078800D01*
X108801988Y-67078800D01*
X108786749Y-67083275D01*
X108771385Y-67101006D01*
X108711659Y-67139390D01*
X108676160Y-67144494D01*
X108253988Y-67144494D01*
X108238749Y-67148969D01*
X108216484Y-67174664D01*
X108215450Y-67173768D01*
X108209685Y-67184327D01*
X108147373Y-67218352D01*
X108076557Y-67213288D01*
X108019721Y-67170741D01*
X107994910Y-67104221D01*
X107994589Y-67095232D01*
X107994589Y-67021291D01*
X107987834Y-66959109D01*
X107985060Y-66951710D01*
X107984329Y-66948634D01*
X107984329Y-66890342D01*
X107985060Y-66887266D01*
X107987834Y-66879867D01*
X107994589Y-66817685D01*
X107994589Y-66647142D01*
X108014591Y-66579021D01*
X108068247Y-66532528D01*
X108109164Y-66521662D01*
X108126162Y-66520115D01*
X108195812Y-66533861D01*
G37*
%TD.AperFunction*%
%TA.AperFunction,Conductor*%
G36*
X111046821Y-63138302D02*
G01*
X111093314Y-63191958D01*
X111104700Y-63244300D01*
X111104700Y-63520489D01*
X111084698Y-63588610D01*
X111073924Y-63603002D01*
X111063471Y-63615065D01*
X111061800Y-63622748D01*
X111061800Y-64720200D01*
X111041798Y-64788321D01*
X110988142Y-64834814D01*
X110935800Y-64846200D01*
X110679800Y-64846200D01*
X110611679Y-64826198D01*
X110565186Y-64772542D01*
X110553800Y-64720200D01*
X110553800Y-63627315D01*
X110549325Y-63612076D01*
X110547935Y-63610871D01*
X110540252Y-63609200D01*
X110537362Y-63609200D01*
X110530847Y-63609537D01*
X110473507Y-63615487D01*
X110403685Y-63602623D01*
X110351903Y-63554052D01*
X110334600Y-63485196D01*
X110344093Y-63441942D01*
X110369521Y-63380554D01*
X110369522Y-63380551D01*
X110372681Y-63372924D01*
X110387700Y-63258844D01*
X110387700Y-63258842D01*
X110391398Y-63230752D01*
X110420120Y-63165826D01*
X110479385Y-63126734D01*
X110524353Y-63122981D01*
X110524353Y-63122257D01*
X110532612Y-63122257D01*
X110540800Y-63123335D01*
X110548988Y-63122257D01*
X110570856Y-63119378D01*
X110587303Y-63118300D01*
X110978700Y-63118300D01*
X111046821Y-63138302D01*
G37*
%TD.AperFunction*%
%TA.AperFunction,Conductor*%
G36*
X100999535Y-57648649D02*
G01*
X101046028Y-57702305D01*
X101056132Y-57772579D01*
X101051935Y-57788962D01*
X101052049Y-57788989D01*
X101046595Y-57811929D01*
X101041069Y-57862794D01*
X101040700Y-57869608D01*
X101040700Y-58092165D01*
X101045175Y-58107404D01*
X101046565Y-58108609D01*
X101054248Y-58110280D01*
X102676700Y-58110280D01*
X102744821Y-58130282D01*
X102791314Y-58183938D01*
X102802700Y-58236280D01*
X102802700Y-58492280D01*
X102782698Y-58560401D01*
X102729042Y-58606894D01*
X102676700Y-58618280D01*
X101058816Y-58618280D01*
X101043577Y-58622755D01*
X101042372Y-58624145D01*
X101040701Y-58631828D01*
X101040701Y-58858949D01*
X101041071Y-58865770D01*
X101046595Y-58916632D01*
X101050220Y-58931880D01*
X101058639Y-58954337D01*
X101063822Y-59025144D01*
X101058642Y-59042790D01*
X101046955Y-59073964D01*
X101040200Y-59136146D01*
X101040200Y-60132414D01*
X101046955Y-60194596D01*
X101058372Y-60225051D01*
X101063555Y-60295857D01*
X101058372Y-60313509D01*
X101050395Y-60334788D01*
X101007754Y-60391553D01*
X100945582Y-60415869D01*
X100943718Y-60416065D01*
X100935101Y-60416970D01*
X100935097Y-60416971D01*
X100928093Y-60417707D01*
X100921422Y-60419978D01*
X100773673Y-60470275D01*
X100773670Y-60470276D01*
X100767003Y-60472546D01*
X100761005Y-60476236D01*
X100761003Y-60476237D01*
X100628065Y-60558021D01*
X100628063Y-60558023D01*
X100622066Y-60561712D01*
X100580325Y-60602588D01*
X100517662Y-60635959D01*
X100446903Y-60630154D01*
X100415464Y-60612528D01*
X100405784Y-60605100D01*
X100369572Y-60577314D01*
X100227629Y-60518519D01*
X100113549Y-60503500D01*
X100075305Y-60498465D01*
X100058086Y-60500732D01*
X100045249Y-60502422D01*
X100028802Y-60503500D01*
X97445484Y-60503500D01*
X97377363Y-60483498D01*
X97330870Y-60429842D01*
X97320766Y-60359568D01*
X97350260Y-60294988D01*
X97356389Y-60288405D01*
X97636311Y-60008483D01*
X97648702Y-59997615D01*
X97666211Y-59984180D01*
X97666212Y-59984179D01*
X97672757Y-59979157D01*
X97696237Y-59948557D01*
X97696240Y-59948554D01*
X97766286Y-59857267D01*
X97825081Y-59715324D01*
X97845135Y-59563000D01*
X97841178Y-59532942D01*
X97840100Y-59516497D01*
X97840100Y-58110901D01*
X97841178Y-58094453D01*
X97842049Y-58087842D01*
X97845135Y-58064400D01*
X97839845Y-58024219D01*
X97831924Y-57964050D01*
X97826159Y-57920263D01*
X97826159Y-57920262D01*
X97825081Y-57912076D01*
X97804668Y-57862794D01*
X97780289Y-57803940D01*
X97779849Y-57802878D01*
X97772253Y-57732289D01*
X97804025Y-57668798D01*
X97865079Y-57632564D01*
X97896253Y-57628647D01*
X100931414Y-57628647D01*
X100999535Y-57648649D01*
G37*
%TD.AperFunction*%
%TA.AperFunction,Conductor*%
G36*
X88734067Y-57648649D02*
G01*
X88780560Y-57702305D01*
X88790664Y-57772579D01*
X88775065Y-57817647D01*
X88715820Y-57920263D01*
X88700473Y-57946844D01*
X88641458Y-58128472D01*
X88640768Y-58135033D01*
X88640768Y-58135035D01*
X88624093Y-58293692D01*
X88597080Y-58359349D01*
X88587878Y-58369617D01*
X88576265Y-58381230D01*
X88573785Y-58384427D01*
X88566082Y-58393447D01*
X88535814Y-58425679D01*
X88531995Y-58432625D01*
X88531993Y-58432628D01*
X88526052Y-58443434D01*
X88515201Y-58459953D01*
X88502786Y-58475959D01*
X88499641Y-58483228D01*
X88499638Y-58483232D01*
X88485226Y-58516537D01*
X88480009Y-58527187D01*
X88458705Y-58565940D01*
X88456734Y-58573615D01*
X88456734Y-58573616D01*
X88453667Y-58585562D01*
X88447263Y-58604266D01*
X88444025Y-58611750D01*
X88439219Y-58622855D01*
X88437980Y-58630678D01*
X88437977Y-58630688D01*
X88432301Y-58666524D01*
X88429895Y-58678144D01*
X88424769Y-58698111D01*
X88418900Y-58720970D01*
X88418900Y-58741224D01*
X88417349Y-58760934D01*
X88414180Y-58780943D01*
X88414926Y-58788835D01*
X88418341Y-58824961D01*
X88418900Y-58836819D01*
X88418900Y-59895700D01*
X88398898Y-59963821D01*
X88345242Y-60010314D01*
X88292900Y-60021700D01*
X88173195Y-60021700D01*
X88105074Y-60001698D01*
X88084099Y-59984795D01*
X87341327Y-59242022D01*
X87333793Y-59233743D01*
X87329680Y-59227262D01*
X87280028Y-59180636D01*
X87277187Y-59177882D01*
X87257450Y-59158145D01*
X87254253Y-59155665D01*
X87245231Y-59147960D01*
X87229033Y-59132749D01*
X87213001Y-59117694D01*
X87206055Y-59113875D01*
X87206052Y-59113873D01*
X87195246Y-59107932D01*
X87178727Y-59097081D01*
X87178263Y-59096721D01*
X87162721Y-59084666D01*
X87155452Y-59081521D01*
X87155448Y-59081518D01*
X87122143Y-59067106D01*
X87111494Y-59061890D01*
X87111363Y-59061818D01*
X87061299Y-59011478D01*
X87046398Y-58942063D01*
X87049470Y-58922249D01*
X87050805Y-58916635D01*
X87056331Y-58865766D01*
X87056700Y-58858952D01*
X87056700Y-58636395D01*
X87052225Y-58621156D01*
X87050835Y-58619951D01*
X87043152Y-58618280D01*
X85420700Y-58618280D01*
X85352579Y-58598278D01*
X85306086Y-58544622D01*
X85294700Y-58492280D01*
X85294700Y-58236280D01*
X85314702Y-58168159D01*
X85368358Y-58121666D01*
X85420700Y-58110280D01*
X87038584Y-58110280D01*
X87053823Y-58105805D01*
X87055028Y-58104415D01*
X87056699Y-58096732D01*
X87056699Y-57869611D01*
X87056329Y-57862790D01*
X87050805Y-57811928D01*
X87045351Y-57788987D01*
X87047248Y-57788536D01*
X87042820Y-57728072D01*
X87076740Y-57665702D01*
X87138995Y-57631572D01*
X87165986Y-57628647D01*
X88665946Y-57628647D01*
X88734067Y-57648649D01*
G37*
%TD.AperFunction*%
%TA.AperFunction,Conductor*%
G36*
X83999535Y-57648649D02*
G01*
X84046028Y-57702305D01*
X84056132Y-57772579D01*
X84051935Y-57788962D01*
X84052049Y-57788989D01*
X84046595Y-57811929D01*
X84041069Y-57862794D01*
X84040700Y-57869607D01*
X84040701Y-58178420D01*
X84020699Y-58246540D01*
X83967044Y-58293033D01*
X83896770Y-58303138D01*
X83848585Y-58285680D01*
X83817531Y-58266538D01*
X83817529Y-58266537D01*
X83811301Y-58262698D01*
X83648957Y-58208851D01*
X83642120Y-58208151D01*
X83642118Y-58208150D01*
X83600799Y-58203917D01*
X83547932Y-58198500D01*
X83000468Y-58198500D01*
X82997222Y-58198837D01*
X82997218Y-58198837D01*
X82967930Y-58201876D01*
X82898181Y-58209113D01*
X82887885Y-58212548D01*
X82742876Y-58260927D01*
X82742874Y-58260928D01*
X82735932Y-58263244D01*
X82729708Y-58267096D01*
X82729707Y-58267096D01*
X82671464Y-58303138D01*
X82590487Y-58353248D01*
X82585314Y-58358430D01*
X82579577Y-58362977D01*
X82578145Y-58361170D01*
X82525625Y-58389902D01*
X82454805Y-58384892D01*
X82418347Y-58361501D01*
X82417517Y-58362552D01*
X82400360Y-58349002D01*
X82267320Y-58266996D01*
X82254139Y-58260849D01*
X82105386Y-58211509D01*
X82092010Y-58208642D01*
X82001103Y-58199328D01*
X81996074Y-58199071D01*
X81981076Y-58203475D01*
X81979871Y-58204865D01*
X81978200Y-58212548D01*
X81978200Y-59310000D01*
X81958198Y-59378121D01*
X81904542Y-59424614D01*
X81852200Y-59436000D01*
X81596200Y-59436000D01*
X81528079Y-59415998D01*
X81481586Y-59362342D01*
X81470200Y-59310000D01*
X81470200Y-58217115D01*
X81465725Y-58201876D01*
X81464335Y-58200671D01*
X81456652Y-58199000D01*
X81453762Y-58199000D01*
X81447247Y-58199337D01*
X81355133Y-58208895D01*
X81349494Y-58210113D01*
X81278686Y-58204940D01*
X81221916Y-58162306D01*
X81197207Y-58095748D01*
X81196900Y-58086952D01*
X81196899Y-57754647D01*
X81216901Y-57686527D01*
X81270556Y-57640034D01*
X81322899Y-57628647D01*
X83931414Y-57628647D01*
X83999535Y-57648649D01*
G37*
%TD.AperFunction*%
%TA.AperFunction,Conductor*%
G36*
X108782371Y-54451682D02*
G01*
X108817841Y-54502676D01*
X108856706Y-54606348D01*
X108944060Y-54722904D01*
X109060616Y-54810258D01*
X109197005Y-54861388D01*
X109259187Y-54868143D01*
X110117727Y-54868143D01*
X110185848Y-54888145D01*
X110206822Y-54905048D01*
X111814371Y-56512597D01*
X111848397Y-56574909D01*
X111843332Y-56645724D01*
X111800785Y-56702560D01*
X111769505Y-56719674D01*
X111694943Y-56747626D01*
X111694942Y-56747627D01*
X111686533Y-56750779D01*
X111569977Y-56838133D01*
X111482623Y-56954689D01*
X111479471Y-56963098D01*
X111479470Y-56963099D01*
X111460382Y-57014016D01*
X111417741Y-57070781D01*
X111351179Y-57095481D01*
X111281830Y-57080274D01*
X111253305Y-57058882D01*
X111252663Y-57058240D01*
X111247282Y-57051060D01*
X111130726Y-56963706D01*
X110994337Y-56912576D01*
X110932155Y-56905821D01*
X110235887Y-56905821D01*
X110173705Y-56912576D01*
X110037316Y-56963706D01*
X110030130Y-56969092D01*
X110022312Y-56973372D01*
X109952954Y-56988541D01*
X109942627Y-56987238D01*
X109938266Y-56985971D01*
X109913700Y-56984037D01*
X109904244Y-56983293D01*
X109904238Y-56983293D01*
X109901789Y-56983100D01*
X109651952Y-56983100D01*
X109401812Y-56983101D01*
X109365334Y-56985971D01*
X109359152Y-56987767D01*
X109359147Y-56987768D01*
X109349410Y-56990597D01*
X109314258Y-56995600D01*
X108956212Y-56995600D01*
X108940973Y-57000075D01*
X108939768Y-57001465D01*
X108938097Y-57009148D01*
X108938097Y-57221977D01*
X108920550Y-57286116D01*
X108875569Y-57362175D01*
X108875567Y-57362179D01*
X108871531Y-57369004D01*
X108826171Y-57525134D01*
X108825667Y-57531541D01*
X108825666Y-57531545D01*
X108824738Y-57543337D01*
X108823300Y-57561611D01*
X108823301Y-57961588D01*
X108826171Y-57998066D01*
X108827968Y-58004250D01*
X108838984Y-58042169D01*
X108838781Y-58113166D01*
X108800227Y-58172782D01*
X108735562Y-58202090D01*
X108717987Y-58203322D01*
X107894213Y-58203322D01*
X107878974Y-58207797D01*
X107877769Y-58209187D01*
X107876098Y-58216870D01*
X107876098Y-58345500D01*
X107856096Y-58413621D01*
X107802440Y-58460114D01*
X107750098Y-58471500D01*
X107523570Y-58471500D01*
X107455449Y-58451498D01*
X107408956Y-58397842D01*
X107397570Y-58345500D01*
X107397570Y-57856445D01*
X107390815Y-57794263D01*
X107372227Y-57744680D01*
X107367044Y-57673873D01*
X107400965Y-57611504D01*
X107463419Y-57577332D01*
X107491453Y-57571232D01*
X107693620Y-57495819D01*
X107697578Y-57493658D01*
X107697748Y-57493580D01*
X107768022Y-57483472D01*
X107832604Y-57512962D01*
X107870991Y-57572686D01*
X107876097Y-57608191D01*
X107876097Y-57677207D01*
X107880572Y-57692446D01*
X107881962Y-57693651D01*
X107889645Y-57695322D01*
X108411982Y-57695322D01*
X108427221Y-57690847D01*
X108428426Y-57689457D01*
X108430097Y-57681774D01*
X108430097Y-56924437D01*
X108415337Y-56874169D01*
X108414832Y-56873383D01*
X108414831Y-56802386D01*
X108425141Y-56777496D01*
X108431292Y-56766232D01*
X108441027Y-56748404D01*
X108516437Y-56546236D01*
X108517707Y-56540400D01*
X108532980Y-56470205D01*
X108836839Y-56470205D01*
X108836879Y-56484305D01*
X108844149Y-56487600D01*
X109379685Y-56487600D01*
X109394924Y-56483125D01*
X109396129Y-56481735D01*
X109397800Y-56474052D01*
X109397800Y-56469485D01*
X109905800Y-56469485D01*
X109910275Y-56484724D01*
X109911665Y-56485929D01*
X109919348Y-56487600D01*
X110453700Y-56487600D01*
X110467231Y-56483627D01*
X110468366Y-56475729D01*
X110433819Y-56356817D01*
X110427570Y-56342378D01*
X110352946Y-56216195D01*
X110343299Y-56203759D01*
X110239641Y-56100101D01*
X110227205Y-56090454D01*
X110101022Y-56015830D01*
X110086583Y-56009581D01*
X109944364Y-55968262D01*
X109931777Y-55965963D01*
X109923857Y-55965340D01*
X109908770Y-55968510D01*
X109905800Y-55979974D01*
X109905800Y-56469485D01*
X109397800Y-56469485D01*
X109397800Y-55982034D01*
X109393456Y-55967239D01*
X109381797Y-55965179D01*
X109371823Y-55965963D01*
X109359236Y-55968262D01*
X109217017Y-56009581D01*
X109202578Y-56015830D01*
X109076395Y-56090454D01*
X109063959Y-56100101D01*
X108960301Y-56203759D01*
X108950654Y-56216195D01*
X108876030Y-56342378D01*
X108869781Y-56356817D01*
X108836839Y-56470205D01*
X108532980Y-56470205D01*
X108561354Y-56339791D01*
X108561355Y-56339785D01*
X108562310Y-56335395D01*
X108574817Y-56160624D01*
X108576243Y-56148714D01*
X108578125Y-56137531D01*
X108578125Y-56137529D01*
X108578934Y-56132723D01*
X108579088Y-56120171D01*
X108575131Y-56092531D01*
X108573859Y-56074675D01*
X108573859Y-54546906D01*
X108593861Y-54478785D01*
X108647517Y-54432292D01*
X108717791Y-54422188D01*
X108782371Y-54451682D01*
G37*
%TD.AperFunction*%
%TA.AperFunction,Conductor*%
G36*
X76234866Y-52574073D02*
G01*
X76261387Y-52608376D01*
X76283405Y-52650136D01*
X76403802Y-52792608D01*
X76409225Y-52796755D01*
X76409227Y-52796756D01*
X76428202Y-52811263D01*
X76551985Y-52905902D01*
X76558165Y-52908784D01*
X76558167Y-52908785D01*
X76615792Y-52935656D01*
X76641520Y-52947653D01*
X76643083Y-52948382D01*
X76696368Y-52995300D01*
X76715833Y-53062577D01*
X76715833Y-54415277D01*
X76722588Y-54477459D01*
X76734458Y-54509121D01*
X76773718Y-54613848D01*
X76772247Y-54614399D01*
X76784900Y-54663857D01*
X76784900Y-55257545D01*
X76764898Y-55325666D01*
X76711242Y-55372159D01*
X76640968Y-55382263D01*
X76605652Y-55371741D01*
X76603933Y-55370939D01*
X76597701Y-55367098D01*
X76590753Y-55364794D01*
X76590750Y-55364792D01*
X76446747Y-55317029D01*
X76435357Y-55313251D01*
X76428520Y-55312551D01*
X76428518Y-55312550D01*
X76387199Y-55308317D01*
X76334332Y-55302900D01*
X75786868Y-55302900D01*
X75783622Y-55303237D01*
X75783618Y-55303237D01*
X75754330Y-55306276D01*
X75684581Y-55313513D01*
X75673719Y-55317137D01*
X75529276Y-55365327D01*
X75529274Y-55365328D01*
X75522332Y-55367644D01*
X75376887Y-55457648D01*
X75371714Y-55462830D01*
X75365977Y-55467377D01*
X75364545Y-55465570D01*
X75312025Y-55494302D01*
X75241205Y-55489292D01*
X75204747Y-55465901D01*
X75203917Y-55466952D01*
X75186760Y-55453402D01*
X75053720Y-55371396D01*
X75040539Y-55365249D01*
X74891786Y-55315909D01*
X74878410Y-55313042D01*
X74787503Y-55303728D01*
X74782474Y-55303471D01*
X74767476Y-55307875D01*
X74766271Y-55309265D01*
X74764600Y-55316948D01*
X74764600Y-57251285D01*
X74769075Y-57266524D01*
X74770467Y-57267730D01*
X74782271Y-57270298D01*
X74844583Y-57304323D01*
X74878608Y-57366635D01*
X74873543Y-57437451D01*
X74844582Y-57482513D01*
X74791747Y-57535348D01*
X74783461Y-57542888D01*
X74776982Y-57547000D01*
X74771557Y-57552777D01*
X74730357Y-57596651D01*
X74727602Y-57599493D01*
X74707865Y-57619230D01*
X74705385Y-57622427D01*
X74697682Y-57631447D01*
X74667414Y-57663679D01*
X74663597Y-57670623D01*
X74663132Y-57671262D01*
X74606909Y-57714614D01*
X74536172Y-57720688D01*
X74473381Y-57687554D01*
X74438472Y-57625733D01*
X74435198Y-57597198D01*
X74435198Y-57414283D01*
X74428443Y-57352101D01*
X74377313Y-57215712D01*
X74289959Y-57099156D01*
X74290404Y-57098822D01*
X74259479Y-57042189D01*
X74256600Y-57015406D01*
X74256600Y-56558515D01*
X74252125Y-56543276D01*
X74250735Y-56542071D01*
X74243052Y-56540400D01*
X74201311Y-56540400D01*
X74133190Y-56520398D01*
X74086697Y-56466742D01*
X74080314Y-56449552D01*
X74051107Y-56349018D01*
X74051105Y-56349013D01*
X74048894Y-56341403D01*
X74044858Y-56334578D01*
X74044856Y-56334574D01*
X73978599Y-56222539D01*
X73961139Y-56153723D01*
X73983656Y-56086392D01*
X74039000Y-56041922D01*
X74087052Y-56032400D01*
X74238485Y-56032400D01*
X74253724Y-56027925D01*
X74254929Y-56026535D01*
X74256600Y-56018852D01*
X74256600Y-55321515D01*
X74252125Y-55306276D01*
X74250735Y-55305071D01*
X74243052Y-55303400D01*
X74240162Y-55303400D01*
X74233647Y-55303737D01*
X74141543Y-55313294D01*
X74128144Y-55316188D01*
X74125791Y-55316973D01*
X74124248Y-55317029D01*
X74121406Y-55317643D01*
X74121297Y-55317137D01*
X74054842Y-55319561D01*
X73993756Y-55283379D01*
X73977456Y-55261590D01*
X73969124Y-55247500D01*
X73959484Y-55235074D01*
X73854926Y-55130516D01*
X73842497Y-55120874D01*
X73824273Y-55110097D01*
X73775820Y-55058205D01*
X73763114Y-54988354D01*
X73790189Y-54922723D01*
X73848448Y-54882148D01*
X73888411Y-54875643D01*
X75122455Y-54875643D01*
X75184637Y-54868888D01*
X75321026Y-54817758D01*
X75437582Y-54730404D01*
X75524936Y-54613848D01*
X75576066Y-54477459D01*
X75582821Y-54415277D01*
X75582821Y-53067308D01*
X75602823Y-52999187D01*
X75655760Y-52953111D01*
X75661542Y-52951165D01*
X75821430Y-52855095D01*
X75863442Y-52815366D01*
X75952001Y-52731620D01*
X75952003Y-52731618D01*
X75956959Y-52726931D01*
X76045721Y-52596322D01*
X76100554Y-52551224D01*
X76171064Y-52542930D01*
X76234866Y-52574073D01*
G37*
%TD.AperFunction*%
%TD*%
M02*
