%TF.GenerationSoftware,KiCad,Pcbnew,(6.0.6-0)*%
%TF.CreationDate,2022-11-04T12:46:31+01:00*%
%TF.ProjectId,GlowBandSmall,476c6f77-4261-46e6-9453-6d616c6c2e6b,rev?*%
%TF.SameCoordinates,Original*%
%TF.FileFunction,Legend,Top*%
%TF.FilePolarity,Positive*%
%FSLAX46Y46*%
G04 Gerber Fmt 4.6, Leading zero omitted, Abs format (unit mm)*
G04 Created by KiCad (PCBNEW (6.0.6-0)) date 2022-11-04 12:46:31*
%MOMM*%
%LPD*%
G01*
G04 APERTURE LIST*
G04 Aperture macros list*
%AMRoundRect*
0 Rectangle with rounded corners*
0 $1 Rounding radius*
0 $2 $3 $4 $5 $6 $7 $8 $9 X,Y pos of 4 corners*
0 Add a 4 corners polygon primitive as box body*
4,1,4,$2,$3,$4,$5,$6,$7,$8,$9,$2,$3,0*
0 Add four circle primitives for the rounded corners*
1,1,$1+$1,$2,$3*
1,1,$1+$1,$4,$5*
1,1,$1+$1,$6,$7*
1,1,$1+$1,$8,$9*
0 Add four rect primitives between the rounded corners*
20,1,$1+$1,$2,$3,$4,$5,0*
20,1,$1+$1,$4,$5,$6,$7,0*
20,1,$1+$1,$6,$7,$8,$9,0*
20,1,$1+$1,$8,$9,$2,$3,0*%
G04 Aperture macros list end*
%ADD10C,0.120000*%
%ADD11C,0.254001*%
%ADD12C,0.059995*%
%ADD13C,0.151994*%
%ADD14C,0.152400*%
%ADD15C,0.200000*%
%ADD16C,0.131597*%
%ADD17C,0.127000*%
%ADD18C,0.150013*%
%ADD19C,0.100000*%
%ADD20C,0.300000*%
%ADD21RoundRect,0.250000X-0.325000X-0.650000X0.325000X-0.650000X0.325000X0.650000X-0.325000X0.650000X0*%
%ADD22RoundRect,0.135000X0.185000X-0.135000X0.185000X0.135000X-0.185000X0.135000X-0.185000X-0.135000X0*%
%ADD23RoundRect,0.225000X-0.225000X-0.250000X0.225000X-0.250000X0.225000X0.250000X-0.225000X0.250000X0*%
%ADD24RoundRect,0.135000X0.135000X0.185000X-0.135000X0.185000X-0.135000X-0.185000X0.135000X-0.185000X0*%
%ADD25C,0.700025*%
%ADD26R,1.200000X0.900000*%
%ADD27R,1.300000X1.200000*%
%ADD28R,2.500000X1.900000*%
%ADD29R,0.550013X1.050013*%
%ADD30R,1.400000X0.450013*%
%ADD31R,0.450013X2.400000*%
%ADD32RoundRect,0.135000X-0.185000X0.135000X-0.185000X-0.135000X0.185000X-0.135000X0.185000X0.135000X0*%
%ADD33RoundRect,0.225000X0.250000X-0.225000X0.250000X0.225000X-0.250000X0.225000X-0.250000X-0.225000X0*%
%ADD34RoundRect,0.140000X-0.170000X0.140000X-0.170000X-0.140000X0.170000X-0.140000X0.170000X0.140000X0*%
%ADD35R,1.250013X0.700000*%
%ADD36RoundRect,0.140000X-0.140000X-0.170000X0.140000X-0.170000X0.140000X0.170000X-0.140000X0.170000X0*%
%ADD37O,0.250013X0.750013*%
%ADD38R,1.070003X0.600000*%
%ADD39RoundRect,0.140000X0.170000X-0.140000X0.170000X0.140000X-0.170000X0.140000X-0.170000X-0.140000X0*%
%ADD40RoundRect,0.225000X0.225000X0.250000X-0.225000X0.250000X-0.225000X-0.250000X0.225000X-0.250000X0*%
%ADD41RoundRect,0.135000X-0.135000X-0.185000X0.135000X-0.185000X0.135000X0.185000X-0.135000X0.185000X0*%
%ADD42R,0.550013X1.000000*%
%ADD43RoundRect,0.150000X-0.512500X-0.150000X0.512500X-0.150000X0.512500X0.150000X-0.512500X0.150000X0*%
%ADD44R,2.000000X0.900000*%
%ADD45R,0.900000X2.000000*%
%ADD46R,1.330000X1.330000*%
%ADD47R,0.280010X0.675006*%
%ADD48R,0.675006X0.280010*%
%ADD49R,1.200000X0.600000*%
%ADD50R,2.500000X3.499873*%
%ADD51R,0.532004X1.072009*%
%ADD52R,2.460000X2.310000*%
%ADD53RoundRect,0.100000X-0.687500X-0.100000X0.687500X-0.100000X0.687500X0.100000X-0.687500X0.100000X0*%
%ADD54RoundRect,0.225000X-0.250000X0.225000X-0.250000X-0.225000X0.250000X-0.225000X0.250000X0.225000X0*%
%ADD55RoundRect,0.140000X0.140000X0.170000X-0.140000X0.170000X-0.140000X-0.170000X0.140000X-0.170000X0*%
%ADD56RoundRect,0.250000X-0.650000X0.325000X-0.650000X-0.325000X0.650000X-0.325000X0.650000X0.325000X0*%
G04 APERTURE END LIST*
D10*
%TO.C,C6*%
X122935948Y-91495200D02*
X124358452Y-91495200D01*
X122935948Y-93315200D02*
X124358452Y-93315200D01*
%TO.C,R9*%
X127164000Y-91288841D02*
X127164000Y-90981559D01*
X126404000Y-91288841D02*
X126404000Y-90981559D01*
%TO.C,C5*%
X118338020Y-88237600D02*
X118619180Y-88237600D01*
X118338020Y-89257600D02*
X118619180Y-89257600D01*
%TO.C,R3*%
X111735600Y-93117641D02*
X111735600Y-92810359D01*
X112495600Y-93117641D02*
X112495600Y-92810359D01*
%TO.C,R11*%
X121616441Y-89991200D02*
X121309159Y-89991200D01*
X121616441Y-89231200D02*
X121309159Y-89231200D01*
D11*
%TO.C,SW2*%
X127001394Y-94310198D02*
X127001394Y-96088202D01*
D10*
%TO.C,C4*%
X110806620Y-85545200D02*
X111087780Y-85545200D01*
X110806620Y-86565200D02*
X111087780Y-86565200D01*
%TO.C,R7*%
X114809242Y-92531200D02*
X114501960Y-92531200D01*
X114809242Y-91771200D02*
X114501960Y-91771200D01*
D11*
%TO.C,U4*%
X112817600Y-87840800D02*
X113936447Y-87840800D01*
X116898753Y-87840800D02*
X118017600Y-87840800D01*
X113936447Y-82440800D02*
X112817625Y-82440800D01*
X112817600Y-87840800D02*
X112817625Y-82440800D01*
X118017575Y-82440800D02*
X116898753Y-82440800D01*
X118017575Y-82440800D02*
X118017600Y-87840800D01*
D12*
X118047597Y-87840825D02*
G75*
G03*
X118047597Y-87840825I-29997J0D01*
G01*
D13*
%TO.C,U13*%
X125689689Y-64823428D02*
X126089689Y-64823428D01*
X128509755Y-67970545D02*
X128509755Y-68603439D01*
X125689689Y-65223428D02*
X125689689Y-64823428D01*
X128509755Y-64623403D02*
X127847830Y-64623403D01*
X128509755Y-68603439D02*
X128489714Y-68623403D01*
X125489714Y-64985735D02*
X125489714Y-65265288D01*
X128509755Y-64623403D02*
X128509755Y-65276261D01*
X125489714Y-67981518D02*
X125489714Y-68623403D01*
X126131599Y-68623403D02*
X125489714Y-68623403D01*
X125488597Y-64624394D02*
X125488597Y-64985125D01*
X126131218Y-64624394D02*
X125488597Y-64624394D01*
X128489714Y-68623403D02*
X127847830Y-68623403D01*
D12*
X125519686Y-64623428D02*
G75*
G03*
X125519686Y-64623428I-29997J0D01*
G01*
D10*
%TO.C,R10*%
X103821145Y-88035159D02*
X103821145Y-88342441D01*
X103061145Y-88035159D02*
X103061145Y-88342441D01*
%TO.C,C9*%
X127306800Y-84024380D02*
X127306800Y-83743220D01*
X126286800Y-84024380D02*
X126286800Y-83743220D01*
%TO.C,C18*%
X110291200Y-84169364D02*
X110291200Y-84385036D01*
X109571200Y-84169364D02*
X109571200Y-84385036D01*
D14*
%TO.C,U9*%
X122514587Y-90066598D02*
X122514587Y-89155802D01*
X123967013Y-91137413D02*
X123967013Y-90105790D01*
X122514587Y-91137413D02*
X123967013Y-91137413D01*
X123967013Y-88084987D02*
X123967013Y-89116610D01*
X122514587Y-88084987D02*
X123967013Y-88084987D01*
D12*
X122070797Y-88161187D02*
G75*
G03*
X122070797Y-88161187I-29997J0D01*
G01*
D10*
%TO.C,R8*%
X128142000Y-90981559D02*
X128142000Y-91288841D01*
X127382000Y-90981559D02*
X127382000Y-91288841D01*
%TO.C,C14*%
X102457364Y-81792400D02*
X102673036Y-81792400D01*
X102457364Y-81072400D02*
X102673036Y-81072400D01*
%TO.C,C11*%
X105107200Y-83401780D02*
X105107200Y-83120620D01*
X104087200Y-83401780D02*
X104087200Y-83120620D01*
%TO.C,C7*%
X106437820Y-86565200D02*
X106718980Y-86565200D01*
X106437820Y-85545200D02*
X106718980Y-85545200D01*
%TO.C,R1*%
X126315200Y-70105241D02*
X126315200Y-69797959D01*
X127075200Y-70105241D02*
X127075200Y-69797959D01*
%TO.C,C15*%
X100476164Y-82757600D02*
X100691836Y-82757600D01*
X100476164Y-82037600D02*
X100691836Y-82037600D01*
D15*
%TO.C,U2*%
X127703201Y-73202902D02*
X127703201Y-73848952D01*
X127687148Y-72048927D02*
X125687199Y-72048927D01*
X125687199Y-73848952D02*
X127687148Y-73848952D01*
X125687199Y-72048927D02*
X125687199Y-73848952D01*
X127703201Y-72694901D02*
X127703201Y-72048927D01*
X127703176Y-72694926D02*
G75*
G03*
X127703176Y-73202928I0J-254001D01*
G01*
D16*
X128005598Y-71526400D02*
G75*
G03*
X128005598Y-71526400I-65798J0D01*
G01*
D14*
%TO.C,U11*%
X115712327Y-93705136D02*
X117464727Y-93705136D01*
X117464727Y-93705136D02*
X117464727Y-92663531D01*
X115712327Y-92624339D02*
X115712327Y-91713543D01*
X117464727Y-90632746D02*
X117464727Y-91674351D01*
X115712327Y-90632746D02*
X117464727Y-90632746D01*
D12*
X115218524Y-90708946D02*
G75*
G03*
X115218524Y-90708946I-29997J0D01*
G01*
D10*
%TO.C,R4*%
X126110000Y-70105241D02*
X126110000Y-69797959D01*
X125350000Y-70105241D02*
X125350000Y-69797959D01*
%TO.C,C1*%
X127969600Y-70079436D02*
X127969600Y-69863764D01*
X127249600Y-70079436D02*
X127249600Y-69863764D01*
%TO.C,C8*%
X104186400Y-88347436D02*
X104186400Y-88131764D01*
X104906400Y-88347436D02*
X104906400Y-88131764D01*
%TO.C,C16*%
X111087780Y-82001200D02*
X110806620Y-82001200D01*
X111087780Y-83021200D02*
X110806620Y-83021200D01*
%TO.C,R2*%
X112700800Y-92810359D02*
X112700800Y-93117641D01*
X113460800Y-92810359D02*
X113460800Y-93117641D01*
%TO.C,R16*%
X100717641Y-81086800D02*
X100410359Y-81086800D01*
X100717641Y-81846800D02*
X100410359Y-81846800D01*
%TO.C,R17*%
X102391559Y-82974000D02*
X102698841Y-82974000D01*
X102391559Y-83734000D02*
X102698841Y-83734000D01*
D11*
%TO.C,U5*%
X103009958Y-85256800D02*
X103009958Y-87056825D01*
X99909932Y-85256800D02*
X99909932Y-87056825D01*
X99936043Y-87553803D02*
G75*
G03*
X99936043Y-87553803I-127000J0D01*
G01*
D12*
X100054967Y-87556825D02*
G75*
G03*
X100054967Y-87556825I-29998J0D01*
G01*
D10*
%TO.C,C13*%
X127130780Y-64111600D02*
X126849620Y-64111600D01*
X127130780Y-63091600D02*
X126849620Y-63091600D01*
%TO.C,U12*%
X107391200Y-85041200D02*
X108191200Y-85041200D01*
X107391200Y-85041200D02*
X106591200Y-85041200D01*
X107391200Y-81921200D02*
X108191200Y-81921200D01*
X107391200Y-81921200D02*
X105591200Y-81921200D01*
D17*
%TO.C,U1*%
X123317900Y-80171250D02*
X123317900Y-79521250D01*
X105317900Y-80171250D02*
X107767900Y-80171250D01*
X105317900Y-79521250D02*
X105317900Y-80171250D01*
X120867900Y-80171250D02*
X123317900Y-80171250D01*
D15*
X104417900Y-62171250D02*
G75*
G03*
X104417900Y-62171250I-100000J0D01*
G01*
D14*
%TO.C,U15*%
X102776826Y-69364660D02*
X102531106Y-69364660D01*
X100124400Y-71771365D02*
X100124400Y-72517060D01*
X102776826Y-71771365D02*
X102776826Y-72517060D01*
X100124400Y-72517060D02*
X100370120Y-72517060D01*
X102776826Y-72517060D02*
X102531106Y-72517060D01*
X100124400Y-70110355D02*
X100124400Y-69364660D01*
X102776826Y-70110355D02*
X102776826Y-69364660D01*
X100124400Y-69364660D02*
X100370120Y-69364660D01*
D12*
X100230597Y-72440860D02*
G75*
G03*
X100230597Y-72440860I-29997J0D01*
G01*
D18*
X100763541Y-72845864D02*
G75*
G03*
X100763541Y-72845864I-74930J0D01*
G01*
D11*
%TO.C,U6*%
X106727704Y-86939495D02*
X110827780Y-86939495D01*
X107977640Y-92039317D02*
X106727704Y-92039317D01*
X109577844Y-92039317D02*
X110827780Y-92039317D01*
X106727704Y-92039317D02*
X106727704Y-86939241D01*
X110827780Y-86939495D02*
X110827780Y-92039571D01*
X107977640Y-91989279D02*
G75*
G03*
X109577844Y-91989279I800102J1683851D01*
G01*
X111448049Y-92519378D02*
G75*
G03*
X111448049Y-92519378I-170180J0D01*
G01*
D12*
X111757676Y-91943559D02*
G75*
G03*
X111757676Y-91943559I-29972J0D01*
G01*
D14*
%TO.C,U7*%
X102999239Y-91059205D02*
X102999239Y-89280795D01*
X99920855Y-91059205D02*
X99920855Y-89280795D01*
D19*
X100047017Y-91570000D02*
G75*
G03*
X100047017Y-91570000I-50013J0D01*
G01*
D20*
X99941886Y-91471499D02*
G75*
G03*
X99941886Y-91471499I-150114J0D01*
G01*
D10*
%TO.C,U8*%
X122123200Y-82380800D02*
X124323200Y-82380800D01*
X122123200Y-87900800D02*
X124323200Y-87900800D01*
X122123200Y-82380800D02*
X118473200Y-82380800D01*
X122123200Y-87900800D02*
X119923200Y-87900800D01*
%TO.C,C20*%
X103018000Y-69297436D02*
X103018000Y-69081764D01*
X103738000Y-69297436D02*
X103738000Y-69081764D01*
%TO.C,C3*%
X127960800Y-74197036D02*
X127960800Y-73981364D01*
X128680800Y-74197036D02*
X128680800Y-73981364D01*
%TO.C,C2*%
X103634000Y-62990820D02*
X103634000Y-63271980D01*
X102614000Y-62990820D02*
X102614000Y-63271980D01*
%TO.C,R14*%
X125221241Y-88772000D02*
X124913959Y-88772000D01*
X125221241Y-88012000D02*
X124913959Y-88012000D01*
%TO.C,R12*%
X112650000Y-89663241D02*
X112650000Y-89355959D01*
X113410000Y-89663241D02*
X113410000Y-89355959D01*
%TO.C,C12*%
X127107836Y-62742400D02*
X126892164Y-62742400D01*
X127107836Y-62022400D02*
X126892164Y-62022400D01*
%TO.C,R6*%
X118159560Y-90448400D02*
X118466842Y-90448400D01*
X118159560Y-89688400D02*
X118466842Y-89688400D01*
D11*
%TO.C,SW1*%
X101591106Y-96088202D02*
X101591106Y-94310198D01*
D10*
%TO.C,C19*%
X103018000Y-72056164D02*
X103018000Y-72271836D01*
X103738000Y-72056164D02*
X103738000Y-72271836D01*
%TO.C,R18*%
X100410359Y-82966400D02*
X100717641Y-82966400D01*
X100410359Y-83726400D02*
X100717641Y-83726400D01*
%TO.C,R13*%
X104166400Y-86412041D02*
X104166400Y-86104759D01*
X104926400Y-86412041D02*
X104926400Y-86104759D01*
%TO.C,C10*%
X128113200Y-86969548D02*
X128113200Y-88392052D01*
X126293200Y-86969548D02*
X126293200Y-88392052D01*
%TO.C,R15*%
X102698841Y-82768800D02*
X102391559Y-82768800D01*
X102698841Y-82008800D02*
X102391559Y-82008800D01*
D14*
%TO.C,U3*%
X118704588Y-90624987D02*
X120157014Y-90624987D01*
X120157014Y-93677413D02*
X120157014Y-92645790D01*
X118704588Y-92606598D02*
X118704588Y-91695802D01*
X118704588Y-93677413D02*
X120157014Y-93677413D01*
X120157014Y-90624987D02*
X120157014Y-91656610D01*
D12*
X118260798Y-90701187D02*
G75*
G03*
X118260798Y-90701187I-29997J0D01*
G01*
%TD*%
%LPC*%
D21*
%TO.C,C6*%
X122172200Y-92405200D03*
X125122200Y-92405200D03*
%TD*%
D22*
%TO.C,R9*%
X126784000Y-91645200D03*
X126784000Y-90625200D03*
%TD*%
D23*
%TO.C,C5*%
X117703600Y-88747600D03*
X119253600Y-88747600D03*
%TD*%
D22*
%TO.C,R3*%
X112115600Y-93474000D03*
X112115600Y-92454000D03*
%TD*%
D24*
%TO.C,R11*%
X121972800Y-89611200D03*
X120952800Y-89611200D03*
%TD*%
D25*
%TO.C,SW2*%
X128401368Y-96049340D03*
X128401368Y-94349314D03*
D26*
X128401368Y-92899225D03*
X128401368Y-97499175D03*
D27*
X126851457Y-93524321D03*
X126851457Y-96874333D03*
%TD*%
D23*
%TO.C,C4*%
X110172200Y-86055200D03*
X111722200Y-86055200D03*
%TD*%
D24*
%TO.C,R7*%
X115165601Y-92151200D03*
X114145601Y-92151200D03*
%TD*%
D28*
%TO.C,U4*%
X115417600Y-87190838D03*
X115417600Y-83090762D03*
%TD*%
D29*
%TO.C,U13*%
X126564721Y-65948320D03*
X126564721Y-67298587D03*
X127414607Y-67298587D03*
X127414607Y-65948320D03*
D30*
X126989664Y-64898536D03*
D31*
X125764619Y-66623454D03*
D30*
X126989664Y-68348371D03*
D31*
X128214708Y-66623454D03*
%TD*%
D32*
%TO.C,R10*%
X103441145Y-87678800D03*
X103441145Y-88698800D03*
%TD*%
D33*
%TO.C,C9*%
X126796800Y-84658800D03*
X126796800Y-83108800D03*
%TD*%
D34*
%TO.C,C18*%
X109931200Y-83797200D03*
X109931200Y-84757200D03*
%TD*%
D35*
%TO.C,U9*%
X122240800Y-88661238D03*
X122240800Y-90561162D03*
X124240800Y-89611200D03*
%TD*%
D32*
%TO.C,R8*%
X127762000Y-90625200D03*
X127762000Y-91645200D03*
%TD*%
D36*
%TO.C,C14*%
X102085200Y-81432400D03*
X103045200Y-81432400D03*
%TD*%
D33*
%TO.C,C11*%
X104597200Y-84036200D03*
X104597200Y-82486200D03*
%TD*%
D23*
%TO.C,C7*%
X105803400Y-86055200D03*
X107353400Y-86055200D03*
%TD*%
D22*
%TO.C,R1*%
X126695200Y-70461600D03*
X126695200Y-69441600D03*
%TD*%
D36*
%TO.C,C15*%
X100104000Y-82397600D03*
X101064000Y-82397600D03*
%TD*%
D37*
%TO.C,U2*%
X127437161Y-71398889D03*
X126937034Y-71398889D03*
X126437161Y-71398889D03*
X125937034Y-71398889D03*
X125937034Y-74498711D03*
X126437161Y-74498711D03*
X126937034Y-74498711D03*
X127437161Y-74498711D03*
%TD*%
D38*
%TO.C,U11*%
X115353323Y-91218979D03*
X115353323Y-93118903D03*
X117823477Y-92168941D03*
%TD*%
D22*
%TO.C,R4*%
X125730000Y-70461600D03*
X125730000Y-69441600D03*
%TD*%
D39*
%TO.C,C1*%
X127609600Y-70451600D03*
X127609600Y-69491600D03*
%TD*%
%TO.C,C8*%
X104546400Y-88719600D03*
X104546400Y-87759600D03*
%TD*%
D40*
%TO.C,C16*%
X111722200Y-82511200D03*
X110172200Y-82511200D03*
%TD*%
D32*
%TO.C,R2*%
X113080800Y-92454000D03*
X113080800Y-93474000D03*
%TD*%
D24*
%TO.C,R16*%
X101074000Y-81466800D03*
X100054000Y-81466800D03*
%TD*%
D41*
%TO.C,R17*%
X102035200Y-83354000D03*
X103055200Y-83354000D03*
%TD*%
D42*
%TO.C,U5*%
X100510085Y-87556851D03*
X101460047Y-87556851D03*
X102410009Y-87556851D03*
X102410009Y-84756749D03*
X101460047Y-84756749D03*
X100510085Y-84756749D03*
%TD*%
D40*
%TO.C,C13*%
X127765200Y-63601600D03*
X126215200Y-63601600D03*
%TD*%
D43*
%TO.C,U12*%
X106253700Y-82531200D03*
X106253700Y-83481200D03*
X106253700Y-84431200D03*
X108528700Y-84431200D03*
X108528700Y-82531200D03*
%TD*%
D44*
%TO.C,U1*%
X105817900Y-62161250D03*
X105817900Y-63431250D03*
X105817900Y-64701250D03*
X105817900Y-65971250D03*
X105817900Y-67241250D03*
X105817900Y-68511250D03*
X105817900Y-69781250D03*
X105817900Y-71051250D03*
X105817900Y-72321250D03*
X105817900Y-73591250D03*
X105817900Y-74861250D03*
X105817900Y-76131250D03*
X105817900Y-77401250D03*
X105817900Y-78671250D03*
D45*
X108602900Y-79671250D03*
X109872900Y-79671250D03*
X111142900Y-79671250D03*
X112412900Y-79671250D03*
X113682900Y-79671250D03*
X114952900Y-79671250D03*
X116222900Y-79671250D03*
X117492900Y-79671250D03*
X118762900Y-79671250D03*
X120032900Y-79671250D03*
D44*
X122817900Y-78671250D03*
X122817900Y-77401250D03*
X122817900Y-76131250D03*
X122817900Y-74861250D03*
X122817900Y-73591250D03*
X122817900Y-72321250D03*
X122817900Y-71051250D03*
X122817900Y-69781250D03*
X122817900Y-68511250D03*
X122817900Y-67241250D03*
X122817900Y-65971250D03*
X122817900Y-64701250D03*
X122817900Y-63431250D03*
X122817900Y-62161250D03*
D46*
X113317900Y-71496250D03*
X115152900Y-69661250D03*
X113317900Y-69661250D03*
X111482900Y-69661250D03*
X115152900Y-71496250D03*
X111482900Y-71496250D03*
X113317900Y-67826250D03*
X111482900Y-67826250D03*
X115152900Y-67826250D03*
%TD*%
D47*
%TO.C,U15*%
X100700549Y-72202862D03*
X101200677Y-72202862D03*
X101700549Y-72202862D03*
X102200677Y-72202862D03*
D48*
X102463161Y-71440733D03*
X102463161Y-70940860D03*
X102463161Y-70440733D03*
D47*
X102200677Y-69678858D03*
X101700549Y-69678858D03*
X101200677Y-69678858D03*
X100700549Y-69678858D03*
D48*
X100438065Y-70440733D03*
X100438065Y-70940860D03*
X100438065Y-71440733D03*
%TD*%
D49*
%TO.C,U6*%
X111686048Y-91394410D03*
X111686048Y-90124407D03*
X111686048Y-88854405D03*
X111686048Y-87584402D03*
X105869436Y-87584402D03*
X105869436Y-88854405D03*
X105869436Y-90124407D03*
X105869436Y-91394410D03*
D50*
X108777742Y-89489406D03*
%TD*%
D51*
%TO.C,U7*%
X100510085Y-91319098D03*
X101460047Y-91319098D03*
X102410009Y-91319098D03*
X102410009Y-89020902D03*
X101460047Y-89020902D03*
X100510085Y-89020902D03*
%TD*%
D52*
%TO.C,U8*%
X122123200Y-85140800D03*
D53*
X119260700Y-82865800D03*
X119260700Y-83515800D03*
X119260700Y-84165800D03*
X119260700Y-84815800D03*
X119260700Y-85465800D03*
X119260700Y-86115800D03*
X119260700Y-86765800D03*
X119260700Y-87415800D03*
X124985700Y-87415800D03*
X124985700Y-86765800D03*
X124985700Y-86115800D03*
X124985700Y-85465800D03*
X124985700Y-84815800D03*
X124985700Y-84165800D03*
X124985700Y-83515800D03*
X124985700Y-82865800D03*
%TD*%
D39*
%TO.C,C20*%
X103378000Y-69669600D03*
X103378000Y-68709600D03*
%TD*%
%TO.C,C3*%
X128320800Y-74569200D03*
X128320800Y-73609200D03*
%TD*%
D54*
%TO.C,C2*%
X103124000Y-62356400D03*
X103124000Y-63906400D03*
%TD*%
D24*
%TO.C,R14*%
X125577600Y-88392000D03*
X124557600Y-88392000D03*
%TD*%
D22*
%TO.C,R12*%
X113030000Y-90019600D03*
X113030000Y-88999600D03*
%TD*%
D55*
%TO.C,C12*%
X127480000Y-62382400D03*
X126520000Y-62382400D03*
%TD*%
D41*
%TO.C,R6*%
X117803201Y-90068400D03*
X118823201Y-90068400D03*
%TD*%
D25*
%TO.C,SW1*%
X100191132Y-96049086D03*
X100191132Y-94349060D03*
D26*
X100191132Y-97499175D03*
X100191132Y-92899225D03*
D27*
X101741043Y-96874079D03*
X101741043Y-93524067D03*
%TD*%
D34*
%TO.C,C19*%
X103378000Y-71684000D03*
X103378000Y-72644000D03*
%TD*%
D41*
%TO.C,R18*%
X100054000Y-83346400D03*
X101074000Y-83346400D03*
%TD*%
D22*
%TO.C,R13*%
X104546400Y-86768400D03*
X104546400Y-85748400D03*
%TD*%
D56*
%TO.C,C10*%
X127203200Y-86205800D03*
X127203200Y-89155800D03*
%TD*%
D24*
%TO.C,R15*%
X103055200Y-82388800D03*
X102035200Y-82388800D03*
%TD*%
D35*
%TO.C,U3*%
X118430801Y-91201238D03*
X118430801Y-93101162D03*
X120430801Y-92151200D03*
%TD*%
M02*
