%TF.GenerationSoftware,KiCad,Pcbnew,(6.0.6-0)*%
%TF.CreationDate,2022-11-04T12:46:31+01:00*%
%TF.ProjectId,GlowBandSmall,476c6f77-4261-46e6-9453-6d616c6c2e6b,rev?*%
%TF.SameCoordinates,Original*%
%TF.FileFunction,Copper,L1,Top*%
%TF.FilePolarity,Positive*%
%FSLAX46Y46*%
G04 Gerber Fmt 4.6, Leading zero omitted, Abs format (unit mm)*
G04 Created by KiCad (PCBNEW (6.0.6-0)) date 2022-11-04 12:46:31*
%MOMM*%
%LPD*%
G01*
G04 APERTURE LIST*
G04 Aperture macros list*
%AMRoundRect*
0 Rectangle with rounded corners*
0 $1 Rounding radius*
0 $2 $3 $4 $5 $6 $7 $8 $9 X,Y pos of 4 corners*
0 Add a 4 corners polygon primitive as box body*
4,1,4,$2,$3,$4,$5,$6,$7,$8,$9,$2,$3,0*
0 Add four circle primitives for the rounded corners*
1,1,$1+$1,$2,$3*
1,1,$1+$1,$4,$5*
1,1,$1+$1,$6,$7*
1,1,$1+$1,$8,$9*
0 Add four rect primitives between the rounded corners*
20,1,$1+$1,$2,$3,$4,$5,0*
20,1,$1+$1,$4,$5,$6,$7,0*
20,1,$1+$1,$6,$7,$8,$9,0*
20,1,$1+$1,$8,$9,$2,$3,0*%
G04 Aperture macros list end*
%TA.AperFunction,SMDPad,CuDef*%
%ADD10RoundRect,0.250000X-0.325000X-0.650000X0.325000X-0.650000X0.325000X0.650000X-0.325000X0.650000X0*%
%TD*%
%TA.AperFunction,SMDPad,CuDef*%
%ADD11RoundRect,0.135000X0.185000X-0.135000X0.185000X0.135000X-0.185000X0.135000X-0.185000X-0.135000X0*%
%TD*%
%TA.AperFunction,SMDPad,CuDef*%
%ADD12RoundRect,0.225000X-0.225000X-0.250000X0.225000X-0.250000X0.225000X0.250000X-0.225000X0.250000X0*%
%TD*%
%TA.AperFunction,SMDPad,CuDef*%
%ADD13RoundRect,0.135000X0.135000X0.185000X-0.135000X0.185000X-0.135000X-0.185000X0.135000X-0.185000X0*%
%TD*%
%TA.AperFunction,SMDPad,CuDef*%
%ADD14R,1.200000X0.900000*%
%TD*%
%TA.AperFunction,SMDPad,CuDef*%
%ADD15R,1.300000X1.200000*%
%TD*%
%TA.AperFunction,SMDPad,CuDef*%
%ADD16R,2.500000X1.900000*%
%TD*%
%TA.AperFunction,SMDPad,CuDef*%
%ADD17R,0.550013X1.050013*%
%TD*%
%TA.AperFunction,SMDPad,CuDef*%
%ADD18R,1.400000X0.450013*%
%TD*%
%TA.AperFunction,SMDPad,CuDef*%
%ADD19R,0.450013X2.400000*%
%TD*%
%TA.AperFunction,SMDPad,CuDef*%
%ADD20RoundRect,0.135000X-0.185000X0.135000X-0.185000X-0.135000X0.185000X-0.135000X0.185000X0.135000X0*%
%TD*%
%TA.AperFunction,SMDPad,CuDef*%
%ADD21RoundRect,0.225000X0.250000X-0.225000X0.250000X0.225000X-0.250000X0.225000X-0.250000X-0.225000X0*%
%TD*%
%TA.AperFunction,SMDPad,CuDef*%
%ADD22RoundRect,0.140000X-0.170000X0.140000X-0.170000X-0.140000X0.170000X-0.140000X0.170000X0.140000X0*%
%TD*%
%TA.AperFunction,SMDPad,CuDef*%
%ADD23R,1.250013X0.700000*%
%TD*%
%TA.AperFunction,SMDPad,CuDef*%
%ADD24RoundRect,0.140000X-0.140000X-0.170000X0.140000X-0.170000X0.140000X0.170000X-0.140000X0.170000X0*%
%TD*%
%TA.AperFunction,SMDPad,CuDef*%
%ADD25O,0.250013X0.750013*%
%TD*%
%TA.AperFunction,SMDPad,CuDef*%
%ADD26R,1.070003X0.600000*%
%TD*%
%TA.AperFunction,SMDPad,CuDef*%
%ADD27RoundRect,0.140000X0.170000X-0.140000X0.170000X0.140000X-0.170000X0.140000X-0.170000X-0.140000X0*%
%TD*%
%TA.AperFunction,SMDPad,CuDef*%
%ADD28RoundRect,0.225000X0.225000X0.250000X-0.225000X0.250000X-0.225000X-0.250000X0.225000X-0.250000X0*%
%TD*%
%TA.AperFunction,SMDPad,CuDef*%
%ADD29RoundRect,0.135000X-0.135000X-0.185000X0.135000X-0.185000X0.135000X0.185000X-0.135000X0.185000X0*%
%TD*%
%TA.AperFunction,SMDPad,CuDef*%
%ADD30R,0.550013X1.000000*%
%TD*%
%TA.AperFunction,SMDPad,CuDef*%
%ADD31RoundRect,0.150000X-0.512500X-0.150000X0.512500X-0.150000X0.512500X0.150000X-0.512500X0.150000X0*%
%TD*%
%TA.AperFunction,SMDPad,CuDef*%
%ADD32R,2.000000X0.900000*%
%TD*%
%TA.AperFunction,SMDPad,CuDef*%
%ADD33R,0.900000X2.000000*%
%TD*%
%TA.AperFunction,SMDPad,CuDef*%
%ADD34R,1.330000X1.330000*%
%TD*%
%TA.AperFunction,SMDPad,CuDef*%
%ADD35R,0.280010X0.675006*%
%TD*%
%TA.AperFunction,SMDPad,CuDef*%
%ADD36R,0.675006X0.280010*%
%TD*%
%TA.AperFunction,SMDPad,CuDef*%
%ADD37R,1.200000X0.600000*%
%TD*%
%TA.AperFunction,SMDPad,CuDef*%
%ADD38R,2.500000X3.499873*%
%TD*%
%TA.AperFunction,SMDPad,CuDef*%
%ADD39R,0.532004X1.072009*%
%TD*%
%TA.AperFunction,SMDPad,CuDef*%
%ADD40RoundRect,0.100000X-0.687500X-0.100000X0.687500X-0.100000X0.687500X0.100000X-0.687500X0.100000X0*%
%TD*%
%TA.AperFunction,SMDPad,CuDef*%
%ADD41R,3.400000X5.000000*%
%TD*%
%TA.AperFunction,SMDPad,CuDef*%
%ADD42RoundRect,0.225000X-0.250000X0.225000X-0.250000X-0.225000X0.250000X-0.225000X0.250000X0.225000X0*%
%TD*%
%TA.AperFunction,SMDPad,CuDef*%
%ADD43RoundRect,0.140000X0.140000X0.170000X-0.140000X0.170000X-0.140000X-0.170000X0.140000X-0.170000X0*%
%TD*%
%TA.AperFunction,SMDPad,CuDef*%
%ADD44RoundRect,0.250000X-0.650000X0.325000X-0.650000X-0.325000X0.650000X-0.325000X0.650000X0.325000X0*%
%TD*%
G04 APERTURE END LIST*
D10*
%TO.P,C6,1*%
%TO.N,LED 5V*%
X122172200Y-92405200D03*
%TO.P,C6,2*%
%TO.N,GND*%
X125122200Y-92405200D03*
%TD*%
D11*
%TO.P,R9,1*%
%TO.N,GND*%
X126784000Y-91645200D03*
%TO.P,R9,2*%
%TO.N,IO25{slash}VBUS*%
X126784000Y-90625200D03*
%TD*%
D12*
%TO.P,C5,1*%
%TO.N,+BATT*%
X117703600Y-88747600D03*
%TO.P,C5,2*%
%TO.N,GND*%
X119253600Y-88747600D03*
%TD*%
D11*
%TO.P,R3,1*%
%TO.N,-BATT*%
X112115600Y-93474000D03*
%TO.P,R3,2*%
%TO.N,IO16{slash}BATT VOLT*%
X112115600Y-92454000D03*
%TD*%
D13*
%TO.P,R11,1*%
%TO.N,VBUS*%
X121972800Y-89611200D03*
%TO.P,R11,2*%
%TO.N,GND*%
X120952800Y-89611200D03*
%TD*%
D14*
%TO.P,SW2,1,1*%
%TO.N,unconnected-(SW2-Pad1)*%
X128401368Y-92899225D03*
%TO.P,SW2,2,2*%
%TO.N,unconnected-(SW2-Pad2)*%
X128401368Y-97499175D03*
D15*
%TO.P,SW2,3,3*%
%TO.N,unconnected-(SW2-Pad3)*%
X126851457Y-93524321D03*
%TO.P,SW2,4,4*%
%TO.N,unconnected-(SW2-Pad4)*%
X126851457Y-96874333D03*
%TD*%
D12*
%TO.P,C4,1*%
%TO.N,GND*%
X110172200Y-86055200D03*
%TO.P,C4,2*%
%TO.N,VBUS*%
X111722200Y-86055200D03*
%TD*%
D13*
%TO.P,R7,1*%
%TO.N,GND*%
X115165601Y-92151200D03*
%TO.P,R7,2*%
%TO.N,IO23{slash}LEDPOWER*%
X114145601Y-92151200D03*
%TD*%
D16*
%TO.P,U4,1,1*%
%TO.N,+BATT*%
X115417600Y-87190838D03*
%TO.P,U4,2,2*%
%TO.N,Net-(U4-Pad2)*%
X115417600Y-83090762D03*
%TD*%
D17*
%TO.P,U13,1,VDD*%
%TO.N,Net-(C12-Pad2)*%
X126564721Y-65948320D03*
%TO.P,U13,2,L/R*%
%TO.N,IO15{slash}WS*%
X126564721Y-67298587D03*
%TO.P,U13,3,CLK*%
%TO.N,IO14{slash}SCK*%
X127414607Y-67298587D03*
%TO.P,U13,4,DATA*%
%TO.N,IO32{slash}SD*%
X127414607Y-65948320D03*
D18*
%TO.P,U13,5,GND*%
%TO.N,GND*%
X126989664Y-64898536D03*
D19*
%TO.P,U13,6,GND*%
X125764619Y-66623454D03*
D18*
%TO.P,U13,7,GND*%
X126989664Y-68348371D03*
D19*
%TO.P,U13,8,GND*%
X128214708Y-66623454D03*
%TD*%
D20*
%TO.P,R10,1*%
%TO.N,GND*%
X103441145Y-87678800D03*
%TO.P,R10,2*%
%TO.N,Net-(R10-Pad2)*%
X103441145Y-88698800D03*
%TD*%
D21*
%TO.P,C9,1*%
%TO.N,GND*%
X126796800Y-84658800D03*
%TO.P,C9,2*%
%TO.N,+5V*%
X126796800Y-83108800D03*
%TD*%
D22*
%TO.P,C18,1*%
%TO.N,GND*%
X109931200Y-83797200D03*
%TO.P,C18,2*%
%TO.N,Net-(C18-Pad2)*%
X109931200Y-84757200D03*
%TD*%
D23*
%TO.P,U9,1,G*%
%TO.N,VBUS*%
X122240800Y-88661238D03*
%TO.P,U9,2,S*%
%TO.N,+BATT*%
X122240800Y-90561162D03*
%TO.P,U9,3,D*%
%TO.N,Net-(R14-Pad1)*%
X124240800Y-89611200D03*
%TD*%
D20*
%TO.P,R8,1*%
%TO.N,IO25{slash}VBUS*%
X127762000Y-90625200D03*
%TO.P,R8,2*%
%TO.N,VBUS*%
X127762000Y-91645200D03*
%TD*%
D24*
%TO.P,C14,1*%
%TO.N,EN*%
X102085200Y-81432400D03*
%TO.P,C14,2*%
%TO.N,GND*%
X103045200Y-81432400D03*
%TD*%
D21*
%TO.P,C11,1*%
%TO.N,GND*%
X104597200Y-84036200D03*
%TO.P,C11,2*%
%TO.N,+5V*%
X104597200Y-82486200D03*
%TD*%
D12*
%TO.P,C7,1*%
%TO.N,+BATT*%
X105803400Y-86055200D03*
%TO.P,C7,2*%
%TO.N,GND*%
X107353400Y-86055200D03*
%TD*%
D11*
%TO.P,R1,1*%
%TO.N,Net-(R1-Pad1)*%
X126695200Y-70461600D03*
%TO.P,R1,2*%
%TO.N,LED1 DATA OUT*%
X126695200Y-69441600D03*
%TD*%
D24*
%TO.P,C15,1*%
%TO.N,IO0*%
X100104000Y-82397600D03*
%TO.P,C15,2*%
%TO.N,GND*%
X101064000Y-82397600D03*
%TD*%
D25*
%TO.P,U2,1,VCCA*%
%TO.N,+5V*%
X127437161Y-71398889D03*
%TO.P,U2,2,A1*%
%TO.N,Net-(R1-Pad1)*%
X126937034Y-71398889D03*
%TO.P,U2,3,A2*%
%TO.N,Net-(R4-Pad1)*%
X126437161Y-71398889D03*
%TO.P,U2,4,GND*%
%TO.N,GND*%
X125937034Y-71398889D03*
%TO.P,U2,5,DIR*%
X125937034Y-74498711D03*
%TO.P,U2,6,B2*%
%TO.N,IO18{slash}LED2*%
X126437161Y-74498711D03*
%TO.P,U2,7,B1*%
%TO.N,IO17{slash}LED1*%
X126937034Y-74498711D03*
%TO.P,U2,8,VCCB*%
%TO.N,+3V3*%
X127437161Y-74498711D03*
%TD*%
D26*
%TO.P,U11,1,G*%
%TO.N,IO23{slash}LEDPOWER*%
X115353323Y-91218979D03*
%TO.P,U11,2,S*%
%TO.N,GND*%
X115353323Y-93118903D03*
%TO.P,U11,3,D*%
%TO.N,Net-(R6-Pad1)*%
X117823477Y-92168941D03*
%TD*%
D11*
%TO.P,R4,1*%
%TO.N,Net-(R4-Pad1)*%
X125730000Y-70461600D03*
%TO.P,R4,2*%
%TO.N,LED2 DATA OUT*%
X125730000Y-69441600D03*
%TD*%
D27*
%TO.P,C1,1*%
%TO.N,+5V*%
X127609600Y-70451600D03*
%TO.P,C1,2*%
%TO.N,GND*%
X127609600Y-69491600D03*
%TD*%
%TO.P,C8,1*%
%TO.N,-BATT*%
X104546400Y-88719600D03*
%TO.P,C8,2*%
%TO.N,+BATT*%
X104546400Y-87759600D03*
%TD*%
D28*
%TO.P,C16,1*%
%TO.N,GND*%
X111722200Y-82511200D03*
%TO.P,C16,2*%
%TO.N,+3V3*%
X110172200Y-82511200D03*
%TD*%
D20*
%TO.P,R2,1*%
%TO.N,IO16{slash}BATT VOLT*%
X113080800Y-92454000D03*
%TO.P,R2,2*%
%TO.N,+BATT*%
X113080800Y-93474000D03*
%TD*%
D13*
%TO.P,R16,1*%
%TO.N,unconnected-(R16-Pad1)*%
X101074000Y-81466800D03*
%TO.P,R16,2*%
%TO.N,IO0*%
X100054000Y-81466800D03*
%TD*%
D29*
%TO.P,R17,1*%
%TO.N,EN*%
X102035200Y-83354000D03*
%TO.P,R17,2*%
%TO.N,+3V3*%
X103055200Y-83354000D03*
%TD*%
D30*
%TO.P,U5,1,S1*%
%TO.N,-BATT*%
X100510085Y-87556851D03*
%TO.P,U5,2,D1/D2*%
%TO.N,unconnected-(U5-Pad2)*%
X101460047Y-87556851D03*
%TO.P,U5,3,S2*%
%TO.N,GND*%
X102410009Y-87556851D03*
%TO.P,U5,4,G2*%
%TO.N,Net-(U5-Pad4)*%
X102410009Y-84756749D03*
%TO.P,U5,5,D1/D2*%
%TO.N,unconnected-(U5-Pad5)*%
X101460047Y-84756749D03*
%TO.P,U5,6,G1*%
%TO.N,Net-(U5-Pad6)*%
X100510085Y-84756749D03*
%TD*%
D28*
%TO.P,C13,1*%
%TO.N,GND*%
X127765200Y-63601600D03*
%TO.P,C13,2*%
%TO.N,Net-(C12-Pad2)*%
X126215200Y-63601600D03*
%TD*%
D31*
%TO.P,U12,1,IN*%
%TO.N,+5V*%
X106253700Y-82531200D03*
%TO.P,U12,2,GND*%
%TO.N,GND*%
X106253700Y-83481200D03*
%TO.P,U12,3,EN*%
%TO.N,+5V*%
X106253700Y-84431200D03*
%TO.P,U12,4,BP*%
%TO.N,Net-(C18-Pad2)*%
X108528700Y-84431200D03*
%TO.P,U12,5,OUT*%
%TO.N,+3V3*%
X108528700Y-82531200D03*
%TD*%
D32*
%TO.P,U1,1,GND*%
%TO.N,GND*%
X105817900Y-62161250D03*
%TO.P,U1,2,3V3*%
%TO.N,+3V3*%
X105817900Y-63431250D03*
%TO.P,U1,3,EN*%
%TO.N,EN*%
X105817900Y-64701250D03*
%TO.P,U1,4,SENSOR_VP*%
%TO.N,unconnected-(U1-Pad4)*%
X105817900Y-65971250D03*
%TO.P,U1,5,SENSOR_VN*%
%TO.N,unconnected-(U1-Pad5)*%
X105817900Y-67241250D03*
%TO.P,U1,6,I34*%
%TO.N,unconnected-(U1-Pad6)*%
X105817900Y-68511250D03*
%TO.P,U1,7,I35*%
%TO.N,unconnected-(U1-Pad7)*%
X105817900Y-69781250D03*
%TO.P,U1,8,IO32*%
%TO.N,IO32{slash}SD*%
X105817900Y-71051250D03*
%TO.P,U1,9,IO33*%
%TO.N,unconnected-(U1-Pad9)*%
X105817900Y-72321250D03*
%TO.P,U1,10,IO25*%
%TO.N,IO25{slash}VBUS*%
X105817900Y-73591250D03*
%TO.P,U1,11,IO26*%
%TO.N,IO26{slash}BUTTON2*%
X105817900Y-74861250D03*
%TO.P,U1,12,IO27*%
%TO.N,IO27{slash}BATT CHARGING*%
X105817900Y-76131250D03*
%TO.P,U1,13,IO14*%
%TO.N,IO14{slash}SCK*%
X105817900Y-77401250D03*
%TO.P,U1,14,IO12*%
%TO.N,IO12{slash}MISO*%
X105817900Y-78671250D03*
D33*
%TO.P,U1,15,GND*%
%TO.N,GND*%
X108602900Y-79671250D03*
%TO.P,U1,16,IO13*%
%TO.N,IO13{slash}MOSI*%
X109872900Y-79671250D03*
%TO.P,U1,17,NC*%
%TO.N,unconnected-(U1-Pad17)*%
X111142900Y-79671250D03*
%TO.P,U1,18,NC*%
%TO.N,unconnected-(U1-Pad18)*%
X112412900Y-79671250D03*
%TO.P,U1,19,NC*%
%TO.N,unconnected-(U1-Pad19)*%
X113682900Y-79671250D03*
%TO.P,U1,20,NC*%
%TO.N,unconnected-(U1-Pad20)*%
X114952900Y-79671250D03*
%TO.P,U1,21,NC*%
%TO.N,unconnected-(U1-Pad21)*%
X116222900Y-79671250D03*
%TO.P,U1,22,NC*%
%TO.N,unconnected-(U1-Pad22)*%
X117492900Y-79671250D03*
%TO.P,U1,23,IO15*%
%TO.N,IO15{slash}WS*%
X118762900Y-79671250D03*
%TO.P,U1,24,IO2*%
%TO.N,unconnected-(U1-Pad24)*%
X120032900Y-79671250D03*
D32*
%TO.P,U1,25,IO0*%
%TO.N,IO0*%
X122817900Y-78671250D03*
%TO.P,U1,26,IO4*%
%TO.N,IO4{slash}BUTTON1*%
X122817900Y-77401250D03*
%TO.P,U1,27,IO16*%
%TO.N,IO16{slash}BATT VOLT*%
X122817900Y-76131250D03*
%TO.P,U1,28,IO17*%
%TO.N,IO17{slash}LED1*%
X122817900Y-74861250D03*
%TO.P,U1,29,IO5*%
%TO.N,unconnected-(U1-Pad29)*%
X122817900Y-73591250D03*
%TO.P,U1,30,IO18*%
%TO.N,IO18{slash}LED2*%
X122817900Y-72321250D03*
%TO.P,U1,31,IO19*%
%TO.N,IO19*%
X122817900Y-71051250D03*
%TO.P,U1,32,NC1*%
%TO.N,unconnected-(U1-Pad32)*%
X122817900Y-69781250D03*
%TO.P,U1,33,IO21*%
%TO.N,IO21{slash}INT1*%
X122817900Y-68511250D03*
%TO.P,U1,34,RXD0*%
%TO.N,RXD0*%
X122817900Y-67241250D03*
%TO.P,U1,35,TXD0*%
%TO.N,TXD0*%
X122817900Y-65971250D03*
%TO.P,U1,36,IO22*%
%TO.N,IO22{slash}INT2*%
X122817900Y-64701250D03*
%TO.P,U1,37,IO23*%
%TO.N,IO23{slash}LEDPOWER*%
X122817900Y-63431250D03*
%TO.P,U1,38,GND*%
%TO.N,GND*%
X122817900Y-62161250D03*
D34*
%TO.P,U1,39,GND*%
X113317900Y-71496250D03*
X115152900Y-69661250D03*
X113317900Y-69661250D03*
X111482900Y-69661250D03*
X115152900Y-71496250D03*
X111482900Y-71496250D03*
X113317900Y-67826250D03*
X111482900Y-67826250D03*
X115152900Y-67826250D03*
%TD*%
D35*
%TO.P,U15,1,SDO/SA0*%
%TO.N,unconnected-(U15-Pad1)*%
X100700549Y-72202862D03*
%TO.P,U15,2,SDx*%
%TO.N,unconnected-(U15-Pad2)*%
X101200677Y-72202862D03*
%TO.P,U15,3,SCx*%
%TO.N,unconnected-(U15-Pad3)*%
X101700549Y-72202862D03*
%TO.P,U15,4,INT1*%
%TO.N,unconnected-(U15-Pad4)*%
X102200677Y-72202862D03*
D36*
%TO.P,U15,5,VDDIO*%
%TO.N,Net-(C19-Pad1)*%
X102463161Y-71440733D03*
%TO.P,U15,6,GND*%
%TO.N,unconnected-(U15-Pad6)*%
X102463161Y-70940860D03*
%TO.P,U15,7,GND*%
%TO.N,unconnected-(U15-Pad7)*%
X102463161Y-70440733D03*
D35*
%TO.P,U15,8,VDD*%
%TO.N,Net-(C20-Pad1)*%
X102200677Y-69678858D03*
%TO.P,U15,9,INT2*%
%TO.N,unconnected-(U15-Pad9)*%
X101700549Y-69678858D03*
%TO.P,U15,10,NC*%
%TO.N,unconnected-(U15-Pad10)*%
X101200677Y-69678858D03*
%TO.P,U15,11,NC*%
%TO.N,unconnected-(U15-Pad11)*%
X100700549Y-69678858D03*
D36*
%TO.P,U15,12,CS*%
%TO.N,unconnected-(U15-Pad12)*%
X100438065Y-70440733D03*
%TO.P,U15,13,SCL*%
%TO.N,unconnected-(U15-Pad13)*%
X100438065Y-70940860D03*
%TO.P,U15,14,SDA*%
%TO.N,unconnected-(U15-Pad14)*%
X100438065Y-71440733D03*
%TD*%
D37*
%TO.P,U6,1,TEMP*%
%TO.N,GND*%
X111686048Y-91394410D03*
%TO.P,U6,2,PROG*%
%TO.N,Net-(R12-Pad1)*%
X111686048Y-90124407D03*
%TO.P,U6,3,GND*%
%TO.N,GND*%
X111686048Y-88854405D03*
%TO.P,U6,4,VCC*%
%TO.N,VBUS*%
X111686048Y-87584402D03*
%TO.P,U6,5,BAT*%
%TO.N,+BATT*%
X105869436Y-87584402D03*
%TO.P,U6,6,STDBY#*%
%TO.N,unconnected-(U6-Pad6)*%
X105869436Y-88854405D03*
%TO.P,U6,7,CHRG#*%
%TO.N,IO27{slash}BATT CHARGING*%
X105869436Y-90124407D03*
%TO.P,U6,8,CE*%
%TO.N,VBUS*%
X105869436Y-91394410D03*
D38*
%TO.P,U6,9,EP*%
%TO.N,GND*%
X108777742Y-89489406D03*
%TD*%
D39*
%TO.P,U7,1,OD*%
%TO.N,Net-(U5-Pad6)*%
X100510085Y-91319098D03*
%TO.P,U7,2,VM*%
%TO.N,Net-(R10-Pad2)*%
X101460047Y-91319098D03*
%TO.P,U7,3,OC*%
%TO.N,Net-(U5-Pad4)*%
X102410009Y-91319098D03*
%TO.P,U7,4,TD*%
%TO.N,unconnected-(U7-Pad4)*%
X102410009Y-89020902D03*
%TO.P,U7,5,VCC*%
%TO.N,Net-(R13-Pad1)*%
X101460047Y-89020902D03*
%TO.P,U7,6,GND*%
%TO.N,-BATT*%
X100510085Y-89020902D03*
%TD*%
D40*
%TO.P,U8,1,SW*%
%TO.N,Net-(U4-Pad2)*%
X119260700Y-82865800D03*
%TO.P,U8,2,SW*%
X119260700Y-83515800D03*
%TO.P,U8,3,PGND*%
%TO.N,GND*%
X119260700Y-84165800D03*
%TO.P,U8,4,PGND*%
X119260700Y-84815800D03*
%TO.P,U8,5,PGND*%
X119260700Y-85465800D03*
%TO.P,U8,6,VBAT*%
%TO.N,+BATT*%
X119260700Y-86115800D03*
%TO.P,U8,7,LBI*%
%TO.N,GND*%
X119260700Y-86765800D03*
%TO.P,U8,8,SYNC*%
X119260700Y-87415800D03*
%TO.P,U8,9,EN*%
%TO.N,Net-(R14-Pad1)*%
X124985700Y-87415800D03*
%TO.P,U8,10,LBO*%
%TO.N,unconnected-(U8-Pad10)*%
X124985700Y-86765800D03*
%TO.P,U8,11,GND*%
%TO.N,GND*%
X124985700Y-86115800D03*
%TO.P,U8,12,FB*%
%TO.N,unconnected-(U8-Pad12)*%
X124985700Y-85465800D03*
%TO.P,U8,13,VOUT*%
%TO.N,+5V*%
X124985700Y-84815800D03*
%TO.P,U8,14,VOUT*%
X124985700Y-84165800D03*
%TO.P,U8,15,VOUT*%
X124985700Y-83515800D03*
%TO.P,U8,16,NC*%
%TO.N,unconnected-(U8-Pad16)*%
X124985700Y-82865800D03*
D41*
%TO.P,U8,17,EP*%
%TO.N,GND*%
X122123200Y-85140800D03*
%TD*%
D27*
%TO.P,C20,1*%
%TO.N,Net-(C20-Pad1)*%
X103378000Y-69669600D03*
%TO.P,C20,2*%
%TO.N,GND*%
X103378000Y-68709600D03*
%TD*%
%TO.P,C3,1*%
%TO.N,+3V3*%
X128320800Y-74569200D03*
%TO.P,C3,2*%
%TO.N,GND*%
X128320800Y-73609200D03*
%TD*%
D42*
%TO.P,C2,1*%
%TO.N,GND*%
X103124000Y-62356400D03*
%TO.P,C2,2*%
%TO.N,+3V3*%
X103124000Y-63906400D03*
%TD*%
D13*
%TO.P,R14,1*%
%TO.N,Net-(R14-Pad1)*%
X125577600Y-88392000D03*
%TO.P,R14,2*%
%TO.N,GND*%
X124557600Y-88392000D03*
%TD*%
D11*
%TO.P,R12,1*%
%TO.N,Net-(R12-Pad1)*%
X113030000Y-90019600D03*
%TO.P,R12,2*%
%TO.N,GND*%
X113030000Y-88999600D03*
%TD*%
D43*
%TO.P,C12,1*%
%TO.N,GND*%
X127480000Y-62382400D03*
%TO.P,C12,2*%
%TO.N,Net-(C12-Pad2)*%
X126520000Y-62382400D03*
%TD*%
D29*
%TO.P,R6,1*%
%TO.N,Net-(R6-Pad1)*%
X117803201Y-90068400D03*
%TO.P,R6,2*%
%TO.N,+5V*%
X118823201Y-90068400D03*
%TD*%
D14*
%TO.P,SW1,1,1*%
%TO.N,unconnected-(SW1-Pad1)*%
X100191132Y-97499175D03*
%TO.P,SW1,2,2*%
%TO.N,unconnected-(SW1-Pad2)*%
X100191132Y-92899225D03*
D15*
%TO.P,SW1,3,3*%
%TO.N,IO4{slash}BUTTON1*%
X101741043Y-96874079D03*
%TO.P,SW1,4,4*%
%TO.N,GND*%
X101741043Y-93524067D03*
%TD*%
D22*
%TO.P,C19,1*%
%TO.N,Net-(C19-Pad1)*%
X103378000Y-71684000D03*
%TO.P,C19,2*%
%TO.N,GND*%
X103378000Y-72644000D03*
%TD*%
D29*
%TO.P,R18,1*%
%TO.N,IO0*%
X100054000Y-83346400D03*
%TO.P,R18,2*%
%TO.N,+3V3*%
X101074000Y-83346400D03*
%TD*%
D11*
%TO.P,R13,1*%
%TO.N,Net-(R13-Pad1)*%
X104546400Y-86768400D03*
%TO.P,R13,2*%
%TO.N,+BATT*%
X104546400Y-85748400D03*
%TD*%
D44*
%TO.P,C10,1*%
%TO.N,+5V*%
X127203200Y-86205800D03*
%TO.P,C10,2*%
%TO.N,GND*%
X127203200Y-89155800D03*
%TD*%
D13*
%TO.P,R15,1*%
%TO.N,unconnected-(R15-Pad1)*%
X103055200Y-82388800D03*
%TO.P,R15,2*%
%TO.N,EN*%
X102035200Y-82388800D03*
%TD*%
D23*
%TO.P,U3,1,G*%
%TO.N,Net-(R6-Pad1)*%
X118430801Y-91201238D03*
%TO.P,U3,2,S*%
%TO.N,+5V*%
X118430801Y-93101162D03*
%TO.P,U3,3,D*%
%TO.N,LED 5V*%
X120430801Y-92151200D03*
%TD*%
M02*
