%TF.GenerationSoftware,KiCad,Pcbnew,(6.0.0-0)*%
%TF.CreationDate,2022-01-27T15:42:08+01:00*%
%TF.ProjectId,GlowBand,476c6f77-4261-46e6-942e-6b696361645f,rev?*%
%TF.SameCoordinates,Original*%
%TF.FileFunction,Legend,Top*%
%TF.FilePolarity,Positive*%
%FSLAX46Y46*%
G04 Gerber Fmt 4.6, Leading zero omitted, Abs format (unit mm)*
G04 Created by KiCad (PCBNEW (6.0.0-0)) date 2022-01-27 15:42:08*
%MOMM*%
%LPD*%
G01*
G04 APERTURE LIST*
%ADD10C,0.150000*%
%ADD11C,0.120000*%
G04 APERTURE END LIST*
D10*
%TO.C,C8*%
X119775333Y-70047142D02*
X119727714Y-70094761D01*
X119584857Y-70142380D01*
X119489619Y-70142380D01*
X119346761Y-70094761D01*
X119251523Y-69999523D01*
X119203904Y-69904285D01*
X119156285Y-69713809D01*
X119156285Y-69570952D01*
X119203904Y-69380476D01*
X119251523Y-69285238D01*
X119346761Y-69190000D01*
X119489619Y-69142380D01*
X119584857Y-69142380D01*
X119727714Y-69190000D01*
X119775333Y-69237619D01*
X120346761Y-69570952D02*
X120251523Y-69523333D01*
X120203904Y-69475714D01*
X120156285Y-69380476D01*
X120156285Y-69332857D01*
X120203904Y-69237619D01*
X120251523Y-69190000D01*
X120346761Y-69142380D01*
X120537238Y-69142380D01*
X120632476Y-69190000D01*
X120680095Y-69237619D01*
X120727714Y-69332857D01*
X120727714Y-69380476D01*
X120680095Y-69475714D01*
X120632476Y-69523333D01*
X120537238Y-69570952D01*
X120346761Y-69570952D01*
X120251523Y-69618571D01*
X120203904Y-69666190D01*
X120156285Y-69761428D01*
X120156285Y-69951904D01*
X120203904Y-70047142D01*
X120251523Y-70094761D01*
X120346761Y-70142380D01*
X120537238Y-70142380D01*
X120632476Y-70094761D01*
X120680095Y-70047142D01*
X120727714Y-69951904D01*
X120727714Y-69761428D01*
X120680095Y-69666190D01*
X120632476Y-69618571D01*
X120537238Y-69570952D01*
%TO.C,D10*%
X137772714Y-54377380D02*
X137772714Y-53377380D01*
X138010809Y-53377380D01*
X138153666Y-53425000D01*
X138248904Y-53520238D01*
X138296523Y-53615476D01*
X138344142Y-53805952D01*
X138344142Y-53948809D01*
X138296523Y-54139285D01*
X138248904Y-54234523D01*
X138153666Y-54329761D01*
X138010809Y-54377380D01*
X137772714Y-54377380D01*
X139296523Y-54377380D02*
X138725095Y-54377380D01*
X139010809Y-54377380D02*
X139010809Y-53377380D01*
X138915571Y-53520238D01*
X138820333Y-53615476D01*
X138725095Y-53663095D01*
X139915571Y-53377380D02*
X140010809Y-53377380D01*
X140106047Y-53425000D01*
X140153666Y-53472619D01*
X140201285Y-53567857D01*
X140248904Y-53758333D01*
X140248904Y-53996428D01*
X140201285Y-54186904D01*
X140153666Y-54282142D01*
X140106047Y-54329761D01*
X140010809Y-54377380D01*
X139915571Y-54377380D01*
X139820333Y-54329761D01*
X139772714Y-54282142D01*
X139725095Y-54186904D01*
X139677476Y-53996428D01*
X139677476Y-53758333D01*
X139725095Y-53567857D01*
X139772714Y-53472619D01*
X139820333Y-53425000D01*
X139915571Y-53377380D01*
X135122714Y-56277380D02*
X134551285Y-56277380D01*
X134837000Y-56277380D02*
X134837000Y-55277380D01*
X134741761Y-55420238D01*
X134646523Y-55515476D01*
X134551285Y-55563095D01*
%TO.C,C14*%
X135339142Y-70047142D02*
X135291523Y-70094761D01*
X135148666Y-70142380D01*
X135053428Y-70142380D01*
X134910571Y-70094761D01*
X134815333Y-69999523D01*
X134767714Y-69904285D01*
X134720095Y-69713809D01*
X134720095Y-69570952D01*
X134767714Y-69380476D01*
X134815333Y-69285238D01*
X134910571Y-69190000D01*
X135053428Y-69142380D01*
X135148666Y-69142380D01*
X135291523Y-69190000D01*
X135339142Y-69237619D01*
X136291523Y-70142380D02*
X135720095Y-70142380D01*
X136005809Y-70142380D02*
X136005809Y-69142380D01*
X135910571Y-69285238D01*
X135815333Y-69380476D01*
X135720095Y-69428095D01*
X137148666Y-69475714D02*
X137148666Y-70142380D01*
X136910571Y-69094761D02*
X136672476Y-69809047D01*
X137291523Y-69809047D01*
%TO.C,D13*%
X137772714Y-47757380D02*
X137772714Y-46757380D01*
X138010809Y-46757380D01*
X138153666Y-46805000D01*
X138248904Y-46900238D01*
X138296523Y-46995476D01*
X138344142Y-47185952D01*
X138344142Y-47328809D01*
X138296523Y-47519285D01*
X138248904Y-47614523D01*
X138153666Y-47709761D01*
X138010809Y-47757380D01*
X137772714Y-47757380D01*
X139296523Y-47757380D02*
X138725095Y-47757380D01*
X139010809Y-47757380D02*
X139010809Y-46757380D01*
X138915571Y-46900238D01*
X138820333Y-46995476D01*
X138725095Y-47043095D01*
X139629857Y-46757380D02*
X140248904Y-46757380D01*
X139915571Y-47138333D01*
X140058428Y-47138333D01*
X140153666Y-47185952D01*
X140201285Y-47233571D01*
X140248904Y-47328809D01*
X140248904Y-47566904D01*
X140201285Y-47662142D01*
X140153666Y-47709761D01*
X140058428Y-47757380D01*
X139772714Y-47757380D01*
X139677476Y-47709761D01*
X139629857Y-47662142D01*
X135122714Y-49657380D02*
X134551285Y-49657380D01*
X134837000Y-49657380D02*
X134837000Y-48657380D01*
X134741761Y-48800238D01*
X134646523Y-48895476D01*
X134551285Y-48943095D01*
%TO.C,D18*%
X146192714Y-54377380D02*
X146192714Y-53377380D01*
X146430809Y-53377380D01*
X146573666Y-53425000D01*
X146668904Y-53520238D01*
X146716523Y-53615476D01*
X146764142Y-53805952D01*
X146764142Y-53948809D01*
X146716523Y-54139285D01*
X146668904Y-54234523D01*
X146573666Y-54329761D01*
X146430809Y-54377380D01*
X146192714Y-54377380D01*
X147716523Y-54377380D02*
X147145095Y-54377380D01*
X147430809Y-54377380D02*
X147430809Y-53377380D01*
X147335571Y-53520238D01*
X147240333Y-53615476D01*
X147145095Y-53663095D01*
X148287952Y-53805952D02*
X148192714Y-53758333D01*
X148145095Y-53710714D01*
X148097476Y-53615476D01*
X148097476Y-53567857D01*
X148145095Y-53472619D01*
X148192714Y-53425000D01*
X148287952Y-53377380D01*
X148478428Y-53377380D01*
X148573666Y-53425000D01*
X148621285Y-53472619D01*
X148668904Y-53567857D01*
X148668904Y-53615476D01*
X148621285Y-53710714D01*
X148573666Y-53758333D01*
X148478428Y-53805952D01*
X148287952Y-53805952D01*
X148192714Y-53853571D01*
X148145095Y-53901190D01*
X148097476Y-53996428D01*
X148097476Y-54186904D01*
X148145095Y-54282142D01*
X148192714Y-54329761D01*
X148287952Y-54377380D01*
X148478428Y-54377380D01*
X148573666Y-54329761D01*
X148621285Y-54282142D01*
X148668904Y-54186904D01*
X148668904Y-53996428D01*
X148621285Y-53901190D01*
X148573666Y-53853571D01*
X148478428Y-53805952D01*
X143542714Y-56277380D02*
X142971285Y-56277380D01*
X143257000Y-56277380D02*
X143257000Y-55277380D01*
X143161761Y-55420238D01*
X143066523Y-55515476D01*
X142971285Y-55563095D01*
%TO.C,C13*%
X131329142Y-70047142D02*
X131281523Y-70094761D01*
X131138666Y-70142380D01*
X131043428Y-70142380D01*
X130900571Y-70094761D01*
X130805333Y-69999523D01*
X130757714Y-69904285D01*
X130710095Y-69713809D01*
X130710095Y-69570952D01*
X130757714Y-69380476D01*
X130805333Y-69285238D01*
X130900571Y-69190000D01*
X131043428Y-69142380D01*
X131138666Y-69142380D01*
X131281523Y-69190000D01*
X131329142Y-69237619D01*
X132281523Y-70142380D02*
X131710095Y-70142380D01*
X131995809Y-70142380D02*
X131995809Y-69142380D01*
X131900571Y-69285238D01*
X131805333Y-69380476D01*
X131710095Y-69428095D01*
X132614857Y-69142380D02*
X133233904Y-69142380D01*
X132900571Y-69523333D01*
X133043428Y-69523333D01*
X133138666Y-69570952D01*
X133186285Y-69618571D01*
X133233904Y-69713809D01*
X133233904Y-69951904D01*
X133186285Y-70047142D01*
X133138666Y-70094761D01*
X133043428Y-70142380D01*
X132757714Y-70142380D01*
X132662476Y-70094761D01*
X132614857Y-70047142D01*
%TO.C,C18*%
X144559142Y-60917142D02*
X144511523Y-60964761D01*
X144368666Y-61012380D01*
X144273428Y-61012380D01*
X144130571Y-60964761D01*
X144035333Y-60869523D01*
X143987714Y-60774285D01*
X143940095Y-60583809D01*
X143940095Y-60440952D01*
X143987714Y-60250476D01*
X144035333Y-60155238D01*
X144130571Y-60060000D01*
X144273428Y-60012380D01*
X144368666Y-60012380D01*
X144511523Y-60060000D01*
X144559142Y-60107619D01*
X145511523Y-61012380D02*
X144940095Y-61012380D01*
X145225809Y-61012380D02*
X145225809Y-60012380D01*
X145130571Y-60155238D01*
X145035333Y-60250476D01*
X144940095Y-60298095D01*
X146082952Y-60440952D02*
X145987714Y-60393333D01*
X145940095Y-60345714D01*
X145892476Y-60250476D01*
X145892476Y-60202857D01*
X145940095Y-60107619D01*
X145987714Y-60060000D01*
X146082952Y-60012380D01*
X146273428Y-60012380D01*
X146368666Y-60060000D01*
X146416285Y-60107619D01*
X146463904Y-60202857D01*
X146463904Y-60250476D01*
X146416285Y-60345714D01*
X146368666Y-60393333D01*
X146273428Y-60440952D01*
X146082952Y-60440952D01*
X145987714Y-60488571D01*
X145940095Y-60536190D01*
X145892476Y-60631428D01*
X145892476Y-60821904D01*
X145940095Y-60917142D01*
X145987714Y-60964761D01*
X146082952Y-61012380D01*
X146273428Y-61012380D01*
X146368666Y-60964761D01*
X146416285Y-60917142D01*
X146463904Y-60821904D01*
X146463904Y-60631428D01*
X146416285Y-60536190D01*
X146368666Y-60488571D01*
X146273428Y-60440952D01*
%TO.C,C4*%
X111466333Y-107893142D02*
X111418714Y-107940761D01*
X111275857Y-107988380D01*
X111180619Y-107988380D01*
X111037761Y-107940761D01*
X110942523Y-107845523D01*
X110894904Y-107750285D01*
X110847285Y-107559809D01*
X110847285Y-107416952D01*
X110894904Y-107226476D01*
X110942523Y-107131238D01*
X111037761Y-107036000D01*
X111180619Y-106988380D01*
X111275857Y-106988380D01*
X111418714Y-107036000D01*
X111466333Y-107083619D01*
X112323476Y-107321714D02*
X112323476Y-107988380D01*
X112085380Y-106940761D02*
X111847285Y-107655047D01*
X112466333Y-107655047D01*
%TO.C,C12*%
X135339142Y-67537142D02*
X135291523Y-67584761D01*
X135148666Y-67632380D01*
X135053428Y-67632380D01*
X134910571Y-67584761D01*
X134815333Y-67489523D01*
X134767714Y-67394285D01*
X134720095Y-67203809D01*
X134720095Y-67060952D01*
X134767714Y-66870476D01*
X134815333Y-66775238D01*
X134910571Y-66680000D01*
X135053428Y-66632380D01*
X135148666Y-66632380D01*
X135291523Y-66680000D01*
X135339142Y-66727619D01*
X136291523Y-67632380D02*
X135720095Y-67632380D01*
X136005809Y-67632380D02*
X136005809Y-66632380D01*
X135910571Y-66775238D01*
X135815333Y-66870476D01*
X135720095Y-66918095D01*
X136672476Y-66727619D02*
X136720095Y-66680000D01*
X136815333Y-66632380D01*
X137053428Y-66632380D01*
X137148666Y-66680000D01*
X137196285Y-66727619D01*
X137243904Y-66822857D01*
X137243904Y-66918095D01*
X137196285Y-67060952D01*
X136624857Y-67632380D01*
X137243904Y-67632380D01*
%TO.C,C16*%
X127319142Y-67537142D02*
X127271523Y-67584761D01*
X127128666Y-67632380D01*
X127033428Y-67632380D01*
X126890571Y-67584761D01*
X126795333Y-67489523D01*
X126747714Y-67394285D01*
X126700095Y-67203809D01*
X126700095Y-67060952D01*
X126747714Y-66870476D01*
X126795333Y-66775238D01*
X126890571Y-66680000D01*
X127033428Y-66632380D01*
X127128666Y-66632380D01*
X127271523Y-66680000D01*
X127319142Y-66727619D01*
X128271523Y-67632380D02*
X127700095Y-67632380D01*
X127985809Y-67632380D02*
X127985809Y-66632380D01*
X127890571Y-66775238D01*
X127795333Y-66870476D01*
X127700095Y-66918095D01*
X129128666Y-66632380D02*
X128938190Y-66632380D01*
X128842952Y-66680000D01*
X128795333Y-66727619D01*
X128700095Y-66870476D01*
X128652476Y-67060952D01*
X128652476Y-67441904D01*
X128700095Y-67537142D01*
X128747714Y-67584761D01*
X128842952Y-67632380D01*
X129033428Y-67632380D01*
X129128666Y-67584761D01*
X129176285Y-67537142D01*
X129223904Y-67441904D01*
X129223904Y-67203809D01*
X129176285Y-67108571D01*
X129128666Y-67060952D01*
X129033428Y-67013333D01*
X128842952Y-67013333D01*
X128747714Y-67060952D01*
X128700095Y-67108571D01*
X128652476Y-67203809D01*
%TO.C,D16*%
X146192714Y-47757380D02*
X146192714Y-46757380D01*
X146430809Y-46757380D01*
X146573666Y-46805000D01*
X146668904Y-46900238D01*
X146716523Y-46995476D01*
X146764142Y-47185952D01*
X146764142Y-47328809D01*
X146716523Y-47519285D01*
X146668904Y-47614523D01*
X146573666Y-47709761D01*
X146430809Y-47757380D01*
X146192714Y-47757380D01*
X147716523Y-47757380D02*
X147145095Y-47757380D01*
X147430809Y-47757380D02*
X147430809Y-46757380D01*
X147335571Y-46900238D01*
X147240333Y-46995476D01*
X147145095Y-47043095D01*
X148573666Y-46757380D02*
X148383190Y-46757380D01*
X148287952Y-46805000D01*
X148240333Y-46852619D01*
X148145095Y-46995476D01*
X148097476Y-47185952D01*
X148097476Y-47566904D01*
X148145095Y-47662142D01*
X148192714Y-47709761D01*
X148287952Y-47757380D01*
X148478428Y-47757380D01*
X148573666Y-47709761D01*
X148621285Y-47662142D01*
X148668904Y-47566904D01*
X148668904Y-47328809D01*
X148621285Y-47233571D01*
X148573666Y-47185952D01*
X148478428Y-47138333D01*
X148287952Y-47138333D01*
X148192714Y-47185952D01*
X148145095Y-47233571D01*
X148097476Y-47328809D01*
X143542714Y-49657380D02*
X142971285Y-49657380D01*
X143257000Y-49657380D02*
X143257000Y-48657380D01*
X143161761Y-48800238D01*
X143066523Y-48895476D01*
X142971285Y-48943095D01*
%TO.C,D7*%
X121408904Y-60997380D02*
X121408904Y-59997380D01*
X121647000Y-59997380D01*
X121789857Y-60045000D01*
X121885095Y-60140238D01*
X121932714Y-60235476D01*
X121980333Y-60425952D01*
X121980333Y-60568809D01*
X121932714Y-60759285D01*
X121885095Y-60854523D01*
X121789857Y-60949761D01*
X121647000Y-60997380D01*
X121408904Y-60997380D01*
X122313666Y-59997380D02*
X122980333Y-59997380D01*
X122551761Y-60997380D01*
X118282714Y-62897380D02*
X117711285Y-62897380D01*
X117997000Y-62897380D02*
X117997000Y-61897380D01*
X117901761Y-62040238D01*
X117806523Y-62135476D01*
X117711285Y-62183095D01*
%TO.C,U1*%
X87246913Y-91372409D02*
X87819333Y-91944829D01*
X87920348Y-91978501D01*
X87987692Y-91978501D01*
X88088707Y-91944829D01*
X88223394Y-91810142D01*
X88257066Y-91709127D01*
X88257066Y-91641783D01*
X88223394Y-91540768D01*
X87650974Y-90968348D01*
X89065188Y-90968348D02*
X88661127Y-91372409D01*
X88863157Y-91170379D02*
X88156051Y-90463272D01*
X88189722Y-90631631D01*
X88189722Y-90766318D01*
X88156051Y-90867333D01*
%TO.C,C10*%
X131329142Y-67537142D02*
X131281523Y-67584761D01*
X131138666Y-67632380D01*
X131043428Y-67632380D01*
X130900571Y-67584761D01*
X130805333Y-67489523D01*
X130757714Y-67394285D01*
X130710095Y-67203809D01*
X130710095Y-67060952D01*
X130757714Y-66870476D01*
X130805333Y-66775238D01*
X130900571Y-66680000D01*
X131043428Y-66632380D01*
X131138666Y-66632380D01*
X131281523Y-66680000D01*
X131329142Y-66727619D01*
X132281523Y-67632380D02*
X131710095Y-67632380D01*
X131995809Y-67632380D02*
X131995809Y-66632380D01*
X131900571Y-66775238D01*
X131805333Y-66870476D01*
X131710095Y-66918095D01*
X132900571Y-66632380D02*
X132995809Y-66632380D01*
X133091047Y-66680000D01*
X133138666Y-66727619D01*
X133186285Y-66822857D01*
X133233904Y-67013333D01*
X133233904Y-67251428D01*
X133186285Y-67441904D01*
X133138666Y-67537142D01*
X133091047Y-67584761D01*
X132995809Y-67632380D01*
X132900571Y-67632380D01*
X132805333Y-67584761D01*
X132757714Y-67537142D01*
X132710095Y-67441904D01*
X132662476Y-67251428D01*
X132662476Y-67013333D01*
X132710095Y-66822857D01*
X132757714Y-66727619D01*
X132805333Y-66680000D01*
X132900571Y-66632380D01*
%TO.C,D9*%
X121408904Y-54377380D02*
X121408904Y-53377380D01*
X121647000Y-53377380D01*
X121789857Y-53425000D01*
X121885095Y-53520238D01*
X121932714Y-53615476D01*
X121980333Y-53805952D01*
X121980333Y-53948809D01*
X121932714Y-54139285D01*
X121885095Y-54234523D01*
X121789857Y-54329761D01*
X121647000Y-54377380D01*
X121408904Y-54377380D01*
X122456523Y-54377380D02*
X122647000Y-54377380D01*
X122742238Y-54329761D01*
X122789857Y-54282142D01*
X122885095Y-54139285D01*
X122932714Y-53948809D01*
X122932714Y-53567857D01*
X122885095Y-53472619D01*
X122837476Y-53425000D01*
X122742238Y-53377380D01*
X122551761Y-53377380D01*
X122456523Y-53425000D01*
X122408904Y-53472619D01*
X122361285Y-53567857D01*
X122361285Y-53805952D01*
X122408904Y-53901190D01*
X122456523Y-53948809D01*
X122551761Y-53996428D01*
X122742238Y-53996428D01*
X122837476Y-53948809D01*
X122885095Y-53901190D01*
X122932714Y-53805952D01*
X118282714Y-56277380D02*
X117711285Y-56277380D01*
X117997000Y-56277380D02*
X117997000Y-55277380D01*
X117901761Y-55420238D01*
X117806523Y-55515476D01*
X117711285Y-55563095D01*
%TO.C,D1*%
X84679380Y-103862095D02*
X83679380Y-103862095D01*
X83679380Y-103624000D01*
X83727000Y-103481142D01*
X83822238Y-103385904D01*
X83917476Y-103338285D01*
X84107952Y-103290666D01*
X84250809Y-103290666D01*
X84441285Y-103338285D01*
X84536523Y-103385904D01*
X84631761Y-103481142D01*
X84679380Y-103624000D01*
X84679380Y-103862095D01*
X84679380Y-102338285D02*
X84679380Y-102909714D01*
X84679380Y-102624000D02*
X83679380Y-102624000D01*
X83822238Y-102719238D01*
X83917476Y-102814476D01*
X83965095Y-102909714D01*
X86579380Y-106988285D02*
X86579380Y-107559714D01*
X86579380Y-107274000D02*
X85579380Y-107274000D01*
X85722238Y-107369238D01*
X85817476Y-107464476D01*
X85865095Y-107559714D01*
%TO.C,D2*%
X92299380Y-103862095D02*
X91299380Y-103862095D01*
X91299380Y-103624000D01*
X91347000Y-103481142D01*
X91442238Y-103385904D01*
X91537476Y-103338285D01*
X91727952Y-103290666D01*
X91870809Y-103290666D01*
X92061285Y-103338285D01*
X92156523Y-103385904D01*
X92251761Y-103481142D01*
X92299380Y-103624000D01*
X92299380Y-103862095D01*
X91394619Y-102909714D02*
X91347000Y-102862095D01*
X91299380Y-102766857D01*
X91299380Y-102528761D01*
X91347000Y-102433523D01*
X91394619Y-102385904D01*
X91489857Y-102338285D01*
X91585095Y-102338285D01*
X91727952Y-102385904D01*
X92299380Y-102957333D01*
X92299380Y-102338285D01*
X94199380Y-106988285D02*
X94199380Y-107559714D01*
X94199380Y-107274000D02*
X93199380Y-107274000D01*
X93342238Y-107369238D01*
X93437476Y-107464476D01*
X93485095Y-107559714D01*
%TO.C,D17*%
X129352714Y-47757380D02*
X129352714Y-46757380D01*
X129590809Y-46757380D01*
X129733666Y-46805000D01*
X129828904Y-46900238D01*
X129876523Y-46995476D01*
X129924142Y-47185952D01*
X129924142Y-47328809D01*
X129876523Y-47519285D01*
X129828904Y-47614523D01*
X129733666Y-47709761D01*
X129590809Y-47757380D01*
X129352714Y-47757380D01*
X130876523Y-47757380D02*
X130305095Y-47757380D01*
X130590809Y-47757380D02*
X130590809Y-46757380D01*
X130495571Y-46900238D01*
X130400333Y-46995476D01*
X130305095Y-47043095D01*
X131209857Y-46757380D02*
X131876523Y-46757380D01*
X131447952Y-47757380D01*
X126702714Y-49657380D02*
X126131285Y-49657380D01*
X126417000Y-49657380D02*
X126417000Y-48657380D01*
X126321761Y-48800238D01*
X126226523Y-48895476D01*
X126131285Y-48943095D01*
%TO.C,D5*%
X116586380Y-103862095D02*
X115586380Y-103862095D01*
X115586380Y-103624000D01*
X115634000Y-103481142D01*
X115729238Y-103385904D01*
X115824476Y-103338285D01*
X116014952Y-103290666D01*
X116157809Y-103290666D01*
X116348285Y-103338285D01*
X116443523Y-103385904D01*
X116538761Y-103481142D01*
X116586380Y-103624000D01*
X116586380Y-103862095D01*
X115586380Y-102385904D02*
X115586380Y-102862095D01*
X116062571Y-102909714D01*
X116014952Y-102862095D01*
X115967333Y-102766857D01*
X115967333Y-102528761D01*
X116014952Y-102433523D01*
X116062571Y-102385904D01*
X116157809Y-102338285D01*
X116395904Y-102338285D01*
X116491142Y-102385904D01*
X116538761Y-102433523D01*
X116586380Y-102528761D01*
X116586380Y-102766857D01*
X116538761Y-102862095D01*
X116491142Y-102909714D01*
X118486380Y-106988285D02*
X118486380Y-107559714D01*
X118486380Y-107274000D02*
X117486380Y-107274000D01*
X117629238Y-107369238D01*
X117724476Y-107464476D01*
X117772095Y-107559714D01*
%TO.C,C3*%
X103338333Y-107893142D02*
X103290714Y-107940761D01*
X103147857Y-107988380D01*
X103052619Y-107988380D01*
X102909761Y-107940761D01*
X102814523Y-107845523D01*
X102766904Y-107750285D01*
X102719285Y-107559809D01*
X102719285Y-107416952D01*
X102766904Y-107226476D01*
X102814523Y-107131238D01*
X102909761Y-107036000D01*
X103052619Y-106988380D01*
X103147857Y-106988380D01*
X103290714Y-107036000D01*
X103338333Y-107083619D01*
X103671666Y-106988380D02*
X104290714Y-106988380D01*
X103957380Y-107369333D01*
X104100238Y-107369333D01*
X104195476Y-107416952D01*
X104243095Y-107464571D01*
X104290714Y-107559809D01*
X104290714Y-107797904D01*
X104243095Y-107893142D01*
X104195476Y-107940761D01*
X104100238Y-107988380D01*
X103814523Y-107988380D01*
X103719285Y-107940761D01*
X103671666Y-107893142D01*
%TO.C,D11*%
X129352714Y-54377380D02*
X129352714Y-53377380D01*
X129590809Y-53377380D01*
X129733666Y-53425000D01*
X129828904Y-53520238D01*
X129876523Y-53615476D01*
X129924142Y-53805952D01*
X129924142Y-53948809D01*
X129876523Y-54139285D01*
X129828904Y-54234523D01*
X129733666Y-54329761D01*
X129590809Y-54377380D01*
X129352714Y-54377380D01*
X130876523Y-54377380D02*
X130305095Y-54377380D01*
X130590809Y-54377380D02*
X130590809Y-53377380D01*
X130495571Y-53520238D01*
X130400333Y-53615476D01*
X130305095Y-53663095D01*
X131828904Y-54377380D02*
X131257476Y-54377380D01*
X131543190Y-54377380D02*
X131543190Y-53377380D01*
X131447952Y-53520238D01*
X131352714Y-53615476D01*
X131257476Y-53663095D01*
X126702714Y-56277380D02*
X126131285Y-56277380D01*
X126417000Y-56277380D02*
X126417000Y-55277380D01*
X126321761Y-55420238D01*
X126226523Y-55515476D01*
X126131285Y-55563095D01*
%TO.C,C17*%
X127319142Y-70047142D02*
X127271523Y-70094761D01*
X127128666Y-70142380D01*
X127033428Y-70142380D01*
X126890571Y-70094761D01*
X126795333Y-69999523D01*
X126747714Y-69904285D01*
X126700095Y-69713809D01*
X126700095Y-69570952D01*
X126747714Y-69380476D01*
X126795333Y-69285238D01*
X126890571Y-69190000D01*
X127033428Y-69142380D01*
X127128666Y-69142380D01*
X127271523Y-69190000D01*
X127319142Y-69237619D01*
X128271523Y-70142380D02*
X127700095Y-70142380D01*
X127985809Y-70142380D02*
X127985809Y-69142380D01*
X127890571Y-69285238D01*
X127795333Y-69380476D01*
X127700095Y-69428095D01*
X128604857Y-69142380D02*
X129271523Y-69142380D01*
X128842952Y-70142380D01*
%TO.C,D8*%
X155088904Y-47757380D02*
X155088904Y-46757380D01*
X155327000Y-46757380D01*
X155469857Y-46805000D01*
X155565095Y-46900238D01*
X155612714Y-46995476D01*
X155660333Y-47185952D01*
X155660333Y-47328809D01*
X155612714Y-47519285D01*
X155565095Y-47614523D01*
X155469857Y-47709761D01*
X155327000Y-47757380D01*
X155088904Y-47757380D01*
X156231761Y-47185952D02*
X156136523Y-47138333D01*
X156088904Y-47090714D01*
X156041285Y-46995476D01*
X156041285Y-46947857D01*
X156088904Y-46852619D01*
X156136523Y-46805000D01*
X156231761Y-46757380D01*
X156422238Y-46757380D01*
X156517476Y-46805000D01*
X156565095Y-46852619D01*
X156612714Y-46947857D01*
X156612714Y-46995476D01*
X156565095Y-47090714D01*
X156517476Y-47138333D01*
X156422238Y-47185952D01*
X156231761Y-47185952D01*
X156136523Y-47233571D01*
X156088904Y-47281190D01*
X156041285Y-47376428D01*
X156041285Y-47566904D01*
X156088904Y-47662142D01*
X156136523Y-47709761D01*
X156231761Y-47757380D01*
X156422238Y-47757380D01*
X156517476Y-47709761D01*
X156565095Y-47662142D01*
X156612714Y-47566904D01*
X156612714Y-47376428D01*
X156565095Y-47281190D01*
X156517476Y-47233571D01*
X156422238Y-47185952D01*
X151962714Y-49657380D02*
X151391285Y-49657380D01*
X151677000Y-49657380D02*
X151677000Y-48657380D01*
X151581761Y-48800238D01*
X151486523Y-48895476D01*
X151391285Y-48943095D01*
%TO.C,C15*%
X123309142Y-67537142D02*
X123261523Y-67584761D01*
X123118666Y-67632380D01*
X123023428Y-67632380D01*
X122880571Y-67584761D01*
X122785333Y-67489523D01*
X122737714Y-67394285D01*
X122690095Y-67203809D01*
X122690095Y-67060952D01*
X122737714Y-66870476D01*
X122785333Y-66775238D01*
X122880571Y-66680000D01*
X123023428Y-66632380D01*
X123118666Y-66632380D01*
X123261523Y-66680000D01*
X123309142Y-66727619D01*
X124261523Y-67632380D02*
X123690095Y-67632380D01*
X123975809Y-67632380D02*
X123975809Y-66632380D01*
X123880571Y-66775238D01*
X123785333Y-66870476D01*
X123690095Y-66918095D01*
X125166285Y-66632380D02*
X124690095Y-66632380D01*
X124642476Y-67108571D01*
X124690095Y-67060952D01*
X124785333Y-67013333D01*
X125023428Y-67013333D01*
X125118666Y-67060952D01*
X125166285Y-67108571D01*
X125213904Y-67203809D01*
X125213904Y-67441904D01*
X125166285Y-67537142D01*
X125118666Y-67584761D01*
X125023428Y-67632380D01*
X124785333Y-67632380D01*
X124690095Y-67584761D01*
X124642476Y-67537142D01*
%TO.C,R1*%
X81318380Y-103226666D02*
X80842190Y-103560000D01*
X81318380Y-103798095D02*
X80318380Y-103798095D01*
X80318380Y-103417142D01*
X80366000Y-103321904D01*
X80413619Y-103274285D01*
X80508857Y-103226666D01*
X80651714Y-103226666D01*
X80746952Y-103274285D01*
X80794571Y-103321904D01*
X80842190Y-103417142D01*
X80842190Y-103798095D01*
X81318380Y-102274285D02*
X81318380Y-102845714D01*
X81318380Y-102560000D02*
X80318380Y-102560000D01*
X80461238Y-102655238D01*
X80556476Y-102750476D01*
X80604095Y-102845714D01*
%TO.C,C6*%
X128146333Y-107893142D02*
X128098714Y-107940761D01*
X127955857Y-107988380D01*
X127860619Y-107988380D01*
X127717761Y-107940761D01*
X127622523Y-107845523D01*
X127574904Y-107750285D01*
X127527285Y-107559809D01*
X127527285Y-107416952D01*
X127574904Y-107226476D01*
X127622523Y-107131238D01*
X127717761Y-107036000D01*
X127860619Y-106988380D01*
X127955857Y-106988380D01*
X128098714Y-107036000D01*
X128146333Y-107083619D01*
X129003476Y-106988380D02*
X128813000Y-106988380D01*
X128717761Y-107036000D01*
X128670142Y-107083619D01*
X128574904Y-107226476D01*
X128527285Y-107416952D01*
X128527285Y-107797904D01*
X128574904Y-107893142D01*
X128622523Y-107940761D01*
X128717761Y-107988380D01*
X128908238Y-107988380D01*
X129003476Y-107940761D01*
X129051095Y-107893142D01*
X129098714Y-107797904D01*
X129098714Y-107559809D01*
X129051095Y-107464571D01*
X129003476Y-107416952D01*
X128908238Y-107369333D01*
X128717761Y-107369333D01*
X128622523Y-107416952D01*
X128574904Y-107464571D01*
X128527285Y-107559809D01*
%TO.C,C2*%
X94926333Y-107893142D02*
X94878714Y-107940761D01*
X94735857Y-107988380D01*
X94640619Y-107988380D01*
X94497761Y-107940761D01*
X94402523Y-107845523D01*
X94354904Y-107750285D01*
X94307285Y-107559809D01*
X94307285Y-107416952D01*
X94354904Y-107226476D01*
X94402523Y-107131238D01*
X94497761Y-107036000D01*
X94640619Y-106988380D01*
X94735857Y-106988380D01*
X94878714Y-107036000D01*
X94926333Y-107083619D01*
X95307285Y-107083619D02*
X95354904Y-107036000D01*
X95450142Y-106988380D01*
X95688238Y-106988380D01*
X95783476Y-107036000D01*
X95831095Y-107083619D01*
X95878714Y-107178857D01*
X95878714Y-107274095D01*
X95831095Y-107416952D01*
X95259666Y-107988380D01*
X95878714Y-107988380D01*
%TO.C,D15*%
X120932714Y-47757380D02*
X120932714Y-46757380D01*
X121170809Y-46757380D01*
X121313666Y-46805000D01*
X121408904Y-46900238D01*
X121456523Y-46995476D01*
X121504142Y-47185952D01*
X121504142Y-47328809D01*
X121456523Y-47519285D01*
X121408904Y-47614523D01*
X121313666Y-47709761D01*
X121170809Y-47757380D01*
X120932714Y-47757380D01*
X122456523Y-47757380D02*
X121885095Y-47757380D01*
X122170809Y-47757380D02*
X122170809Y-46757380D01*
X122075571Y-46900238D01*
X121980333Y-46995476D01*
X121885095Y-47043095D01*
X123361285Y-46757380D02*
X122885095Y-46757380D01*
X122837476Y-47233571D01*
X122885095Y-47185952D01*
X122980333Y-47138333D01*
X123218428Y-47138333D01*
X123313666Y-47185952D01*
X123361285Y-47233571D01*
X123408904Y-47328809D01*
X123408904Y-47566904D01*
X123361285Y-47662142D01*
X123313666Y-47709761D01*
X123218428Y-47757380D01*
X122980333Y-47757380D01*
X122885095Y-47709761D01*
X122837476Y-47662142D01*
X118282714Y-49657380D02*
X117711285Y-49657380D01*
X117997000Y-49657380D02*
X117997000Y-48657380D01*
X117901761Y-48800238D01*
X117806523Y-48895476D01*
X117711285Y-48943095D01*
%TO.C,D3*%
X100457380Y-103862095D02*
X99457380Y-103862095D01*
X99457380Y-103624000D01*
X99505000Y-103481142D01*
X99600238Y-103385904D01*
X99695476Y-103338285D01*
X99885952Y-103290666D01*
X100028809Y-103290666D01*
X100219285Y-103338285D01*
X100314523Y-103385904D01*
X100409761Y-103481142D01*
X100457380Y-103624000D01*
X100457380Y-103862095D01*
X99457380Y-102957333D02*
X99457380Y-102338285D01*
X99838333Y-102671619D01*
X99838333Y-102528761D01*
X99885952Y-102433523D01*
X99933571Y-102385904D01*
X100028809Y-102338285D01*
X100266904Y-102338285D01*
X100362142Y-102385904D01*
X100409761Y-102433523D01*
X100457380Y-102528761D01*
X100457380Y-102814476D01*
X100409761Y-102909714D01*
X100362142Y-102957333D01*
X102357380Y-106988285D02*
X102357380Y-107559714D01*
X102357380Y-107274000D02*
X101357380Y-107274000D01*
X101500238Y-107369238D01*
X101595476Y-107464476D01*
X101643095Y-107559714D01*
%TO.C,C1*%
X87433333Y-107893142D02*
X87385714Y-107940761D01*
X87242857Y-107988380D01*
X87147619Y-107988380D01*
X87004761Y-107940761D01*
X86909523Y-107845523D01*
X86861904Y-107750285D01*
X86814285Y-107559809D01*
X86814285Y-107416952D01*
X86861904Y-107226476D01*
X86909523Y-107131238D01*
X87004761Y-107036000D01*
X87147619Y-106988380D01*
X87242857Y-106988380D01*
X87385714Y-107036000D01*
X87433333Y-107083619D01*
X88385714Y-107988380D02*
X87814285Y-107988380D01*
X88100000Y-107988380D02*
X88100000Y-106988380D01*
X88004761Y-107131238D01*
X87909523Y-107226476D01*
X87814285Y-107274095D01*
%TO.C,C9*%
X119775333Y-67537142D02*
X119727714Y-67584761D01*
X119584857Y-67632380D01*
X119489619Y-67632380D01*
X119346761Y-67584761D01*
X119251523Y-67489523D01*
X119203904Y-67394285D01*
X119156285Y-67203809D01*
X119156285Y-67060952D01*
X119203904Y-66870476D01*
X119251523Y-66775238D01*
X119346761Y-66680000D01*
X119489619Y-66632380D01*
X119584857Y-66632380D01*
X119727714Y-66680000D01*
X119775333Y-66727619D01*
X120251523Y-67632380D02*
X120442000Y-67632380D01*
X120537238Y-67584761D01*
X120584857Y-67537142D01*
X120680095Y-67394285D01*
X120727714Y-67203809D01*
X120727714Y-66822857D01*
X120680095Y-66727619D01*
X120632476Y-66680000D01*
X120537238Y-66632380D01*
X120346761Y-66632380D01*
X120251523Y-66680000D01*
X120203904Y-66727619D01*
X120156285Y-66822857D01*
X120156285Y-67060952D01*
X120203904Y-67156190D01*
X120251523Y-67203809D01*
X120346761Y-67251428D01*
X120537238Y-67251428D01*
X120632476Y-67203809D01*
X120680095Y-67156190D01*
X120727714Y-67060952D01*
%TO.C,C11*%
X152979142Y-54297142D02*
X152931523Y-54344761D01*
X152788666Y-54392380D01*
X152693428Y-54392380D01*
X152550571Y-54344761D01*
X152455333Y-54249523D01*
X152407714Y-54154285D01*
X152360095Y-53963809D01*
X152360095Y-53820952D01*
X152407714Y-53630476D01*
X152455333Y-53535238D01*
X152550571Y-53440000D01*
X152693428Y-53392380D01*
X152788666Y-53392380D01*
X152931523Y-53440000D01*
X152979142Y-53487619D01*
X153931523Y-54392380D02*
X153360095Y-54392380D01*
X153645809Y-54392380D02*
X153645809Y-53392380D01*
X153550571Y-53535238D01*
X153455333Y-53630476D01*
X153360095Y-53678095D01*
X154883904Y-54392380D02*
X154312476Y-54392380D01*
X154598190Y-54392380D02*
X154598190Y-53392380D01*
X154502952Y-53535238D01*
X154407714Y-53630476D01*
X154312476Y-53678095D01*
%TO.C,D14*%
X129352714Y-60997380D02*
X129352714Y-59997380D01*
X129590809Y-59997380D01*
X129733666Y-60045000D01*
X129828904Y-60140238D01*
X129876523Y-60235476D01*
X129924142Y-60425952D01*
X129924142Y-60568809D01*
X129876523Y-60759285D01*
X129828904Y-60854523D01*
X129733666Y-60949761D01*
X129590809Y-60997380D01*
X129352714Y-60997380D01*
X130876523Y-60997380D02*
X130305095Y-60997380D01*
X130590809Y-60997380D02*
X130590809Y-59997380D01*
X130495571Y-60140238D01*
X130400333Y-60235476D01*
X130305095Y-60283095D01*
X131733666Y-60330714D02*
X131733666Y-60997380D01*
X131495571Y-59949761D02*
X131257476Y-60664047D01*
X131876523Y-60664047D01*
X126702714Y-62897380D02*
X126131285Y-62897380D01*
X126417000Y-62897380D02*
X126417000Y-61897380D01*
X126321761Y-62040238D01*
X126226523Y-62135476D01*
X126131285Y-62183095D01*
%TO.C,C5*%
X119497333Y-107893142D02*
X119449714Y-107940761D01*
X119306857Y-107988380D01*
X119211619Y-107988380D01*
X119068761Y-107940761D01*
X118973523Y-107845523D01*
X118925904Y-107750285D01*
X118878285Y-107559809D01*
X118878285Y-107416952D01*
X118925904Y-107226476D01*
X118973523Y-107131238D01*
X119068761Y-107036000D01*
X119211619Y-106988380D01*
X119306857Y-106988380D01*
X119449714Y-107036000D01*
X119497333Y-107083619D01*
X120402095Y-106988380D02*
X119925904Y-106988380D01*
X119878285Y-107464571D01*
X119925904Y-107416952D01*
X120021142Y-107369333D01*
X120259238Y-107369333D01*
X120354476Y-107416952D01*
X120402095Y-107464571D01*
X120449714Y-107559809D01*
X120449714Y-107797904D01*
X120402095Y-107893142D01*
X120354476Y-107940761D01*
X120259238Y-107988380D01*
X120021142Y-107988380D01*
X119925904Y-107940761D01*
X119878285Y-107893142D01*
%TO.C,D6*%
X125095380Y-103735095D02*
X124095380Y-103735095D01*
X124095380Y-103497000D01*
X124143000Y-103354142D01*
X124238238Y-103258904D01*
X124333476Y-103211285D01*
X124523952Y-103163666D01*
X124666809Y-103163666D01*
X124857285Y-103211285D01*
X124952523Y-103258904D01*
X125047761Y-103354142D01*
X125095380Y-103497000D01*
X125095380Y-103735095D01*
X124095380Y-102306523D02*
X124095380Y-102497000D01*
X124143000Y-102592238D01*
X124190619Y-102639857D01*
X124333476Y-102735095D01*
X124523952Y-102782714D01*
X124904904Y-102782714D01*
X125000142Y-102735095D01*
X125047761Y-102687476D01*
X125095380Y-102592238D01*
X125095380Y-102401761D01*
X125047761Y-102306523D01*
X125000142Y-102258904D01*
X124904904Y-102211285D01*
X124666809Y-102211285D01*
X124571571Y-102258904D01*
X124523952Y-102306523D01*
X124476333Y-102401761D01*
X124476333Y-102592238D01*
X124523952Y-102687476D01*
X124571571Y-102735095D01*
X124666809Y-102782714D01*
X126995380Y-106861285D02*
X126995380Y-107432714D01*
X126995380Y-107147000D02*
X125995380Y-107147000D01*
X126138238Y-107242238D01*
X126233476Y-107337476D01*
X126281095Y-107432714D01*
%TO.C,C7*%
X123785333Y-70047142D02*
X123737714Y-70094761D01*
X123594857Y-70142380D01*
X123499619Y-70142380D01*
X123356761Y-70094761D01*
X123261523Y-69999523D01*
X123213904Y-69904285D01*
X123166285Y-69713809D01*
X123166285Y-69570952D01*
X123213904Y-69380476D01*
X123261523Y-69285238D01*
X123356761Y-69190000D01*
X123499619Y-69142380D01*
X123594857Y-69142380D01*
X123737714Y-69190000D01*
X123785333Y-69237619D01*
X124118666Y-69142380D02*
X124785333Y-69142380D01*
X124356761Y-70142380D01*
%TO.C,D12*%
X137772714Y-60997380D02*
X137772714Y-59997380D01*
X138010809Y-59997380D01*
X138153666Y-60045000D01*
X138248904Y-60140238D01*
X138296523Y-60235476D01*
X138344142Y-60425952D01*
X138344142Y-60568809D01*
X138296523Y-60759285D01*
X138248904Y-60854523D01*
X138153666Y-60949761D01*
X138010809Y-60997380D01*
X137772714Y-60997380D01*
X139296523Y-60997380D02*
X138725095Y-60997380D01*
X139010809Y-60997380D02*
X139010809Y-59997380D01*
X138915571Y-60140238D01*
X138820333Y-60235476D01*
X138725095Y-60283095D01*
X139677476Y-60092619D02*
X139725095Y-60045000D01*
X139820333Y-59997380D01*
X140058428Y-59997380D01*
X140153666Y-60045000D01*
X140201285Y-60092619D01*
X140248904Y-60187857D01*
X140248904Y-60283095D01*
X140201285Y-60425952D01*
X139629857Y-60997380D01*
X140248904Y-60997380D01*
X135122714Y-62897380D02*
X134551285Y-62897380D01*
X134837000Y-62897380D02*
X134837000Y-61897380D01*
X134741761Y-62040238D01*
X134646523Y-62135476D01*
X134551285Y-62183095D01*
%TO.C,D4*%
X108204380Y-103862095D02*
X107204380Y-103862095D01*
X107204380Y-103624000D01*
X107252000Y-103481142D01*
X107347238Y-103385904D01*
X107442476Y-103338285D01*
X107632952Y-103290666D01*
X107775809Y-103290666D01*
X107966285Y-103338285D01*
X108061523Y-103385904D01*
X108156761Y-103481142D01*
X108204380Y-103624000D01*
X108204380Y-103862095D01*
X107537714Y-102433523D02*
X108204380Y-102433523D01*
X107156761Y-102671619D02*
X107871047Y-102909714D01*
X107871047Y-102290666D01*
X110104380Y-106988285D02*
X110104380Y-107559714D01*
X110104380Y-107274000D02*
X109104380Y-107274000D01*
X109247238Y-107369238D01*
X109342476Y-107464476D01*
X109390095Y-107559714D01*
D11*
%TO.C,C8*%
X119801420Y-71630000D02*
X120082580Y-71630000D01*
X119801420Y-70610000D02*
X120082580Y-70610000D01*
%TO.C,D10*%
X135337000Y-54675000D02*
X142637000Y-54675000D01*
X135337000Y-60175000D02*
X142637000Y-60175000D01*
X142637000Y-60175000D02*
X142637000Y-59025000D01*
%TO.C,C14*%
X135841420Y-71630000D02*
X136122580Y-71630000D01*
X135841420Y-70610000D02*
X136122580Y-70610000D01*
%TO.C,D13*%
X142637000Y-53555000D02*
X142637000Y-52405000D01*
X135337000Y-48055000D02*
X142637000Y-48055000D01*
X135337000Y-53555000D02*
X142637000Y-53555000D01*
%TO.C,D18*%
X151057000Y-60175000D02*
X151057000Y-59025000D01*
X143757000Y-54675000D02*
X151057000Y-54675000D01*
X143757000Y-60175000D02*
X151057000Y-60175000D01*
%TO.C,C13*%
X131831420Y-70610000D02*
X132112580Y-70610000D01*
X131831420Y-71630000D02*
X132112580Y-71630000D01*
%TO.C,C18*%
X145061420Y-61480000D02*
X145342580Y-61480000D01*
X145061420Y-62500000D02*
X145342580Y-62500000D01*
%TO.C,C4*%
X111492420Y-109476000D02*
X111773580Y-109476000D01*
X111492420Y-108456000D02*
X111773580Y-108456000D01*
%TO.C,C12*%
X135841420Y-68100000D02*
X136122580Y-68100000D01*
X135841420Y-69120000D02*
X136122580Y-69120000D01*
%TO.C,C16*%
X127821420Y-68100000D02*
X128102580Y-68100000D01*
X127821420Y-69120000D02*
X128102580Y-69120000D01*
%TO.C,D16*%
X143757000Y-48055000D02*
X151057000Y-48055000D01*
X151057000Y-53555000D02*
X151057000Y-52405000D01*
X143757000Y-53555000D02*
X151057000Y-53555000D01*
%TO.C,D7*%
X125797000Y-66795000D02*
X125797000Y-65645000D01*
X118497000Y-61295000D02*
X125797000Y-61295000D01*
X118497000Y-66795000D02*
X125797000Y-66795000D01*
%TO.C,U1*%
X91231124Y-89845565D02*
X91567000Y-89509689D01*
X96672311Y-94615000D02*
X96336435Y-94279124D01*
X91567000Y-89509689D02*
X91902876Y-89845565D01*
X91902876Y-99384435D02*
X91567000Y-99720311D01*
X91567000Y-99720311D02*
X91231124Y-99384435D01*
X86797565Y-94279124D02*
X86461689Y-94615000D01*
X96336435Y-94950876D02*
X96672311Y-94615000D01*
%TO.C,C10*%
X131831420Y-68100000D02*
X132112580Y-68100000D01*
X131831420Y-69120000D02*
X132112580Y-69120000D01*
%TO.C,D9*%
X118497000Y-54675000D02*
X125797000Y-54675000D01*
X125797000Y-60175000D02*
X125797000Y-59025000D01*
X118497000Y-60175000D02*
X125797000Y-60175000D01*
%TO.C,D1*%
X90477000Y-106774000D02*
X90477000Y-99474000D01*
X84977000Y-106774000D02*
X84977000Y-99474000D01*
X90477000Y-99474000D02*
X89327000Y-99474000D01*
%TO.C,D2*%
X92597000Y-106774000D02*
X92597000Y-99474000D01*
X98097000Y-99474000D02*
X96947000Y-99474000D01*
X98097000Y-106774000D02*
X98097000Y-99474000D01*
%TO.C,D17*%
X126917000Y-53555000D02*
X134217000Y-53555000D01*
X126917000Y-48055000D02*
X134217000Y-48055000D01*
X134217000Y-53555000D02*
X134217000Y-52405000D01*
%TO.C,D5*%
X122384000Y-99474000D02*
X121234000Y-99474000D01*
X116884000Y-106774000D02*
X116884000Y-99474000D01*
X122384000Y-106774000D02*
X122384000Y-99474000D01*
%TO.C,C3*%
X103364420Y-108456000D02*
X103645580Y-108456000D01*
X103364420Y-109476000D02*
X103645580Y-109476000D01*
%TO.C,D11*%
X126917000Y-54675000D02*
X134217000Y-54675000D01*
X126917000Y-60175000D02*
X134217000Y-60175000D01*
X134217000Y-60175000D02*
X134217000Y-59025000D01*
%TO.C,C17*%
X127821420Y-70610000D02*
X128102580Y-70610000D01*
X127821420Y-71630000D02*
X128102580Y-71630000D01*
%TO.C,D8*%
X159477000Y-53555000D02*
X159477000Y-52405000D01*
X152177000Y-53555000D02*
X159477000Y-53555000D01*
X152177000Y-48055000D02*
X159477000Y-48055000D01*
%TO.C,C15*%
X123811420Y-69120000D02*
X124092580Y-69120000D01*
X123811420Y-68100000D02*
X124092580Y-68100000D01*
%TO.C,R1*%
X82818500Y-103297258D02*
X82818500Y-102822742D01*
X81773500Y-103297258D02*
X81773500Y-102822742D01*
%TO.C,C6*%
X128172420Y-109476000D02*
X128453580Y-109476000D01*
X128172420Y-108456000D02*
X128453580Y-108456000D01*
%TO.C,C2*%
X94952420Y-109476000D02*
X95233580Y-109476000D01*
X94952420Y-108456000D02*
X95233580Y-108456000D01*
%TO.C,D15*%
X118497000Y-48055000D02*
X125797000Y-48055000D01*
X125797000Y-53555000D02*
X125797000Y-52405000D01*
X118497000Y-53555000D02*
X125797000Y-53555000D01*
%TO.C,D3*%
X106255000Y-99474000D02*
X105105000Y-99474000D01*
X106255000Y-106774000D02*
X106255000Y-99474000D01*
X100755000Y-106774000D02*
X100755000Y-99474000D01*
%TO.C,C1*%
X87459420Y-108456000D02*
X87740580Y-108456000D01*
X87459420Y-109476000D02*
X87740580Y-109476000D01*
%TO.C,C9*%
X119801420Y-68100000D02*
X120082580Y-68100000D01*
X119801420Y-69120000D02*
X120082580Y-69120000D01*
%TO.C,C11*%
X153481420Y-54860000D02*
X153762580Y-54860000D01*
X153481420Y-55880000D02*
X153762580Y-55880000D01*
%TO.C,D14*%
X134217000Y-66795000D02*
X134217000Y-65645000D01*
X126917000Y-66795000D02*
X134217000Y-66795000D01*
X126917000Y-61295000D02*
X134217000Y-61295000D01*
%TO.C,C5*%
X119523420Y-109476000D02*
X119804580Y-109476000D01*
X119523420Y-108456000D02*
X119804580Y-108456000D01*
%TO.C,D6*%
X130893000Y-99347000D02*
X129743000Y-99347000D01*
X125393000Y-106647000D02*
X125393000Y-99347000D01*
X130893000Y-106647000D02*
X130893000Y-99347000D01*
%TO.C,C7*%
X123811420Y-71630000D02*
X124092580Y-71630000D01*
X123811420Y-70610000D02*
X124092580Y-70610000D01*
%TO.C,D12*%
X135337000Y-61295000D02*
X142637000Y-61295000D01*
X142637000Y-66795000D02*
X142637000Y-65645000D01*
X135337000Y-66795000D02*
X142637000Y-66795000D01*
%TO.C,D4*%
X114002000Y-99474000D02*
X112852000Y-99474000D01*
X108502000Y-106774000D02*
X108502000Y-99474000D01*
X114002000Y-106774000D02*
X114002000Y-99474000D01*
%TD*%
M02*
